999
dxflib 3.17.0.0
  0
SECTION
  2
HEADER
  9
$ACADVER
  1
AC1015
  9
$HANDSEED
  5
FFFF
  9
$AUNITS
 70
0
  9
$AUPREC
 70
2
  9
$DIMADEC
 70
2
  9
$DIMASZ
 40
1.5
  9
$DIMAUNIT
 70
0
  9
$DIMAZIN
 70
0
  9
$DIMDEC
 70
4
  9
$DIMDSEP
 70
46
  9
$DIMEXE
 40
1.25
  9
$DIMEXO
 40
0.625
  9
$DIMGAP
 40
0.625
  9
$DIMLUNIT
 70
2
  9
$DIMSCALE
 40
1.0
  9
$DIMTSZ
 40
0.0
  9
$DIMTXT
 40
2.5
  9
$DIMZIN
 70
8
  9
$DWGCODEPAGE
  3
ANSI_1252
  9
$INSUNITS
 70
4
  9
$LTSCALE
 40
1.0
  9
$LUNITS
 70
2
  9
$LUPREC
 70
4
  9
$MAXACTVP
 70
32
  9
$MEASUREMENT
 70
1
  9
$PDMODE
 70
0
  9
$PDSIZE
 40
0
  9
$PLIMMAX
 10
210.0
 20
297.0
  9
$PLIMMIN
 10
0.0
 20
0.0
  9
$SPLINESEGS
 70
8
  0
ENDSEC
  0
SECTION
  2
TABLES
  0
TABLE
  2
VPORT
  5
8
100
AcDbSymbolTable
 70
1
  0
VPORT
  5
30
100
AcDbSymbolTableRecord
100
AcDbViewportTableRecord
  2
*Active
 70
0
 10
0.0
 20
0.0
 11
1.0
 21
1.0
 12
286.3055555555554861
 22
148.5
 13
0.0
 23
0.0
 14
10.0
 24
10.0
 15
10.0
 25
10.0
 16
0.0
 26
0.0
 36
1.0
 17
0.0
 27
0.0
 37
0.0
 40
297.0
 41
1.92798353909465
 42
50.0
 43
0.0
 44
0.0
 50
0.0
 51
0.0
 71
0
 72
100
 73
1
 74
3
 75
1
 76
1
 77
0
 78
0
281
0
 65
1
110
0.0
120
0.0
130
0.0
111
1.0
121
0.0
131
0.0
112
0.0
122
1.0
132
0.0
 79
0
146
0.0
  0
ENDTAB
  0
TABLE
  2
LTYPE
  5
5
100
AcDbSymbolTable
 70
41
  0
LTYPE
  5
16
100
AcDbSymbolTableRecord
100
AcDbLinetypeTableRecord
  2
CONTINUOUS
 70
0
  3
Solid line
 72
65
 73
0
 40
0.0
  0
LTYPE
  5
31
100
AcDbSymbolTableRecord
100
AcDbLinetypeTableRecord
  2
ACAD_ISO15W100
 70
0
  3
ISO double-dash triple-dot __ __ . . . __ __ . .
 72
65
 73
10
 40
39.0000000000000071
 49
12.0
 74
0
 49
-3.0
 74
0
 49
12.0
 74
0
 49
-2.9500000000000002
 74
0
 49
0.1
 74
0
 49
-2.9000000000000004
 74
0
 49
0.1
 74
0
 49
-2.9000000000000004
 74
0
 49
0.1
 74
0
 49
-2.9500000000000002
 74
0
  0
LTYPE
  5
32
100
AcDbSymbolTableRecord
100
AcDbLinetypeTableRecord
  2
DIVIDE
 70
0
  3
Divide ____ . . ____ . . ____ . . ____ . . ____
 72
65
 73
6
 40
31.7500000000000036
 49
12.6999999999999993
 74
0
 49
-6.2999999999999998
 74
0
 49
0.1
 74
0
 49
-6.25
 74
0
 49
0.1
 74
0
 49
-6.2999999999999998
 74
0
  0
LTYPE
  5
33
100
AcDbSymbolTableRecord
100
AcDbLinetypeTableRecord
  2
ACAD_ISO10W100
 70
0
  3
ISO dash dot __ . __ . __ . __ . __ . __ . __ . 
 72
65
 73
4
 40
18.0
 49
12.0
 74
0
 49
-2.9500000000000002
 74
0
 49
0.1
 74
0
 49
-2.9500000000000002
 74
0
  0
LTYPE
  5
34
100
AcDbSymbolTableRecord
100
AcDbLinetypeTableRecord
  2
ACAD_ISO04W100
 70
0
  3
ISO long-dash dot ____ . ____ . ____ . ____ . _
 72
65
 73
4
 40
30.0
 49
24.0
 74
0
 49
-2.9500000000000002
 74
0
 49
0.1
 74
0
 49
-2.9500000000000002
 74
0
  0
LTYPE
  5
14
100
AcDbSymbolTableRecord
100
AcDbLinetypeTableRecord
  2
ByBlock
 70
0
  3

 72
65
 73
0
 40
0.0
  0
LTYPE
  5
35
100
AcDbSymbolTableRecord
100
AcDbLinetypeTableRecord
  2
CENTER2
 70
0
  3
Center (.5x) ___ _ ___ _ ___ _ ___ _ ___ _ ___
 72
65
 73
4
 40
28.5750000000000028
 49
19.0500000000000007
 74
0
 49
-3.1749999999999998
 74
0
 49
3.1749999999999998
 74
0
 49
-3.1749999999999998
 74
0
  0
LTYPE
  5
36
100
AcDbSymbolTableRecord
100
AcDbLinetypeTableRecord
  2
ACAD_ISO11W100
 70
0
  3
ISO double-dash dot __ __ . __ __ . __ __ . __ _
 72
65
 73
6
 40
33.0
 49
12.0
 74
0
 49
-3.0
 74
0
 49
12.0
 74
0
 49
-2.9500000000000002
 74
0
 49
0.1
 74
0
 49
-2.9500000000000002
 74
0
  0
LTYPE
  5
37
100
AcDbSymbolTableRecord
100
AcDbLinetypeTableRecord
  2
HIDDEN2
 70
0
  3
Hidden (.5x) _ _ _ _ _ _ _ _ _ _ _ _ _ _ _ _ _ 
 72
65
 73
2
 40
4.7624999999999993
 49
3.1749999999999998
 74
0
 49
-1.5874999999999999
 74
0
  0
LTYPE
  5
38
100
AcDbSymbolTableRecord
100
AcDbLinetypeTableRecord
  2
BORDERX2
 70
0
  3
Border (2x) ____  ____  .  ____  ____  .  ___
 72
65
 73
6
 40
88.8999999999999773
 49
25.3999999999999986
 74
0
 49
-12.6999999999999993
 74
0
 49
25.3999999999999986
 74
0
 49
-12.6499999999999986
 74
0
 49
0.1
 74
0
 49
-12.6499999999999986
 74
0
  0
LTYPE
  5
39
100
AcDbSymbolTableRecord
100
AcDbLinetypeTableRecord
  2
ACAD_ISO05W100
 70
0
  3
ISO long-dash double-dot ____ .. ____ .. ____ . 
 72
65
 73
6
 40
33.0000000000000071
 49
24.0
 74
0
 49
-2.9500000000000002
 74
0
 49
0.1
 74
0
 49
-2.9000000000000004
 74
0
 49
0.1
 74
0
 49
-2.9500000000000002
 74
0
  0
LTYPE
  5
3A
100
AcDbSymbolTableRecord
100
AcDbLinetypeTableRecord
  2
DASHDOTX2
 70
0
  3
Dash dot (2x) ____  .  ____  .  ____  .  ___
 72
65
 73
4
 40
50.7999999999999972
 49
25.3999999999999986
 74
0
 49
-12.6499999999999986
 74
0
 49
0.1
 74
0
 49
-12.6499999999999986
 74
0
  0
LTYPE
  5
3B
100
AcDbSymbolTableRecord
100
AcDbLinetypeTableRecord
  2
HIDDENX2
 70
0
  3
Hidden (2x) ____ ____ ____ ____ ____ ____ ____ 
 72
65
 73
2
 40
19.0499999999999972
 49
12.6999999999999993
 74
0
 49
-6.3499999999999996
 74
0
  0
LTYPE
  5
3C
100
AcDbSymbolTableRecord
100
AcDbLinetypeTableRecord
  2
CENTERX2
 70
0
  3
Center (2x) ________  __  ________  __  _____
 72
65
 73
4
 40
101.6000000000000085
 49
63.5
 74
0
 49
-12.6999999999999993
 74
0
 49
12.6999999999999993
 74
0
 49
-12.6999999999999993
 74
0
  0
LTYPE
  5
3D
100
AcDbSymbolTableRecord
100
AcDbLinetypeTableRecord
  2
BORDER2
 70
0
  3
Border (.5x) __.__.__.__.__.__.__.__.__.__.__.
 72
65
 73
6
 40
22.2250000000000014
 49
6.3499999999999996
 74
0
 49
-3.1749999999999998
 74
0
 49
6.3499999999999996
 74
0
 49
-3.125
 74
0
 49
0.1
 74
0
 49
-3.125
 74
0
  0
LTYPE
  5
3E
100
AcDbSymbolTableRecord
100
AcDbLinetypeTableRecord
  2
DASHDOT2
 70
0
  3
Dash dot (.5x) _._._._._._._._._._._._._._._.
 72
65
 73
4
 40
12.6999999999999993
 49
6.3499999999999996
 74
0
 49
-3.125
 74
0
 49
0.1
 74
0
 49
-3.125
 74
0
  0
LTYPE
  5
3F
100
AcDbSymbolTableRecord
100
AcDbLinetypeTableRecord
  2
ACAD_ISO12W100
 70
0
  3
ISO dash double-dot __ . . __ . . __ . . __ . . 
 72
65
 73
6
 40
21.0
 49
12.0
 74
0
 49
-2.9500000000000002
 74
0
 49
0.1
 74
0
 49
-2.9000000000000004
 74
0
 49
0.1
 74
0
 49
-2.9500000000000002
 74
0
  0
LTYPE
  5
40
100
AcDbSymbolTableRecord
100
AcDbLinetypeTableRecord
  2
ACAD_ISO07W100
 70
0
  3
ISO dot . . . . . . . . . . . . . . . . . . . . 
 72
65
 73
2
 40
3.0
 49
0.1
 74
0
 49
-2.8999999999999999
 74
0
  0
LTYPE
  5
41
100
AcDbSymbolTableRecord
100
AcDbLinetypeTableRecord
  2
HIDDEN
 70
0
  3
Hidden __ __ __ __ __ __ __ __ __ __ __ __ __ __
 72
65
 73
2
 40
9.5249999999999986
 49
6.3499999999999996
 74
0
 49
-3.1749999999999998
 74
0
  0
LTYPE
  5
42
100
AcDbSymbolTableRecord
100
AcDbLinetypeTableRecord
  2
ACAD_ISO06W100
 70
0
  3
ISO long-dash triple-dot ____ ... ____ ... ____
 72
65
 73
8
 40
36.0000000000000071
 49
24.0
 74
0
 49
-2.9500000000000002
 74
0
 49
0.1
 74
0
 49
-2.9000000000000004
 74
0
 49
0.1
 74
0
 49
-2.9000000000000004
 74
0
 49
0.1
 74
0
 49
-2.9500000000000002
 74
0
  0
LTYPE
  5
43
100
AcDbSymbolTableRecord
100
AcDbLinetypeTableRecord
  2
CENTER
 70
0
  3
Center ____ _ ____ _ ____ _ ____ _ ____ _ ____
 72
65
 73
4
 40
50.8000000000000043
 49
31.75
 74
0
 49
-6.3499999999999996
 74
0
 49
6.3499999999999996
 74
0
 49
-6.3499999999999996
 74
0
  0
LTYPE
  5
44
100
AcDbSymbolTableRecord
100
AcDbLinetypeTableRecord
  2
DOTX2
 70
0
  3
Dot (2x) .  .  .  .  .  .  .  .  .  .  .  .  .
 72
65
 73
2
 40
12.6999999999999993
 49
0.1
 74
0
 49
-12.5999999999999996
 74
0
  0
LTYPE
  5
45
100
AcDbSymbolTableRecord
100
AcDbLinetypeTableRecord
  2
PHANTOM
 70
0
  3
Phantom ______  __  __  ______  __  __  ______ 
 72
65
 73
6
 40
63.5000000000000071
 49
31.75
 74
0
 49
-6.3499999999999996
 74
0
 49
6.3499999999999996
 74
0
 49
-6.3499999999999996
 74
0
 49
6.3499999999999996
 74
0
 49
-6.3499999999999996
 74
0
  0
LTYPE
  5
46
100
AcDbSymbolTableRecord
100
AcDbLinetypeTableRecord
  2
ACAD_ISO08W100
 70
0
  3
ISO long-dash short-dash ____ __ ____ __ ____ _
 72
65
 73
4
 40
36.0
 49
24.0
 74
0
 49
-3.0
 74
0
 49
6.0
 74
0
 49
-3.0
 74
0
  0
LTYPE
  5
47
100
AcDbSymbolTableRecord
100
AcDbLinetypeTableRecord
  2
DASHEDX2
 70
0
  3
Dashed (2x) ____  ____  ____  ____  ____  ___
 72
65
 73
2
 40
38.0999999999999943
 49
25.3999999999999986
 74
0
 49
-12.6999999999999993
 74
0
  0
LTYPE
  5
48
100
AcDbSymbolTableRecord
100
AcDbLinetypeTableRecord
  2
ACAD_ISO02W100
 70
0
  3
ISO dash __ __ __ __ __ __ __ __ __ __ __ __ __
 72
65
 73
2
 40
15.0
 49
12.0
 74
0
 49
-3.0
 74
0
  0
LTYPE
  5
49
100
AcDbSymbolTableRecord
100
AcDbLinetypeTableRecord
  2
PHANTOM2
 70
0
  3
Phantom (.5x) ___ _ _ ___ _ _ ___ _ _ ___ _ _
 72
65
 73
6
 40
31.7500000000000036
 49
15.875
 74
0
 49
-3.1749999999999998
 74
0
 49
3.1749999999999998
 74
0
 49
-3.1749999999999998
 74
0
 49
3.1749999999999998
 74
0
 49
-3.1749999999999998
 74
0
  0
LTYPE
  5
4A
100
AcDbSymbolTableRecord
100
AcDbLinetypeTableRecord
  2
DASHED2
 70
0
  3
Dashed (.5x) _ _ _ _ _ _ _ _ _ _ _ _ _ _ _ _ _
 72
65
 73
2
 40
9.5249999999999986
 49
6.3499999999999996
 74
0
 49
-3.1749999999999998
 74
0
  0
LTYPE
  5
4B
100
AcDbSymbolTableRecord
100
AcDbLinetypeTableRecord
  2
ACAD_ISO09W100
 70
0
  3
ISO long-dash double-short-dash ____ __ __ ____
 72
65
 73
6
 40
45.0
 49
24.0
 74
0
 49
-3.0
 74
0
 49
6.0
 74
0
 49
-3.0
 74
0
 49
6.0
 74
0
 49
-3.0
 74
0
  0
LTYPE
  5
4C
100
AcDbSymbolTableRecord
100
AcDbLinetypeTableRecord
  2
ACAD_ISO13W100
 70
0
  3
ISO double-dash double-dot __ __ . . __ __ . . _
 72
65
 73
8
 40
36.0000000000000071
 49
12.0
 74
0
 49
-3.0
 74
0
 49
12.0
 74
0
 49
-2.9500000000000002
 74
0
 49
0.1
 74
0
 49
-2.9000000000000004
 74
0
 49
0.1
 74
0
 49
-2.9500000000000002
 74
0
  0
LTYPE
  5
4D
100
AcDbSymbolTableRecord
100
AcDbLinetypeTableRecord
  2
DOT2
 70
0
  3
Dot (.5x) .....................................
 72
65
 73
2
 40
3.1749999999999998
 49
0.1
 74
0
 49
-3.0749999999999997
 74
0
  0
LTYPE
  5
4E
100
AcDbSymbolTableRecord
100
AcDbLinetypeTableRecord
  2
DASHED
 70
0
  3
Dashed __ __ __ __ __ __ __ __ __ __ __ __ __ _
 72
65
 73
2
 40
19.0499999999999972
 49
12.6999999999999993
 74
0
 49
-6.3499999999999996
 74
0
  0
LTYPE
  5
4F
100
AcDbSymbolTableRecord
100
AcDbLinetypeTableRecord
  2
ACAD_ISO14W100
 70
0
  3
ISO dash triple-dot __ . . . __ . . . __ . . . _
 72
65
 73
8
 40
24.0000000000000036
 49
12.0
 74
0
 49
-2.9500000000000002
 74
0
 49
0.1
 74
0
 49
-2.9000000000000004
 74
0
 49
0.1
 74
0
 49
-2.9000000000000004
 74
0
 49
0.1
 74
0
 49
-2.9500000000000002
 74
0
  0
LTYPE
  5
50
100
AcDbSymbolTableRecord
100
AcDbLinetypeTableRecord
  2
PHANTOMX2
 70
0
  3
Phantom (2x) ____________    ____    ____   _
 72
65
 73
6
 40
127.0000000000000142
 49
63.5
 74
0
 49
-12.6999999999999993
 74
0
 49
12.6999999999999993
 74
0
 49
-12.6999999999999993
 74
0
 49
12.6999999999999993
 74
0
 49
-12.6999999999999993
 74
0
  0
LTYPE
  5
51
100
AcDbSymbolTableRecord
100
AcDbLinetypeTableRecord
  2
DIVIDEX2
 70
0
  3
Divide (2x) ________  .  .  ________  .  .  _
 72
65
 73
6
 40
63.5
 49
25.3999999999999986
 74
0
 49
-12.6499999999999986
 74
0
 49
0.1
 74
0
 49
-12.5999999999999979
 74
0
 49
0.1
 74
0
 49
-12.6499999999999986
 74
0
  0
LTYPE
  5
52
100
AcDbSymbolTableRecord
100
AcDbLinetypeTableRecord
  2
BORDER
 70
0
  3
Border __ __ . __ __ . __ __ . __ __ . __ __ .
 72
65
 73
6
 40
44.4499999999999957
 49
12.6999999999999993
 74
0
 49
-6.3499999999999996
 74
0
 49
12.6999999999999993
 74
0
 49
-6.2999999999999998
 74
0
 49
0.1
 74
0
 49
-6.2999999999999998
 74
0
  0
LTYPE
  5
53
100
AcDbSymbolTableRecord
100
AcDbLinetypeTableRecord
  2
DIVIDE2
 70
0
  3
Divide (.5x) __..__..__..__..__..__..__..__.._
 72
65
 73
6
 40
15.8749999999999982
 49
6.3499999999999996
 74
0
 49
-3.125
 74
0
 49
0.1
 74
0
 49
-3.0750000000000002
 74
0
 49
0.1
 74
0
 49
-3.125
 74
0
  0
LTYPE
  5
54
100
AcDbSymbolTableRecord
100
AcDbLinetypeTableRecord
  2
DOT
 70
0
  3
Dot . . . . . . . . . . . . . . . . . . . . . .
 72
65
 73
2
 40
6.3499999999999996
 49
0.1
 74
0
 49
-6.25
 74
0
  0
LTYPE
  5
55
100
AcDbSymbolTableRecord
100
AcDbLinetypeTableRecord
  2
DASHDOT
 70
0
  3
Dash dot __ . __ . __ . __ . __ . __ . __ . __
 72
65
 73
4
 40
25.4000000000000021
 49
12.6999999999999993
 74
0
 49
-6.2999999999999998
 74
0
 49
0.1
 74
0
 49
-6.2999999999999998
 74
0
  0
LTYPE
  5
56
100
AcDbSymbolTableRecord
100
AcDbLinetypeTableRecord
  2
ACAD_ISO03W100
 70
0
  3
ISO dash space __    __    __    __    __    __
 72
65
 73
2
 40
30.0
 49
12.0
 74
0
 49
-18.0
 74
0
  0
LTYPE
  5
15
100
AcDbSymbolTableRecord
100
AcDbLinetypeTableRecord
  2
ByLayer
 70
0
  3

 72
65
 73
0
 40
0.0
  0
ENDTAB
  0
TABLE
  2
LAYER
  5
2
100
AcDbSymbolTable
 70
6
  0
LAYER
  5
57
100
AcDbSymbolTableRecord
100
AcDbLayerTableRecord
  2
help
 70
0
 62
4
420
65535
  6
DASHED
370
0
390
F
  0
LAYER
  5
58
100
AcDbSymbolTableRecord
100
AcDbLayerTableRecord
  2
under
 70
0
 62
7
420
16777215
  6
DASHED2
370
5
390
F
  0
LAYER
  5
59
100
AcDbSymbolTableRecord
100
AcDbLayerTableRecord
  2
dims
 70
0
 62
5
420
255
  6
CONTINUOUS
370
5
390
F
  0
LAYER
  5
10
100
AcDbSymbolTableRecord
100
AcDbLayerTableRecord
  2
0
 70
0
 62
7
420
16777215
  6
CONTINUOUS
370
5
390
F
  0
LAYER
  5
5A
100
AcDbSymbolTableRecord
100
AcDbLayerTableRecord
  2
top
 70
0
 62
7
420
0
  6
DOTX2
370
5
390
F
  0
LAYER
  5
5B
100
AcDbSymbolTableRecord
100
AcDbLayerTableRecord
  2
axis
 70
0
 62
1
420
16711680
  6
DASHDOTX2
370
5
390
F
  0
ENDTAB
  0
TABLE
  2
STYLE
  5
3
100
AcDbSymbolTable
 70
1
  0
STYLE
  5
5C
100
AcDbSymbolTableRecord
100
AcDbTextStyleTableRecord
  2
Standard
 70
0
 40
0.0
 41
1.0
 50
0.0
 71
0
 42
2.5
  3

  4

1001
ACAD
1000
txt
1071
0
  0
ENDTAB
  0
TABLE
  2
VIEW
  5
6
100
AcDbSymbolTable
 70
0
  0
ENDTAB
  0
TABLE
  2
UCS
  5
7
100
AcDbSymbolTable
 70
0
  0
ENDTAB
  0
TABLE
  2
APPID
  5
9
100
AcDbSymbolTable
 70
1
  0
APPID
  5
12
100
AcDbSymbolTableRecord
100
AcDbRegAppTableRecord
  2
ACAD
 70
0
  0
APPID
  5
5D
100
AcDbSymbolTableRecord
100
AcDbRegAppTableRecord
  2
QCAD
 70
0
  0
ENDTAB
  0
TABLE
  2
DIMSTYLE
  5
A
100
AcDbSymbolTable
 70
1
100
AcDbDimStyleTable
 71
0
  0
DIMSTYLE
105
27
100
AcDbSymbolTableRecord
100
AcDbDimStyleTableRecord
  2
Standard
 41
1.5
 42
0.625
 43
3.75
 44
1.25
 70
0
 73
0
 74
0
 77
1
 78
8
140
2.5
141
2.5
143
0.03937007874016
147
0.625
171
3
172
1
271
2
272
2
274
3
278
44
283
0
284
8
340
5C
  0
ENDTAB
  0
TABLE
  2
BLOCK_RECORD
  5
1
100
AcDbSymbolTable
 70
1
  0
BLOCK_RECORD
  5
1F
100
AcDbSymbolTableRecord
100
AcDbBlockTableRecord
  2
*Model_Space
340
22
  0
BLOCK_RECORD
  5
1B
100
AcDbSymbolTableRecord
100
AcDbBlockTableRecord
  2
*Paper_Space
340
1E
  0
BLOCK_RECORD
  5
23
100
AcDbSymbolTableRecord
100
AcDbBlockTableRecord
  2
*Paper_Space0
340
26
  0
ENDTAB
  0
ENDSEC
  0
SECTION
  2
BLOCKS
  0
BLOCK
  5
20
100
AcDbEntity
  8
0
100
AcDbBlockBegin
  2
*Model_Space
 70
0
 10
0.0
 20
0.0
 30
0.0
  3
*Model_Space
  1

  0
ENDBLK
  5
21
100
AcDbEntity
  8
0
100
AcDbBlockEnd
  0
BLOCK
  5
1C
100
AcDbEntity
 67
1
  8
0
100
AcDbBlockBegin
  2
*Paper_Space
 70
0
 10
0.0
 20
0.0
 30
0.0
  3
*Paper_Space
  1

  0
ENDBLK
  5
1D
100
AcDbEntity
 67
1
  8
0
100
AcDbBlockEnd
  0
BLOCK
  5
24
100
AcDbEntity
  8
0
100
AcDbBlockBegin
  2
*Paper_Space0
 70
0
 10
0.0
 20
0.0
 30
0.0
  3
*Paper_Space0
  1

  0
ENDBLK
  5
25
100
AcDbEntity
  8
0
100
AcDbBlockEnd
  0
ENDSEC
  0
SECTION
  2
ENTITIES
  0
HATCH
  5
5E
100
AcDbEntity
  8
0
 62
256
370
-1
 48
1.0
  6
ByLayer
100
AcDbHatch
 10
0.0
 20
0.0
 30
0.0
210
0.0
220
0.0
230
1.0
  2
ANSI31
 70
0
 71
0
 91
1
 92
1
 93
4
 72
1
 10
197.5000000000000284
 20
168.5000000000000284
 11
197.5000000000000284
 21
167.5000000000000284
 72
1
 10
197.5000000000000284
 20
167.5000000000000284
 11
199.5000000000000284
 21
167.5000000000000284
 72
1
 10
199.5000000000000284
 20
167.5000000000000284
 11
199.5000000000000284
 21
168.5000000000000284
 72
1
 10
199.5000000000000284
 20
168.5000000000000284
 11
197.5000000000000284
 21
168.5000000000000284
 97
0
 75
0
 76
1
 52
0.0
 41
0.0445421594448219
 77
0
 78
1
 53
45.0
 43
0.0
 44
0.0
 45
-0.0883883476483184
 46
0.0883883476483185
 79
0
 98
0
1001
ACAD
1010
0.0
1020
0.0
1030
0
  0
HATCH
  5
5F
100
AcDbEntity
  8
0
 62
256
370
-1
 48
1.0
  6
ByLayer
100
AcDbHatch
 10
0.0
 20
0.0
 30
0.0
210
0.0
220
0.0
230
1.0
  2
ANSI31
 70
0
 71
0
 91
1
 92
1
 93
4
 72
1
 10
200.5000000000000284
 20
167.5
 11
200.5000000000000284
 21
168.5
 72
1
 10
200.5000000000000284
 20
168.5000000000000284
 11
202.5000000000000284
 21
168.5000000000000284
 72
1
 10
202.5000000000000284
 20
168.5000000000000284
 11
202.5000000000000284
 21
167.5000000000000284
 72
1
 10
202.5000000000000284
 20
167.5000000000000284
 11
200.5000000000000284
 21
167.5000000000000284
 97
0
 75
0
 76
1
 52
0.0
 41
0.0445421594448219
 77
0
 78
1
 53
45.0
 43
0.0
 44
0.0
 45
-0.0883883476483184
 46
0.0883883476483185
 79
0
 98
0
1001
ACAD
1010
0.0
1020
0.0
1030
0
  0
HATCH
  5
60
100
AcDbEntity
  8
0
 62
256
370
-1
 48
1.0
  6
ByLayer
100
AcDbHatch
 10
0.0
 20
0.0
 30
0.0
210
0.0
220
0.0
230
1.0
  2
ANSI31
 70
0
 71
0
 91
1
 92
1
 93
6
 72
1
 10
197.0000000000000568
 20
173.5000000000000284
 11
197.0000000000000284
 21
168.5000000000000568
 72
1
 10
197.0000000000000284
 20
168.5000000000000568
 11
199.5000000000000284
 21
168.5000000000000568
 72
1
 10
199.5000000000000284
 20
168.5000000000000284
 11
199.5000000000000284
 21
169.5000000000000284
 72
1
 10
199.5000000000000284
 20
169.5000000000000284
 11
198.0000000000000568
 21
169.5000000000000284
 72
1
 10
198.0000000000000568
 20
169.5000000000000284
 11
198.0000000000000568
 21
173.5000000000000284
 72
1
 10
198.0000000000000568
 20
173.5000000000000284
 11
197.0000000000000568
 21
173.5000000000000284
 97
0
 75
0
 76
1
 52
5156.6201561774087168
 41
0.0556776993060274
 77
0
 78
1
 53
45.0
 43
0.0
 44
0.0
 45
-0.0883883476483184
 46
0.0883883476483185
 79
0
 98
0
1001
ACAD
1010
0.0
1020
0.0
1030
0
  0
HATCH
  5
61
100
AcDbEntity
  8
0
 62
256
370
-1
 48
1.0
  6
ByLayer
100
AcDbHatch
 10
0.0
 20
0.0
 30
0.0
210
0.0
220
0.0
230
1.0
  2
ANSI31
 70
0
 71
0
 91
1
 92
1
 93
4
 72
1
 10
202.0000000000000568
 20
168.5000000000000568
 11
202.0000000000000568
 21
169.5000000000000568
 72
1
 10
202.0000000000000568
 20
169.5000000000000284
 11
200.5000000000000284
 21
169.5000000000000284
 72
1
 10
200.5000000000000284
 20
169.5
 11
200.5000000000000284
 21
168.5
 72
1
 10
200.5000000000000284
 20
168.5000000000000568
 11
202.0000000000000568
 21
168.5000000000000568
 97
0
 75
0
 76
1
 52
5156.6201561774087168
 41
0.0556776993060274
 77
0
 78
1
 53
45.0
 43
0.0
 44
0.0
 45
-0.0883883476483184
 46
0.0883883476483185
 79
0
 98
0
1001
ACAD
1010
0.0
1020
0.0
1030
0
  0
HATCH
  5
62
100
AcDbEntity
  8
0
 62
256
370
-1
 48
1.0
  6
ByLayer
100
AcDbHatch
 10
0.0
 20
0.0
 30
0.0
210
0.0
220
0.0
230
1.0
  2
ANSI31
 70
0
 71
0
 91
1
 92
1
 93
4
 72
1
 10
461.9999999999998863
 20
-1.2000000000000597
 11
487.0
 21
-1.199999999999946
 72
1
 10
487.0
 20
-1.199999999999946
 11
486.9999999999999432
 21
5.2999999999999261
 72
1
 10
486.9999999999999432
 20
5.2999999999999261
 11
461.9999999999998863
 21
5.2999999999999829
 72
1
 10
461.9999999999999432
 20
5.2999999999999403
 11
461.9999999999998863
 21
-1.2000000000000597
 97
0
 75
0
 76
1
 52
5156.6201561774087168
 41
0.445421594448219
 77
0
 78
1
 53
45.0
 43
0.0
 44
0.0
 45
-0.0883883476483184
 46
0.0883883476483185
 79
0
 98
0
1001
ACAD
1010
0.0
1020
0.0
1030
0
  0
HATCH
  5
63
100
AcDbEntity
  8
0
 62
256
370
-1
 48
1.0
  6
ByLayer
100
AcDbHatch
 10
0.0
 20
0.0
 30
0.0
210
0.0
220
0.0
230
1.0
  2
ANSI31
 70
0
 71
0
 91
1
 92
1
 93
4
 72
1
 10
462.0
 20
201.1999999999999886
 11
487.0
 21
201.1999999999999886
 72
1
 10
487.0
 20
201.1999999999999886
 11
487.0
 21
194.6999999999999886
 72
1
 10
487.0
 20
194.6999999999999886
 11
461.9999999999999432
 21
194.6999999999999886
 72
1
 10
462.0
 20
194.6999999999999886
 11
462.0
 21
201.1999999999999886
 97
0
 75
0
 76
1
 52
5156.6199999999998909
 41
1.0
 77
0
 78
1
 53
45.0
 43
0.0
 44
0.0
 45
-0.0883883476483184
 46
0.0883883476483185
 79
0
 98
0
1001
ACAD
1010
0.0
1020
0.0
1030
0
  0
HATCH
  5
64
100
AcDbEntity
  8
0
 62
256
370
-1
 48
1.0
  6
ByLayer
100
AcDbHatch
 10
0.0
 20
0.0
 30
0.0
210
0.0
220
0.0
230
1.0
  2
ANSI31
 70
0
 71
0
 91
1
 92
1
 93
4
 72
1
 10
462.0
 20
61.5000000000000355
 11
462.0
 21
50.4999999999999574
 72
1
 10
462.0
 20
50.4999999999999645
 11
458.9999999999998863
 21
50.4999999999999289
 72
1
 10
458.9999999999998863
 20
50.4999999999999289
 11
458.9999999999999432
 21
61.5000000000000071
 72
1
 10
458.9999999999999432
 20
61.5000000000000071
 11
462.0
 21
61.5000000000000355
 97
0
 75
0
 76
1
 52
0.0
 41
0.0890843188896438
 77
0
 78
1
 53
45.0
 43
0.0
 44
0.0
 45
-0.0883883476483184
 46
0.0883883476483185
 79
0
 98
0
1001
ACAD
1010
0.0
1020
0.0
1030
0
  0
HATCH
  5
65
100
AcDbEntity
  8
0
 62
256
370
-1
 48
1.0
  6
ByLayer
100
AcDbHatch
 10
0.0
 20
0.0
 30
0.0
210
0.0
220
0.0
230
1.0
  2
ANSI31
 70
0
 71
0
 91
1
 92
1
 93
6
 72
1
 10
456.9999999999999432
 20
31.4999999999999432
 11
462.0
 21
31.4999999999999858
 72
1
 10
462.0
 20
31.4999999999999858
 11
462.0
 21
45.5
 72
1
 10
462.0
 20
45.5
 11
458.9999999999999432
 21
45.5000000000000284
 72
1
 10
458.9999999999999432
 20
45.5000000000000284
 11
459.0
 21
34.5000000000000426
 72
1
 10
459.0
 20
34.5000000000000426
 11
457.0
 21
34.5
 72
1
 10
457.0
 20
34.5000000000000142
 11
457.0
 21
31.5000000000000142
 97
0
 75
0
 76
1
 52
0.0
 41
0.0890843
 77
0
 78
1
 53
45.0
 43
0.0
 44
0.0
 45
-0.0883883476483184
 46
0.0883883476483185
 79
0
 98
0
1001
ACAD
1010
0.0
1020
0.0
1030
0
  0
HATCH
  5
66
100
AcDbEntity
  8
0
 62
256
370
-1
 48
1.0
  6
ByLayer
100
AcDbHatch
 10
0.0
 20
0.0
 30
0.0
210
0.0
220
0.0
230
1.0
  2
ANSI31
 70
0
 71
0
 91
1
 92
1
 93
4
 72
1
 10
436.9999999999999432
 20
34.5
 11
436.9999999999998863
 21
31.4999999999999574
 72
1
 10
436.9999999999998863
 20
31.4999999999999574
 11
431.9999999999999432
 21
31.5
 72
1
 10
431.9999999999999432
 20
31.5
 11
431.9999999999999432
 21
34.5
 72
1
 10
431.9999999999999432
 20
34.5
 11
436.9999999999998863
 21
34.5000000000000284
 97
0
 75
0
 76
1
 52
0.0
 41
0.0890843188896438
 77
0
 78
1
 53
45.0
 43
0.0
 44
0.0
 45
-0.0883883476483184
 46
0.0883883476483185
 79
0
 98
0
1001
ACAD
1010
0.0
1020
0.0
1030
0
  0
HATCH
  5
67
100
AcDbEntity
  8
0
 62
256
370
-1
 48
1.0
  6
ByLayer
100
AcDbHatch
 10
0.0
 20
0.0
 30
0.0
210
0.0
220
0.0
230
1.0
  2
ANSI31
 70
0
 71
0
 91
1
 92
1
 93
4
 72
1
 10
377.4999999999999432
 20
31.4999999999999574
 11
441.9999999999999432
 21
31.5
 72
1
 10
441.9999999999999432
 20
31.5
 11
441.9999999999999432
 21
30.4999999999999858
 72
1
 10
441.9999999999999432
 20
30.4999999999999858
 11
377.4999999999998295
 21
30.5
 72
1
 10
377.4999999999998863
 20
30.4999999999999858
 11
377.4999999999999432
 21
31.4999999999999574
 97
0
 75
0
 76
1
 52
5156.6199999999998909
 41
0.0556777
 77
0
 78
1
 53
45.0
 43
0.0
 44
0.0
 45
-0.0883883476483184
 46
0.0883883476483185
 79
0
 98
0
1001
ACAD
1010
0.0
1020
0.0
1030
0
  0
HATCH
  5
68
100
AcDbEntity
  8
0
 62
256
370
-1
 48
1.0
  6
ByLayer
100
AcDbHatch
 10
0.0
 20
0.0
 30
0.0
210
0.0
220
0.0
230
1.0
  2
ANSI31
 70
0
 71
0
 91
1
 92
1
 93
4
 72
1
 10
442.9999999999999432
 20
31.4999999999999289
 11
447.0
 21
31.4999999999999716
 72
1
 10
446.9999999999999432
 20
31.5000000000000284
 11
446.9999999999998863
 21
30.4999999999999716
 72
1
 10
446.9999999999998863
 20
30.4999999999999716
 11
442.9999999999999432
 21
30.5
 72
1
 10
442.9999999999999432
 20
30.5
 11
442.9999999999999432
 21
31.4999999999999574
 97
0
 75
0
 76
1
 52
5156.6201561774087168
 41
0.0556776993060274
 77
0
 78
1
 53
45.0
 43
0.0
 44
0.0
 45
-0.0883883476483184
 46
0.0883883476483185
 79
0
 98
0
1001
ACAD
1010
0.0
1020
0.0
1030
0
  0
HATCH
  5
69
100
AcDbEntity
  8
0
 62
256
370
-1
 48
1.0
  6
ByLayer
100
AcDbHatch
 10
0.0
 20
0.0
 30
0.0
210
0.0
220
0.0
230
1.0
  2
ANSI31
 70
0
 71
0
 91
1
 92
1
 93
4
 72
1
 10
451.4999999999998863
 20
30.4999999999999716
 11
451.4999999999999432
 21
31.4999999999999716
 72
1
 10
451.4999999999999432
 20
31.4999999999999574
 11
447.9999999999998863
 21
31.4999999999999432
 72
1
 10
447.9999999999998863
 20
31.4999999999999432
 11
447.9999999999999432
 21
30.4999999999999858
 72
1
 10
447.9999999999999432
 20
30.4999999999999858
 11
451.4999999999998863
 21
30.4999999999999716
 97
0
 75
0
 76
1
 52
5156.6201561774087168
 41
0.0556776993060274
 77
0
 78
1
 53
45.0
 43
0.0
 44
0.0
 45
-0.0883883476483184
 46
0.0883883476483185
 79
0
 98
0
1001
ACAD
1010
0.0
1020
0.0
1030
0
  0
HATCH
  5
6A
100
AcDbEntity
  8
0
 62
256
370
-1
 48
1.0
  6
ByLayer
100
AcDbHatch
 10
0.0
 20
0.0
 30
0.0
210
0.0
220
0.0
230
1.0
  2
ANSI31
 70
0
 71
0
 91
1
 92
1
 93
7
 72
1
 10
319.9999999999999432
 20
31.5
 11
376.4999999999999432
 21
31.4999999999999716
 72
1
 10
376.4999999999999432
 20
31.4999999999999716
 11
376.4999999999999432
 21
30.5
 72
1
 10
376.4999999999999432
 20
30.5
 11
320.0
 21
30.5000000000000142
 72
1
 10
320.0
 20
30.5000000000000142
 11
307.5
 21
30.5000000000000142
 72
1
 10
307.5
 20
30.5000000000000142
 11
307.4999999999999432
 21
31.5000000000000142
 72
1
 10
307.4999999999999432
 20
31.5000000000000142
 11
309.0
 21
31.5
 72
1
 10
309.0
 20
31.5
 11
319.9999999999999432
 21
31.5
 97
0
 75
0
 76
1
 52
5156.6201561774087168
 41
0.0556776993060274
 77
0
 78
1
 53
45.0
 43
0.0
 44
0.0
 45
-0.0883883476483184
 46
0.0883883476483185
 79
0
 98
0
1001
ACAD
1010
0.0
1020
0.0
1030
0
  0
HATCH
  5
6B
100
AcDbEntity
  8
0
 62
256
370
-1
 48
1.0
  6
ByLayer
100
AcDbHatch
 10
0.0
 20
0.0
 30
0.0
210
0.0
220
0.0
230
1.0
  2
ANSI31
 70
0
 71
0
 91
1
 92
1
 93
5
 72
1
 10
303.0
 20
30.4999999999999716
 11
306.5
 21
30.4999999999999858
 72
1
 10
306.5
 20
30.4999999999999858
 11
306.5
 21
31.4999999999999858
 72
1
 10
306.5000000000000568
 20
31.4999999999999858
 11
304.0
 21
31.5
 72
1
 10
304.0
 20
31.5
 11
303.0
 21
31.5
 72
1
 10
303.0
 20
31.5000000000000284
 11
303.0
 21
30.4999999999999716
 97
0
 75
0
 76
1
 52
5156.6201561774087168
 41
0.0556776993060274
 77
0
 78
1
 53
45.0
 43
0.0
 44
0.0
 45
-0.0883883476483184
 46
0.0883883476483185
 79
0
 98
0
1001
ACAD
1010
0.0
1020
0.0
1030
0
  0
HATCH
  5
6C
100
AcDbEntity
  8
0
 62
256
370
-1
 48
1.0
  6
ByLayer
100
AcDbHatch
 10
0.0
 20
0.0
 30
0.0
210
0.0
220
0.0
230
1.0
  2
ANSI31
 70
0
 71
0
 91
1
 92
1
 93
4
 72
1
 10
299.0
 20
163.0
 11
299.0
 21
160.0
 72
1
 10
299.0
 20
160.0
 11
302.0
 21
160.0
 72
1
 10
302.0
 20
160.0
 11
302.0
 21
163.0
 72
1
 10
302.0
 20
163.0
 11
299.0
 21
163.0
 97
0
 75
0
 76
1
 52
0.0
 41
0.0334066195836164
 77
0
 78
1
 53
45.0
 43
0.0
 44
0.0
 45
-0.0883883476483184
 46
0.0883883476483185
 79
0
 98
0
1001
ACAD
1010
0.0
1020
0.0
1030
0
  0
HATCH
  5
6D
100
AcDbEntity
  8
0
 62
256
370
-1
 48
1.0
  6
ByLayer
100
AcDbHatch
 10
0.0
 20
0.0
 30
0.0
210
0.0
220
0.0
230
1.0
  2
ANSI31
 70
0
 71
0
 91
1
 92
1
 93
4
 72
1
 10
299.0
 20
37.0000000000000284
 11
299.0
 21
40.0000000000000071
 72
1
 10
299.0
 20
40.0000000000000071
 11
302.0
 21
40.0000000000000426
 72
1
 10
302.0
 20
40.0000000000000426
 11
302.0
 21
37.0000000000000355
 72
1
 10
302.0
 20
37.0000000000000355
 11
299.0
 21
37.0000000000000284
 97
0
 75
0
 76
1
 52
0.0
 41
0.0334066195836164
 77
0
 78
1
 53
45.0
 43
0.0
 44
0.0
 45
-0.0883883476483184
 46
0.0883883476483185
 79
0
 98
0
1001
ACAD
1010
0.0
1020
0.0
1030
0
  0
HATCH
  5
6E
100
AcDbEntity
  8
0
 62
256
370
-1
 48
1.0
  6
ByLayer
100
AcDbHatch
 10
0.0
 20
0.0
 30
0.0
210
0.0
220
0.0
230
1.0
  2
ANSI31
 70
0
 71
0
 91
1
 92
1
 93
9
 72
1
 10
304.0
 20
163.5000000000000284
 11
304.0
 21
165.0000000000000284
 72
1
 10
304.0
 20
165.0
 11
297.0
 21
165.0
 72
1
 10
297.0
 20
165.0
 11
297.0
 21
163.0
 72
1
 10
297.0
 20
163.0
 11
298.0
 21
163.0
 72
2
 10
298.5000000000000568
 20
163.0000000000000284
 40
0.5
 50
180.0
 51
360.0
 73
0
 72
1
 10
299.0
 20
163.0
 11
302.0
 21
163.0
 72
1
 10
302.0
 20
163.0
 11
302.0
 21
160.0
 72
1
 10
302.0
 20
160.0
 11
304.0
 21
160.0
 72
1
 10
304.0
 20
160.0
 11
304.0
 21
163.5000000000000284
 97
0
 75
0
 76
1
 52
5156.6201561774087168
 41
0.0668132391672328
 77
0
 78
1
 53
45.0
 43
0.0
 44
0.0
 45
-0.0883883476483184
 46
0.0883883476483185
 79
0
 98
0
1001
ACAD
1010
0.0
1020
0.0
1030
0
  0
HATCH
  5
6F
100
AcDbEntity
  8
0
 62
256
370
-1
 48
1.0
  6
ByLayer
100
AcDbHatch
 10
0.0
 20
0.0
 30
0.0
210
0.0
220
0.0
230
1.0
  2
ANSI31
 70
0
 71
0
 91
1
 92
1
 93
9
 72
1
 10
303.9999999999999432
 20
36.5000000000000071
 11
304.0
 21
34.9999999999999858
 72
1
 10
304.0
 20
35.0000000000000284
 11
297.0
 21
35.0000000000000284
 72
1
 10
297.0
 20
35.0000000000000284
 11
297.0
 21
37.0
 72
1
 10
297.0
 20
37.0
 11
298.0
 21
37.0000000000000213
 72
2
 10
298.5
 20
36.9999999999999858
 40
0.5
 50
180.0
 51
0.0
 73
1
 72
1
 10
299.0
 20
37.0000000000000284
 11
302.0
 21
37.0000000000000355
 72
1
 10
302.0
 20
37.0000000000000355
 11
302.0
 21
40.0000000000000426
 72
1
 10
302.0
 20
40.0000000000000426
 11
304.0
 21
40.0000000000000213
 72
1
 10
304.0
 20
40.0000000000000213
 11
303.9999999999999432
 21
36.5000000000000071
 97
0
 75
0
 76
1
 52
5156.6201561774087168
 41
0.0668132391672328
 77
0
 78
1
 53
45.0
 43
0.0
 44
0.0
 45
-0.0883883476483184
 46
0.0883883476483185
 79
0
 98
0
1001
ACAD
1010
0.0
1020
0.0
1030
0
  0
HATCH
  5
70
100
AcDbEntity
  8
0
 62
256
370
-1
 48
1.0
  6
ByLayer
100
AcDbHatch
 10
0.0
 20
0.0
 30
0.0
210
0.0
220
0.0
230
1.0
  2
ANSI31
 70
0
 71
0
 91
1
 92
1
 93
4
 72
1
 10
297.0
 20
168.0
 11
304.0
 21
168.0
 72
1
 10
304.0
 20
168.0
 11
304.0
 21
166.0000000000000284
 72
1
 10
304.0
 20
166.0
 11
297.0
 21
166.0
 72
1
 10
297.0
 20
166.0
 11
297.0
 21
168.0
 97
0
 75
0
 76
1
 52
5156.6201561774087168
 41
0.0668132391672328
 77
0
 78
1
 53
45.0
 43
0.0
 44
0.0
 45
-0.0883883476483184
 46
0.0883883476483185
 79
0
 98
0
1001
ACAD
1010
0.0
1020
0.0
1030
0
  0
HATCH
  5
71
100
AcDbEntity
  8
0
 62
256
370
-1
 48
1.0
  6
ByLayer
100
AcDbHatch
 10
0.0
 20
0.0
 30
0.0
210
0.0
220
0.0
230
1.0
  2
ANSI31
 70
0
 71
0
 91
1
 92
1
 93
4
 72
1
 10
297.0
 20
32.0000000000000426
 11
304.0
 21
32.0000000000000142
 72
1
 10
304.0
 20
32.0000000000000142
 11
304.0
 21
34.0
 72
1
 10
304.0
 20
34.0000000000000284
 11
297.0
 21
34.0000000000000426
 72
1
 10
297.0
 20
34.0000000000000426
 11
297.0
 21
32.0000000000000426
 97
0
 75
0
 76
1
 52
5156.6201561774087168
 41
0.0668132391672328
 77
0
 78
1
 53
45.0
 43
0.0
 44
0.0
 45
-0.0883883476483184
 46
0.0883883476483185
 79
0
 98
0
1001
ACAD
1010
0.0
1020
0.0
1030
0
  0
HATCH
  5
72
100
AcDbEntity
  8
0
 62
256
370
-1
 48
1.0
  6
ByLayer
100
AcDbHatch
 10
0.0
 20
0.0
 30
0.0
210
0.0
220
0.0
230
1.0
  2
ANSI31
 70
0
 71
0
 91
1
 92
1
 93
4
 72
1
 10
304.0
 20
163.5000000000000284
 11
304.0
 21
165.0000000000000284
 72
1
 10
304.0
 20
165.0000000000000284
 11
305.0
 21
165.0000000000000284
 72
1
 10
305.0
 20
165.0000000000000284
 11
305.0
 21
163.5000000000000284
 72
1
 10
305.0
 20
163.5000000000000284
 11
304.0
 21
163.5000000000000284
 97
0
 75
0
 76
1
 52
0.0
 41
0.0445422
 77
0
 78
1
 53
45.0
 43
0.0
 44
0.0
 45
-0.0883883476483184
 46
0.0883883476483185
 79
0
 98
0
1001
ACAD
1010
0.0
1020
0.0
1030
0
  0
HATCH
  5
73
100
AcDbEntity
  8
0
 62
256
370
-1
 48
1.0
  6
ByLayer
100
AcDbHatch
 10
0.0
 20
0.0
 30
0.0
210
0.0
220
0.0
230
1.0
  2
ANSI31
 70
0
 71
0
 91
1
 92
1
 93
4
 72
1
 10
303.9999999999999432
 20
36.5000000000000071
 11
304.0
 21
34.9999999999999858
 72
1
 10
304.0
 20
34.9999999999999858
 11
305.0
 21
35.0000000000000142
 72
1
 10
305.0
 20
35.0000000000000142
 11
305.0
 21
36.4999999999999787
 72
1
 10
305.0
 20
36.4999999999999787
 11
303.9999999999999432
 21
36.5000000000000071
 97
0
 75
0
 76
1
 52
0.0
 41
0.0445421594448219
 77
0
 78
1
 53
45.0
 43
0.0
 44
0.0
 45
-0.0883883476483184
 46
0.0883883476483185
 79
0
 98
0
1001
ACAD
1010
0.0
1020
0.0
1030
0
  0
HATCH
  5
74
100
AcDbEntity
  8
0
 62
256
370
-1
 48
1.0
  6
ByLayer
100
AcDbHatch
 10
0.0
 20
0.0
 30
0.0
210
0.0
220
0.0
230
1.0
  2
ANSI31
 70
0
 71
0
 91
1
 92
1
 93
7
 72
1
 10
306.5000000000000568
 20
32.5
 11
306.5000000000000568
 21
31.5
 72
1
 10
306.5000000000000568
 20
31.4999999999999858
 11
304.0
 21
31.5
 72
1
 10
304.0
 20
31.5
 11
304.0
 21
32.4999999999999858
 72
1
 10
304.0
 20
32.4999999999999858
 11
304.0
 21
34.0
 72
1
 10
304.0
 20
34.0
 11
305.0
 21
33.9999999999999858
 72
1
 10
305.0
 20
33.9999999999999858
 11
305.0
 21
32.5000000000000142
 72
1
 10
305.0
 20
32.5000000000000142
 11
306.5000000000000568
 21
32.4999999999999858
 97
0
 75
0
 76
1
 52
0.0
 41
0.0445421594448219
 77
0
 78
1
 53
45.0
 43
0.0
 44
0.0
 45
-0.0883883476483184
 46
0.0883883476483185
 79
0
 98
0
1001
ACAD
1010
0.0
1020
0.0
1030
0
  0
HATCH
  5
75
100
AcDbEntity
  8
0
 62
256
370
-1
 48
1.0
  6
ByLayer
100
AcDbHatch
 10
0.0
 20
0.0
 30
0.0
210
0.0
220
0.0
230
1.0
  2
ANSI31
 70
0
 71
0
 91
1
 92
1
 93
4
 72
1
 10
307.5000000000000568
 20
32.5000000000000142
 11
307.5
 21
31.5000000000000284
 72
1
 10
307.4999999999999432
 20
31.5000000000000142
 11
309.0
 21
31.5
 72
1
 10
309.0
 20
31.5
 11
309.0
 21
32.4999999999999716
 72
1
 10
309.0
 20
32.4999999999999716
 11
307.5000000000000568
 21
32.5
 97
0
 75
0
 76
1
 52
0.0
 41
0.0445421594448219
 77
0
 78
1
 53
45.0
 43
0.0
 44
0.0
 45
-0.0883883476483184
 46
0.0883883476483185
 79
0
 98
0
1001
ACAD
1010
0.0
1020
0.0
1030
0
  0
HATCH
  5
76
100
AcDbEntity
  8
0
 62
256
370
-1
 48
1.0
  6
ByLayer
100
AcDbHatch
 10
0.0
 20
0.0
 30
0.0
210
0.0
220
0.0
230
1.0
  2
ANSI31
 70
0
 71
0
 91
1
 92
1
 93
4
 72
1
 10
462.6600000000000819
 20
176.2000000000000171
 11
462.6600000000000819
 21
185.5500000000000398
 72
1
 10
462.6600000000000819
 20
185.5500000000000398
 11
460.6600000000000819
 21
185.5500000000000398
 72
1
 10
460.6600000000000819
 20
185.5500000000000398
 11
460.6600000000000819
 21
176.2000000000000171
 72
1
 10
460.6600000000000819
 20
176.2000000000000171
 11
462.6600000000000819
 21
176.2000000000000171
 97
0
 75
0
 76
1
 52
0.0
 41
0.0890843188896438
 77
0
 78
1
 53
45.0
 43
0.0
 44
0.0
 45
-0.0883883476483184
 46
0.0883883476483185
 79
0
 98
0
1001
ACAD
1010
0.0
1020
0.0
1030
0
  0
HATCH
  5
77
100
AcDbEntity
  8
0
 62
256
370
-1
 48
1.0
  6
ByLayer
100
AcDbHatch
 10
0.0
 20
0.0
 30
0.0
210
0.0
220
0.0
230
1.0
  2
ANSI31
 70
0
 71
0
 91
1
 92
1
 93
4
 72
1
 10
462.6600000000000819
 20
23.7999999999999545
 11
462.6600000000000819
 21
14.4499999999999318
 72
1
 10
462.6600000000000819
 20
14.4499999999999318
 11
460.6600000000000819
 21
14.449999999999946
 72
1
 10
460.6600000000000819
 20
14.449999999999946
 11
460.6600000000000819
 21
23.7999999999999687
 72
1
 10
460.6600000000000819
 20
23.7999999999999687
 11
462.6600000000000819
 21
23.7999999999999545
 97
0
 75
0
 76
1
 52
0.0
 41
0.0890843188896438
 77
0
 78
1
 53
45.0
 43
0.0
 44
0.0
 45
-0.0883883476483184
 46
0.0883883476483185
 79
0
 98
0
1001
ACAD
1010
0.0
1020
0.0
1030
0
  0
CIRCLE
  5
78
100
AcDbEntity
  8
help
 62
256
370
-1
 48
1.0
  6
ByLayer
100
AcDbCircle
 10
200.0
 20
100.0
 30
0.0
 40
65.5
  0
LINE
  5
79
100
AcDbEntity
  8
help
 62
256
370
-1
 48
1.0
  6
ByLayer
100
AcDbLine
 10
200.0
 20
168.0000000000000284
 30
0.0
 11
330.0
 21
168.0000000000000284
 31
0.0
  0
LINE
  5
7A
100
AcDbEntity
  8
help
 62
256
370
-1
 48
1.0
  6
ByLayer
100
AcDbLine
 10
200.0000000000000284
 20
168.0000000000000284
 30
0.0
 11
330.0
 21
168.0000000000000284
 31
0.0
  0
LINE
  5
7B
100
AcDbEntity
  8
help
 62
256
370
-1
 48
1.0
  6
ByLayer
100
AcDbLine
 10
200.0000000000000284
 20
165.5000000000000284
 30
0.0
 11
330.0
 21
165.5000000000000284
 31
0.0
  0
LINE
  5
7C
100
AcDbEntity
  8
help
 62
256
370
-1
 48
1.0
  6
ByLayer
100
AcDbLine
 10
200.0
 20
163.0
 30
0.0
 11
330.0
 21
163.0
 31
0.0
  0
LINE
  5
7D
100
AcDbEntity
  8
help
 62
256
370
-1
 48
1.0
  6
ByLayer
100
AcDbLine
 10
200.0
 20
160.0
 30
0.0
 11
330.0
 21
160.0
 31
0.0
  0
CIRCLE
  5
7E
100
AcDbEntity
  8
0
 62
256
370
-1
 48
1.0
  6
ByLayer
100
AcDbCircle
 10
200.0
 20
100.0
 30
0.0
 40
60.0
  0
CIRCLE
  5
7F
100
AcDbEntity
  8
0
 62
256
370
-1
 48
1.0
  6
ByLayer
100
AcDbCircle
 10
200.0
 20
100.0
 30
0.0
 40
63.0
  0
CIRCLE
  5
80
100
AcDbEntity
  8
0
 62
256
370
-1
 48
1.0
  6
ByLayer
100
AcDbCircle
 10
200.0
 20
100.0
 30
0.0
 40
68.0
  0
CIRCLE
  5
81
100
AcDbEntity
  8
0
 62
256
370
-1
 48
1.0
  6
ByLayer
100
AcDbCircle
 10
200.0
 20
165.5000000000000284
 30
0.0
 40
0.5
  0
LINE
  5
82
100
AcDbEntity
  8
0
 62
256
370
-1
 48
1.0
  6
ByLayer
100
AcDbLine
 10
202.0000000000000568
 20
169.5000000000000284
 30
0.0
 11
200.5000000000000284
 21
169.5000000000000284
 31
0.0
  0
LINE
  5
83
100
AcDbEntity
  8
0
 62
256
370
-1
 48
1.0
  6
ByLayer
100
AcDbLine
 10
200.5000000000000284
 20
169.5000000000000284
 30
0.0
 11
199.5000000000000284
 21
169.5000000000000284
 31
0.0
  0
LINE
  5
84
100
AcDbEntity
  8
0
 62
256
370
-1
 48
1.0
  6
ByLayer
100
AcDbLine
 10
199.5000000000000284
 20
169.5000000000000284
 30
0.0
 11
198.0000000000000568
 21
169.5000000000000284
 31
0.0
  0
LINE
  5
85
100
AcDbEntity
  8
0
 62
256
370
-1
 48
1.0
  6
ByLayer
100
AcDbLine
 10
198.0000000000000568
 20
169.5000000000000284
 30
0.0
 11
198.0000000000000568
 21
173.5000000000000284
 31
0.0
  0
LINE
  5
86
100
AcDbEntity
  8
0
 62
256
370
-1
 48
1.0
  6
ByLayer
100
AcDbLine
 10
198.0000000000000568
 20
173.5000000000000284
 30
0.0
 11
197.0000000000000568
 21
173.5000000000000284
 31
0.0
  0
LINE
  5
87
100
AcDbEntity
  8
0
 62
256
370
-1
 48
1.0
  6
ByLayer
100
AcDbLine
 10
197.0000000000000568
 20
173.5000000000000284
 30
0.0
 11
197.0000000000000284
 21
168.5000000000000568
 31
0.0
  0
LINE
  5
88
100
AcDbEntity
  8
0
 62
256
370
-1
 48
1.0
  6
ByLayer
100
AcDbLine
 10
197.0000000000000284
 20
168.5000000000000568
 30
0.0
 11
199.5000000000000284
 21
168.5000000000000568
 31
0.0
  0
LINE
  5
89
100
AcDbEntity
  8
0
 62
256
370
-1
 48
1.0
  6
ByLayer
100
AcDbLine
 10
199.5000000000000284
 20
168.5000000000000568
 30
0.0
 11
200.5000000000000284
 21
168.5000000000000568
 31
0.0
  0
LINE
  5
8A
100
AcDbEntity
  8
0
 62
256
370
-1
 48
1.0
  6
ByLayer
100
AcDbLine
 10
200.5000000000000284
 20
168.5000000000000568
 30
0.0
 11
202.0000000000000568
 21
168.5000000000000568
 31
0.0
  0
LINE
  5
8B
100
AcDbEntity
  8
0
 62
256
370
-1
 48
1.0
  6
ByLayer
100
AcDbLine
 10
202.0000000000000568
 20
168.5000000000000568
 30
0.0
 11
202.0000000000000568
 21
169.5000000000000568
 31
0.0
  0
LINE
  5
8C
100
AcDbEntity
  8
0
 62
256
370
-1
 48
1.0
  6
ByLayer
100
AcDbLine
 10
197.5000000000000284
 20
163.5
 30
0.0
 11
202.5000000000000284
 21
163.5
 31
0.0
  0
LINE
  5
8D
100
AcDbEntity
  8
0
 62
256
370
-1
 48
1.0
  6
ByLayer
100
AcDbLine
 10
202.5000000000000284
 20
167.5000000000000284
 30
0.0
 11
202.5000000000000284
 21
168.5000000000000284
 31
0.0
  0
LINE
  5
8E
100
AcDbEntity
  8
0
 62
256
370
-1
 48
1.0
  6
ByLayer
100
AcDbLine
 10
202.5000000000000284
 20
163.5
 30
0.0
 11
202.5000000000000284
 21
167.5000000000000284
 31
0.0
  0
LINE
  5
8F
100
AcDbEntity
  8
0
 62
256
370
-1
 48
1.0
  6
ByLayer
100
AcDbLine
 10
200.5000000000000284
 20
168.5000000000000284
 30
0.0
 11
199.5000000000000284
 21
168.5000000000000284
 31
0.0
  0
LINE
  5
90
100
AcDbEntity
  8
0
 62
256
370
-1
 48
1.0
  6
ByLayer
100
AcDbLine
 10
199.5000000000000284
 20
168.5000000000000284
 30
0.0
 11
197.5000000000000284
 21
168.5000000000000284
 31
0.0
  0
LINE
  5
91
100
AcDbEntity
  8
0
 62
256
370
-1
 48
1.0
  6
ByLayer
100
AcDbLine
 10
202.5000000000000284
 20
168.5000000000000284
 30
0.0
 11
200.5000000000000284
 21
168.5000000000000284
 31
0.0
  0
LINE
  5
92
100
AcDbEntity
  8
0
 62
256
370
-1
 48
1.0
  6
ByLayer
100
AcDbLine
 10
197.5000000000000284
 20
168.5000000000000284
 30
0.0
 11
197.5000000000000284
 21
167.5000000000000284
 31
0.0
  0
LINE
  5
93
100
AcDbEntity
  8
0
 62
256
370
-1
 48
1.0
  6
ByLayer
100
AcDbLine
 10
197.5000000000000284
 20
167.5000000000000284
 30
0.0
 11
197.5000000000000284
 21
163.5
 31
0.0
  0
LINE
  5
94
100
AcDbEntity
  8
0
 62
256
370
-1
 48
1.0
  6
ByLayer
100
AcDbLine
 10
200.5000000000000284
 20
167.5000000000000284
 30
0.0
 11
202.5000000000000284
 21
167.5000000000000284
 31
0.0
  0
LINE
  5
95
100
AcDbEntity
  8
0
 62
256
370
-1
 48
1.0
  6
ByLayer
100
AcDbLine
 10
197.5000000000000284
 20
167.5000000000000284
 30
0.0
 11
199.5000000000000284
 21
167.5000000000000284
 31
0.0
  0
LINE
  5
96
100
AcDbEntity
  8
0
 62
256
370
-1
 48
1.0
  6
ByLayer
100
AcDbLine
 10
199.5000000000000284
 20
167.5000000000000284
 30
0.0
 11
200.5000000000000284
 21
167.5000000000000284
 31
0.0
  0
LINE
  5
97
100
AcDbEntity
  8
under
 62
256
370
-1
 48
1.0
  6
ByLayer
100
AcDbLine
 10
199.5000000000000284
 20
168.5000000000000284
 30
0.0
 11
199.5000000000000284
 21
169.5000000000000284
 31
0.0
  0
LINE
  5
98
100
AcDbEntity
  8
under
 62
256
370
-1
 48
1.0
  6
ByLayer
100
AcDbLine
 10
199.5000000000000284
 20
168.5000000000000284
 30
0.0
 11
199.5000000000000284
 21
167.5000000000000284
 31
0.0
  0
LINE
  5
99
100
AcDbEntity
  8
under
 62
256
370
-1
 48
1.0
  6
ByLayer
100
AcDbLine
 10
200.5000000000000284
 20
167.5
 30
0.0
 11
200.5000000000000284
 21
168.5
 31
0.0
  0
LINE
  5
9A
100
AcDbEntity
  8
under
 62
256
370
-1
 48
1.0
  6
ByLayer
100
AcDbLine
 10
200.5000000000000284
 20
169.5
 30
0.0
 11
200.5000000000000284
 21
168.5
 31
0.0
  0
LINE
  5
9B
100
AcDbEntity
  8
axis
 62
256
370
-1
 48
1.0
  6
ByLayer
100
AcDbLine
 10
200.0
 20
170.0000000000000284
 30
0.0
 11
200.0
 21
167.0000000000000284
 31
0.0
  0
LINE
  5
9C
100
AcDbEntity
  8
0
 62
256
370
-1
 48
1.0
  6
ByLayer
100
AcDbLine
 10
304.0
 20
34.0
 30
0.0
 11
303.9999999999999432
 21
36.5000000000000071
 31
0.0
  0
LINE
  5
9D
100
AcDbEntity
  8
0
 62
256
370
-1
 48
1.0
  6
ByLayer
100
AcDbLine
 10
304.0
 20
32.0000000000000142
 30
0.0
 11
304.0
 21
34.0
 31
0.0
  0
LINE
  5
9E
100
AcDbEntity
  8
0
 62
256
370
-1
 48
1.0
  6
ByLayer
100
AcDbLine
 10
303.9999999999999432
 20
36.5000000000000071
 30
0.0
 11
304.0
 21
40.0000000000000213
 31
0.0
  0
LINE
  5
9F
100
AcDbEntity
  8
0
 62
256
370
-1
 48
1.0
  6
ByLayer
100
AcDbLine
 10
304.0
 20
163.5000000000000284
 30
0.0
 11
304.0
 21
160.0
 31
0.0
  0
LINE
  5
A0
100
AcDbEntity
  8
0
 62
256
370
-1
 48
1.0
  6
ByLayer
100
AcDbLine
 10
304.0
 20
166.0000000000000284
 30
0.0
 11
304.0
 21
163.5000000000000284
 31
0.0
  0
LINE
  5
A1
100
AcDbEntity
  8
0
 62
256
370
-1
 48
1.0
  6
ByLayer
100
AcDbLine
 10
304.0
 20
168.0
 30
0.0
 11
304.0
 21
166.0000000000000284
 31
0.0
  0
LINE
  5
A2
100
AcDbEntity
  8
0
 62
256
370
-1
 48
1.0
  6
ByLayer
100
AcDbLine
 10
304.0
 20
160.0
 30
0.0
 11
302.0
 21
160.0
 31
0.0
  0
LINE
  5
A3
100
AcDbEntity
  8
0
 62
256
370
-1
 48
1.0
  6
ByLayer
100
AcDbLine
 10
304.0
 20
40.0000000000000213
 30
0.0
 11
302.0
 21
40.0000000000000426
 31
0.0
  0
LINE
  5
A4
100
AcDbEntity
  8
0
 62
256
370
-1
 48
1.0
  6
ByLayer
100
AcDbLine
 10
302.0
 20
160.0
 30
0.0
 11
302.0
 21
163.0
 31
0.0
  0
LINE
  5
A5
100
AcDbEntity
  8
0
 62
256
370
-1
 48
1.0
  6
ByLayer
100
AcDbLine
 10
302.0
 20
40.0000000000000426
 30
0.0
 11
302.0
 21
37.0000000000000355
 31
0.0
  0
LINE
  5
A6
100
AcDbEntity
  8
0
 62
256
370
-1
 48
1.0
  6
ByLayer
100
AcDbLine
 10
302.0
 20
163.0
 30
0.0
 11
299.0
 21
163.0
 31
0.0
  0
LINE
  5
A7
100
AcDbEntity
  8
0
 62
256
370
-1
 48
1.0
  6
ByLayer
100
AcDbLine
 10
302.0
 20
37.0000000000000355
 30
0.0
 11
299.0
 21
37.0000000000000284
 31
0.0
  0
LINE
  5
A8
100
AcDbEntity
  8
0
 62
256
370
-1
 48
1.0
  6
ByLayer
100
AcDbLine
 10
298.0
 20
163.0
 30
0.0
 11
297.0
 21
163.0
 31
0.0
  0
LINE
  5
A9
100
AcDbEntity
  8
0
 62
256
370
-1
 48
1.0
  6
ByLayer
100
AcDbLine
 10
298.0
 20
37.0000000000000213
 30
0.0
 11
297.0
 21
37.0
 31
0.0
  0
LINE
  5
AA
100
AcDbEntity
  8
0
 62
256
370
-1
 48
1.0
  6
ByLayer
100
AcDbLine
 10
297.0
 20
35.0000000000000284
 30
0.0
 11
297.0
 21
34.0000000000000426
 31
0.0
  0
LINE
  5
AB
100
AcDbEntity
  8
0
 62
256
370
-1
 48
1.0
  6
ByLayer
100
AcDbLine
 10
297.0
 20
37.0
 30
0.0
 11
297.0
 21
35.0000000000000284
 31
0.0
  0
LINE
  5
AC
100
AcDbEntity
  8
0
 62
256
370
-1
 48
1.0
  6
ByLayer
100
AcDbLine
 10
297.0
 20
34.0000000000000426
 30
0.0
 11
297.0
 21
32.0000000000000426
 31
0.0
  0
LINE
  5
AD
100
AcDbEntity
  8
0
 62
256
370
-1
 48
1.0
  6
ByLayer
100
AcDbLine
 10
297.0
 20
165.0
 30
0.0
 11
297.0
 21
166.0
 31
0.0
  0
LINE
  5
AE
100
AcDbEntity
  8
0
 62
256
370
-1
 48
1.0
  6
ByLayer
100
AcDbLine
 10
297.0
 20
166.0
 30
0.0
 11
297.0
 21
168.0
 31
0.0
  0
LINE
  5
AF
100
AcDbEntity
  8
0
 62
256
370
-1
 48
1.0
  6
ByLayer
100
AcDbLine
 10
297.0
 20
163.0
 30
0.0
 11
297.0
 21
165.0
 31
0.0
  0
LINE
  5
B0
100
AcDbEntity
  8
0
 62
256
370
-1
 48
1.0
  6
ByLayer
100
AcDbLine
 10
297.0
 20
168.0
 30
0.0
 11
304.0
 21
168.0
 31
0.0
  0
LINE
  5
B1
100
AcDbEntity
  8
0
 62
256
370
-1
 48
1.0
  6
ByLayer
100
AcDbLine
 10
297.0
 20
32.0000000000000426
 30
0.0
 11
304.0
 21
32.0000000000000142
 31
0.0
  0
ARC
  5
B2
100
AcDbEntity
  8
0
 62
256
370
-1
 48
1.0
  6
ByLayer
100
AcDbCircle
 10
298.5000000000000568
 20
163.0000000000000284
 30
0.0
 40
0.5
100
AcDbArc
 50
0.0
 51
180.0
  0
ARC
  5
B3
100
AcDbEntity
  8
0
 62
256
370
-1
 48
1.0
  6
ByLayer
100
AcDbCircle
 10
298.5
 20
36.9999999999999858
 30
0.0
 40
0.5
100
AcDbArc
 50
180.0
 51
360.0
  0
LINE
  5
B4
100
AcDbEntity
  8
under
 62
256
370
-1
 48
1.0
  6
ByLayer
100
AcDbLine
 10
304.0
 20
34.0000000000000284
 30
0.0
 11
297.0
 21
34.0000000000000426
 31
0.0
  0
LINE
  5
B5
100
AcDbEntity
  8
under
 62
256
370
-1
 48
1.0
  6
ByLayer
100
AcDbLine
 10
297.0
 20
35.0000000000000284
 30
0.0
 11
304.0
 21
35.0000000000000284
 31
0.0
  0
LINE
  5
B6
100
AcDbEntity
  8
under
 62
256
370
-1
 48
1.0
  6
ByLayer
100
AcDbLine
 10
304.0
 20
34.0
 30
0.0
 11
305.0
 21
33.9999999999999858
 31
0.0
  0
LINE
  5
B7
100
AcDbEntity
  8
under
 62
256
370
-1
 48
1.0
  6
ByLayer
100
AcDbLine
 10
305.0
 20
35.0000000000000142
 30
0.0
 11
304.0
 21
34.9999999999999858
 31
0.0
  0
LINE
  5
B8
100
AcDbEntity
  8
0
 62
256
370
-1
 48
1.0
  6
ByLayer
100
AcDbLine
 10
304.0
 20
32.3000000000000398
 30
0.0
 11
304.0
 21
32.4999999999999858
 31
0.0
  0
LINE
  5
B9
100
AcDbEntity
  8
0
 62
256
370
-1
 48
1.0
  6
ByLayer
100
AcDbLine
 10
303.9999999999999432
 20
36.5000000000000071
 30
0.0
 11
304.0
 21
34.9999999999999858
 31
0.0
  0
LINE
  5
BA
100
AcDbEntity
  8
0
 62
256
370
-1
 48
1.0
  6
ByLayer
100
AcDbLine
 10
304.0
 20
34.9999999999999858
 30
0.0
 11
304.0
 21
34.0
 31
0.0
  0
LINE
  5
BB
100
AcDbEntity
  8
0
 62
256
370
-1
 48
1.0
  6
ByLayer
100
AcDbLine
 10
304.0
 20
34.0
 30
0.0
 11
304.0
 21
32.3000000000000398
 31
0.0
  0
LINE
  5
BC
100
AcDbEntity
  8
0
 62
256
370
-1
 48
1.0
  6
ByLayer
100
AcDbLine
 10
304.0
 20
163.5000000000000284
 30
0.0
 11
304.0
 21
165.0000000000000284
 31
0.0
  0
LINE
  5
BD
100
AcDbEntity
  8
0
 62
256
370
-1
 48
1.0
  6
ByLayer
100
AcDbLine
 10
304.0
 20
165.0000000000000284
 30
0.0
 11
304.0
 21
166.0000000000000284
 31
0.0
  0
LINE
  5
BE
100
AcDbEntity
  8
0
 62
256
370
-1
 48
1.0
  6
ByLayer
100
AcDbLine
 10
304.0
 20
166.0000000000000284
 30
0.0
 11
304.0
 21
167.6999999999999886
 31
0.0
  0
LINE
  5
BF
100
AcDbEntity
  8
0
 62
256
370
-1
 48
1.0
  6
ByLayer
100
AcDbLine
 10
304.0
 20
167.6999999999999886
 30
0.0
 11
304.0
 21
167.5000000000000284
 31
0.0
  0
LINE
  5
C0
100
AcDbEntity
  8
0
 62
256
370
-1
 48
1.0
  6
ByLayer
100
AcDbLine
 10
306.5000000000000568
 20
31.4999999999999858
 30
0.0
 11
309.0
 21
31.5
 31
0.0
  0
LINE
  5
C1
100
AcDbEntity
  8
0
 62
256
370
-1
 48
1.0
  6
ByLayer
100
AcDbLine
 10
304.0
 20
31.5
 30
0.0
 11
306.5000000000000568
 21
31.4999999999999858
 31
0.0
  0
LINE
  5
C2
100
AcDbEntity
  8
0
 62
256
370
-1
 48
1.0
  6
ByLayer
100
AcDbLine
 10
309.0
 20
31.5
 30
0.0
 11
309.0
 21
32.4999999999999716
 31
0.0
  0
LINE
  5
C3
100
AcDbEntity
  8
0
 62
256
370
-1
 48
1.0
  6
ByLayer
100
AcDbLine
 10
307.5000000000000568
 20
32.5
 30
0.0
 11
306.5000000000000568
 21
32.4999999999999858
 31
0.0
  0
LINE
  5
C4
100
AcDbEntity
  8
0
 62
256
370
-1
 48
1.0
  6
ByLayer
100
AcDbLine
 10
309.0
 20
32.4999999999999716
 30
0.0
 11
307.5000000000000568
 21
32.5
 31
0.0
  0
LINE
  5
C5
100
AcDbEntity
  8
0
 62
256
370
-1
 48
1.0
  6
ByLayer
100
AcDbLine
 10
306.5000000000000568
 20
32.4999999999999858
 30
0.0
 11
305.0
 21
32.5000000000000142
 31
0.0
  0
LINE
  5
C6
100
AcDbEntity
  8
0
 62
256
370
-1
 48
1.0
  6
ByLayer
100
AcDbLine
 10
306.5000000000000568
 20
167.5000000000000284
 30
0.0
 11
305.0
 21
167.5000000000000284
 31
0.0
  0
LINE
  5
C7
100
AcDbEntity
  8
0
 62
256
370
-1
 48
1.0
  6
ByLayer
100
AcDbLine
 10
307.5000000000000568
 20
167.5000000000000284
 30
0.0
 11
306.5000000000000568
 21
167.5000000000000284
 31
0.0
  0
LINE
  5
C8
100
AcDbEntity
  8
0
 62
256
370
-1
 48
1.0
  6
ByLayer
100
AcDbLine
 10
305.0
 20
33.9999999999999858
 30
0.0
 11
305.0
 21
35.0000000000000142
 31
0.0
  0
LINE
  5
C9
100
AcDbEntity
  8
0
 62
256
370
-1
 48
1.0
  6
ByLayer
100
AcDbLine
 10
305.0
 20
32.5000000000000142
 30
0.0
 11
305.0
 21
33.9999999999999858
 31
0.0
  0
LINE
  5
CA
100
AcDbEntity
  8
0
 62
256
370
-1
 48
1.0
  6
ByLayer
100
AcDbLine
 10
305.0
 20
35.0000000000000142
 30
0.0
 11
305.0
 21
36.4999999999999787
 31
0.0
  0
LINE
  5
CB
100
AcDbEntity
  8
0
 62
256
370
-1
 48
1.0
  6
ByLayer
100
AcDbLine
 10
305.0
 20
165.0000000000000284
 30
0.0
 11
305.0
 21
163.5000000000000284
 31
0.0
  0
LINE
  5
CC
100
AcDbEntity
  8
0
 62
256
370
-1
 48
1.0
  6
ByLayer
100
AcDbLine
 10
305.0
 20
166.0000000000000284
 30
0.0
 11
305.0
 21
165.0000000000000284
 31
0.0
  0
LINE
  5
CD
100
AcDbEntity
  8
0
 62
256
370
-1
 48
1.0
  6
ByLayer
100
AcDbLine
 10
305.0
 20
167.5000000000000284
 30
0.0
 11
305.0
 21
166.0000000000000284
 31
0.0
  0
LINE
  5
CE
100
AcDbEntity
  8
0
 62
256
370
-1
 48
1.0
  6
ByLayer
100
AcDbLine
 10
305.0
 20
163.5000000000000284
 30
0.0
 11
304.0
 21
163.5000000000000284
 31
0.0
  0
LINE
  5
CF
100
AcDbEntity
  8
0
 62
256
370
-1
 48
1.0
  6
ByLayer
100
AcDbLine
 10
305.0
 20
36.4999999999999787
 30
0.0
 11
303.9999999999999432
 21
36.5000000000000071
 31
0.0
  0
LINE
  5
D0
100
AcDbEntity
  8
axis
 62
256
370
-1
 48
1.0
  6
ByLayer
100
AcDbLine
 10
305.5000000000000568
 20
165.5000000000000284
 30
0.0
 11
296.5000000000000568
 21
165.5000000000000284
 31
0.0
  0
LINE
  5
D1
100
AcDbEntity
  8
axis
 62
256
370
-1
 48
1.0
  6
ByLayer
100
AcDbLine
 10
305.5000000000000568
 20
34.4999999999999858
 30
0.0
 11
296.5000000000000568
 21
34.4999999999999858
 31
0.0
  0
LINE
  5
D2
100
AcDbEntity
  8
under
 62
256
370
-1
 48
1.0
  6
ByLayer
100
AcDbLine
 10
306.5000000000000568
 20
32.5
 30
0.0
 11
306.5000000000000568
 21
31.5
 31
0.0
  0
LINE
  5
D3
100
AcDbEntity
  8
under
 62
256
370
-1
 48
1.0
  6
ByLayer
100
AcDbLine
 10
307.5000000000000568
 20
32.5000000000000142
 30
0.0
 11
307.5
 21
31.5000000000000284
 31
0.0
  0
LINE
  5
D4
100
AcDbEntity
  8
0
 62
256
370
-1
 48
1.0
  6
ByLayer
100
AcDbLine
 10
318.0
 20
168.5000000000000284
 30
0.0
 11
318.0
 21
168.5000000000000284
 31
0.0
  0
LINE
  5
D5
100
AcDbEntity
  8
0
 62
256
370
-1
 48
1.0
  6
ByLayer
100
AcDbLine
 10
318.0
 20
31.4999999999999716
 30
0.0
 11
318.0
 21
31.4999999999999716
 31
0.0
  0
LINE
  5
D6
100
AcDbEntity
  8
0
 62
256
370
-1
 48
1.0
  6
ByLayer
100
AcDbLine
 10
319.9999999999999432
 20
31.5
 30
0.0
 11
309.0
 21
31.5
 31
0.0
  0
LINE
  5
D7
100
AcDbEntity
  8
0
 62
256
370
-1
 48
1.0
  6
ByLayer
100
AcDbLine
 10
306.5000000000000568
 20
31.4999999999999858
 30
0.0
 11
304.0
 21
31.5
 31
0.0
  0
LINE
  5
D8
100
AcDbEntity
  8
0
 62
256
370
-1
 48
1.0
  6
ByLayer
100
AcDbLine
 10
309.0
 20
31.5
 30
0.0
 11
307.4999999999999432
 21
31.5000000000000142
 31
0.0
  0
LINE
  5
D9
100
AcDbEntity
  8
0
 62
256
370
-1
 48
1.0
  6
ByLayer
100
AcDbLine
 10
307.4999999999999432
 20
31.5000000000000142
 30
0.0
 11
307.4999999999999432
 21
31.4999999999999858
 31
0.0
  0
LINE
  5
DA
100
AcDbEntity
  8
0
 62
256
370
-1
 48
1.0
  6
ByLayer
100
AcDbLine
 10
307.4999999999999432
 20
31.4999999999999858
 30
0.0
 11
306.5000000000000568
 21
31.4999999999999858
 31
0.0
  0
LINE
  5
DB
100
AcDbEntity
  8
0
 62
256
370
-1
 48
1.0
  6
ByLayer
100
AcDbLine
 10
304.0
 20
31.5
 30
0.0
 11
303.0
 21
31.5
 31
0.0
  0
LINE
  5
DC
100
AcDbEntity
  8
0
 62
256
370
-1
 48
1.0
  6
ByLayer
100
AcDbLine
 10
304.0
 20
168.5000000000000284
 30
0.0
 11
303.0
 21
168.5000000000000284
 31
0.0
  0
LINE
  5
DD
100
AcDbEntity
  8
0
 62
256
370
-1
 48
1.0
  6
ByLayer
100
AcDbLine
 10
303.0
 20
30.4999999999999716
 30
0.0
 11
306.5
 21
30.4999999999999858
 31
0.0
  0
LINE
  5
DE
100
AcDbEntity
  8
0
 62
256
370
-1
 48
1.0
  6
ByLayer
100
AcDbLine
 10
307.5
 20
30.5000000000000142
 30
0.0
 11
320.0
 21
30.5000000000000142
 31
0.0
  0
LINE
  5
DF
100
AcDbEntity
  8
0
 62
256
370
-1
 48
1.0
  6
ByLayer
100
AcDbLine
 10
306.5
 20
30.4999999999999858
 30
0.0
 11
307.5
 21
30.5000000000000142
 31
0.0
  0
LINE
  5
E0
100
AcDbEntity
  8
0
 62
256
370
-1
 48
1.0
  6
ByLayer
100
AcDbLine
 10
305.5999999999999091
 20
173.5000000000000284
 30
0.0
 11
303.0
 21
173.5000000000000284
 31
0.0
  0
LINE
  5
E1
100
AcDbEntity
  8
0
 62
256
370
-1
 48
1.0
  6
ByLayer
100
AcDbLine
 10
308.5
 20
173.5000000000000284
 30
0.0
 11
305.5999999999999091
 21
173.5000000000000284
 31
0.0
  0
LINE
  5
E2
100
AcDbEntity
  8
0
 62
256
370
-1
 48
1.0
  6
ByLayer
100
AcDbLine
 10
320.0
 20
173.5000000000000284
 30
0.0
 11
308.5
 21
173.5000000000000284
 31
0.0
  0
LINE
  5
E3
100
AcDbEntity
  8
0
 62
256
370
-1
 48
1.0
  6
ByLayer
100
AcDbLine
 10
319.9999999999999432
 20
26.5000000000000142
 30
0.0
 11
303.0
 21
26.4999999999999858
 31
0.0
  0
LINE
  5
E4
100
AcDbEntity
  8
under
 62
256
370
-1
 48
1.0
  6
ByLayer
100
AcDbLine
 10
307.4999999999999432
 20
31.5000000000000142
 30
0.0
 11
307.5
 21
30.5000000000000142
 31
0.0
  0
LINE
  5
E5
100
AcDbEntity
  8
under
 62
256
370
-1
 48
1.0
  6
ByLayer
100
AcDbLine
 10
307.4999999999999432
 20
31.5000000000000142
 30
0.0
 11
307.5
 21
30.5000000000000142
 31
0.0
  0
LINE
  5
E6
100
AcDbEntity
  8
under
 62
256
370
-1
 48
1.0
  6
ByLayer
100
AcDbLine
 10
306.5
 20
31.4999999999999858
 30
0.0
 11
306.5
 21
30.4999999999999858
 31
0.0
  0
LINE
  5
E7
100
AcDbEntity
  8
axis
 62
256
370
-1
 48
1.0
  6
ByLayer
100
AcDbLine
 10
307.0
 20
30.0
 30
0.0
 11
307.0
 21
33.0
 31
0.0
  0
LINE
  5
E8
100
AcDbEntity
  8
0
 62
256
370
-1
 48
1.0
  6
ByLayer
100
AcDbLine
 10
302.0
 20
163.0
 30
0.0
 11
299.0
 21
163.0
 31
0.0
  0
LINE
  5
E9
100
AcDbEntity
  8
0
 62
256
370
-1
 48
1.0
  6
ByLayer
100
AcDbLine
 10
302.0
 20
37.0000000000000355
 30
0.0
 11
299.0
 21
37.0000000000000284
 31
0.0
  0
LINE
  5
EA
100
AcDbEntity
  8
0
 62
256
370
-1
 48
1.0
  6
ByLayer
100
AcDbLine
 10
299.0
 20
163.0
 30
0.0
 11
299.0
 21
160.0
 31
0.0
  0
LINE
  5
EB
100
AcDbEntity
  8
0
 62
256
370
-1
 48
1.0
  6
ByLayer
100
AcDbLine
 10
299.0
 20
37.0000000000000284
 30
0.0
 11
299.0
 21
40.0000000000000071
 31
0.0
  0
LINE
  5
EC
100
AcDbEntity
  8
0
 62
256
370
-1
 48
1.0
  6
ByLayer
100
AcDbLine
 10
299.0
 20
160.0
 30
0.0
 11
302.0
 21
160.0
 31
0.0
  0
LINE
  5
ED
100
AcDbEntity
  8
0
 62
256
370
-1
 48
1.0
  6
ByLayer
100
AcDbLine
 10
299.0
 20
40.0000000000000071
 30
0.0
 11
302.0
 21
40.0000000000000426
 31
0.0
  0
LINE
  5
EE
100
AcDbEntity
  8
0
 62
256
370
-1
 48
1.0
  6
ByLayer
100
AcDbLine
 10
302.0
 20
160.0
 30
0.0
 11
302.0
 21
163.0
 31
0.0
  0
LINE
  5
EF
100
AcDbEntity
  8
0
 62
256
370
-1
 48
1.0
  6
ByLayer
100
AcDbLine
 10
302.0
 20
40.0000000000000426
 30
0.0
 11
302.0
 21
37.0000000000000355
 31
0.0
  0
LINE
  5
F0
100
AcDbEntity
  8
help
 62
256
370
-1
 48
1.0
  6
ByLayer
100
AcDbLine
 10
200.0
 20
100.0
 30
0.0
 11
510.0
 21
100.0
 31
0.0
  0
LINE
  5
F1
100
AcDbEntity
  8
0
 62
256
370
-1
 48
1.0
  6
ByLayer
100
AcDbLine
 10
302.0
 20
160.0
 30
0.0
 11
302.0
 21
40.0
 31
0.0
  0
CIRCLE
  5
F2
100
AcDbEntity
  8
0
 62
256
370
-1
 48
1.0
  6
ByLayer
100
AcDbCircle
 10
200.0
 20
34.4999999999999716
 30
0.0
 40
0.5
  0
LINE
  5
F3
100
AcDbEntity
  8
0
 62
256
370
-1
 48
1.0
  6
ByLayer
100
AcDbLine
 10
202.0000000000000568
 20
30.4999999999999716
 30
0.0
 11
198.0000000000000568
 21
30.4999999999999716
 31
0.0
  0
LINE
  5
F4
100
AcDbEntity
  8
0
 62
256
370
-1
 48
1.0
  6
ByLayer
100
AcDbLine
 10
198.0000000000000568
 20
30.4999999999999716
 30
0.0
 11
198.0000000000000568
 21
26.4999999999999716
 31
0.0
  0
LINE
  5
F5
100
AcDbEntity
  8
0
 62
256
370
-1
 48
1.0
  6
ByLayer
100
AcDbLine
 10
198.0000000000000568
 20
26.4999999999999716
 30
0.0
 11
197.0000000000000568
 21
26.4999999999999574
 31
0.0
  0
LINE
  5
F6
100
AcDbEntity
  8
0
 62
256
370
-1
 48
1.0
  6
ByLayer
100
AcDbLine
 10
197.0000000000000568
 20
26.4999999999999574
 30
0.0
 11
197.0000000000000284
 21
31.4999999999999432
 31
0.0
  0
LINE
  5
F7
100
AcDbEntity
  8
0
 62
256
370
-1
 48
1.0
  6
ByLayer
100
AcDbLine
 10
197.0000000000000284
 20
31.4999999999999432
 30
0.0
 11
202.0000000000000568
 21
31.4999999999999289
 31
0.0
  0
LINE
  5
F8
100
AcDbEntity
  8
0
 62
256
370
-1
 48
1.0
  6
ByLayer
100
AcDbLine
 10
202.0000000000000568
 20
31.4999999999999289
 30
0.0
 11
202.0000000000000568
 21
30.4999999999999432
 31
0.0
  0
LINE
  5
F9
100
AcDbEntity
  8
0
 62
256
370
-1
 48
1.0
  6
ByLayer
100
AcDbLine
 10
197.5000000000000284
 20
36.4999999999999929
 30
0.0
 11
202.5000000000000284
 21
36.5
 31
0.0
  0
LINE
  5
FA
100
AcDbEntity
  8
0
 62
256
370
-1
 48
1.0
  6
ByLayer
100
AcDbLine
 10
202.5000000000000284
 20
36.5
 30
0.0
 11
202.5000000000000284
 21
31.4999999999999716
 31
0.0
  0
LINE
  5
FB
100
AcDbEntity
  8
0
 62
256
370
-1
 48
1.0
  6
ByLayer
100
AcDbLine
 10
202.5000000000000284
 20
31.4999999999999716
 30
0.0
 11
197.5000000000000284
 21
31.4999999999999716
 31
0.0
  0
LINE
  5
FC
100
AcDbEntity
  8
0
 62
256
370
-1
 48
1.0
  6
ByLayer
100
AcDbLine
 10
197.5000000000000284
 20
31.4999999999999716
 30
0.0
 11
197.5000000000000284
 21
36.4999999999999929
 31
0.0
  0
LINE
  5
FD
100
AcDbEntity
  8
0
 62
256
370
-1
 48
1.0
  6
ByLayer
100
AcDbLine
 10
197.5000000000000284
 20
32.4999999999999716
 30
0.0
 11
202.5000000000000284
 21
32.4999999999999716
 31
0.0
  0
LINE
  5
FE
100
AcDbEntity
  8
under
 62
256
370
-1
 48
1.0
  6
ByLayer
100
AcDbLine
 10
199.5000000000000284
 20
31.4999999999999716
 30
0.0
 11
199.5000000000000284
 21
30.4999999999999716
 31
0.0
  0
LINE
  5
FF
100
AcDbEntity
  8
under
 62
256
370
-1
 48
1.0
  6
ByLayer
100
AcDbLine
 10
199.5000000000000284
 20
31.4999999999999716
 30
0.0
 11
199.5000000000000284
 21
32.4999999999999574
 31
0.0
  0
LINE
  5
100
100
AcDbEntity
  8
under
 62
256
370
-1
 48
1.0
  6
ByLayer
100
AcDbLine
 10
200.5000000000000284
 20
32.4999999999999858
 30
0.0
 11
200.5000000000000284
 21
31.5
 31
0.0
  0
LINE
  5
101
100
AcDbEntity
  8
under
 62
256
370
-1
 48
1.0
  6
ByLayer
100
AcDbLine
 10
200.5000000000000284
 20
30.5
 30
0.0
 11
200.5000000000000284
 21
31.5
 31
0.0
  0
LINE
  5
102
100
AcDbEntity
  8
axis
 62
256
370
-1
 48
1.0
  6
ByLayer
100
AcDbLine
 10
200.0
 20
29.9999999999999716
 30
0.0
 11
200.0
 21
32.9999999999999716
 31
0.0
  0
LINE
  5
103
100
AcDbEntity
  8
0
 62
256
370
-1
 48
1.0
  6
ByLayer
100
AcDbLine
 10
462.0
 20
201.1999999999999886
 30
0.0
 11
487.0
 21
201.1999999999999886
 31
0.0
  0
LINE
  5
104
100
AcDbEntity
  8
0
 62
256
370
-1
 48
1.0
  6
ByLayer
100
AcDbLine
 10
461.9999999999998863
 20
-1.2000000000000552
 30
0.0
 11
487.0
 21
-1.1999999999999504
 31
0.0
  0
LINE
  5
105
100
AcDbEntity
  8
0
 62
256
370
-1
 48
1.0
  6
ByLayer
100
AcDbLine
 10
375.4999999999999432
 20
173.5000000000000284
 30
0.0
 11
378.4999999999999432
 21
173.5000000000000284
 31
0.0
  0
LINE
  5
106
100
AcDbEntity
  8
0
 62
256
370
-1
 48
1.0
  6
ByLayer
100
AcDbLine
 10
320.0
 20
173.5000000000000284
 30
0.0
 11
375.4999999999999432
 21
173.5000000000000284
 31
0.0
  0
LINE
  5
107
100
AcDbEntity
  8
0
 62
256
370
-1
 48
1.0
  6
ByLayer
100
AcDbLine
 10
378.4999999999999432
 20
173.5000000000000284
 30
0.0
 11
440.4999999999999432
 21
173.5000000000000284
 31
0.0
  0
LINE
  5
108
100
AcDbEntity
  8
0
 62
256
370
-1
 48
1.0
  6
ByLayer
100
AcDbLine
 10
440.4999999999999432
 20
173.5000000000000284
 30
0.0
 11
444.4999999999998295
 21
173.5000000000000284
 31
0.0
  0
LINE
  5
109
100
AcDbEntity
  8
0
 62
256
370
-1
 48
1.0
  6
ByLayer
100
AcDbLine
 10
445.5
 20
173.5000000000000284
 30
0.0
 11
449.5
 21
173.5000000000000284
 31
0.0
  0
LINE
  5
10A
100
AcDbEntity
  8
0
 62
256
370
-1
 48
1.0
  6
ByLayer
100
AcDbLine
 10
444.4999999999998295
 20
173.5000000000000284
 30
0.0
 11
445.5
 21
173.5000000000000284
 31
0.0
  0
LINE
  5
10B
100
AcDbEntity
  8
0
 62
256
370
-1
 48
1.0
  6
ByLayer
100
AcDbLine
 10
449.5
 20
173.5000000000000284
 30
0.0
 11
451.4999999999999432
 21
173.5000000000000284
 31
0.0
  0
LINE
  5
10C
100
AcDbEntity
  8
0
 62
256
370
-1
 48
1.0
  6
ByLayer
100
AcDbLine
 10
319.9999999999999432
 20
26.5000000000000142
 30
0.0
 11
451.4999999999998863
 21
26.4999999999999289
 31
0.0
  0
LINE
  5
10D
100
AcDbEntity
  8
0
 62
256
370
-1
 48
1.0
  6
ByLayer
100
AcDbLine
 10
441.9999999999999432
 20
30.4999999999999858
 30
0.0
 11
442.9999999999999432
 21
30.5
 31
0.0
  0
LINE
  5
10E
100
AcDbEntity
  8
0
 62
256
370
-1
 48
1.0
  6
ByLayer
100
AcDbLine
 10
376.4999999999999432
 20
30.5
 30
0.0
 11
377.4999999999998295
 21
30.5
 31
0.0
  0
LINE
  5
10F
100
AcDbEntity
  8
0
 62
256
370
-1
 48
1.0
  6
ByLayer
100
AcDbLine
 10
447.9999999999999432
 20
30.4999999999999858
 30
0.0
 11
451.4999999999998863
 21
30.4999999999999716
 31
0.0
  0
LINE
  5
110
100
AcDbEntity
  8
0
 62
256
370
-1
 48
1.0
  6
ByLayer
100
AcDbLine
 10
446.9999999999998863
 20
30.4999999999999716
 30
0.0
 11
447.9999999999999432
 21
30.4999999999999858
 31
0.0
  0
LINE
  5
111
100
AcDbEntity
  8
0
 62
256
370
-1
 48
1.0
  6
ByLayer
100
AcDbLine
 10
442.9999999999999432
 20
30.5
 30
0.0
 11
446.9999999999998863
 21
30.4999999999999716
 31
0.0
  0
LINE
  5
112
100
AcDbEntity
  8
0
 62
256
370
-1
 48
1.0
  6
ByLayer
100
AcDbLine
 10
320.0
 20
30.5000000000000142
 30
0.0
 11
376.4999999999999432
 21
30.5
 31
0.0
  0
LINE
  5
113
100
AcDbEntity
  8
0
 62
256
370
-1
 48
1.0
  6
ByLayer
100
AcDbLine
 10
377.4999999999998295
 20
30.5
 30
0.0
 11
441.9999999999999432
 21
30.4999999999999858
 31
0.0
  0
LINE
  5
114
100
AcDbEntity
  8
0
 62
256
370
-1
 48
1.0
  6
ByLayer
100
AcDbLine
 10
319.9999999999999432
 20
31.5
 30
0.0
 11
376.4999999999999432
 21
31.4999999999999716
 31
0.0
  0
LINE
  5
115
100
AcDbEntity
  8
0
 62
256
370
-1
 48
1.0
  6
ByLayer
100
AcDbLine
 10
376.4999999999999432
 20
31.4999999999999716
 30
0.0
 11
377.4999999999999432
 21
31.4999999999999574
 31
0.0
  0
LINE
  5
116
100
AcDbEntity
  8
0
 62
256
370
-1
 48
1.0
  6
ByLayer
100
AcDbLine
 10
376.4999999999999432
 20
168.5000000000000284
 30
0.0
 11
377.4999999999999432
 21
168.5000000000000284
 31
0.0
  0
LINE
  5
117
100
AcDbEntity
  8
0
 62
256
370
-1
 48
1.0
  6
ByLayer
100
AcDbLine
 10
441.9999999999999432
 20
31.5
 30
0.0
 11
441.9999999999999432
 21
31.5
 31
0.0
  0
LINE
  5
118
100
AcDbEntity
  8
0
 62
256
370
-1
 48
1.0
  6
ByLayer
100
AcDbLine
 10
441.9999999999999432
 20
31.5
 30
0.0
 11
436.9999999999998863
 21
31.4999999999999574
 31
0.0
  0
LINE
  5
119
100
AcDbEntity
  8
0
 62
256
370
-1
 48
1.0
  6
ByLayer
100
AcDbLine
 10
443.0
 20
31.5
 30
0.0
 11
441.9999999999999432
 21
31.5
 31
0.0
  0
LINE
  5
11A
100
AcDbEntity
  8
0
 62
256
370
-1
 48
1.0
  6
ByLayer
100
AcDbLine
 10
436.9999999999998863
 20
31.4999999999999574
 30
0.0
 11
431.9999999999999432
 21
31.5
 31
0.0
  0
LINE
  5
11B
100
AcDbEntity
  8
0
 62
256
370
-1
 48
1.0
  6
ByLayer
100
AcDbLine
 10
441.9999999999999432
 20
168.5
 30
0.0
 11
441.9999999999999432
 21
168.5
 31
0.0
  0
LINE
  5
11C
100
AcDbEntity
  8
0
 62
256
370
-1
 48
1.0
  6
ByLayer
100
AcDbLine
 10
443.0
 20
168.5
 30
0.0
 11
441.9999999999999432
 21
168.5
 31
0.0
  0
LINE
  5
11D
100
AcDbEntity
  8
0
 62
256
370
-1
 48
1.0
  6
ByLayer
100
AcDbLine
 10
457.0
 20
34.5
 30
0.0
 11
436.9999999999998863
 21
34.5000000000000284
 31
0.0
  0
LINE
  5
11E
100
AcDbEntity
  8
0
 62
256
370
-1
 48
1.0
  6
ByLayer
100
AcDbLine
 10
436.9999999999998863
 20
34.5000000000000284
 30
0.0
 11
431.9999999999999432
 21
34.5
 31
0.0
  0
LINE
  5
11F
100
AcDbEntity
  8
0
 62
256
370
-1
 48
1.0
  6
ByLayer
100
AcDbLine
 10
459.0
 20
34.5000000000000426
 30
0.0
 11
457.0
 21
34.5
 31
0.0
  0
LINE
  5
120
100
AcDbEntity
  8
0
 62
256
370
-1
 48
1.0
  6
ByLayer
100
AcDbLine
 10
457.0
 20
165.5
 30
0.0
 11
436.9999999999998863
 21
165.5
 31
0.0
  0
LINE
  5
121
100
AcDbEntity
  8
0
 62
256
370
-1
 48
1.0
  6
ByLayer
100
AcDbLine
 10
433.9999999999998863
 20
165.5
 30
0.0
 11
431.9999999999999432
 21
165.5
 31
0.0
  0
LINE
  5
122
100
AcDbEntity
  8
0
 62
256
370
-1
 48
1.0
  6
ByLayer
100
AcDbLine
 10
436.9999999999998863
 20
165.5
 30
0.0
 11
433.9999999999998863
 21
165.5
 31
0.0
  0
LINE
  5
123
100
AcDbEntity
  8
0
 62
256
370
-1
 48
1.0
  6
ByLayer
100
AcDbLine
 10
458.9999999999999432
 20
165.5
 30
0.0
 11
457.0
 21
165.5
 31
0.0
  0
LINE
  5
124
100
AcDbEntity
  8
0
 62
256
370
-1
 48
1.0
  6
ByLayer
100
AcDbLine
 10
431.9999999999999432
 20
168.5
 30
0.0
 11
431.9999999999999432
 21
165.5
 31
0.0
  0
LINE
  5
125
100
AcDbEntity
  8
0
 62
256
370
-1
 48
1.0
  6
ByLayer
100
AcDbLine
 10
431.9999999999999432
 20
31.5
 30
0.0
 11
431.9999999999999432
 21
34.5
 31
0.0
  0
LINE
  5
126
100
AcDbEntity
  8
0
 62
256
370
-1
 48
1.0
  6
ByLayer
100
AcDbLine
 10
458.9999999999998863
 20
50.4999999999999289
 30
0.0
 11
458.9999999999999432
 21
61.5000000000000071
 31
0.0
  0
LINE
  5
127
100
AcDbEntity
  8
0
 62
256
370
-1
 48
1.0
  6
ByLayer
100
AcDbLine
 10
458.9999999999999432
 20
45.5000000000000284
 30
0.0
 11
458.9999999999998863
 21
50.4999999999999289
 31
0.0
  0
LINE
  5
128
100
AcDbEntity
  8
0
 62
256
370
-1
 48
1.0
  6
ByLayer
100
AcDbLine
 10
458.9999999999999432
 20
149.5
 30
0.0
 11
458.9999999999999432
 21
138.5
 31
0.0
  0
LINE
  5
129
100
AcDbEntity
  8
0
 62
256
370
-1
 48
1.0
  6
ByLayer
100
AcDbLine
 10
458.9999999999999432
 20
154.5
 30
0.0
 11
458.9999999999999432
 21
149.5
 31
0.0
  0
LINE
  5
12A
100
AcDbEntity
  8
0
 62
256
370
-1
 48
1.0
  6
ByLayer
100
AcDbLine
 10
458.9999999999999432
 20
165.5
 30
0.0
 11
458.9999999999999432
 21
154.5
 31
0.0
  0
LINE
  5
12B
100
AcDbEntity
  8
0
 62
256
370
-1
 48
1.0
  6
ByLayer
100
AcDbLine
 10
459.0
 20
34.5000000000000426
 30
0.0
 11
458.9999999999999432
 21
45.5000000000000284
 31
0.0
  0
LINE
  5
12C
100
AcDbEntity
  8
0
 62
256
370
-1
 48
1.0
  6
ByLayer
100
AcDbLine
 10
458.9999999999999432
 20
138.5
 30
0.0
 11
462.0
 21
138.5
 31
0.0
  0
LINE
  5
12D
100
AcDbEntity
  8
0
 62
256
370
-1
 48
1.0
  6
ByLayer
100
AcDbLine
 10
458.9999999999999432
 20
61.5000000000000071
 30
0.0
 11
462.0
 21
61.5000000000000355
 31
0.0
  0
LINE
  5
12E
100
AcDbEntity
  8
under
 62
256
370
-1
 48
1.0
  6
ByLayer
100
AcDbLine
 10
458.9999999999998863
 20
50.4999999999999289
 30
0.0
 11
462.0
 21
50.4999999999999645
 31
0.0
  0
LINE
  5
12F
100
AcDbEntity
  8
under
 62
256
370
-1
 48
1.0
  6
ByLayer
100
AcDbLine
 10
458.9999999999999432
 20
45.5000000000000284
 30
0.0
 11
462.0
 21
45.5
 31
0.0
  0
LINE
  5
130
100
AcDbEntity
  8
axis
 62
256
370
-1
 48
1.0
  6
ByLayer
100
AcDbLine
 10
453.0
 20
48.0000000000000213
 30
0.0
 11
482.9999999999999432
 21
47.9999999999999716
 31
0.0
  0
LINE
  5
131
100
AcDbEntity
  8
0
 62
256
370
-1
 48
1.0
  6
ByLayer
100
AcDbLine
 10
451.4999999999998863
 20
30.4999999999999716
 30
0.0
 11
451.4999999999999432
 21
31.4999999999999716
 31
0.0
  0
LINE
  5
132
100
AcDbEntity
  8
0
 62
256
370
-1
 48
1.0
  6
ByLayer
100
AcDbLine
 10
451.4999999999998863
 20
26.4999999999999289
 30
0.0
 11
451.4999999999998863
 21
30.4999999999999716
 31
0.0
  0
LINE
  5
133
100
AcDbEntity
  8
0
 62
256
370
-1
 48
1.0
  6
ByLayer
100
AcDbLine
 10
451.4999999999999432
 20
31.4999999999999716
 30
0.0
 11
451.4999999999999432
 21
31.4999999999999574
 31
0.0
  0
LINE
  5
134
100
AcDbEntity
  8
0
 62
256
370
-1
 48
1.0
  6
ByLayer
100
AcDbLine
 10
451.4999999999999432
 20
169.5
 30
0.0
 11
451.4999999999999432
 21
168.5
 31
0.0
  0
LINE
  5
135
100
AcDbEntity
  8
0
 62
256
370
-1
 48
1.0
  6
ByLayer
100
AcDbLine
 10
451.4999999999999432
 20
168.5
 30
0.0
 11
451.4999999999999432
 21
168.5000000000000284
 31
0.0
  0
LINE
  5
136
100
AcDbEntity
  8
0
 62
256
370
-1
 48
1.0
  6
ByLayer
100
AcDbLine
 10
451.4999999999999432
 20
173.5000000000000284
 30
0.0
 11
451.4999999999999432
 21
169.5
 31
0.0
  0
LINE
  5
137
100
AcDbEntity
  8
under
 62
256
370
-1
 48
1.0
  6
ByLayer
100
AcDbLine
 10
436.9999999999999432
 20
34.5
 30
0.0
 11
436.9999999999998863
 21
31.4999999999999574
 31
0.0
  0
LINE
  5
138
100
AcDbEntity
  8
under
 62
256
370
-1
 48
1.0
  6
ByLayer
100
AcDbLine
 10
457.0
 20
34.5000000000000142
 30
0.0
 11
457.0
 21
31.5000000000000142
 31
0.0
  0
DIMENSION
  5
139
100
AcDbEntity
  8
dims
 62
256
370
-1
 48
1.0
  6
ByLayer
100
AcDbDimension
 10
200.0
 20
100.0
 30
0.0
 11
180.1126217791283466
 21
122.5390286503211996
 31
0.0
 70
4
 71
8
 72
1
 41
1.0
 42
0.0
  1
R<>
  3
Standard
100
AcDbRadialDimension
 15
157.573593128807147
 25
142.426406871192853
 35
0.0
 40
0.0
1001
ACAD
1000
DSTYLE
1002
{
1070
144
1040
1.0
1070
40
1040
1.0
1002
}
  0
DIMENSION
  5
13A
100
AcDbEntity
  8
dims
 62
256
370
-1
 48
1.0
  6
ByLayer
100
AcDbDimension
 10
200.0
 20
100.0
 30
0.0
 11
175.272166423054955
 21
119.6035678280997985
 31
0.0
 70
4
 71
8
 72
1
 41
1.0
 42
0.0
  1
R<>
  3
Standard
100
AcDbRadialDimension
 15
148.3934212097935017
 25
136.135315490115886
 35
0.0
 40
0.0
1001
ACAD
1000
DSTYLE
1002
{
1070
144
1040
1.0
1070
40
1040
1.0
1002
}
  0
DIMENSION
  5
13B
100
AcDbEntity
  8
dims
 62
256
370
-1
 48
1.0
  6
ByLayer
100
AcDbDimension
 10
200.0
 20
100.0
 30
0.0
 11
169.9779444815177385
 21
116.0683479998775169
 31
0.0
 70
4
 71
8
 72
1
 41
1.0
 42
0.0
  1
R<>
  3
Standard
100
AcDbRadialDimension
 15
138.3710704815078145
 25
128.7380417983675898
 35
0.0
 40
0.0
1001
ACAD
1000
DSTYLE
1002
{
1070
144
1040
1.0
1070
40
1040
1.0
1002
}
  0
LINE
  5
13C
100
AcDbEntity
  8
axis
 62
256
370
-1
 48
1.0
  6
ByLayer
100
AcDbLine
 10
434.9999999999999432
 20
169.0
 30
0.0
 11
434.9999999999999432
 21
165.0
 31
0.0
  0
LINE
  5
13D
100
AcDbEntity
  8
axis
 62
256
370
-1
 48
1.0
  6
ByLayer
100
AcDbLine
 10
437.4999999999998863
 20
30.9999999999999432
 30
0.0
 11
437.4999999999998863
 21
34.9999999999999716
 31
0.0
  0
LINE
  5
13E
100
AcDbEntity
  8
axis
 62
256
370
-1
 48
1.0
  6
ByLayer
100
AcDbLine
 10
455.9999999999999432
 20
169.0
 30
0.0
 11
455.9999999999999432
 21
165.0
 31
0.0
  0
LINE
  5
13F
100
AcDbEntity
  8
axis
 62
256
370
-1
 48
1.0
  6
ByLayer
100
AcDbLine
 10
456.4999999999999432
 20
30.9999999999999858
 30
0.0
 11
456.4999999999999432
 21
35.0
 31
0.0
  0
LINE
  5
140
100
AcDbEntity
  8
under
 62
256
370
-1
 48
1.0
  6
ByLayer
100
AcDbLine
 10
447.9999999999999432
 20
30.4999999999999858
 30
0.0
 11
447.9999999999998863
 21
31.4999999999999432
 31
0.0
  0
LINE
  5
141
100
AcDbEntity
  8
under
 62
256
370
-1
 48
1.0
  6
ByLayer
100
AcDbLine
 10
447.9999999999999432
 20
168.5000000000000284
 30
0.0
 11
447.9999999999999432
 21
168.5
 31
0.0
  0
LINE
  5
142
100
AcDbEntity
  8
under
 62
256
370
-1
 48
1.0
  6
ByLayer
100
AcDbLine
 10
447.9999999999998863
 20
31.4999999999999432
 30
0.0
 11
447.9999999999998863
 21
31.4999999999999716
 31
0.0
  0
LINE
  5
143
100
AcDbEntity
  8
under
 62
256
370
-1
 48
1.0
  6
ByLayer
100
AcDbLine
 10
446.9999999999998863
 20
30.4999999999999716
 30
0.0
 11
446.9999999999999432
 21
31.5000000000000284
 31
0.0
  0
LINE
  5
144
100
AcDbEntity
  8
under
 62
256
370
-1
 48
1.0
  6
ByLayer
100
AcDbLine
 10
442.9999999999999432
 20
30.5
 30
0.0
 11
442.9999999999999432
 21
31.4999999999999574
 31
0.0
  0
LINE
  5
145
100
AcDbEntity
  8
under
 62
256
370
-1
 48
1.0
  6
ByLayer
100
AcDbLine
 10
441.9999999999999432
 20
30.4999999999999858
 30
0.0
 11
441.9999999999999432
 21
31.5
 31
0.0
  0
LINE
  5
146
100
AcDbEntity
  8
axis
 62
256
370
-1
 48
1.0
  6
ByLayer
100
AcDbLine
 10
442.4999999999999432
 20
174.0
 30
0.0
 11
442.4999999999999432
 21
168.0
 31
0.0
  0
LINE
  5
147
100
AcDbEntity
  8
axis
 62
256
370
-1
 48
1.0
  6
ByLayer
100
AcDbLine
 10
307.0
 20
174.0000000000000284
 30
0.0
 11
307.0
 21
167.0000000000000284
 31
0.0
  0
LINE
  5
148
100
AcDbEntity
  8
axis
 62
256
370
-1
 48
1.0
  6
ByLayer
100
AcDbLine
 10
377.0
 20
174.0000000000000284
 30
0.0
 11
377.0
 21
168.0000000000000284
 31
0.0
  0
LINE
  5
149
100
AcDbEntity
  8
axis
 62
256
370
-1
 48
1.0
  6
ByLayer
100
AcDbLine
 10
442.4999999999998863
 20
29.9999999999999716
 30
0.0
 11
442.4999999999998863
 21
31.9999999999999574
 31
0.0
  0
LINE
  5
14A
100
AcDbEntity
  8
axis
 62
256
370
-1
 48
1.0
  6
ByLayer
100
AcDbLine
 10
447.4999999999999432
 20
174.0
 30
0.0
 11
447.4999999999999432
 21
168.0
 31
0.0
  0
LINE
  5
14B
100
AcDbEntity
  8
axis
 62
256
370
-1
 48
1.0
  6
ByLayer
100
AcDbLine
 10
447.4999999999999432
 20
29.9999999999999858
 30
0.0
 11
447.4999999999998863
 21
31.9999999999999858
 31
0.0
  0
LINE
  5
14C
100
AcDbEntity
  8
under
 62
256
370
-1
 48
1.0
  6
ByLayer
100
AcDbLine
 10
462.0
 20
45.5
 30
0.0
 11
472.0
 21
45.5000000000000711
 31
0.0
  0
LINE
  5
14D
100
AcDbEntity
  8
under
 62
256
370
-1
 48
1.0
  6
ByLayer
100
AcDbLine
 10
461.9999999999999432
 20
50.4999999999999858
 30
0.0
 11
471.9999999999998863
 21
50.4999999999999289
 31
0.0
  0
LINE
  5
14E
100
AcDbEntity
  8
under
 62
256
370
-1
 48
1.0
  6
ByLayer
100
AcDbLine
 10
472.0
 20
45.5000000000000711
 30
0.0
 11
473.4433756729740139
 21
47.9999999999999432
 31
0.0
  0
LINE
  5
14F
100
AcDbEntity
  8
under
 62
256
370
-1
 48
1.0
  6
ByLayer
100
AcDbLine
 10
471.9999999999998863
 20
50.4999999999999289
 30
0.0
 11
473.4433756729740139
 21
48.0000000000000497
 31
0.0
  0
LINE
  5
150
100
AcDbEntity
  8
help
 62
256
370
-1
 48
1.0
  6
ByLayer
100
AcDbLine
 10
372.0
 20
100.0000000000000142
 30
0.0
 11
372.0
 21
195.2199999999999989
 31
0.0
  0
LINE
  5
151
100
AcDbEntity
  8
help
 62
256
370
-1
 48
1.0
  6
ByLayer
100
AcDbLine
 10
372.0
 20
100.0000000000000142
 30
0.0
 11
371.9999999999999432
 21
4.7800000000000011
 31
0.0
  0
ELLIPSE
  5
152
100
AcDbEntity
  8
0
 62
256
370
-1
 48
1.0
  6
ByLayer
100
AcDbEllipse
 10
372.0000000000000568
 20
100.0
 30
0.0
 11
0.0000000000000039
 21
63.0000000000000071
 31
0.0
 40
0.4999999999999999
 41
0.0
 42
6.2831853071795862
  0
ELLIPSE
  5
153
100
AcDbEntity
  8
0
 62
256
370
-1
 48
1.0
  6
ByLayer
100
AcDbEllipse
 10
372.0000000000000568
 20
100.0
 30
0.0
 11
0.0000000000000037
 21
60.0000000000000071
 31
0.0
 40
0.4999999999999999
 41
0.0
 42
6.2831853071795862
  0
ELLIPSE
  5
154
100
AcDbEntity
  8
0
 62
256
370
-1
 48
1.0
  6
ByLayer
100
AcDbEllipse
 10
372.0000000000000568
 20
100.0
 30
0.0
 11
0.0000000000000042
 21
68.0
 31
0.0
 40
0.4999999999999999
 41
0.0
 42
6.2831853071795862
  0
LINE
  5
155
100
AcDbEntity
  8
axis
 62
256
370
-1
 48
1.0
  6
ByLayer
100
AcDbLine
 10
376.9999999999998863
 20
30.0
 30
0.0
 11
376.9999999999998863
 21
31.9999999999999858
 31
0.0
  0
LINE
  5
156
100
AcDbEntity
  8
under
 62
256
370
-1
 48
1.0
  6
ByLayer
100
AcDbLine
 10
376.4999999999999432
 20
30.5
 30
0.0
 11
376.4999999999999432
 21
31.4999999999999716
 31
0.0
  0
LINE
  5
157
100
AcDbEntity
  8
under
 62
256
370
-1
 48
1.0
  6
ByLayer
100
AcDbLine
 10
377.4999999999998863
 20
30.4999999999999858
 30
0.0
 11
377.4999999999999432
 21
31.4999999999999574
 31
0.0
  0
DIMENSION
  5
158
100
AcDbEntity
  8
dims
 62
256
370
-1
 48
1.0
  6
ByLayer
100
AcDbDimension
 10
459.0
 20
134.25
 30
0.0
 11
460.5
 21
136.125
 31
0.0
 70
0
 71
8
 72
1
 41
1.0
 42
0.0
  1

  3
Standard
100
AcDbAlignedDimension
 13
459.0
 23
140.0
 33
0.0
 14
462.0
 24
140.0
 34
0.0
 50
0.0
100
AcDbRotatedDimension
1001
ACAD
1000
DSTYLE
1002
{
1070
144
1040
1.0
1070
40
1040
1.0
1002
}
  0
DIMENSION
  5
159
100
AcDbEntity
  8
dims
 62
256
370
-1
 48
1.0
  6
ByLayer
100
AcDbDimension
 10
442.4999999999999432
 20
175.0000000000000284
 30
0.0
 11
444.9999999999999432
 21
176.8750000000000284
 31
0.0
 70
1
 71
8
 72
1
 41
1.0
 42
0.0
  1

  3
Standard
100
AcDbAlignedDimension
 13
442.4999999999999432
 23
169.5
 33
0.0
 14
447.4999999999999432
 24
169.5
 34
0.0
1001
ACAD
1000
DSTYLE
1002
{
1070
144
1040
1.0
1070
40
1040
1.0
1002
}
  0
DIMENSION
  5
15A
100
AcDbEntity
  8
dims
 62
256
370
-1
 48
1.0
  6
ByLayer
100
AcDbDimension
 10
447.4999999999999432
 20
175.0000000000000284
 30
0.0
 11
449.4999999999998863
 21
176.875
 31
0.0
 70
1
 71
8
 72
1
 41
1.0
 42
0.0
  1

  3
Standard
100
AcDbAlignedDimension
 13
447.4999999999999432
 23
169.5
 33
0.0
 14
451.4999999999998863
 24
169.4999999999999716
 34
0.0
1001
ACAD
1000
DSTYLE
1002
{
1070
144
1040
1.0
1070
40
1040
1.0
1002
}
  0
DIMENSION
  5
15B
100
AcDbEntity
  8
dims
 62
256
370
-1
 48
1.0
  6
ByLayer
100
AcDbDimension
 10
483.0
 20
168.4999999999999716
 30
0.0
 11
481.125
 21
153.4999999999999432
 31
0.0
 70
1
 71
8
 72
1
 41
1.0
 42
0.0
  1

  3
Standard
100
AcDbAlignedDimension
 13
462.0
 23
168.5
 33
0.0
 14
461.9999999999999432
 24
138.4999999999999716
 34
0.0
1001
ACAD
1000
DSTYLE
1002
{
1070
144
1040
1.0
1070
40
1040
1.0
1002
}
  0
LINE
  5
15C
100
AcDbEntity
  8
0
 62
256
370
-1
 48
1.0
  6
ByLayer
100
AcDbLine
 10
303.0
 20
30.4999999999999716
 30
0.0
 11
303.0
 21
26.4999999999999858
 31
0.0
  0
LINE
  5
15D
100
AcDbEntity
  8
0
 62
256
370
-1
 48
1.0
  6
ByLayer
100
AcDbLine
 10
303.0
 20
31.5000000000000284
 30
0.0
 11
303.0
 21
30.4999999999999716
 31
0.0
  0
LINE
  5
15E
100
AcDbEntity
  8
0
 62
256
370
-1
 48
1.0
  6
ByLayer
100
AcDbLine
 10
303.0
 20
168.5
 30
0.0
 11
303.0
 21
169.5000000000000284
 31
0.0
  0
LINE
  5
15F
100
AcDbEntity
  8
0
 62
256
370
-1
 48
1.0
  6
ByLayer
100
AcDbLine
 10
303.0
 20
169.5000000000000284
 30
0.0
 11
303.0
 21
173.5000000000000284
 31
0.0
  0
DIMENSION
  5
160
100
AcDbEntity
  8
dims
 62
256
370
-1
 48
1.0
  6
ByLayer
100
AcDbDimension
 10
303.0
 20
182.4999999999999432
 30
0.0
 11
377.25
 21
184.3749999999999432
 31
0.0
 70
1
 71
8
 72
1
 41
1.0
 42
0.0
  1

  3
Standard
100
AcDbAlignedDimension
 13
303.0
 23
171.0
 33
0.0
 14
451.4999999999999432
 24
171.0000000000000284
 34
0.0
1001
ACAD
1000
DSTYLE
1002
{
1070
144
1040
1.0
1070
40
1040
1.0
1002
}
  0
DIMENSION
  5
161
100
AcDbEntity
  8
dims
 62
256
370
-1
 48
1.0
  6
ByLayer
100
AcDbDimension
 10
297.0
 20
190.0
 30
0.0
 11
379.5
 21
191.875
 31
0.0
 70
0
 71
8
 72
1
 41
1.0
 42
0.0
  1

  3
Standard
100
AcDbAlignedDimension
 13
297.0
 23
167.0
 33
0.0
 14
462.0
 24
201.2199999999999989
 34
0.0
 50
0.0
100
AcDbRotatedDimension
1001
ACAD
1000
DSTYLE
1002
{
1070
144
1040
1.0
1070
40
1040
1.0
1002
}
  0
LINE
  5
162
100
AcDbEntity
  8
0
 62
256
370
-1
 48
1.0
  6
ByLayer
100
AcDbLine
 10
462.0
 20
13.7000000000000028
 30
0.0
 11
461.9999999999999432
 21
5.2999999999999403
 31
0.0
  0
LINE
  5
163
100
AcDbEntity
  8
0
 62
256
370
-1
 48
1.0
  6
ByLayer
100
AcDbLine
 10
461.9999999999999432
 20
23.9999999999999716
 30
0.0
 11
462.0
 21
14.25
 31
0.0
  0
LINE
  5
164
100
AcDbEntity
  8
0
 62
256
370
-1
 48
1.0
  6
ByLayer
100
AcDbLine
 10
462.0
 20
31.4999999999999858
 30
0.0
 11
461.9999999999999432
 21
23.9999999999999716
 31
0.0
  0
LINE
  5
165
100
AcDbEntity
  8
0
 62
256
370
-1
 48
1.0
  6
ByLayer
100
AcDbLine
 10
462.0
 20
14.25
 30
0.0
 11
462.0
 21
13.7000000000000028
 31
0.0
  0
LINE
  5
166
100
AcDbEntity
  8
0
 62
256
370
-1
 48
1.0
  6
ByLayer
100
AcDbLine
 10
462.0
 20
100.0
 30
0.0
 11
462.0
 21
138.4999999999999716
 31
0.0
  0
LINE
  5
167
100
AcDbEntity
  8
0
 62
256
370
-1
 48
1.0
  6
ByLayer
100
AcDbLine
 10
462.0
 20
138.4999999999999716
 30
0.0
 11
462.0
 21
149.5000000000000284
 31
0.0
  0
LINE
  5
168
100
AcDbEntity
  8
0
 62
256
370
-1
 48
1.0
  6
ByLayer
100
AcDbLine
 10
462.0
 20
149.5000000000000284
 30
0.0
 11
462.0
 21
154.5
 31
0.0
  0
LINE
  5
169
100
AcDbEntity
  8
0
 62
256
370
-1
 48
1.0
  6
ByLayer
100
AcDbLine
 10
462.0
 20
154.5
 30
0.0
 11
462.0
 21
168.5
 31
0.0
  0
LINE
  5
16A
100
AcDbEntity
  8
0
 62
256
370
-1
 48
1.0
  6
ByLayer
100
AcDbLine
 10
462.0
 20
194.6999999999999886
 30
0.0
 11
462.0
 21
201.1999999999999886
 31
0.0
  0
LINE
  5
16B
100
AcDbEntity
  8
0
 62
256
370
-1
 48
1.0
  6
ByLayer
100
AcDbLine
 10
462.0
 20
168.5
 30
0.0
 11
462.0
 21
175.9999999999999716
 31
0.0
  0
LINE
  5
16C
100
AcDbEntity
  8
0
 62
256
370
-1
 48
1.0
  6
ByLayer
100
AcDbLine
 10
462.0
 20
175.9999999999999716
 30
0.0
 11
462.0
 21
185.7500000000000284
 31
0.0
  0
LINE
  5
16D
100
AcDbEntity
  8
0
 62
256
370
-1
 48
1.0
  6
ByLayer
100
AcDbLine
 10
462.0
 20
185.7500000000000284
 30
0.0
 11
462.0
 21
186.2999999999999829
 31
0.0
  0
LINE
  5
16E
100
AcDbEntity
  8
0
 62
256
370
-1
 48
1.0
  6
ByLayer
100
AcDbLine
 10
462.0
 20
186.2999999999999829
 30
0.0
 11
462.0
 21
194.6999999999999886
 31
0.0
  0
LINE
  5
16F
100
AcDbEntity
  8
0
 62
256
370
-1
 48
1.0
  6
ByLayer
100
AcDbLine
 10
461.9999999999999432
 20
5.2999999999999403
 30
0.0
 11
461.9999999999998863
 21
-1.2000000000000597
 31
0.0
  0
LINE
  5
170
100
AcDbEntity
  8
0
 62
256
370
-1
 48
1.0
  6
ByLayer
100
AcDbLine
 10
462.0
 20
61.5000000000000355
 30
0.0
 11
462.0
 21
50.4999999999999574
 31
0.0
  0
LINE
  5
171
100
AcDbEntity
  8
0
 62
256
370
-1
 48
1.0
  6
ByLayer
100
AcDbLine
 10
462.0
 20
99.9999999999999716
 30
0.0
 11
462.0
 21
61.5000000000000355
 31
0.0
  0
LINE
  5
172
100
AcDbEntity
  8
0
 62
256
370
-1
 48
1.0
  6
ByLayer
100
AcDbLine
 10
462.0
 20
50.4999999999999574
 30
0.0
 11
462.0
 21
45.5
 31
0.0
  0
LINE
  5
173
100
AcDbEntity
  8
0
 62
256
370
-1
 48
1.0
  6
ByLayer
100
AcDbLine
 10
462.0
 20
45.5
 30
0.0
 11
462.0
 21
31.4999999999999858
 31
0.0
  0
LINE
  5
174
100
AcDbEntity
  8
0
 62
256
370
-1
 48
1.0
  6
ByLayer
100
AcDbLine
 10
487.0
 20
13.6999999999999886
 30
0.0
 11
486.9999999999999432
 21
5.2999999999999261
 31
0.0
  0
LINE
  5
175
100
AcDbEntity
  8
0
 62
256
370
-1
 48
1.0
  6
ByLayer
100
AcDbLine
 10
487.0
 20
99.9999999999999716
 30
0.0
 11
487.0
 21
13.6999999999999886
 31
0.0
  0
LINE
  5
176
100
AcDbEntity
  8
0
 62
256
370
-1
 48
1.0
  6
ByLayer
100
AcDbLine
 10
487.0
 20
194.6999999999999886
 30
0.0
 11
487.0
 21
201.1999999999999886
 31
0.0
  0
LINE
  5
177
100
AcDbEntity
  8
0
 62
256
370
-1
 48
1.0
  6
ByLayer
100
AcDbLine
 10
487.0
 20
100.0
 30
0.0
 11
487.0
 21
186.2999999999999829
 31
0.0
  0
LINE
  5
178
100
AcDbEntity
  8
0
 62
256
370
-1
 48
1.0
  6
ByLayer
100
AcDbLine
 10
487.0
 20
186.2999999999999829
 30
0.0
 11
487.0
 21
194.6999999999999886
 31
0.0
  0
LINE
  5
179
100
AcDbEntity
  8
0
 62
256
370
-1
 48
1.0
  6
ByLayer
100
AcDbLine
 10
486.9999999999999432
 20
5.2999999999999261
 30
0.0
 11
487.0
 21
-1.199999999999946
 31
0.0
  0
LINE
  5
17A
100
AcDbEntity
  8
axis
 62
256
370
-1
 48
1.0
  6
ByLayer
100
AcDbLine
 10
461.4999999999998863
 20
9.4999999999999716
 30
0.0
 11
487.4999999999998863
 21
9.4999999999999574
 31
0.0
  0
LINE
  5
17B
100
AcDbEntity
  8
axis
 62
256
370
-1
 48
1.0
  6
ByLayer
100
AcDbLine
 10
461.4999999999999432
 20
190.4999999999999716
 30
0.0
 11
487.4999999999999432
 21
190.4999999999999716
 31
0.0
  0
LINE
  5
17C
100
AcDbEntity
  8
under
 62
256
370
-1
 48
1.0
  6
ByLayer
100
AcDbLine
 10
461.9999999999998863
 20
5.2999999999999829
 30
0.0
 11
486.9999999999999432
 21
5.2999999999999261
 31
0.0
  0
LINE
  5
17D
100
AcDbEntity
  8
under
 62
256
370
-1
 48
1.0
  6
ByLayer
100
AcDbLine
 10
461.9999999999999432
 20
13.7000000000000313
 30
0.0
 11
487.0
 21
13.6999999999999886
 31
0.0
  0
LINE
  5
17E
100
AcDbEntity
  8
under
 62
256
370
-1
 48
1.0
  6
ByLayer
100
AcDbLine
 10
461.9999999999999432
 20
186.2999999999999829
 30
0.0
 11
487.0
 21
186.2999999999999829
 31
0.0
  0
LINE
  5
17F
100
AcDbEntity
  8
0
 62
256
370
-1
 48
1.0
  6
ByLayer
100
AcDbLine
 10
462.0
 20
14.2500000000000142
 30
0.0
 11
463.6427196325187197
 21
14.2499999999999858
 31
0.0
  0
LINE
  5
180
100
AcDbEntity
  8
0
 62
256
370
-1
 48
1.0
  6
ByLayer
100
AcDbLine
 10
462.0
 20
185.75
 30
0.0
 11
463.6427196325187765
 21
185.75
 31
0.0
  0
LINE
  5
181
100
AcDbEntity
  8
0
 62
256
370
-1
 48
1.0
  6
ByLayer
100
AcDbLine
 10
463.6427196325187765
 20
14.2499999999999574
 30
0.0
 11
462.660000000000025
 21
16.9500000000000313
 31
0.0
  0
LINE
  5
182
100
AcDbEntity
  8
0
 62
256
370
-1
 48
1.0
  6
ByLayer
100
AcDbLine
 10
463.6427196325188334
 20
185.75
 30
0.0
 11
462.660000000000025
 21
183.0499999999999545
 31
0.0
  0
LINE
  5
183
100
AcDbEntity
  8
0
 62
256
370
-1
 48
1.0
  6
ByLayer
100
AcDbLine
 10
463.1899999999999409
 20
17.1429042241610148
 30
0.0
 11
463.1899999999999977
 21
24.0000000000000284
 31
0.0
  0
LINE
  5
184
100
AcDbEntity
  8
0
 62
256
370
-1
 48
1.0
  6
ByLayer
100
AcDbLine
 10
463.1899999999999977
 20
182.8570957758389284
 30
0.0
 11
463.1899999999999977
 21
175.9999999999999716
 31
0.0
  0
LINE
  5
185
100
AcDbEntity
  8
0
 62
256
370
-1
 48
1.0
  6
ByLayer
100
AcDbLine
 10
462.6599999999999682
 20
16.9499999999999318
 30
0.0
 11
463.1900000000000546
 21
17.1429042241611
 31
0.0
  0
LINE
  5
186
100
AcDbEntity
  8
0
 62
256
370
-1
 48
1.0
  6
ByLayer
100
AcDbLine
 10
462.660000000000025
 20
183.0500000000000114
 30
0.0
 11
463.1900000000000546
 21
182.8570957758389
 31
0.0
  0
LINE
  5
187
100
AcDbEntity
  8
0
 62
256
370
-1
 48
1.0
  6
ByLayer
100
AcDbLine
 10
460.6600000000000819
 20
176.2000000000000171
 30
0.0
 11
462.6600000000000819
 21
176.2000000000000171
 31
0.0
  0
LINE
  5
188
100
AcDbEntity
  8
0
 62
256
370
-1
 48
1.0
  6
ByLayer
100
AcDbLine
 10
460.6600000000000819
 20
23.7999999999999687
 30
0.0
 11
462.6600000000000819
 21
23.7999999999999545
 31
0.0
  0
LINE
  5
189
100
AcDbEntity
  8
0
 62
256
370
-1
 48
1.0
  6
ByLayer
100
AcDbLine
 10
462.6600000000000819
 20
176.2000000000000171
 30
0.0
 11
462.6600000000000819
 21
185.5500000000000398
 31
0.0
  0
LINE
  5
18A
100
AcDbEntity
  8
0
 62
256
370
-1
 48
1.0
  6
ByLayer
100
AcDbLine
 10
462.6600000000000819
 20
23.7999999999999545
 30
0.0
 11
462.6600000000000819
 21
14.4499999999999318
 31
0.0
  0
LINE
  5
18B
100
AcDbEntity
  8
0
 62
256
370
-1
 48
1.0
  6
ByLayer
100
AcDbLine
 10
462.6600000000000819
 20
185.5500000000000398
 30
0.0
 11
460.6600000000000819
 21
185.5500000000000398
 31
0.0
  0
LINE
  5
18C
100
AcDbEntity
  8
0
 62
256
370
-1
 48
1.0
  6
ByLayer
100
AcDbLine
 10
462.6600000000000819
 20
14.4499999999999318
 30
0.0
 11
460.6600000000000819
 21
14.449999999999946
 31
0.0
  0
LINE
  5
18D
100
AcDbEntity
  8
0
 62
256
370
-1
 48
1.0
  6
ByLayer
100
AcDbLine
 10
460.6600000000000819
 20
185.5500000000000398
 30
0.0
 11
460.6600000000000819
 21
176.2000000000000171
 31
0.0
  0
LINE
  5
18E
100
AcDbEntity
  8
0
 62
256
370
-1
 48
1.0
  6
ByLayer
100
AcDbLine
 10
460.6600000000000819
 20
14.449999999999946
 30
0.0
 11
460.6600000000000819
 21
23.7999999999999687
 31
0.0
  0
LINE
  5
18F
100
AcDbEntity
  8
0
 62
256
370
-1
 48
1.0
  6
ByLayer
100
AcDbLine
 10
461.9999999999999432
 20
175.9999999999999716
 30
0.0
 11
463.1899999999999409
 21
175.9999999999999716
 31
0.0
  0
LINE
  5
190
100
AcDbEntity
  8
0
 62
256
370
-1
 48
1.0
  6
ByLayer
100
AcDbLine
 10
461.9999999999998863
 20
24.0
 30
0.0
 11
463.1899999999999409
 21
24.0000000000000568
 31
0.0
  0
LINE
  5
191
100
AcDbEntity
  8
0
 62
256
370
-1
 48
1.0
  6
ByLayer
100
AcDbLine
 10
304.0
 20
32.0000000000000142
 30
0.0
 11
304.0
 21
31.5
 31
0.0
  0
LINE
  5
192
100
AcDbEntity
  8
0
 62
256
370
-1
 48
1.0
  6
ByLayer
100
AcDbLine
 10
304.0
 20
32.3000000000000398
 30
0.0
 11
304.0
 21
32.0000000000000142
 31
0.0
  0
LINE
  5
193
100
AcDbEntity
  8
0
 62
256
370
-1
 48
1.0
  6
ByLayer
100
AcDbLine
 10
304.0
 20
167.6999999999999886
 30
0.0
 11
304.0
 21
168.0
 31
0.0
  0
LINE
  5
194
100
AcDbEntity
  8
0
 62
256
370
-1
 48
1.0
  6
ByLayer
100
AcDbLine
 10
304.0
 20
168.0
 30
0.0
 11
304.0
 21
168.5000000000000284
 31
0.0
  0
LINE
  5
195
100
AcDbEntity
  8
0
 62
256
370
-1
 48
1.0
  6
ByLayer
100
AcDbLine
 10
448.4999999999998863
 20
168.5000000000000284
 30
0.0
 11
451.4999999999999432
 21
168.5000000000000284
 31
0.0
  0
LINE
  5
196
100
AcDbEntity
  8
0
 62
256
370
-1
 48
1.0
  6
ByLayer
100
AcDbLine
 10
447.9999999999999432
 20
168.5000000000000284
 30
0.0
 11
448.4999999999998863
 21
168.5000000000000284
 31
0.0
  0
LINE
  5
197
100
AcDbEntity
  8
0
 62
256
370
-1
 48
1.0
  6
ByLayer
100
AcDbLine
 10
443.4999999999999432
 20
168.5000000000000284
 30
0.0
 11
446.5
 21
168.5000000000000284
 31
0.0
  0
LINE
  5
198
100
AcDbEntity
  8
0
 62
256
370
-1
 48
1.0
  6
ByLayer
100
AcDbLine
 10
443.0
 20
168.5000000000000284
 30
0.0
 11
443.4999999999999432
 21
168.5000000000000284
 31
0.0
  0
LINE
  5
199
100
AcDbEntity
  8
0
 62
256
370
-1
 48
1.0
  6
ByLayer
100
AcDbLine
 10
446.5
 20
168.5000000000000284
 30
0.0
 11
447.0
 21
168.5000000000000284
 31
0.0
  0
LINE
  5
19A
100
AcDbEntity
  8
0
 62
256
370
-1
 48
1.0
  6
ByLayer
100
AcDbLine
 10
447.0
 20
168.5000000000000284
 30
0.0
 11
447.9999999999999432
 21
168.5000000000000284
 31
0.0
  0
LINE
  5
19B
100
AcDbEntity
  8
0
 62
256
370
-1
 48
1.0
  6
ByLayer
100
AcDbLine
 10
457.0
 20
168.5000000000000284
 30
0.0
 11
462.0
 21
168.5000000000000284
 31
0.0
  0
LINE
  5
19C
100
AcDbEntity
  8
0
 62
256
370
-1
 48
1.0
  6
ByLayer
100
AcDbLine
 10
451.4999999999999432
 20
168.5000000000000284
 30
0.0
 11
457.0
 21
168.5000000000000284
 31
0.0
  0
LINE
  5
19D
100
AcDbEntity
  8
0
 62
256
370
-1
 48
1.0
  6
ByLayer
100
AcDbLine
 10
456.9999999999999432
 20
31.4999999999999432
 30
0.0
 11
462.0
 21
31.4999999999999858
 31
0.0
  0
LINE
  5
19E
100
AcDbEntity
  8
0
 62
256
370
-1
 48
1.0
  6
ByLayer
100
AcDbLine
 10
451.4999999999999432
 20
31.4999999999999574
 30
0.0
 11
456.9999999999999432
 21
31.4999999999999432
 31
0.0
  0
LINE
  5
19F
100
AcDbEntity
  8
0
 62
256
370
-1
 48
1.0
  6
ByLayer
100
AcDbLine
 10
447.0
 20
31.4999999999999716
 30
0.0
 11
447.9999999999998863
 21
31.4999999999999432
 31
0.0
  0
LINE
  5
1A0
100
AcDbEntity
  8
0
 62
256
370
-1
 48
1.0
  6
ByLayer
100
AcDbLine
 10
447.9999999999998863
 20
31.4999999999999432
 30
0.0
 11
451.4999999999999432
 21
31.4999999999999574
 31
0.0
  0
LINE
  5
1A1
100
AcDbEntity
  8
0
 62
256
370
-1
 48
1.0
  6
ByLayer
100
AcDbLine
 10
442.9999999999999432
 20
31.4999999999999289
 30
0.0
 11
447.0
 21
31.4999999999999716
 31
0.0
  0
LINE
  5
1A2
100
AcDbEntity
  8
0
 62
256
370
-1
 48
1.0
  6
ByLayer
100
AcDbLine
 10
377.4999999999999432
 20
31.4999999999999574
 30
0.0
 11
436.9999999999998863
 21
31.4999999999999574
 31
0.0
  0
LINE
  5
1A3
100
AcDbEntity
  8
0
 62
256
370
-1
 48
1.0
  6
ByLayer
100
AcDbLine
 10
436.9999999999998863
 20
31.4999999999999574
 30
0.0
 11
441.9999999999999432
 21
31.5
 31
0.0
  0
LINE
  5
1A4
100
AcDbEntity
  8
0
 62
256
370
-1
 48
1.0
  6
ByLayer
100
AcDbLine
 10
441.4999999999999432
 20
168.5
 30
0.0
 11
441.9999999999999432
 21
168.5
 31
0.0
  0
DIMENSION
  5
1A5
100
AcDbEntity
  8
dims
 62
256
370
-1
 48
1.0
  6
ByLayer
100
AcDbDimension
 10
299.0
 20
154.0
 30
0.0
 11
300.5
 21
155.875
 31
0.0
 70
1
 71
8
 72
1
 41
1.0
 42
0.0
  1

  3
Standard
100
AcDbAlignedDimension
 13
299.0
 23
160.0
 33
0.0
 14
302.0
 24
160.0
 34
0.0
1001
ACAD
1000
DSTYLE
1002
{
1070
144
1040
1.0
1070
40
1040
1.0
1002
}
  0
DIMENSION
  5
1A6
100
AcDbEntity
  8
dims
 62
256
370
-1
 48
1.0
  6
ByLayer
100
AcDbDimension
 10
302.0
 20
149.0
 30
0.0
 11
303.0
 21
150.875
 31
0.0
 70
1
 71
8
 72
1
 41
1.0
 42
0.0
  1

  3
Standard
100
AcDbAlignedDimension
 13
302.0
 23
160.0
 33
0.0
 14
304.0
 24
160.0
 34
0.0
1001
ACAD
1000
DSTYLE
1002
{
1070
144
1040
1.0
1070
40
1040
1.0
1002
}
  0
DIMENSION
  5
1A7
100
AcDbEntity
  8
dims
 62
256
370
-1
 48
1.0
  6
ByLayer
100
AcDbDimension
 10
298.5000000000000568
 20
163.0000000000000284
 30
0.0
 11
293.8468399839306926
 21
165.7244025536725474
 31
0.0
 70
4
 71
8
 72
1
 41
1.0
 42
0.0
  1
R<>
  3
Standard
100
AcDbRadialDimension
 15
298.0075961234939541
 25
163.086824088833481
 35
0.0
 40
0.0
1001
ACAD
1000
DSTYLE
1002
{
1070
144
1040
1.0
1070
40
1040
1.0
1002
}
  0
DIMENSION
  5
1A8
100
AcDbEntity
  8
dims
 62
256
370
-1
 48
1.0
  6
ByLayer
100
AcDbDimension
 10
300.0
 20
168.5000000000000284
 30
0.0
 11
298.125
 21
171.069444508890939
 31
0.0
 70
1
 71
8
 72
1
 41
1.0
 42
0.0
  1

  3
Standard
100
AcDbAlignedDimension
 13
303.5
 23
168.5000000000000284
 33
0.0
 14
303.5
 24
168.0
 34
0.0
1001
ACAD
1000
DSTYLE
1002
{
1070
144
1040
1.0
1070
40
1040
1.0
1002
}
  0
DIMENSION
  5
1A9
100
AcDbEntity
  8
dims
 62
256
370
-1
 48
1.0
  6
ByLayer
100
AcDbDimension
 10
491.25
 20
176.0
 30
0.0
 11
489.375
 21
100.0000000000000284
 31
0.0
 70
1
 71
8
 72
1
 41
1.0
 42
0.0
  1

  3
Standard
100
AcDbAlignedDimension
 13
463.1899999999999977
 23
176.0
 33
0.0
 14
463.1899999999999977
 24
24.0000000000000568
 34
0.0
1001
ACAD
1000
DSTYLE
1002
{
1070
144
1040
1.0
1070
40
1040
1.0
1002
}
  0
DIMENSION
  5
1AA
100
AcDbEntity
  8
dims
 62
256
370
-1
 48
1.0
  6
ByLayer
100
AcDbDimension
 10
496.0000000000001137
 20
183.0500000000000398
 30
0.0
 11
494.1250000000001137
 21
99.9999999999999858
 31
0.0
 70
1
 71
8
 72
1
 41
1.0
 42
0.0
  1

  3
Standard
100
AcDbAlignedDimension
 13
462.6600000000000819
 23
183.0500000000000398
 33
0.0
 14
462.6600000000000819
 24
16.9499999999999496
 34
0.0
1001
ACAD
1000
DSTYLE
1002
{
1070
144
1040
1.0
1070
40
1040
1.0
1002
}
  0
DIMENSION
  5
1AB
100
AcDbEntity
  8
dims
 62
256
370
-1
 48
1.0
  6
ByLayer
100
AcDbDimension
 10
501.0
 20
185.7499999999999716
 30
0.0
 11
499.1249999999999432
 21
99.9999999999999574
 31
0.0
 70
1
 71
8
 72
1
 41
1.0
 42
0.0
  1

  3
Standard
100
AcDbAlignedDimension
 13
463.6427196325188902
 23
185.75
 33
0.0
 14
463.6427196325187765
 24
14.2499999999999858
 34
0.0
1001
ACAD
1000
DSTYLE
1002
{
1070
144
1040
1.0
1070
40
1040
1.0
1002
}
  0
DIMENSION
  5
1AC
100
AcDbEntity
  8
dims
 62
256
370
-1
 48
1.0
  6
ByLayer
100
AcDbDimension
 10
506.0
 20
201.1999999999999886
 30
0.0
 11
504.125
 21
100.0000000000000142
 31
0.0
 70
1
 71
8
 72
1
 41
1.0
 42
0.0
  1

  3
Standard
100
AcDbAlignedDimension
 13
487.0
 23
201.1999999999999886
 33
0.0
 14
487.0000000000000568
 24
-1.199999999999946
 34
0.0
1001
ACAD
1000
DSTYLE
1002
{
1070
144
1040
1.0
1070
40
1040
1.0
1002
}
  0
DIMENSION
  5
1AD
100
AcDbEntity
  8
dims
 62
256
370
-1
 48
1.0
  6
ByLayer
100
AcDbDimension
 10
457.9999999999998863
 20
190.4999999999999716
 30
0.0
 11
456.1249999999999432
 21
119.2499999999999858
 31
0.0
 70
1
 71
8
 72
1
 41
1.0
 42
0.0
  1

  3
Standard
100
AcDbAlignedDimension
 13
461.9999999999999432
 23
190.4999999999999716
 33
0.0
 14
462.0000000000000568
 24
48.0000000000000071
 34
0.0
1001
ACAD
1000
DSTYLE
1002
{
1070
144
1040
1.0
1070
40
1040
1.0
1002
}
  0
DIMENSION
  5
1AE
100
AcDbEntity
  8
dims
 62
256
370
-1
 48
1.0
  6
ByLayer
100
AcDbDimension
 10
462.0
 20
14.2500000000000142
 30
0.0
 11
453.6034312097207817
 21
21.2795854319046391
 31
0.0
 70
2
 71
8
 72
1
 41
1.0
 42
0.0
  1

  3
Standard
100
AcDb2LineAngularDimension
 13
462.660000000000025
 23
16.9500000000000313
 33
0.0
 14
463.6427196325187765
 24
14.2499999999999574
 34
0.0
 15
463.6427196325187197
 25
14.2499999999999858
 35
0.0
 16
455.0
 26
20.0
 36
0.0
  0
DIMENSION
  5
1AF
100
AcDbEntity
  8
dims
 62
256
370
-1
 48
1.0
  6
ByLayer
100
AcDbDimension
 10
463.1899999999999977
 20
24.0000000000000284
 30
0.0
 11
467.1105585584729738
 21
22.7420421147604266
 31
0.0
 70
2
 71
8
 72
1
 41
1.0
 42
0.0
  1

  3
Standard
100
AcDb2LineAngularDimension
 13
462.6599999999999682
 23
16.9499999999999318
 33
0.0
 14
463.1900000000000546
 24
17.1429042241611
 34
0.0
 15
463.1899999999999409
 25
17.1429042241610148
 35
0.0
 16
467.2938458578289556
 26
19.9290985810276204
 36
0.0
  0
DIMENSION
  5
1B0
100
AcDbEntity
  8
dims
 62
256
370
-1
 48
1.0
  6
ByLayer
100
AcDbDimension
 10
461.9999999999998863
 20
26.9999999999998899
 30
0.0
 11
466.1761111111111404
 21
28.8749999999999218
 31
0.0
 70
1
 71
8
 72
1
 41
1.0
 42
0.0
  1

  3
Standard
100
AcDbAlignedDimension
 13
461.9999999999998863
 23
23.9999999999999964
 33
0.0
 14
463.1900000000000546
 24
24.0000000000000568
 34
0.0
1001
ACAD
1000
DSTYLE
1002
{
1070
144
1040
1.0
1070
40
1040
1.0
1002
}
  0
DIMENSION
  5
1B1
100
AcDbEntity
  8
dims
 62
256
370
-1
 48
1.0
  6
ByLayer
100
AcDbDimension
 10
462.6600000000000819
 20
9.4999999999999716
 30
0.0
 11
466.201666731113221
 21
11.374999999999968
 31
0.0
 70
1
 71
8
 72
1
 41
1.0
 42
0.0
  1

  3
Standard
100
AcDbAlignedDimension
 13
462.6600000000000819
 23
16.9499999999999496
 33
0.0
 14
462.0
 24
16.949999999999946
 34
0.0
1001
ACAD
1000
DSTYLE
1002
{
1070
144
1040
1.0
1070
40
1040
1.0
1002
}
  0
DIMENSION
  5
1B2
100
AcDbEntity
  8
dims
 62
256
370
-1
 48
1.0
  6
ByLayer
100
AcDbDimension
 10
196.0
 20
173.5000000000000284
 30
0.0
 11
194.125
 21
171.0000000000000568
 31
0.0
 70
1
 71
8
 72
1
 41
1.0
 42
0.0
  1

  3
Standard
100
AcDbAlignedDimension
 13
197.0000000000000568
 23
173.5000000000000284
 33
0.0
 14
197.0000000000000284
 24
168.5000000000000568
 34
0.0
1001
ACAD
1000
DSTYLE
1002
{
1070
144
1040
1.0
1070
40
1040
1.0
1002
}
  0
DIMENSION
  5
1B3
100
AcDbEntity
  8
dims
 62
256
370
-1
 48
1.0
  6
ByLayer
100
AcDbDimension
 10
204.9999999999999716
 20
168.5000000000000568
 30
0.0
 11
203.1249999999999716
 21
169.0000000000000568
 31
0.0
 70
1
 71
8
 72
1
 41
1.0
 42
0.0
  1

  3
Standard
100
AcDbAlignedDimension
 13
202.0000000000000853
 23
168.5000000000000568
 33
0.0
 14
202.0000000000000853
 24
169.5000000000000284
 34
0.0
1001
ACAD
1000
DSTYLE
1002
{
1070
144
1040
1.0
1070
40
1040
1.0
1002
}
  0
DIMENSION
  5
1B4
100
AcDbEntity
  8
dims
 62
256
370
-1
 48
1.0
  6
ByLayer
100
AcDbDimension
 10
195.9999999999999716
 20
168.5000000000000284
 30
0.0
 11
194.1249999999999432
 21
166.0
 31
0.0
 70
1
 71
8
 72
1
 41
1.0
 42
0.0
  1

  3
Standard
100
AcDbAlignedDimension
 13
197.5000000000000284
 23
168.5000000000000284
 33
0.0
 14
197.5
 24
163.5
 34
0.0
1001
ACAD
1000
DSTYLE
1002
{
1070
144
1040
1.0
1070
40
1040
1.0
1002
}
  0
DIMENSION
  5
1B5
100
AcDbEntity
  8
dims
 62
256
370
-1
 48
1.0
  6
ByLayer
100
AcDbDimension
 10
200.0
 20
182.0
 30
0.0
 11
201.0000000000000568
 21
183.875
 31
0.0
 70
1
 71
8
 72
1
 41
1.0
 42
0.0
  1

  3
Standard
100
AcDbAlignedDimension
 13
200.0
 23
169.5000000000000284
 33
0.0
 14
202.0000000000000853
 24
169.5000000000000284
 34
0.0
1001
ACAD
1000
DSTYLE
1002
{
1070
144
1040
1.0
1070
40
1040
1.0
1002
}
  0
DIMENSION
  5
1B6
100
AcDbEntity
  8
dims
 62
256
370
-1
 48
1.0
  6
ByLayer
100
AcDbDimension
 10
200.0
 20
155.9999999999999716
 30
0.0
 11
205.0694456525743874
 21
157.875
 31
0.0
 70
1
 71
8
 72
1
 41
1.0
 42
0.0
  1

  3
Standard
100
AcDbAlignedDimension
 13
200.0
 23
165.5000000000000284
 33
0.0
 14
202.5000000000000568
 24
165.5000000000000568
 34
0.0
1001
ACAD
1000
DSTYLE
1002
{
1070
144
1040
1.0
1070
40
1040
1.0
1002
}
  0
DIMENSION
  5
1B7
100
AcDbEntity
  8
dims
 62
256
370
-1
 48
1.0
  6
ByLayer
100
AcDbDimension
 10
321.0
 20
165.5000000000000284
 30
0.0
 11
319.125
 21
162.75
 31
0.0
 70
1
 71
8
 72
1
 41
1.0
 42
0.0
  1

  3
Standard
100
AcDbAlignedDimension
 13
304.0
 23
165.5000000000000284
 33
0.0
 14
304.0
 24
160.0
 34
0.0
1001
ACAD
1000
DSTYLE
1002
{
1070
144
1040
1.0
1070
40
1040
1.0
1002
}
  0
DIMENSION
  5
1B8
100
AcDbEntity
  8
dims
 62
256
370
-1
 48
1.0
  6
ByLayer
100
AcDbDimension
 10
313.0
 20
165.5000000000000284
 30
0.0
 11
311.125
 21
164.5000000000000284
 31
0.0
 70
1
 71
8
 72
1
 41
1.0
 42
0.0
  1

  3
Standard
100
AcDbAlignedDimension
 13
305.0
 23
165.5000000000000284
 33
0.0
 14
305.0
 24
163.5000000000000284
 34
0.0
1001
ACAD
1000
DSTYLE
1002
{
1070
144
1040
1.0
1070
40
1040
1.0
1002
}
  0
DIMENSION
  5
1B9
100
AcDbEntity
  8
dims
 62
256
370
-1
 48
1.0
  6
ByLayer
100
AcDbDimension
 10
280.875
 20
168.0
 30
0.0
 11
279.0
 21
164.0
 31
0.0
 70
1
 71
8
 72
1
 41
1.0
 42
0.0
  1

  3
Standard
100
AcDbAlignedDimension
 13
298.875
 23
168.0
 33
0.0
 14
298.875
 24
160.0
 34
0.0
1001
ACAD
1000
DSTYLE
1002
{
1070
144
1040
1.0
1070
40
1040
1.0
1002
}
  0
DIMENSION
  5
1BA
100
AcDbEntity
  8
dims
 62
256
370
-1
 48
1.0
  6
ByLayer
100
AcDbDimension
 10
297.0
 20
43.0000000000000142
 30
0.0
 11
298.0
 21
44.8750000000000071
 31
0.0
 70
1
 71
8
 72
1
 41
1.0
 42
0.0
  1

  3
Standard
100
AcDbAlignedDimension
 13
297.0
 23
37.0
 33
0.0
 14
299.0
 24
36.9999999999999858
 34
0.0
1001
ACAD
1000
DSTYLE
1002
{
1070
144
1040
1.0
1070
40
1040
1.0
1002
}
  0
DIMENSION
  5
1BB
100
AcDbEntity
  8
dims
 62
256
370
-1
 48
1.0
  6
ByLayer
100
AcDbDimension
 10
429.0
 20
168.5
 30
0.0
 11
427.125
 21
167.0
 31
0.0
 70
1
 71
8
 72
1
 41
1.0
 42
0.0
  1

  3
Standard
100
AcDbAlignedDimension
 13
431.9999999999999432
 23
168.5
 33
0.0
 14
431.9999999999999432
 24
165.5
 34
0.0
1001
ACAD
1000
DSTYLE
1002
{
1070
144
1040
1.0
1070
40
1040
1.0
1002
}
  0
DIMENSION
  5
1BC
100
AcDbEntity
  8
dims
 62
256
370
-1
 48
1.0
  6
ByLayer
100
AcDbDimension
 10
192.0
 20
173.5000000000000284
 30
0.0
 11
190.125
 21
136.75
 31
0.0
 70
0
 71
8
 72
1
 41
1.0
 42
0.0
  1

  3
Standard
100
AcDbAlignedDimension
 13
198.0000000000000568
 23
173.5000000000000284
 33
0.0
 14
200.0000000000000568
 24
100.0
 34
0.0
 50
90.0
100
AcDbRotatedDimension
1001
ACAD
1000
DSTYLE
1002
{
1070
144
1040
1.0
1070
40
1040
1.0
1002
}
  0
DIMENSION
  5
1BD
100
AcDbEntity
  8
dims
 62
256
370
-1
 48
1.0
  6
ByLayer
100
AcDbDimension
 10
456.4999999999999432
 20
37.0
 30
0.0
 11
459.5694445088909674
 21
38.875
 31
0.0
 70
1
 71
8
 72
1
 41
1.0
 42
0.0
  1

  3
Standard
100
AcDbAlignedDimension
 13
456.4999999999999432
 23
34.5
 33
0.0
 14
457.0
 24
34.5
 34
0.0
1001
ACAD
1000
DSTYLE
1002
{
1070
144
1040
1.0
1070
40
1040
1.0
1002
}
  0
DIMENSION
  5
1BE
100
AcDbEntity
  8
dims
 62
256
370
-1
 48
1.0
  6
ByLayer
100
AcDbDimension
 10
437.4999999999998863
 20
36.9999999999999929
 30
0.0
 11
440.0694445088907969
 21
38.875
 31
0.0
 70
1
 71
8
 72
1
 41
1.0
 42
0.0
  1

  3
Standard
100
AcDbAlignedDimension
 13
437.4999999999998863
 23
34.5000000000000213
 33
0.0
 14
436.9999999999998863
 24
34.5000000000000284
 34
0.0
1001
ACAD
1000
DSTYLE
1002
{
1070
144
1040
1.0
1070
40
1040
1.0
1002
}
  0
DIMENSION
  5
1BF
100
AcDbEntity
  8
dims
 62
256
370
-1
 48
1.0
  6
ByLayer
100
AcDbDimension
 10
441.9999999999999432
 20
22.9999999999999716
 30
0.0
 11
445.0694445088907969
 21
24.8749999999999751
 31
0.0
 70
1
 71
8
 72
1
 41
1.0
 42
0.0
  1

  3
Standard
100
AcDbAlignedDimension
 13
441.9999999999999432
 23
30.4999999999999858
 33
0.0
 14
442.4999999999998863
 24
30.4999999999999929
 34
0.0
1001
ACAD
1000
DSTYLE
1002
{
1070
144
1040
1.0
1070
40
1040
1.0
1002
}
  0
DIMENSION
  5
1C0
100
AcDbEntity
  8
dims
 62
256
370
-1
 48
1.0
  6
ByLayer
100
AcDbDimension
 10
447.4999999999998863
 20
27.0000000000000711
 30
0.0
 11
450.5694445088907969
 21
28.8750000000000639
 31
0.0
 70
1
 71
8
 72
1
 41
1.0
 42
0.0
  1

  3
Standard
100
AcDbAlignedDimension
 13
447.4999999999998863
 23
31.4999999999999574
 33
0.0
 14
447.9999999999998295
 24
31.4999999999999432
 34
0.0
1001
ACAD
1000
DSTYLE
1002
{
1070
144
1040
1.0
1070
40
1040
1.0
1002
}
  0
DIMENSION
  5
1C1
100
AcDbEntity
  8
dims
 62
256
370
-1
 48
1.0
  6
ByLayer
100
AcDbDimension
 10
292.0
 20
34.4999999999999858
 30
0.0
 11
290.125
 21
38.6805555985078513
 31
0.0
 70
1
 71
8
 72
1
 41
1.0
 42
0.0
  1
R<>
  3
Standard
100
AcDbAlignedDimension
 13
297.0
 23
34.4999999999999858
 33
0.0
 14
297.0
 24
35.0000000000000284
 34
0.0
1001
ACAD
1000
DSTYLE
1002
{
1070
144
1040
1.0
1070
40
1040
1.0
1002
}
  0
DIMENSION
  5
1C2
100
AcDbEntity
  8
dims
 62
256
370
-1
 48
1.0
  6
ByLayer
100
AcDbDimension
 10
200.0
 20
25.0
 30
0.0
 11
204.1805555985078229
 21
26.875
 31
0.0
 70
1
 71
8
 72
1
 41
1.0
 42
0.0
  1
R<>
  3
Standard
100
AcDbAlignedDimension
 13
200.0
 23
30.4999999999999716
 33
0.0
 14
200.5000000000000284
 24
30.4999999999999716
 34
0.0
1001
ACAD
1000
DSTYLE
1002
{
1070
144
1040
1.0
1070
40
1040
1.0
1002
}
  0
DIMENSION
  5
1C3
100
AcDbEntity
  8
dims
 62
256
370
-1
 48
1.0
  6
ByLayer
100
AcDbDimension
 10
458.0000000000000568
 20
190.4999999999999147
 30
0.0
 11
456.1249999999999432
 21
198.5194456525742055
 31
0.0
 70
1
 71
8
 72
1
 41
1.0
 42
0.0
  1
R<>
  3
Standard
100
AcDbAlignedDimension
 13
462.0
 23
190.4999999999999716
 33
0.0
 14
461.9999999999999432
 24
194.6999999999999886
 34
0.0
1001
ACAD
1000
DSTYLE
1002
{
1070
144
1040
1.0
1070
40
1040
1.0
1002
}
  0
DIMENSION
  5
1C4
100
AcDbEntity
  8
dims
 62
256
370
-1
 48
1.0
  6
ByLayer
100
AcDbDimension
 10
462.0
 20
205.0
 30
0.0
 11
474.5
 21
206.875
 31
0.0
 70
1
 71
8
 72
1
 41
1.0
 42
0.0
  1

  3
Standard
100
AcDbAlignedDimension
 13
462.0
 23
201.1999999999999886
 33
0.0
 14
487.0
 24
201.1999999999999886
 34
0.0
1001
ACAD
1000
DSTYLE
1002
{
1070
144
1040
1.0
1070
40
1040
1.0
1002
}
  0
DIMENSION
  5
1C5
100
AcDbEntity
  8
dims2
 62
256
370
-1
 48
1.0
  6
ByLayer
100
AcDbDimension
 10
461.9999999999998863
 20
-7.0000000000001146
 30
0.0
 11
474.4999999999999432
 21
-5.1250000000000577
 31
0.0
 70
1
 71
8
 72
1
 41
1.0
 42
0.0
  1

  3
Standard
100
AcDbAlignedDimension
 13
461.9999999999998863
 23
-1.2000000000000597
 33
0.0
 14
487.0
 24
-1.199999999999946
 34
0.0
1001
ACAD
1000
DSTYLE
1002
{
1070
144
1040
1.0
1070
40
1040
1.0
1002
}
  0
DIMENSION
  5
1C6
100
AcDbEntity
  8
dims2
 62
256
370
-1
 48
1.0
  6
ByLayer
100
AcDbDimension
 10
494.0
 20
201.1999999999999886
 30
0.0
 11
492.125
 21
100.0000000000000142
 31
0.0
 70
1
 71
8
 72
1
 41
1.0
 42
0.0
  1

  3
Standard
100
AcDbAlignedDimension
 13
487.0
 23
201.1999999999999886
 33
0.0
 14
487.0
 24
-1.199999999999946
 34
0.0
1001
ACAD
1000
DSTYLE
1002
{
1070
144
1040
1.0
1070
40
1040
1.0
1002
}
  0
DIMENSION
  5
1C7
100
AcDbEntity
  8
dims2
 62
256
370
-1
 48
1.0
  6
ByLayer
100
AcDbDimension
 10
462.0
 20
210.0
 30
0.0
 11
379.5
 21
211.875
 31
0.0
 70
0
 71
8
 72
1
 41
1.0
 42
0.0
  1

  3
Standard
100
AcDbAlignedDimension
 13
297.0
 23
168.0000000000000284
 33
0.0
 14
462.0
 24
168.5000000000000284
 34
0.0
 50
0.0
100
AcDbRotatedDimension
1001
ACAD
1000
DSTYLE
1002
{
1070
144
1040
1.0
1070
40
1040
1.0
1002
}
  0
DIMENSION
  5
1C8
100
AcDbEntity
  8
dims2
 62
256
370
-1
 48
1.0
  6
ByLayer
100
AcDbDimension
 10
200.0
 20
100.0
 30
0.0
 11
170.7164303862332133
 21
106.7814582263459613
 31
0.0
 70
4
 71
8
 72
1
 41
1.0
 42
0.0
  1

  3
Standard
100
AcDbRadialDimension
 15
140.8163645700713573
 25
109.8639392383214215
 35
0.0
 40
0.0
1001
ACAD
1000
DSTYLE
1002
{
1070
144
1040
1.0
1070
40
1040
1.0
1002
}
  0
DIMENSION
  5
1C9
100
AcDbEntity
  8
dims2
 62
256
370
-1
 48
1.0
  6
ByLayer
100
AcDbDimension
 10
200.0
 20
100.0
 30
0.0
 11
172.6640689750650779
 21
115.7642792413735151
 31
0.0
 70
4
 71
8
 72
1
 41
1.0
 42
0.0
  1

  3
Standard
100
AcDbRadialDimension
 15
143.6510869670052841
 25
128.1744565164973437
 35
0.0
 40
0.0
1001
ACAD
1000
DSTYLE
1002
{
1070
144
1040
1.0
1070
40
1040
1.0
1002
}
  0
DIMENSION
  5
1CA
100
AcDbEntity
  8
dims2
 62
256
370
-1
 48
1.0
  6
ByLayer
100
AcDbDimension
 10
200.0
 20
100.0
 30
0.0
 11
177.2841946543821621
 21
125.3674557750673841
 31
0.0
 70
4
 71
8
 72
1
 41
1.0
 42
0.0
  1

  3
Standard
100
AcDbRadialDimension
 15
151.9167388793147779
 25
148.0832611206852221
 35
0.0
 40
0.0
1001
ACAD
1000
DSTYLE
1002
{
1070
144
1040
1.0
1070
40
1040
1.0
1002
}
  0
LINE
  5
1CB
100
AcDbEntity
  8
help
 62
256
370
-1
 48
1.0
  6
ByLayer
100
AcDbLine
 10
565.5
 20
34.5000000000000426
 30
0.0
 11
566.0000000000001137
 21
34.5000000000000426
 31
0.0
  0
LINE
  5
1CC
100
AcDbEntity
  8
0
 62
256
370
-1
 48
1.0
  6
ByLayer
100
AcDbLine
 10
580.0
 20
34.5000000000000426
 30
0.0
 11
580.0
 21
61.5
 31
0.0
  0
LINE
  5
1CD
100
AcDbEntity
  8
0
 62
256
370
-1
 48
1.0
  6
ByLayer
100
AcDbLine
 10
815.0000000000001137
 20
32.5000000000000426
 30
0.0
 11
815.0000000000001137
 21
59.5
 31
0.0
  0
LINE
  5
1CE
100
AcDbEntity
  8
0
 62
256
370
-1
 48
1.0
  6
ByLayer
100
AcDbLine
 10
784.9999999999998863
 20
167.4999999999999432
 30
0.0
 11
784.9999999999998863
 21
140.5
 31
0.0
  0
LINE
  5
1CF
100
AcDbEntity
  8
0
 62
256
370
-1
 48
1.0
  6
ByLayer
100
AcDbLine
 10
580.0
 20
31.4999999999999964
 30
0.0
 11
580.0
 21
34.5000000000000426
 31
0.0
  0
LINE
  5
1D0
100
AcDbEntity
  8
0
 62
256
370
-1
 48
1.0
  6
ByLayer
100
AcDbLine
 10
815.0000000000001137
 20
29.5
 30
0.0
 11
815.0000000000001137
 21
32.5000000000000426
 31
0.0
  0
LINE
  5
1D1
100
AcDbEntity
  8
0
 62
256
370
-1
 48
1.0
  6
ByLayer
100
AcDbLine
 10
784.9999999999998863
 20
170.5
 30
0.0
 11
784.9999999999998863
 21
167.4999999999999432
 31
0.0
  0
LINE
  5
1D2
100
AcDbEntity
  8
0
 62
256
370
-1
 48
1.0
  6
ByLayer
100
AcDbLine
 10
580.0
 20
61.5
 30
0.0
 11
550.0
 21
61.5
 31
0.0
  0
LINE
  5
1D3
100
AcDbEntity
  8
0
 62
256
370
-1
 48
1.0
  6
ByLayer
100
AcDbLine
 10
815.0000000000001137
 20
59.5
 30
0.0
 11
785.0000000000001137
 21
59.5
 31
0.0
  0
LINE
  5
1D4
100
AcDbEntity
  8
0
 62
256
370
-1
 48
1.0
  6
ByLayer
100
AcDbLine
 10
784.9999999999998863
 20
140.5
 30
0.0
 11
814.9999999999998863
 21
140.5
 31
0.0
  0
LINE
  5
1D5
100
AcDbEntity
  8
0
 62
256
370
-1
 48
1.0
  6
ByLayer
100
AcDbLine
 10
550.0
 20
34.5000000000000426
 30
0.0
 11
550.0
 21
31.4999999999999964
 31
0.0
  0
LINE
  5
1D6
100
AcDbEntity
  8
0
 62
256
370
-1
 48
1.0
  6
ByLayer
100
AcDbLine
 10
785.0000000000001137
 20
32.5000000000000426
 30
0.0
 11
785.0000000000001137
 21
29.5
 31
0.0
  0
LINE
  5
1D7
100
AcDbEntity
  8
0
 62
256
370
-1
 48
1.0
  6
ByLayer
100
AcDbLine
 10
814.9999999999998863
 20
167.4999999999999432
 30
0.0
 11
814.9999999999998863
 21
170.5
 31
0.0
  0
LINE
  5
1D8
100
AcDbEntity
  8
0
 62
256
370
-1
 48
1.0
  6
ByLayer
100
AcDbLine
 10
550.0
 20
61.5
 30
0.0
 11
550.0
 21
34.5000000000000426
 31
0.0
  0
LINE
  5
1D9
100
AcDbEntity
  8
0
 62
256
370
-1
 48
1.0
  6
ByLayer
100
AcDbLine
 10
785.0000000000001137
 20
59.5
 30
0.0
 11
785.0000000000001137
 21
32.5000000000000426
 31
0.0
  0
LINE
  5
1DA
100
AcDbEntity
  8
0
 62
256
370
-1
 48
1.0
  6
ByLayer
100
AcDbLine
 10
814.9999999999998863
 20
140.5
 30
0.0
 11
814.9999999999998863
 21
167.4999999999999432
 31
0.0
  0
LINE
  5
1DB
100
AcDbEntity
  8
axis
 62
256
370
-1
 48
1.0
  6
ByLayer
100
AcDbLine
 10
565.0000000000001137
 20
35.0000000000000426
 30
0.0
 11
565.0
 21
30.9999999999999964
 31
0.0
  0
LINE
  5
1DC
100
AcDbEntity
  8
axis
 62
256
370
-1
 48
1.0
  6
ByLayer
100
AcDbLine
 10
800.0000000000002274
 20
33.0000000000000568
 30
0.0
 11
800.0000000000001137
 21
24.0
 31
0.0
  0
LINE
  5
1DD
100
AcDbEntity
  8
axis
 62
256
370
-1
 48
1.0
  6
ByLayer
100
AcDbLine
 10
799.9999999999997726
 20
166.9999999999999432
 30
0.0
 11
799.9999999999998863
 21
176.0
 31
0.0
  0
DIMENSION
  5
1DE
100
AcDbEntity
  8
dims
 62
256
370
-1
 48
1.0
  6
ByLayer
100
AcDbDimension
 10
550.0
 20
70.0
 30
0.0
 11
565.0
 21
71.875
 31
0.0
 70
1
 71
8
 72
2
 41
1.0
 42
0.0
  1

  3
Standard
100
AcDbAlignedDimension
 13
550.0
 23
61.4999999999999929
 33
0.0
 14
580.0
 24
61.4999999999999929
 34
0.0
1001
ACAD
1000
DSTYLE
1002
{
1070
144
1040
1.0
1070
40
1040
1.0
1002
}
  0
DIMENSION
  5
1DF
100
AcDbEntity
  8
dims
 62
256
370
-1
 48
1.0
  6
ByLayer
100
AcDbDimension
 10
565.0
 20
21.4999999999999964
 30
0.0
 11
557.5
 21
23.3749999999999964
 31
0.0
 70
1
 71
8
 72
2
 41
1.0
 42
0.0
  1

  3
Standard
100
AcDbAlignedDimension
 13
565.0
 23
31.4999999999999964
 33
0.0
 14
550.0000000000001137
 24
31.4999999999999964
 34
0.0
1001
ACAD
1000
DSTYLE
1002
{
1070
144
1040
1.0
1070
40
1040
1.0
1002
}
  0
DIMENSION
  5
1E0
100
AcDbEntity
  8
dims
 62
256
370
-1
 48
1.0
  6
ByLayer
100
AcDbDimension
 10
545.0320947767270354
 20
34.4999999999998579
 30
0.0
 11
543.1570947767270354
 21
32.9999999999997655
 31
0.0
 70
1
 71
8
 72
2
 41
1.0
 42
0.0
  1

  3
Standard
100
AcDbAlignedDimension
 13
550.0
 23
34.5000000000000426
 33
0.0
 14
550.0000000000001137
 24
31.4999999999999964
 34
0.0
1001
ACAD
1000
DSTYLE
1002
{
1070
144
1040
1.0
1070
40
1040
1.0
1002
}
  0
LINE
  5
1E1
100
AcDbEntity
  8
help
 62
256
370
-1
 48
1.0
  6
ByLayer
100
AcDbLine
 10
550.0
 20
31.4999999999999893
 30
0.0
 11
550.0
 21
-38.5000000000000142
 31
0.0
  0
LINE
  5
1E2
100
AcDbEntity
  8
help
 62
256
370
-1
 48
1.0
  6
ByLayer
100
AcDbLine
 10
565.0
 20
31.4999999999999964
 30
0.0
 11
565.0
 21
-38.5
 31
0.0
  0
LINE
  5
1E3
100
AcDbEntity
  8
help
 62
256
370
-1
 48
1.0
  6
ByLayer
100
AcDbLine
 10
580.0
 20
6.9999999999999964
 30
0.0
 11
580.0
 21
-38.5
 31
0.0
  0
LINE
  5
1E4
100
AcDbEntity
  8
help
 62
256
370
-1
 48
1.0
  6
ByLayer
100
AcDbLine
 10
580.0
 20
31.4999999999999964
 30
0.0
 11
580.0
 21
6.9999999999999964
 31
0.0
  0
LINE
  5
1E5
100
AcDbEntity
  8
0
 62
256
370
-1
 48
1.0
  6
ByLayer
100
AcDbLine
 10
550.0
 20
-20.0
 30
0.0
 11
580.0
 21
-20.0
 31
0.0
  0
LINE
  5
1E6
100
AcDbEntity
  8
0
 62
256
370
-1
 48
1.0
  6
ByLayer
100
AcDbLine
 10
580.0
 20
6.9999999999999964
 30
0.0
 11
580.0
 21
10.0
 31
0.0
  0
LINE
  5
1E7
100
AcDbEntity
  8
0
 62
256
370
-1
 48
1.0
  6
ByLayer
100
AcDbLine
 10
580.0
 20
-20.0
 30
0.0
 11
580.0
 21
6.9999999999999964
 31
0.0
  0
LINE
  5
1E8
100
AcDbEntity
  8
0
 62
256
370
-1
 48
1.0
  6
ByLayer
100
AcDbLine
 10
550.0
 20
6.9999999999999991
 30
0.0
 11
550.0
 21
-20.0
 31
0.0
  0
LINE
  5
1E9
100
AcDbEntity
  8
0
 62
256
370
-1
 48
1.0
  6
ByLayer
100
AcDbLine
 10
550.0
 20
10.0
 30
0.0
 11
550.0
 21
6.9999999999999991
 31
0.0
  0
LINE
  5
1EA
100
AcDbEntity
  8
axis
 62
256
370
-1
 48
1.0
  6
ByLayer
100
AcDbLine
 10
572.5
 20
10.5
 30
0.0
 11
572.5
 21
6.4999999999999991
 31
0.0
  0
LINE
  5
1EB
100
AcDbEntity
  8
axis
 62
256
370
-1
 48
1.0
  6
ByLayer
100
AcDbLine
 10
557.5
 20
10.5
 30
0.0
 11
557.5
 21
6.4999999999999991
 31
0.0
  0
DIMENSION
  5
1EC
100
AcDbEntity
  8
dims
 62
256
370
-1
 48
1.0
  6
ByLayer
100
AcDbDimension
 10
585.0
 20
6.9999999999999964
 30
0.0
 11
583.125
 21
8.4999999999999982
 31
0.0
 70
1
 71
8
 72
2
 41
1.0
 42
0.0
  1

  3
Standard
100
AcDbAlignedDimension
 13
580.0
 23
6.9999999999999964
 33
0.0
 14
580.0
 24
10.0
 34
0.0
1001
ACAD
1000
DSTYLE
1002
{
1070
144
1040
1.0
1070
40
1040
1.0
1002
}
  0
LINE
  5
1ED
100
AcDbEntity
  8
help
 62
256
370
-1
 48
1.0
  6
ByLayer
100
AcDbLine
 10
550.0
 20
61.4999999999999929
 30
0.0
 11
579.9999999999998863
 21
34.5000000000000426
 31
0.0
  0
LINE
  5
1EE
100
AcDbEntity
  8
help
 62
256
370
-1
 48
1.0
  6
ByLayer
100
AcDbLine
 10
565.0000000000001137
 20
34.5000000000000426
 30
0.0
 11
580.0
 21
48.0000000000000071
 31
0.0
  0
LINE
  5
1EF
100
AcDbEntity
  8
help
 62
256
370
-1
 48
1.0
  6
ByLayer
100
AcDbLine
 10
550.0
 20
48.0000000000000071
 30
0.0
 11
565.0
 21
61.5
 31
0.0
  0
CIRCLE
  5
1F0
100
AcDbEntity
  8
0
 62
256
370
-1
 48
1.0
  6
ByLayer
100
AcDbCircle
 10
557.5
 20
54.7499999999999503
 30
0.0
 40
1.5
  0
CIRCLE
  5
1F1
100
AcDbEntity
  8
0
 62
256
370
-1
 48
1.0
  6
ByLayer
100
AcDbCircle
 10
1107.5
 20
147.2500000000000568
 30
0.0
 40
1.5
  0
CIRCLE
  5
1F2
100
AcDbEntity
  8
0
 62
256
370
-1
 48
1.0
  6
ByLayer
100
AcDbCircle
 10
1092.5
 20
52.7499999999999503
 30
0.0
 40
1.5
  0
CIRCLE
  5
1F3
100
AcDbEntity
  8
0
 62
256
370
-1
 48
1.0
  6
ByLayer
100
AcDbCircle
 10
792.5000000000001137
 20
52.7499999999999503
 30
0.0
 40
1.5
  0
CIRCLE
  5
1F4
100
AcDbEntity
  8
0
 62
256
370
-1
 48
1.0
  6
ByLayer
100
AcDbCircle
 10
807.4999999999998863
 20
147.2500000000000568
 30
0.0
 40
1.5
  0
CIRCLE
  5
1F5
100
AcDbEntity
  8
0
 62
256
370
-1
 48
1.0
  6
ByLayer
100
AcDbCircle
 10
572.4999999999998863
 20
41.2499999999999289
 30
0.0
 40
1.5
  0
CIRCLE
  5
1F6
100
AcDbEntity
  8
0
 62
256
370
-1
 48
1.0
  6
ByLayer
100
AcDbCircle
 10
1092.5
 20
160.7500000000000568
 30
0.0
 40
1.5
  0
CIRCLE
  5
1F7
100
AcDbEntity
  8
0
 62
256
370
-1
 48
1.0
  6
ByLayer
100
AcDbCircle
 10
1107.5
 20
39.2499999999999432
 30
0.0
 40
1.5
  0
CIRCLE
  5
1F8
100
AcDbEntity
  8
0
 62
256
370
-1
 48
1.0
  6
ByLayer
100
AcDbCircle
 10
807.5
 20
39.2499999999999432
 30
0.0
 40
1.5
  0
CIRCLE
  5
1F9
100
AcDbEntity
  8
0
 62
256
370
-1
 48
1.0
  6
ByLayer
100
AcDbCircle
 10
792.5
 20
160.7500000000000568
 30
0.0
 40
1.5
  0
LINE
  5
1FA
100
AcDbEntity
  8
0
 62
256
370
-1
 48
1.0
  6
ByLayer
100
AcDbLine
 10
550.0
 20
31.4999999999999964
 30
0.0
 11
563.5
 21
31.4999999999999964
 31
0.0
  0
LINE
  5
1FB
100
AcDbEntity
  8
0
 62
256
370
-1
 48
1.0
  6
ByLayer
100
AcDbLine
 10
566.4999999999998863
 20
31.4999999999999964
 30
0.0
 11
580.0
 21
31.4999999999999964
 31
0.0
  0
LINE
  5
1FC
100
AcDbEntity
  8
0
 62
256
370
-1
 48
1.0
  6
ByLayer
100
AcDbLine
 10
805.0000000000001137
 20
29.5
 30
0.0
 11
815.0000000000001137
 21
29.5
 31
0.0
  0
LINE
  5
1FD
100
AcDbEntity
  8
0
 62
256
370
-1
 48
1.0
  6
ByLayer
100
AcDbLine
 10
801.5
 20
29.5
 30
0.0
 11
805.0000000000001137
 21
29.5
 31
0.0
  0
LINE
  5
1FE
100
AcDbEntity
  8
0
 62
256
370
-1
 48
1.0
  6
ByLayer
100
AcDbLine
 10
799.0000000000001137
 20
29.5
 30
0.0
 11
801.0000000000001137
 21
29.5
 31
0.0
  0
LINE
  5
1FF
100
AcDbEntity
  8
0
 62
256
370
-1
 48
1.0
  6
ByLayer
100
AcDbLine
 10
798.5000000000001137
 20
29.5
 30
0.0
 11
799.0000000000001137
 21
29.5
 31
0.0
  0
LINE
  5
200
100
AcDbEntity
  8
0
 62
256
370
-1
 48
1.0
  6
ByLayer
100
AcDbLine
 10
801.0000000000001137
 20
29.5
 30
0.0
 11
801.5
 21
29.5
 31
0.0
  0
LINE
  5
201
100
AcDbEntity
  8
0
 62
256
370
-1
 48
1.0
  6
ByLayer
100
AcDbLine
 10
795.0000000000001137
 20
29.5
 30
0.0
 11
798.5000000000001137
 21
29.5
 31
0.0
  0
LINE
  5
202
100
AcDbEntity
  8
0
 62
256
370
-1
 48
1.0
  6
ByLayer
100
AcDbLine
 10
785.0000000000001137
 20
29.5
 30
0.0
 11
795.0000000000001137
 21
29.5
 31
0.0
  0
LINE
  5
203
100
AcDbEntity
  8
0
 62
256
370
-1
 48
1.0
  6
ByLayer
100
AcDbLine
 10
804.9999999999998863
 20
170.5
 30
0.0
 11
801.4999999999998863
 21
170.5
 31
0.0
  0
LINE
  5
204
100
AcDbEntity
  8
0
 62
256
370
-1
 48
1.0
  6
ByLayer
100
AcDbLine
 10
814.9999999999998863
 20
170.5
 30
0.0
 11
804.9999999999998863
 21
170.5
 31
0.0
  0
LINE
  5
205
100
AcDbEntity
  8
0
 62
256
370
-1
 48
1.0
  6
ByLayer
100
AcDbLine
 10
794.9999999999998863
 20
170.5
 30
0.0
 11
784.9999999999998863
 21
170.5
 31
0.0
  0
LINE
  5
206
100
AcDbEntity
  8
0
 62
256
370
-1
 48
1.0
  6
ByLayer
100
AcDbLine
 10
798.5
 20
170.5
 30
0.0
 11
794.9999999999998863
 21
170.5
 31
0.0
  0
LINE
  5
207
100
AcDbEntity
  8
0
 62
256
370
-1
 48
1.0
  6
ByLayer
100
AcDbLine
 10
800.9999999999998863
 20
170.5
 30
0.0
 11
798.9999999999998863
 21
170.5
 31
0.0
  0
LINE
  5
208
100
AcDbEntity
  8
0
 62
256
370
-1
 48
1.0
  6
ByLayer
100
AcDbLine
 10
801.4999999999998863
 20
170.5
 30
0.0
 11
800.9999999999998863
 21
170.5
 31
0.0
  0
LINE
  5
209
100
AcDbEntity
  8
0
 62
256
370
-1
 48
1.0
  6
ByLayer
100
AcDbLine
 10
798.9999999999998863
 20
170.5
 30
0.0
 11
798.5
 21
170.5
 31
0.0
  0
LINE
  5
20A
100
AcDbEntity
  8
0
 62
256
370
-1
 48
1.0
  6
ByLayer
100
AcDbLine
 10
564.0
 20
31.4999999999999964
 30
0.0
 11
566.0
 21
31.4999999999999964
 31
0.0
  0
LINE
  5
20B
100
AcDbEntity
  8
0
 62
256
370
-1
 48
1.0
  6
ByLayer
100
AcDbLine
 10
563.5
 20
31.4999999999999964
 30
0.0
 11
564.0
 21
31.4999999999999964
 31
0.0
  0
LINE
  5
20C
100
AcDbEntity
  8
0
 62
256
370
-1
 48
1.0
  6
ByLayer
100
AcDbLine
 10
566.0
 20
31.4999999999999964
 30
0.0
 11
566.4999999999998863
 21
31.4999999999999964
 31
0.0
  0
LINE
  5
20D
100
AcDbEntity
  8
0
 62
256
370
-1
 48
1.0
  6
ByLayer
100
AcDbLine
 10
580.0
 20
34.5000000000000426
 30
0.0
 11
566.5
 21
34.5000000000000426
 31
0.0
  0
LINE
  5
20E
100
AcDbEntity
  8
0
 62
256
370
-1
 48
1.0
  6
ByLayer
100
AcDbLine
 10
563.4999999999998863
 20
34.5000000000000426
 30
0.0
 11
550.0
 21
34.5000000000000426
 31
0.0
  0
LINE
  5
20F
100
AcDbEntity
  8
0
 62
256
370
-1
 48
1.0
  6
ByLayer
100
AcDbLine
 10
815.0000000000001137
 20
32.5000000000000426
 30
0.0
 11
801.5000000000001137
 21
32.5000000000000568
 31
0.0
  0
LINE
  5
210
100
AcDbEntity
  8
0
 62
256
370
-1
 48
1.0
  6
ByLayer
100
AcDbLine
 10
798.5
 20
32.5000000000000426
 30
0.0
 11
785.0000000000001137
 21
32.5000000000000426
 31
0.0
  0
LINE
  5
211
100
AcDbEntity
  8
0
 62
256
370
-1
 48
1.0
  6
ByLayer
100
AcDbLine
 10
801.0000000000001137
 20
32.5000000000000568
 30
0.0
 11
799.0000000000001137
 21
32.5000000000000568
 31
0.0
  0
LINE
  5
212
100
AcDbEntity
  8
0
 62
256
370
-1
 48
1.0
  6
ByLayer
100
AcDbLine
 10
801.5000000000001137
 20
32.5000000000000568
 30
0.0
 11
801.0000000000001137
 21
32.5000000000000568
 31
0.0
  0
LINE
  5
213
100
AcDbEntity
  8
0
 62
256
370
-1
 48
1.0
  6
ByLayer
100
AcDbLine
 10
799.0000000000001137
 20
32.5000000000000568
 30
0.0
 11
798.5
 21
32.5000000000000426
 31
0.0
  0
LINE
  5
214
100
AcDbEntity
  8
0
 62
256
370
-1
 48
1.0
  6
ByLayer
100
AcDbLine
 10
784.9999999999998863
 20
167.4999999999999432
 30
0.0
 11
798.4999999999998863
 21
167.4999999999999432
 31
0.0
  0
LINE
  5
215
100
AcDbEntity
  8
0
 62
256
370
-1
 48
1.0
  6
ByLayer
100
AcDbLine
 10
801.5
 20
167.4999999999999432
 30
0.0
 11
814.9999999999998863
 21
167.4999999999999432
 31
0.0
  0
LINE
  5
216
100
AcDbEntity
  8
0
 62
256
370
-1
 48
1.0
  6
ByLayer
100
AcDbLine
 10
798.9999999999998863
 20
167.4999999999999432
 30
0.0
 11
800.9999999999998863
 21
167.4999999999999432
 31
0.0
  0
LINE
  5
217
100
AcDbEntity
  8
0
 62
256
370
-1
 48
1.0
  6
ByLayer
100
AcDbLine
 10
798.4999999999998863
 20
167.4999999999999432
 30
0.0
 11
798.9999999999998863
 21
167.4999999999999432
 31
0.0
  0
LINE
  5
218
100
AcDbEntity
  8
0
 62
256
370
-1
 48
1.0
  6
ByLayer
100
AcDbLine
 10
800.9999999999998863
 20
167.4999999999999432
 30
0.0
 11
801.5
 21
167.4999999999999432
 31
0.0
  0
LINE
  5
219
100
AcDbEntity
  8
0
 62
256
370
-1
 48
1.0
  6
ByLayer
100
AcDbLine
 10
566.0
 20
34.5000000000000426
 30
0.0
 11
564.0
 21
34.5000000000000426
 31
0.0
  0
LINE
  5
21A
100
AcDbEntity
  8
0
 62
256
370
-1
 48
1.0
  6
ByLayer
100
AcDbLine
 10
566.5
 20
34.5000000000000426
 30
0.0
 11
566.0
 21
34.5000000000000426
 31
0.0
  0
LINE
  5
21B
100
AcDbEntity
  8
0
 62
256
370
-1
 48
1.0
  6
ByLayer
100
AcDbLine
 10
564.0
 20
34.5000000000000426
 30
0.0
 11
563.4999999999998863
 21
34.5000000000000426
 31
0.0
  0
LINE
  5
21C
100
AcDbEntity
  8
0
 62
256
370
-1
 48
1.0
  6
ByLayer
100
AcDbLine
 10
566.0
 20
34.5
 30
0.0
 11
566.0
 21
31.4999999999999964
 31
0.0
  0
LINE
  5
21D
100
AcDbEntity
  8
0
 62
256
370
-1
 48
1.0
  6
ByLayer
100
AcDbLine
 10
801.0000000000001137
 20
32.5
 30
0.0
 11
801.0000000000001137
 21
29.5
 31
0.0
  0
LINE
  5
21E
100
AcDbEntity
  8
0
 62
256
370
-1
 48
1.0
  6
ByLayer
100
AcDbLine
 10
798.9999999999998863
 20
167.5
 30
0.0
 11
798.9999999999998863
 21
170.5
 31
0.0
  0
LINE
  5
21F
100
AcDbEntity
  8
0
 62
256
370
-1
 48
1.0
  6
ByLayer
100
AcDbLine
 10
564.0
 20
31.4999999999999538
 30
0.0
 11
564.0
 21
34.5
 31
0.0
  0
LINE
  5
220
100
AcDbEntity
  8
0
 62
256
370
-1
 48
1.0
  6
ByLayer
100
AcDbLine
 10
799.0000000000001137
 20
29.5
 30
0.0
 11
799.0000000000001137
 21
32.5
 31
0.0
  0
LINE
  5
221
100
AcDbEntity
  8
0
 62
256
370
-1
 48
1.0
  6
ByLayer
100
AcDbLine
 10
800.9999999999998863
 20
170.5
 30
0.0
 11
800.9999999999998863
 21
167.5
 31
0.0
  0
LINE
  5
222
100
AcDbEntity
  8
0
 62
256
370
-1
 48
1.0
  6
ByLayer
100
AcDbLine
 10
566.5
 20
10.0
 30
0.0
 11
580.0
 21
10.0
 31
0.0
  0
LINE
  5
223
100
AcDbEntity
  8
0
 62
256
370
-1
 48
1.0
  6
ByLayer
100
AcDbLine
 10
563.5
 20
10.0
 30
0.0
 11
566.5
 21
10.0
 31
0.0
  0
LINE
  5
224
100
AcDbEntity
  8
0
 62
256
370
-1
 48
1.0
  6
ByLayer
100
AcDbLine
 10
560.9865840197337548
 20
10.0
 30
0.0
 11
563.5
 21
10.0
 31
0.0
  0
LINE
  5
225
100
AcDbEntity
  8
0
 62
256
370
-1
 48
1.0
  6
ByLayer
100
AcDbLine
 10
559.0
 20
10.0
 30
0.0
 11
560.9865840197337548
 21
10.0
 31
0.0
  0
LINE
  5
226
100
AcDbEntity
  8
0
 62
256
370
-1
 48
1.0
  6
ByLayer
100
AcDbLine
 10
556.0
 20
10.0
 30
0.0
 11
559.0
 21
10.0
 31
0.0
  0
LINE
  5
227
100
AcDbEntity
  8
0
 62
256
370
-1
 48
1.0
  6
ByLayer
100
AcDbLine
 10
550.0
 20
10.0
 30
0.0
 11
556.0
 21
10.0
 31
0.0
  0
LINE
  5
228
100
AcDbEntity
  8
0
 62
256
370
-1
 48
1.0
  6
ByLayer
100
AcDbLine
 10
566.5
 20
6.9999999999999973
 30
0.0
 11
563.5
 21
6.9999999999999973
 31
0.0
  0
LINE
  5
229
100
AcDbEntity
  8
0
 62
256
370
-1
 48
1.0
  6
ByLayer
100
AcDbLine
 10
580.0
 20
6.9999999999999964
 30
0.0
 11
566.5
 21
6.9999999999999973
 31
0.0
  0
LINE
  5
22A
100
AcDbEntity
  8
0
 62
256
370
-1
 48
1.0
  6
ByLayer
100
AcDbLine
 10
561.9800834138991377
 20
6.9999999999999973
 30
0.0
 11
559.0
 21
6.9999999999999982
 31
0.0
  0
LINE
  5
22B
100
AcDbEntity
  8
0
 62
256
370
-1
 48
1.0
  6
ByLayer
100
AcDbLine
 10
563.5
 20
6.9999999999999973
 30
0.0
 11
561.9800834138991377
 21
6.9999999999999973
 31
0.0
  0
LINE
  5
22C
100
AcDbEntity
  8
0
 62
256
370
-1
 48
1.0
  6
ByLayer
100
AcDbLine
 10
559.0
 20
6.9999999999999982
 30
0.0
 11
556.0
 21
6.9999999999999982
 31
0.0
  0
LINE
  5
22D
100
AcDbEntity
  8
0
 62
256
370
-1
 48
1.0
  6
ByLayer
100
AcDbLine
 10
556.0
 20
6.9999999999999982
 30
0.0
 11
550.0
 21
6.9999999999999991
 31
0.0
  0
LINE
  5
22E
100
AcDbEntity
  8
help
 62
256
370
-1
 48
1.0
  6
ByLayer
100
AcDbLine
 10
572.4999999999998863
 20
41.2499999999999289
 30
0.0
 11
572.4999999999998863
 21
3.0
 31
0.0
  0
LINE
  5
22F
100
AcDbEntity
  8
help
 62
256
370
-1
 48
1.0
  6
ByLayer
100
AcDbLine
 10
557.5
 20
54.7499999999999503
 30
0.0
 11
557.5
 21
3.0
 31
0.0
  0
LINE
  5
230
100
AcDbEntity
  8
under
 62
256
370
-1
 48
1.0
  6
ByLayer
100
AcDbLine
 10
574.0
 20
10.0
 30
0.0
 11
574.0
 21
6.9999999999999964
 31
0.0
  0
LINE
  5
231
100
AcDbEntity
  8
under
 62
256
370
-1
 48
1.0
  6
ByLayer
100
AcDbLine
 10
571.0
 20
10.0
 30
0.0
 11
571.0
 21
6.9999999999999973
 31
0.0
  0
LINE
  5
232
100
AcDbEntity
  8
0
 62
256
370
-1
 48
1.0
  6
ByLayer
100
AcDbLine
 10
556.0
 20
10.0
 30
0.0
 11
556.0
 21
6.9999999999999982
 31
0.0
  0
LINE
  5
233
100
AcDbEntity
  8
0
 62
256
370
-1
 48
1.0
  6
ByLayer
100
AcDbLine
 10
559.0
 20
10.0
 30
0.0
 11
559.0
 21
6.9999999999999982
 31
0.0
  0
LINE
  5
234
100
AcDbEntity
  8
0
 62
256
370
-1
 48
1.0
  6
ByLayer
100
AcDbLine
 10
561.9800834138991377
 20
7.0000000000000018
 30
0.0
 11
562.008499698845867
 21
7.0852488548400876
 31
0.0
  0
LINE
  5
235
100
AcDbEntity
  8
0
 62
256
370
-1
 48
1.0
  6
ByLayer
100
AcDbLine
 10
562.008499698845867
 20
7.0852488548400876
 30
0.0
 11
562.0221252412339936
 21
7.1670021091690481
 31
0.0
  0
LINE
  5
236
100
AcDbEntity
  8
0
 62
256
370
-1
 48
1.0
  6
ByLayer
100
AcDbLine
 10
562.0221252412339936
 20
7.1670021091690481
 30
0.0
 11
562.0493763260103606
 21
7.2760064482743285
 31
0.0
  0
LINE
  5
237
100
AcDbEntity
  8
0
 62
256
370
-1
 48
1.0
  6
ByLayer
100
AcDbLine
 10
562.0493763260103606
 20
7.2760064482743285
 30
0.0
 11
562.0493763260103606
 21
7.3577597026032882
 31
0.0
  0
LINE
  5
238
100
AcDbEntity
  8
0
 62
256
370
-1
 48
1.0
  6
ByLayer
100
AcDbLine
 10
562.0493763260103606
 20
7.3577597026032882
 30
0.0
 11
562.0493763260103606
 21
7.4531384993204091
 31
0.0
  0
LINE
  5
239
100
AcDbEntity
  8
0
 62
256
370
-1
 48
1.0
  6
ByLayer
100
AcDbLine
 10
562.0493763260103606
 20
7.4531384993204091
 30
0.0
 11
562.0493763260103606
 21
7.5485172960375291
 31
0.0
  0
LINE
  5
23A
100
AcDbEntity
  8
0
 62
256
370
-1
 48
1.0
  6
ByLayer
100
AcDbLine
 10
562.0493763260103606
 20
7.5485172960375291
 30
0.0
 11
562.008499698845867
 21
7.6575216351428086
 31
0.0
  0
LINE
  5
23B
100
AcDbEntity
  8
0
 62
256
370
-1
 48
1.0
  6
ByLayer
100
AcDbLine
 10
562.008499698845867
 20
7.6575216351428086
 30
0.0
 11
561.9676230716813734
 21
7.766525974248089
 31
0.0
  0
LINE
  5
23C
100
AcDbEntity
  8
0
 62
256
370
-1
 48
1.0
  6
ByLayer
100
AcDbLine
 10
561.9676230716813734
 20
7.766525974248089
 30
0.0
 11
561.9131209021287532
 21
7.861904770965209
 31
0.0
  0
LINE
  5
23D
100
AcDbEntity
  8
0
 62
256
370
-1
 48
1.0
  6
ByLayer
100
AcDbLine
 10
561.9131209021287532
 20
7.861904770965209
 30
0.0
 11
561.831367647799766
 21
7.9845346524586498
 31
0.0
  0
LINE
  5
23E
100
AcDbEntity
  8
0
 62
256
370
-1
 48
1.0
  6
ByLayer
100
AcDbLine
 10
561.831367647799766
 20
7.9845346524586498
 30
0.0
 11
561.7632399358590192
 21
8.1207900763402492
 31
0.0
  0
LINE
  5
23F
100
AcDbEntity
  8
0
 62
256
370
-1
 48
1.0
  6
ByLayer
100
AcDbLine
 10
561.7632399358590192
 20
8.1207900763402492
 30
0.0
 11
561.5588568000365512
 21
8.366049839327129
 31
0.0
  0
LINE
  5
240
100
AcDbEntity
  8
0
 62
256
370
-1
 48
1.0
  6
ByLayer
100
AcDbLine
 10
561.5588568000365512
 20
8.366049839327129
 30
0.0
 11
561.4634780033194374
 21
8.5023052632087293
 31
0.0
  0
LINE
  5
241
100
AcDbEntity
  8
0
 62
256
370
-1
 48
1.0
  6
ByLayer
100
AcDbLine
 10
561.4634780033194374
 20
8.5023052632087293
 30
0.0
 11
561.354473664214197
 21
8.6521862294784917
 31
0.0
  0
LINE
  5
242
100
AcDbEntity
  8
0
 62
256
370
-1
 48
1.0
  6
ByLayer
100
AcDbLine
 10
561.354473664214197
 20
8.6521862294784917
 30
0.0
 11
561.2727204098852098
 21
8.788441653360092
 31
0.0
  0
LINE
  5
243
100
AcDbEntity
  8
0
 62
256
370
-1
 48
1.0
  6
ByLayer
100
AcDbLine
 10
561.2727204098852098
 20
8.788441653360092
 30
0.0
 11
561.1909671555562227
 21
8.9110715348535301
 31
0.0
  0
LINE
  5
244
100
AcDbEntity
  8
0
 62
256
370
-1
 48
1.0
  6
ByLayer
100
AcDbLine
 10
561.1909671555562227
 20
8.9110715348535301
 30
0.0
 11
561.1500905283918428
 21
9.0473269587351304
 31
0.0
  0
LINE
  5
245
100
AcDbEntity
  8
0
 62
256
370
-1
 48
1.0
  6
ByLayer
100
AcDbLine
 10
561.1500905283918428
 20
9.0473269587351304
 30
0.0
 11
561.0955883588391089
 21
9.1835823826167307
 31
0.0
  0
LINE
  5
246
100
AcDbEntity
  8
0
 62
256
370
-1
 48
1.0
  6
ByLayer
100
AcDbLine
 10
561.0955883588391089
 20
9.1835823826167307
 30
0.0
 11
561.0683372740628556
 21
9.3062122641101723
 31
0.0
  0
LINE
  5
247
100
AcDbEntity
  8
0
 62
256
370
-1
 48
1.0
  6
ByLayer
100
AcDbLine
 10
561.0683372740628556
 20
9.3062122641101723
 30
0.0
 11
561.027460646898362
 21
9.4560932303799312
 31
0.0
  0
LINE
  5
248
100
AcDbEntity
  8
0
 62
256
370
-1
 48
1.0
  6
ByLayer
100
AcDbLine
 10
561.027460646898362
 20
9.4560932303799312
 30
0.0
 11
561.0138351045102354
 21
9.5787231118733729
 31
0.0
  0
LINE
  5
249
100
AcDbEntity
  8
0
 62
256
370
-1
 48
1.0
  6
ByLayer
100
AcDbLine
 10
561.0138351045102354
 20
9.5787231118733729
 30
0.0
 11
560.9865840197338684
 21
9.7422296205312939
 31
0.0
  0
LINE
  5
24A
100
AcDbEntity
  8
0
 62
256
370
-1
 48
1.0
  6
ByLayer
100
AcDbLine
 10
560.9865840197338684
 20
9.7422296205312939
 30
0.0
 11
560.9865840197338684
 21
10.0
 31
0.0
  0
HATCH
  5
24B
100
AcDbEntity
  8
0
 62
256
370
-1
 48
1.0
  6
ByLayer
100
AcDbHatch
 10
0.0
 20
0.0
 30
0.0
210
0.0
220
0.0
230
1.0
  2
ANSI31
 70
0
 71
0
 91
1
 92
1
 93
26
 72
1
 10
561.354473664214197
 20
8.6521862294784917
 11
561.2727204098852098
 21
8.788441653360092
 72
1
 10
561.2727204098852098
 20
8.788441653360092
 11
561.1909671555562227
 21
8.9110715348535301
 72
1
 10
561.1909671555562227
 20
8.9110715348535301
 11
561.1500905283918428
 21
9.0473269587351304
 72
1
 10
561.1500905283918428
 20
9.0473269587351304
 11
561.0955883588391089
 21
9.1835823826167307
 72
1
 10
561.0955883588391089
 20
9.1835823826167307
 11
561.0683372740628556
 21
9.3062122641101723
 72
1
 10
561.0683372740628556
 20
9.3062122641101723
 11
561.027460646898362
 21
9.4560932303799312
 72
1
 10
561.027460646898362
 20
9.4560932303799312
 11
561.0138351045102354
 21
9.5787231118733729
 72
1
 10
561.0138351045102354
 20
9.5787231118733729
 11
560.9865840197338684
 21
9.7422296205312939
 72
1
 10
560.9865840197338684
 20
9.7422296205312939
 11
560.9865840197338684
 21
10.0
 72
1
 10
560.9865840197337548
 20
10.0
 11
559.0
 21
10.0
 72
1
 10
559.0
 20
10.0
 11
559.0
 21
6.9999999999999982
 72
1
 10
559.0
 20
6.9999999999999982
 11
561.9800834138991377
 21
6.9999999999999973
 72
1
 10
561.9800834138991377
 20
7.0000000000000018
 11
562.008499698845867
 21
7.0852488548400876
 72
1
 10
562.008499698845867
 20
7.0852488548400876
 11
562.0221252412339936
 21
7.1670021091690481
 72
1
 10
562.0221252412339936
 20
7.1670021091690481
 11
562.0493763260103606
 21
7.2760064482743285
 72
1
 10
562.0493763260103606
 20
7.2760064482743285
 11
562.0493763260103606
 21
7.3577597026032882
 72
1
 10
562.0493763260103606
 20
7.3577597026032882
 11
562.0493763260103606
 21
7.4531384993204091
 72
1
 10
562.0493763260103606
 20
7.4531384993204091
 11
562.0493763260103606
 21
7.5485172960375291
 72
1
 10
562.0493763260103606
 20
7.5485172960375291
 11
562.008499698845867
 21
7.6575216351428086
 72
1
 10
562.008499698845867
 20
7.6575216351428086
 11
561.9676230716813734
 21
7.766525974248089
 72
1
 10
561.9676230716813734
 20
7.766525974248089
 11
561.9131209021287532
 21
7.861904770965209
 72
1
 10
561.9131209021287532
 20
7.861904770965209
 11
561.831367647799766
 21
7.9845346524586498
 72
1
 10
561.831367647799766
 20
7.9845346524586498
 11
561.7632399358590192
 21
8.1207900763402492
 72
1
 10
561.7632399358590192
 20
8.1207900763402492
 11
561.5588568000365512
 21
8.366049839327129
 72
1
 10
561.5588568000365512
 20
8.366049839327129
 11
561.4634780033194374
 21
8.5023052632087293
 72
1
 10
561.4634780033194374
 20
8.5023052632087293
 11
561.354473664214197
 21
8.6521862294784917
 97
0
 75
0
 76
1
 52
0.0
 41
0.3
 77
0
 78
1
 53
45.0
 43
0.0
 44
0.0
 45
-0.0883883476483184
 46
0.0883883476483185
 79
0
 98
0
1001
ACAD
1010
0.0
1020
0.0
1030
0
  0
HATCH
  5
24C
100
AcDbEntity
  8
0
 62
256
370
-1
 48
1.0
  6
ByLayer
100
AcDbHatch
 10
0.0
 20
0.0
 30
0.0
210
0.0
220
0.0
230
1.0
  2
ANSI31
 70
0
 71
0
 91
1
 92
1
 93
4
 72
1
 10
550.0
 20
10.0
 11
550.0
 21
6.9999999999999991
 72
1
 10
550.0
 20
6.9999999999999991
 11
556.0
 21
6.9999999999999982
 72
1
 10
556.0
 20
6.9999999999999982
 11
556.0
 21
10.0
 72
1
 10
556.0
 20
10.0
 11
550.0
 21
10.0
 97
0
 75
0
 76
1
 52
0.0
 41
0.3
 77
0
 78
1
 53
45.0
 43
0.0
 44
0.0
 45
-0.0883883476483184
 46
0.0883883476483185
 79
0
 98
0
1001
ACAD
1010
0.0
1020
0.0
1030
0
  0
LINE
  5
24D
100
AcDbEntity
  8
0
 62
256
370
-1
 48
1.0
  6
ByLayer
100
AcDbLine
 10
457.0000000000000568
 20
168.5000000000000284
 30
0.0
 11
456.9999999999999432
 21
165.5
 31
0.0
  0
LINE
  5
24E
100
AcDbEntity
  8
0
 62
256
370
-1
 48
1.0
  6
ByLayer
100
AcDbLine
 10
433.9999999999999432
 20
165.5
 30
0.0
 11
433.9999999999999432
 21
168.5
 31
0.0
  0
ARC
  5
24F
100
AcDbEntity
  8
0
 62
256
370
-1
 48
1.0
  6
ByLayer
100
AcDbCircle
 10
565.0
 20
-17.0
 30
0.0
 40
1.0
100
AcDbArc
 50
180.0
 51
360.0
  0
ARC
  5
250
100
AcDbEntity
  8
0
 62
256
370
-1
 48
1.0
  6
ByLayer
100
AcDbCircle
 10
565.0
 20
3.9999999999999996
 30
0.0
 40
1.0
100
AcDbArc
 50
0.0
 51
180.0
  0
LINE
  5
251
100
AcDbEntity
  8
0
 62
256
370
-1
 48
1.0
  6
ByLayer
100
AcDbLine
 10
564.0
 20
3.9999999999999996
 30
0.0
 11
564.0
 21
-17.0
 31
0.0
  0
LINE
  5
252
100
AcDbEntity
  8
0
 62
256
370
-1
 48
1.0
  6
ByLayer
100
AcDbLine
 10
566.0
 20
-17.0
 30
0.0
 11
566.0
 21
3.9999999999999996
 31
0.0
  0
HATCH
  5
253
100
AcDbEntity
  8
0
 62
256
370
-1
 48
1.0
  6
ByLayer
100
AcDbHatch
 10
0.0
 20
0.0
 30
0.0
210
0.0
220
0.0
230
1.0
  2
ANSI31
 70
0
 71
0
 91
1
 92
1
 93
6
 72
1
 10
799.0000000000001137
 20
32.5000000000000568
 11
798.5
 21
32.5000000000000426
 72
1
 10
798.5
 20
32.5000000000000426
 11
785.0000000000001137
 21
32.5000000000000426
 72
1
 10
785.0000000000001137
 20
32.5000000000000426
 11
785.0000000000001137
 21
29.5
 72
1
 10
785.0000000000001137
 20
29.5
 11
798.5000000000001137
 21
29.5
 72
1
 10
798.5000000000001137
 20
29.5
 11
799.0000000000001137
 21
29.5
 72
1
 10
799.0000000000001137
 20
29.5
 11
799.0000000000001137
 21
32.5
 97
0
 75
0
 76
1
 52
0.0
 41
0.3
 77
0
 78
1
 53
45.0
 43
0.0
 44
0.0
 45
-0.0883883476483184
 46
0.0883883476483185
 79
0
 98
0
1001
ACAD
1010
0.0
1020
0.0
1030
0
  0
HATCH
  5
254
100
AcDbEntity
  8
0
 62
256
370
-1
 48
1.0
  6
ByLayer
100
AcDbHatch
 10
0.0
 20
0.0
 30
0.0
210
0.0
220
0.0
230
1.0
  2
ANSI31
 70
0
 71
0
 91
1
 92
1
 93
6
 72
1
 10
800.9999999999998863
 20
167.4999999999999432
 11
801.5
 21
167.4999999999999432
 72
1
 10
801.5
 20
167.4999999999999432
 11
814.9999999999998863
 21
167.4999999999999432
 72
1
 10
814.9999999999998863
 20
167.4999999999999432
 11
814.9999999999998863
 21
170.5
 72
1
 10
814.9999999999998863
 20
170.5
 11
801.4999999999998863
 21
170.5
 72
1
 10
801.4999999999998863
 20
170.5
 11
800.9999999999998863
 21
170.5
 72
1
 10
800.9999999999998863
 20
170.5
 11
800.9999999999998863
 21
167.5
 97
0
 75
0
 76
1
 52
180.0
 41
0.3
 77
0
 78
1
 53
45.0
 43
0.0
 44
0.0
 45
-0.0883883476483184
 46
0.0883883476483185
 79
0
 98
0
1001
ACAD
1010
0.0
1020
0.0
1030
0
  0
HATCH
  5
255
100
AcDbEntity
  8
0
 62
256
370
-1
 48
1.0
  6
ByLayer
100
AcDbHatch
 10
0.0
 20
0.0
 30
0.0
210
0.0
220
0.0
230
1.0
  2
ANSI31
 70
0
 71
0
 91
1
 92
1
 93
6
 72
1
 10
564.0
 20
34.5000000000000426
 11
563.4999999999998863
 21
34.5000000000000426
 72
1
 10
563.4999999999998863
 20
34.5000000000000426
 11
550.0
 21
34.5000000000000426
 72
1
 10
550.0
 20
34.5000000000000426
 11
550.0
 21
31.4999999999999964
 72
1
 10
550.0
 20
31.4999999999999964
 11
563.5
 21
31.4999999999999964
 72
1
 10
563.5
 20
31.4999999999999964
 11
564.0
 21
31.4999999999999964
 72
1
 10
564.0
 20
31.4999999999999538
 11
564.0
 21
34.5
 97
0
 75
0
 76
1
 52
0.0
 41
0.3
 77
0
 78
1
 53
45.0
 43
0.0
 44
0.0
 45
-0.0883883476483184
 46
0.0883883476483185
 79
0
 98
0
1001
ACAD
1010
0.0
1020
0.0
1030
0
  0
HATCH
  5
256
100
AcDbEntity
  8
0
 62
256
370
-1
 48
1.0
  6
ByLayer
100
AcDbHatch
 10
0.0
 20
0.0
 30
0.0
210
0.0
220
0.0
230
1.0
  2
ANSI31
 70
0
 71
0
 91
1
 92
1
 93
6
 72
1
 10
801.5
 20
29.5
 11
815.0000000000001137
 21
29.5
 72
1
 10
815.0000000000001137
 20
29.5
 11
815.0000000000001137
 21
32.5000000000000426
 72
1
 10
815.0000000000001137
 20
32.5000000000000426
 11
801.5000000000001137
 21
32.5000000000000568
 72
1
 10
801.5000000000001137
 20
32.5000000000000568
 11
801.0000000000001137
 21
32.5000000000000568
 72
1
 10
801.0000000000001137
 20
32.5
 11
801.0000000000001137
 21
29.5
 72
1
 10
801.0000000000001137
 20
29.5
 11
801.5
 21
29.5
 97
0
 75
0
 76
1
 52
0.0
 41
0.3
 77
0
 78
1
 53
45.0
 43
0.0
 44
0.0
 45
-0.0883883476483184
 46
0.0883883476483185
 79
0
 98
0
1001
ACAD
1010
0.0
1020
0.0
1030
0
  0
HATCH
  5
257
100
AcDbEntity
  8
0
 62
256
370
-1
 48
1.0
  6
ByLayer
100
AcDbHatch
 10
0.0
 20
0.0
 30
0.0
210
0.0
220
0.0
230
1.0
  2
ANSI31
 70
0
 71
0
 91
1
 92
1
 93
6
 72
1
 10
798.5
 20
170.5
 11
784.9999999999998863
 21
170.5
 72
1
 10
784.9999999999998863
 20
170.5
 11
784.9999999999998863
 21
167.4999999999999432
 72
1
 10
784.9999999999998863
 20
167.4999999999999432
 11
798.4999999999998863
 21
167.4999999999999432
 72
1
 10
798.4999999999998863
 20
167.4999999999999432
 11
798.9999999999998863
 21
167.4999999999999432
 72
1
 10
798.9999999999998863
 20
167.5
 11
798.9999999999998863
 21
170.5
 72
1
 10
798.9999999999998863
 20
170.5
 11
798.5
 21
170.5
 97
0
 75
0
 76
1
 52
180.0
 41
0.3
 77
0
 78
1
 53
45.0
 43
0.0
 44
0.0
 45
-0.0883883476483184
 46
0.0883883476483185
 79
0
 98
0
1001
ACAD
1010
0.0
1020
0.0
1030
0
  0
HATCH
  5
258
100
AcDbEntity
  8
0
 62
256
370
-1
 48
1.0
  6
ByLayer
100
AcDbHatch
 10
0.0
 20
0.0
 30
0.0
210
0.0
220
0.0
230
1.0
  2
ANSI31
 70
0
 71
0
 91
1
 92
1
 93
6
 72
1
 10
566.4999999999998863
 20
31.4999999999999964
 11
580.0
 21
31.4999999999999964
 72
1
 10
580.0
 20
31.4999999999999964
 11
580.0
 21
34.5000000000000426
 72
1
 10
580.0
 20
34.5000000000000426
 11
566.5
 21
34.5000000000000426
 72
1
 10
566.5
 20
34.5000000000000426
 11
566.0
 21
34.5000000000000426
 72
1
 10
566.0
 20
34.5
 11
566.0
 21
31.4999999999999964
 72
1
 10
566.0
 20
31.4999999999999964
 11
566.4999999999998863
 21
31.4999999999999964
 97
0
 75
0
 76
1
 52
0.0
 41
0.3
 77
0
 78
1
 53
45.0
 43
0.0
 44
0.0
 45
-0.0883883476483184
 46
0.0883883476483185
 79
0
 98
0
1001
ACAD
1010
0.0
1020
0.0
1030
0
  0
HATCH
  5
259
100
AcDbEntity
  8
0
 62
256
370
-1
 48
1.0
  6
ByLayer
100
AcDbHatch
 10
0.0
 20
0.0
 30
0.0
210
0.0
220
0.0
230
1.0
  2
ANSI31
 70
0
 71
0
 91
1
 92
1
 93
4
 72
1
 10
433.9999999999999432
 20
165.5
 11
433.9999999999999432
 21
168.5
 72
1
 10
433.9999999999999432
 20
168.5
 11
431.9999999999999432
 21
168.5
 72
1
 10
431.9999999999999432
 20
168.5
 11
431.9999999999999432
 21
165.5
 72
1
 10
431.9999999999999432
 20
165.5
 11
433.9999999999998863
 21
165.5
 97
0
 75
0
 76
1
 52
0.0
 41
0.3
 77
0
 78
1
 53
45.0
 43
0.0
 44
0.0
 45
-0.0883883476483184
 46
0.0883883476483185
 79
0
 98
0
1001
ACAD
1010
0.0
1020
0.0
1030
0
  0
LINE
  5
25A
100
AcDbEntity
  8
0
 62
256
370
-1
 48
1.0
  6
ByLayer
100
AcDbLine
 10
446.4999999999999432
 20
168.5
 30
0.0
 11
446.4999999999999432
 21
170.9999999999999716
 31
0.0
  0
LINE
  5
25B
100
AcDbEntity
  8
0
 62
256
370
-1
 48
1.0
  6
ByLayer
100
AcDbLine
 10
446.4999999999999432
 20
170.9999999999999716
 30
0.0
 11
445.4999999999999432
 21
170.9999999999999716
 31
0.0
  0
LINE
  5
25C
100
AcDbEntity
  8
0
 62
256
370
-1
 48
1.0
  6
ByLayer
100
AcDbLine
 10
445.4999999999999432
 20
170.9999999999999716
 30
0.0
 11
445.4999999999999432
 21
173.5000000000000284
 31
0.0
  0
LINE
  5
25D
100
AcDbEntity
  8
0
 62
256
370
-1
 48
1.0
  6
ByLayer
100
AcDbLine
 10
448.4999999999999432
 20
168.5
 30
0.0
 11
448.4999999999999432
 21
170.9999999999999716
 31
0.0
  0
LINE
  5
25E
100
AcDbEntity
  8
0
 62
256
370
-1
 48
1.0
  6
ByLayer
100
AcDbLine
 10
448.4999999999999432
 20
170.9999999999999716
 30
0.0
 11
449.4999999999999432
 21
170.9999999999999716
 31
0.0
  0
LINE
  5
25F
100
AcDbEntity
  8
0
 62
256
370
-1
 48
1.0
  6
ByLayer
100
AcDbLine
 10
449.4999999999999432
 20
170.9999999999999716
 30
0.0
 11
449.4999999999999432
 21
173.5000000000000284
 31
0.0
  0
LINE
  5
260
100
AcDbEntity
  8
0
 62
256
370
-1
 48
1.0
  6
ByLayer
100
AcDbLine
 10
307.5
 20
168.5
 30
0.0
 11
307.5
 21
170.9999999999999716
 31
0.0
  0
LINE
  5
261
100
AcDbEntity
  8
0
 62
256
370
-1
 48
1.0
  6
ByLayer
100
AcDbLine
 10
377.4999999999999432
 20
168.5
 30
0.0
 11
377.4999999999999432
 21
170.9999999999999716
 31
0.0
  0
LINE
  5
262
100
AcDbEntity
  8
0
 62
256
370
-1
 48
1.0
  6
ByLayer
100
AcDbLine
 10
443.4999999999999432
 20
168.5
 30
0.0
 11
443.4999999999999432
 21
170.9999999999999716
 31
0.0
  0
LINE
  5
263
100
AcDbEntity
  8
0
 62
256
370
-1
 48
1.0
  6
ByLayer
100
AcDbLine
 10
443.4999999999999432
 20
170.9999999999999716
 30
0.0
 11
444.4999999999999432
 21
170.9999999999999716
 31
0.0
  0
LINE
  5
264
100
AcDbEntity
  8
0
 62
256
370
-1
 48
1.0
  6
ByLayer
100
AcDbLine
 10
444.4999999999999432
 20
170.9999999999999716
 30
0.0
 11
444.4999999999999432
 21
173.5000000000000284
 31
0.0
  0
LINE
  5
265
100
AcDbEntity
  8
0
 62
256
370
-1
 48
1.0
  6
ByLayer
100
AcDbLine
 10
306.5
 20
168.5
 30
0.0
 11
306.5
 21
170.9999999999999716
 31
0.0
  0
LINE
  5
266
100
AcDbEntity
  8
0
 62
256
370
-1
 48
1.0
  6
ByLayer
100
AcDbLine
 10
376.4999999999999432
 20
168.5
 30
0.0
 11
376.4999999999999432
 21
170.9999999999999716
 31
0.0
  0
LINE
  5
267
100
AcDbEntity
  8
0
 62
256
370
-1
 48
1.0
  6
ByLayer
100
AcDbLine
 10
441.4999999999999432
 20
168.5
 30
0.0
 11
441.4999999999999432
 21
170.9999999999999716
 31
0.0
  0
LINE
  5
268
100
AcDbEntity
  8
0
 62
256
370
-1
 48
1.0
  6
ByLayer
100
AcDbLine
 10
441.4999999999999432
 20
170.9999999999999716
 30
0.0
 11
440.4999999999999432
 21
170.9999999999999716
 31
0.0
  0
LINE
  5
269
100
AcDbEntity
  8
0
 62
256
370
-1
 48
1.0
  6
ByLayer
100
AcDbLine
 10
440.4999999999999432
 20
170.9999999999999716
 30
0.0
 11
440.4999999999999432
 21
173.5000000000000284
 31
0.0
  0
HATCH
  5
26A
100
AcDbEntity
  8
0
 62
256
370
-1
 48
1.0
  6
ByLayer
100
AcDbHatch
 10
0.0
 20
0.0
 30
0.0
210
0.0
220
0.0
230
1.0
  2
ANSI31
 70
0
 71
0
 91
1
 92
1
 93
7
 72
1
 10
451.4999999999999432
 20
173.5000000000000284
 11
451.4999999999999432
 21
169.5
 72
1
 10
451.4999999999999432
 20
169.5
 11
451.4999999999999432
 21
168.5
 72
1
 10
451.4999999999999432
 20
168.5000000000000284
 11
448.4999999999998863
 21
168.5000000000000284
 72
1
 10
448.4999999999999432
 20
168.5
 11
448.4999999999999432
 21
170.9999999999999716
 72
1
 10
448.4999999999999432
 20
170.9999999999999716
 11
449.4999999999999432
 21
170.9999999999999716
 72
1
 10
449.4999999999999432
 20
170.9999999999999716
 11
449.4999999999999432
 21
173.5000000000000284
 72
1
 10
449.5
 20
173.5000000000000284
 11
451.4999999999999432
 21
173.5000000000000284
 97
0
 75
0
 76
1
 52
-60.0
 41
0.2
 77
0
 78
1
 53
45.0
 43
0.0
 44
0.0
 45
-0.0883883476483184
 46
0.0883883476483185
 79
0
 98
0
1001
ACAD
1010
0.0
1020
0.0
1030
0
  0
HATCH
  5
26B
100
AcDbEntity
  8
0
 62
256
370
-1
 48
1.0
  6
ByLayer
100
AcDbHatch
 10
0.0
 20
0.0
 30
0.0
210
0.0
220
0.0
230
1.0
  2
ANSI31
 70
0
 71
0
 91
1
 92
1
 93
8
 72
1
 10
446.4999999999999432
 20
168.5
 11
446.4999999999999432
 21
170.9999999999999716
 72
1
 10
446.4999999999999432
 20
170.9999999999999716
 11
445.4999999999999432
 21
170.9999999999999716
 72
1
 10
445.4999999999999432
 20
170.9999999999999716
 11
445.4999999999999432
 21
173.5000000000000284
 72
1
 10
445.5
 20
173.5000000000000284
 11
444.4999999999998295
 21
173.5000000000000284
 72
1
 10
444.4999999999999432
 20
173.5000000000000284
 11
444.4999999999999432
 21
170.9999999999999716
 72
1
 10
444.4999999999999432
 20
170.9999999999999716
 11
443.4999999999999432
 21
170.9999999999999716
 72
1
 10
443.4999999999999432
 20
170.9999999999999716
 11
443.4999999999999432
 21
168.5
 72
1
 10
443.4999999999999432
 20
168.5000000000000284
 11
446.5
 21
168.5000000000000284
 97
0
 75
0
 76
1
 52
-60.0
 41
0.2
 77
0
 78
1
 53
45.0
 43
0.0
 44
0.0
 45
-0.0883883476483184
 46
0.0883883476483185
 79
0
 98
0
1001
ACAD
1010
0.0
1020
0.0
1030
0
  0
LINE
  5
26C
100
AcDbEntity
  8
0
 62
256
370
-1
 48
1.0
  6
ByLayer
100
AcDbLine
 10
306.5
 20
168.5000000000000568
 30
0.0
 11
306.5
 21
167.5000000000000284
 31
0.0
  0
LINE
  5
26D
100
AcDbEntity
  8
0
 62
256
370
-1
 48
1.0
  6
ByLayer
100
AcDbLine
 10
377.4999999999999432
 20
170.9999999999999716
 30
0.0
 11
378.4999999999999432
 21
170.9999999999999716
 31
0.0
  0
LINE
  5
26E
100
AcDbEntity
  8
0
 62
256
370
-1
 48
1.0
  6
ByLayer
100
AcDbLine
 10
378.4999999999999432
 20
170.9999999999999716
 30
0.0
 11
378.4999999999999432
 21
173.5000000000000284
 31
0.0
  0
LINE
  5
26F
100
AcDbEntity
  8
0
 62
256
370
-1
 48
1.0
  6
ByLayer
100
AcDbLine
 10
376.4999999999999432
 20
170.9999999999999716
 30
0.0
 11
375.4999999999999432
 21
170.9999999999999716
 31
0.0
  0
LINE
  5
270
100
AcDbEntity
  8
0
 62
256
370
-1
 48
1.0
  6
ByLayer
100
AcDbLine
 10
375.4999999999999432
 20
170.9999999999999716
 30
0.0
 11
375.4999999999999432
 21
173.5000000000000284
 31
0.0
  0
LINE
  5
271
100
AcDbEntity
  8
0
 62
256
370
-1
 48
1.0
  6
ByLayer
100
AcDbLine
 10
307.5
 20
170.9999999999999716
 30
0.0
 11
308.5
 21
170.9999999999999716
 31
0.0
  0
LINE
  5
272
100
AcDbEntity
  8
0
 62
256
370
-1
 48
1.0
  6
ByLayer
100
AcDbLine
 10
308.5
 20
170.9999999999999716
 30
0.0
 11
308.5
 21
173.5000000000000284
 31
0.0
  0
LINE
  5
273
100
AcDbEntity
  8
0
 62
256
370
-1
 48
1.0
  6
ByLayer
100
AcDbLine
 10
306.5
 20
170.9999999999999716
 30
0.0
 11
305.5999999999999659
 21
170.9999999999999716
 31
0.0
  0
LINE
  5
274
100
AcDbEntity
  8
0
 62
256
370
-1
 48
1.0
  6
ByLayer
100
AcDbLine
 10
305.5999999999999659
 20
170.9999999999999716
 30
0.0
 11
305.5999999999999659
 21
173.5000000000000284
 31
0.0
  0
LINE
  5
275
100
AcDbEntity
  8
0
 62
256
370
-1
 48
1.0
  6
ByLayer
100
AcDbLine
 10
305.0
 20
166.0000000000000284
 30
0.0
 11
304.0
 21
166.0
 31
0.0
  0
LINE
  5
276
100
AcDbEntity
  8
0
 62
256
370
-1
 48
1.0
  6
ByLayer
100
AcDbLine
 10
304.0
 20
166.0
 30
0.0
 11
297.0
 21
166.0
 31
0.0
  0
LINE
  5
277
100
AcDbEntity
  8
0
 62
256
370
-1
 48
1.0
  6
ByLayer
100
AcDbLine
 10
297.0
 20
165.0
 30
0.0
 11
304.0
 21
165.0
 31
0.0
  0
LINE
  5
278
100
AcDbEntity
  8
0
 62
256
370
-1
 48
1.0
  6
ByLayer
100
AcDbLine
 10
304.0
 20
165.0
 30
0.0
 11
305.0
 21
165.0000000000000284
 31
0.0
  0
DIMENSION
  5
279
100
AcDbEntity
  8
dims
 62
256
370
-1
 48
1.0
  6
ByLayer
100
AcDbDimension
 10
545.0
 20
54.7499999999999787
 30
0.0
 11
543.125
 21
58.1249999999999858
 31
0.0
 70
0
 71
8
 72
2
 41
1.0
 42
0.0
  1

  3
Standard
100
AcDbAlignedDimension
 13
557.5
 23
54.7499999999999787
 33
0.0
 14
549.9999999999998863
 24
61.4999999999999929
 34
0.0
 50
90.0
100
AcDbRotatedDimension
1001
ACAD
1000
DSTYLE
1002
{
1070
144
1040
1.0
1070
40
1040
1.0
1002
}
  0
DIMENSION
  5
27A
100
AcDbEntity
  8
dims
 62
256
370
-1
 48
1.0
  6
ByLayer
100
AcDbDimension
 10
557.5
 20
66.0
 30
0.0
 11
553.75
 21
67.875
 31
0.0
 70
0
 71
8
 72
2
 41
1.0
 42
0.0
  1

  3
Standard
100
AcDbAlignedDimension
 13
557.5
 23
54.7499999999999787
 33
0.0
 14
550.0
 24
61.4999999999999716
 34
0.0
 50
0.0
100
AcDbRotatedDimension
1001
ACAD
1000
DSTYLE
1002
{
1070
144
1040
1.0
1070
40
1040
1.0
1002
}
  0
DIMENSION
  5
27B
100
AcDbEntity
  8
dims
 62
256
370
-1
 48
1.0
  6
ByLayer
100
AcDbDimension
 10
540.0
 20
61.4999999999999716
 30
0.0
 11
538.125
 21
46.4999999999999787
 31
0.0
 70
0
 71
8
 72
2
 41
1.0
 42
0.0
  1

  3
Standard
100
AcDbAlignedDimension
 13
550.0
 23
61.4999999999999716
 33
0.0
 14
550.0
 24
31.4999999999999893
 34
0.0
 50
90.0
100
AcDbRotatedDimension
1001
ACAD
1000
DSTYLE
1002
{
1070
144
1040
1.0
1070
40
1040
1.0
1002
}
  0
DIMENSION
  5
27C
100
AcDbEntity
  8
dims
 62
256
370
-1
 48
1.0
  6
ByLayer
100
AcDbDimension
 10
585.0
 20
41.2499999999998863
 30
0.0
 11
583.125
 21
51.3749999999999432
 31
0.0
 70
0
 71
8
 72
2
 41
1.0
 42
0.0
  1

  3
Standard
100
AcDbAlignedDimension
 13
572.5
 23
41.2499999999998863
 33
0.0
 14
580.0
 24
61.4999999999999929
 34
0.0
 50
90.0
100
AcDbRotatedDimension
1001
ACAD
1000
DSTYLE
1002
{
1070
144
1040
1.0
1070
40
1040
1.0
1002
}
  0
DIMENSION
  5
27D
100
AcDbEntity
  8
dims
 62
256
370
-1
 48
1.0
  6
ByLayer
100
AcDbDimension
 10
572.5
 20
66.0
 30
0.0
 11
576.25
 21
67.875
 31
0.0
 70
0
 71
8
 72
2
 41
1.0
 42
0.0
  1

  3
Standard
100
AcDbAlignedDimension
 13
572.5
 23
41.2499999999998863
 33
0.0
 14
580.0
 24
41.2499999999998863
 34
0.0
 50
0.0
100
AcDbRotatedDimension
1001
ACAD
1000
DSTYLE
1002
{
1070
144
1040
1.0
1070
40
1040
1.0
1002
}
  0
DIMENSION
  5
27E
100
AcDbEntity
  8
dims
 62
256
370
-1
 48
1.0
  6
ByLayer
100
AcDbDimension
 10
564.0
 20
26.4999999999999964
 30
0.0
 11
568.4305591050081148
 21
28.3749999999999964
 31
0.0
 70
0
 71
8
 72
2
 41
1.0
 42
0.0
  1
\U+00f8<>
  3
Standard
100
AcDbAlignedDimension
 13
564.0
 23
34.5000000000000426
 33
0.0
 14
566.0
 24
34.5000000000000426
 34
0.0
 50
0.0
100
AcDbRotatedDimension
1001
ACAD
1000
DSTYLE
1002
{
1070
144
1040
1.0
1070
40
1040
1.0
1002
}
  0
DIMENSION
  5
27F
100
AcDbEntity
  8
dims
 62
256
370
-1
 48
1.0
  6
ByLayer
100
AcDbDimension
 10
545.0
 20
3.9999999999999996
 30
0.0
 11
543.125
 21
5.5
 31
0.0
 70
0
 71
8
 72
2
 41
1.0
 42
0.0
  1

  3
Standard
100
AcDbAlignedDimension
 13
565.0
 23
3.9999999999999996
 33
0.0
 14
550.0
 24
6.9999999999999991
 34
0.0
 50
90.0
100
AcDbRotatedDimension
1001
ACAD
1000
DSTYLE
1002
{
1070
144
1040
1.0
1070
40
1040
1.0
1002
}
  0
DIMENSION
  5
280
100
AcDbEntity
  8
dims
 62
256
370
-1
 48
1.0
  6
ByLayer
100
AcDbDimension
 10
545.0
 20
-17.0
 30
0.0
 11
543.125
 21
-18.5
 31
0.0
 70
0
 71
8
 72
2
 41
1.0
 42
0.0
  1

  3
Standard
100
AcDbAlignedDimension
 13
565.0
 23
-17.0
 33
0.0
 14
550.0
 24
-20.0
 34
0.0
 50
90.0
100
AcDbRotatedDimension
1001
ACAD
1000
DSTYLE
1002
{
1070
144
1040
1.0
1070
40
1040
1.0
1002
}
  0
LINE
  5
281
100
AcDbEntity
  8
0
 62
256
370
-1
 48
1.0
  6
ByLayer
100
AcDbLine
 10
304.0
 20
168.5000000000000284
 30
0.0
 11
306.5
 21
168.5000000000000568
 31
0.0
  0
LINE
  5
282
100
AcDbEntity
  8
0
 62
256
370
-1
 48
1.0
  6
ByLayer
100
AcDbLine
 10
306.5
 20
168.5000000000000568
 30
0.0
 11
307.5
 21
168.5
 31
0.0
  0
LINE
  5
283
100
AcDbEntity
  8
0
 62
256
370
-1
 48
1.0
  6
ByLayer
100
AcDbLine
 10
307.5
 20
168.5
 30
0.0
 11
307.5000000000000568
 21
167.5000000000000284
 31
0.0
  0
LINE
  5
284
100
AcDbEntity
  8
0
 62
256
370
-1
 48
1.0
  6
ByLayer
100
AcDbLine
 10
307.5000000000000568
 20
167.5000000000000284
 30
0.0
 11
309.0
 21
167.5
 31
0.0
  0
LINE
  5
285
100
AcDbEntity
  8
0
 62
256
370
-1
 48
1.0
  6
ByLayer
100
AcDbLine
 10
309.0
 20
167.5
 30
0.0
 11
309.0
 21
168.5000000000000284
 31
0.0
  0
LINE
  5
286
100
AcDbEntity
  8
0
 62
256
370
-1
 48
1.0
  6
ByLayer
100
AcDbLine
 10
309.0
 20
168.5000000000000284
 30
0.0
 11
307.5
 21
168.4999999999999716
 31
0.0
  0
HATCH
  5
287
100
AcDbEntity
  8
0
 62
256
370
-1
 48
1.0
  6
ByLayer
100
AcDbHatch
 10
0.0
 20
0.0
 30
0.0
210
0.0
220
0.0
230
1.0
  2
ANSI31
 70
0
 71
0
 91
1
 92
1
 93
4
 72
1
 10
307.5
 20
168.5
 11
307.5000000000000568
 21
167.5000000000000284
 72
1
 10
307.5000000000000568
 20
167.5000000000000284
 11
309.0
 21
167.5
 72
1
 10
309.0
 20
167.5
 11
309.0
 21
168.5000000000000284
 72
1
 10
309.0
 20
168.5000000000000284
 11
307.5
 21
168.4999999999999716
 97
0
 75
0
 76
1
 52
0.0
 41
0.0445422
 77
0
 78
1
 53
45.0
 43
0.0
 44
0.0
 45
-0.0883883476483184
 46
0.0883883476483185
 79
0
 98
0
1001
ACAD
1010
0.0
1020
0.0
1030
0
  0
HATCH
  5
288
100
AcDbEntity
  8
0
 62
256
370
-1
 48
1.0
  6
ByLayer
100
AcDbHatch
 10
0.0
 20
0.0
 30
0.0
210
0.0
220
0.0
230
1.0
  2
ANSI31
 70
0
 71
0
 91
1
 92
1
 93
8
 72
1
 10
304.0
 20
168.5000000000000284
 11
306.5
 21
168.5000000000000568
 72
1
 10
306.5
 20
168.5000000000000568
 11
306.5
 21
167.5000000000000284
 72
1
 10
306.5000000000000568
 20
167.5000000000000284
 11
305.0
 21
167.5000000000000284
 72
1
 10
305.0
 20
167.5000000000000284
 11
305.0
 21
166.0000000000000284
 72
1
 10
305.0
 20
166.0000000000000284
 11
304.0
 21
166.0
 72
1
 10
304.0
 20
166.0000000000000284
 11
304.0
 21
167.6999999999999886
 72
1
 10
304.0
 20
167.6999999999999886
 11
304.0
 21
168.0
 72
1
 10
304.0
 20
168.0
 11
304.0
 21
168.5000000000000284
 97
0
 75
0
 76
1
 52
0.0
 41
0.0445422
 77
0
 78
1
 53
45.0
 43
0.0
 44
0.0
 45
-0.0883883476483184
 46
0.0883883476483185
 79
0
 98
0
1001
ACAD
1010
0.0
1020
0.0
1030
0
  0
LINE
  5
289
100
AcDbEntity
  8
axis
 62
256
370
-1
 48
1.0
  6
ByLayer
100
AcDbLine
 10
458.4999999999999432
 20
158.75
 30
0.0
 11
478.4999999999999432
 21
158.75
 31
0.0
  0
LINE
  5
28A
100
AcDbEntity
  8
axis
 62
256
370
-1
 48
1.0
  6
ByLayer
100
AcDbLine
 10
458.4999999999999432
 20
145.25
 30
0.0
 11
478.4999999999999432
 21
145.25
 31
0.0
  0
DIMENSION
  5
28B
100
AcDbEntity
  8
dims
 62
256
370
-1
 48
1.0
  6
ByLayer
100
AcDbDimension
 10
558.7990381056766864
 20
55.4999999999999503
 30
0.0
 11
559.9664629897421264
 21
58.3390765805348934
 31
0.0
 70
3
 71
8
 72
2
 41
1.0
 42
0.0
  1
\U+00f8<>
  3
Standard
100
AcDbDiametricDimension
 15
556.2009618943233136
 25
53.9999999999999503
 35
0.0
 40
0.0
1001
ACAD
1000
DSTYLE
1002
{
1070
144
1040
1.0
1070
40
1040
1.0
1002
}
  0
DIMENSION
  5
28C
100
AcDbEntity
  8
dims
 62
256
370
-1
 48
1.0
  6
ByLayer
100
AcDbDimension
 10
573.7990381056765727
 20
41.9999999999999289
 30
0.0
 11
574.9664629897420127
 21
44.839076580534865
 31
0.0
 70
3
 71
8
 72
2
 41
1.0
 42
0.0
  1
\U+00f8<>
  3
Standard
100
AcDbDiametricDimension
 15
571.2009618943231999
 25
40.4999999999999289
 35
0.0
 40
0.0
1001
ACAD
1000
DSTYLE
1002
{
1070
144
1040
1.0
1070
40
1040
1.0
1002
}
  0
LINE
  5
28D
100
AcDbEntity
  8
top
 62
256
370
-1
 48
1.0
  6
ByLayer
100
AcDbLine
 10
458.9999999999999432
 20
146.75
 30
0.0
 11
462.0
 21
146.75
 31
0.0
  0
LINE
  5
28E
100
AcDbEntity
  8
under
 62
256
370
-1
 48
1.0
  6
ByLayer
100
AcDbLine
 10
458.9999999999999432
 20
160.25
 30
0.0
 11
462.0
 21
160.25
 31
0.0
  0
LINE
  5
28F
100
AcDbEntity
  8
top
 62
256
370
-1
 48
1.0
  6
ByLayer
100
AcDbLine
 10
458.9999999999999432
 20
143.75
 30
0.0
 11
462.0
 21
143.75
 31
0.0
  0
LINE
  5
290
100
AcDbEntity
  8
under
 62
256
370
-1
 48
1.0
  6
ByLayer
100
AcDbLine
 10
458.9999999999999432
 20
157.25
 30
0.0
 11
462.0
 21
157.25
 31
0.0
  0
LINE
  5
291
100
AcDbEntity
  8
top
 62
256
370
-1
 48
1.0
  6
ByLayer
100
AcDbLine
 10
462.0
 20
146.75
 30
0.0
 11
472.0
 21
146.75
 31
0.0
  0
LINE
  5
292
100
AcDbEntity
  8
under
 62
256
370
-1
 48
1.0
  6
ByLayer
100
AcDbLine
 10
462.0
 20
160.25
 30
0.0
 11
472.0
 21
160.25
 31
0.0
  0
LINE
  5
293
100
AcDbEntity
  8
top
 62
256
370
-1
 48
1.0
  6
ByLayer
100
AcDbLine
 10
462.0
 20
143.75
 30
0.0
 11
472.0
 21
143.75
 31
0.0
  0
LINE
  5
294
100
AcDbEntity
  8
under
 62
256
370
-1
 48
1.0
  6
ByLayer
100
AcDbLine
 10
462.0
 20
157.25
 30
0.0
 11
472.0
 21
157.25
 31
0.0
  0
LINE
  5
295
100
AcDbEntity
  8
top
 62
256
370
-1
 48
1.0
  6
ByLayer
100
AcDbLine
 10
472.0
 20
146.75
 30
0.0
 11
472.8660254037844197
 21
145.25
 31
0.0
  0
LINE
  5
296
100
AcDbEntity
  8
under
 62
256
370
-1
 48
1.0
  6
ByLayer
100
AcDbLine
 10
472.0
 20
160.25
 30
0.0
 11
472.8660254037844197
 21
158.75
 31
0.0
  0
LINE
  5
297
100
AcDbEntity
  8
top
 62
256
370
-1
 48
1.0
  6
ByLayer
100
AcDbLine
 10
472.0
 20
143.75
 30
0.0
 11
472.8660254037844766
 21
145.2500000000000284
 31
0.0
  0
LINE
  5
298
100
AcDbEntity
  8
under
 62
256
370
-1
 48
1.0
  6
ByLayer
100
AcDbLine
 10
472.0
 20
157.25
 30
0.0
 11
472.8660254037844766
 21
158.7500000000000284
 31
0.0
  0
HATCH
  5
299
100
AcDbEntity
  8
top
 62
256
370
-1
 48
1.0
  6
ByLayer
100
AcDbHatch
 10
0.0
 20
0.0
 30
0.0
210
0.0
220
0.0
230
1.0
  2
ANSI31
 70
0
 71
0
 91
1
 92
1
 93
10
 72
1
 10
458.9999999999999432
 20
149.5
 11
458.9999999999999432
 21
138.5
 72
1
 10
458.9999999999999432
 20
138.5
 11
462.0
 21
138.5
 72
1
 10
462.0
 20
138.4999999999999716
 11
462.0
 21
149.5000000000000284
 72
1
 10
462.0
 20
149.5000000000000284
 11
462.0
 21
154.5
 72
1
 10
462.0
 20
154.5
 11
462.0
 21
168.5
 72
1
 10
462.0
 20
168.5000000000000284
 11
457.0
 21
168.5000000000000284
 72
1
 10
457.0000000000000568
 20
168.5000000000000284
 11
456.9999999999999432
 21
165.5
 72
1
 10
457.0
 20
165.5
 11
458.9999999999999432
 21
165.5
 72
1
 10
458.9999999999999432
 20
165.5
 11
458.9999999999999432
 21
154.5
 72
1
 10
458.9999999999999432
 20
154.5
 11
458.9999999999999432
 21
149.5
 97
0
 75
0
 76
1
 52
0.0
 41
0.3
 77
0
 78
1
 53
45.0
 43
0.0
 44
0.0
 45
-0.0883883476483184
 46
0.0883883476483185
 79
0
 98
0
1001
ACAD
1010
0.0
1020
0.0
1030
0
  0
LINE
  5
29A
100
AcDbEntity
  8
0
 62
256
370
-1
 48
1.0
  6
ByLayer
100
AcDbLine
 10
441.4999999999999432
 20
168.5
 30
0.0
 11
433.9999999999999432
 21
168.5
 31
0.0
  0
LINE
  5
29B
100
AcDbEntity
  8
0
 62
256
370
-1
 48
1.0
  6
ByLayer
100
AcDbLine
 10
433.9999999999999432
 20
168.5
 30
0.0
 11
431.9999999999999432
 21
168.5
 31
0.0
  0
LINE
  5
29C
100
AcDbEntity
  8
0
 62
256
370
-1
 48
1.0
  6
ByLayer
100
AcDbLine
 10
431.9999999999999432
 20
168.5
 30
0.0
 11
377.4999999999999432
 21
168.5000000000000284
 31
0.0
  0
HATCH
  5
29D
100
AcDbEntity
  8
0
 62
256
370
-1
 48
1.0
  6
ByLayer
100
AcDbHatch
 10
0.0
 20
0.0
 30
0.0
210
0.0
220
0.0
230
1.0
  2
ANSI31
 70
0
 71
0
 91
1
 92
1
 93
10
 72
1
 10
377.4999999999999432
 20
168.5
 11
377.4999999999999432
 21
170.9999999999999716
 72
1
 10
377.4999999999999432
 20
170.9999999999999716
 11
378.4999999999999432
 21
170.9999999999999716
 72
1
 10
378.4999999999999432
 20
170.9999999999999716
 11
378.4999999999999432
 21
173.5000000000000284
 72
1
 10
378.4999999999999432
 20
173.5000000000000284
 11
440.4999999999999432
 21
173.5000000000000284
 72
1
 10
440.4999999999999432
 20
173.5000000000000284
 11
440.4999999999999432
 21
170.9999999999999716
 72
1
 10
440.4999999999999432
 20
170.9999999999999716
 11
441.4999999999999432
 21
170.9999999999999716
 72
1
 10
441.4999999999999432
 20
170.9999999999999716
 11
441.4999999999999432
 21
168.5
 72
1
 10
441.4999999999999432
 20
168.5
 11
433.9999999999999432
 21
168.5
 72
1
 10
433.9999999999999432
 20
168.5
 11
431.9999999999999432
 21
168.5
 72
1
 10
431.9999999999999432
 20
168.5
 11
377.4999999999999432
 21
168.5000000000000284
 97
0
 75
0
 76
1
 52
-60.0
 41
0.2
 77
0
 78
1
 53
45.0
 43
0.0
 44
0.0
 45
-0.0883883476483184
 46
0.0883883476483185
 79
0
 98
0
1001
ACAD
1010
0.0
1020
0.0
1030
0
  0
LINE
  5
29E
100
AcDbEntity
  8
0
 62
256
370
-1
 48
1.0
  6
ByLayer
100
AcDbLine
 10
376.4999999999999432
 20
168.5000000000000284
 30
0.0
 11
309.0
 21
168.5000000000000284
 31
0.0
  0
HATCH
  5
29F
100
AcDbEntity
  8
0
 62
256
370
-1
 48
1.0
  6
ByLayer
100
AcDbHatch
 10
0.0
 20
0.0
 30
0.0
210
0.0
220
0.0
230
1.0
  2
ANSI31
 70
0
 71
0
 91
1
 92
1
 93
10
 72
1
 10
376.4999999999999432
 20
170.9999999999999716
 11
375.4999999999999432
 21
170.9999999999999716
 72
1
 10
375.4999999999999432
 20
170.9999999999999716
 11
375.4999999999999432
 21
173.5000000000000284
 72
1
 10
375.4999999999999432
 20
173.5000000000000284
 11
320.0
 21
173.5000000000000284
 72
1
 10
320.0
 20
173.5000000000000284
 11
308.5
 21
173.5000000000000284
 72
1
 10
308.5
 20
173.5000000000000284
 11
308.5
 21
170.9999999999999716
 72
1
 10
308.5
 20
170.9999999999999716
 11
307.5
 21
170.9999999999999716
 72
1
 10
307.5
 20
170.9999999999999716
 11
307.5
 21
168.5
 72
1
 10
307.5
 20
168.4999999999999716
 11
309.0
 21
168.5000000000000284
 72
1
 10
309.0
 20
168.5000000000000284
 11
376.4999999999999432
 21
168.5000000000000284
 72
1
 10
376.4999999999999432
 20
168.5
 11
376.4999999999999432
 21
170.9999999999999716
 97
0
 75
0
 76
1
 52
-60.0
 41
0.2
 77
0
 78
1
 53
45.0
 43
0.0
 44
0.0
 45
-0.0883883476483184
 46
0.0883883476483185
 79
0
 98
0
1001
ACAD
1010
0.0
1020
0.0
1030
0
  0
HATCH
  5
2A0
100
AcDbEntity
  8
0
 62
256
370
-1
 48
1.0
  6
ByLayer
100
AcDbHatch
 10
0.0
 20
0.0
 30
0.0
210
0.0
220
0.0
230
1.0
  2
ANSI31
 70
0
 71
0
 91
1
 92
1
 93
8
 72
1
 10
303.0
 20
168.5
 11
303.0
 21
169.5000000000000284
 72
1
 10
303.0
 20
169.5000000000000284
 11
303.0
 21
173.5000000000000284
 72
1
 10
303.0
 20
173.5000000000000284
 11
305.5999999999999091
 21
173.5000000000000284
 72
1
 10
305.5999999999999659
 20
173.5000000000000284
 11
305.5999999999999659
 21
170.9999999999999716
 72
1
 10
305.5999999999999659
 20
170.9999999999999716
 11
306.5
 21
170.9999999999999716
 72
1
 10
306.5
 20
170.9999999999999716
 11
306.5
 21
168.5
 72
1
 10
306.5
 20
168.5000000000000568
 11
304.0
 21
168.5000000000000284
 72
1
 10
304.0
 20
168.5000000000000284
 11
303.0
 21
168.5000000000000284
 97
0
 75
0
 76
1
 52
-60.0
 41
0.2
 77
0
 78
1
 53
45.0
 43
0.0
 44
0.0
 45
-0.0883883476483184
 46
0.0883883476483185
 79
0
 98
0
1001
ACAD
1010
0.0
1020
0.0
1030
0
  0
LINE
  5
2A1
100
AcDbEntity
  8
0
 62
256
370
-1
 48
1.0
  6
ByLayer
100
AcDbLine
 10
462.0
 20
194.7000000000000171
 30
0.0
 11
486.9999999999999432
 21
194.7000000000000171
 31
0.0
  0
CIRCLE
  5
2A2
100
AcDbEntity
  8
0
 62
256
370
-1
 48
1.0
  6
ByLayer
100
AcDbCircle
 10
1100.0
 20
100.0
 30
0.0
 40
101.2000000000000455
  0
CIRCLE
  5
2A3
100
AcDbEntity
  8
0
 62
256
370
-1
 48
1.0
  6
ByLayer
100
AcDbCircle
 10
800.0
 20
100.0
 30
0.0
 40
101.2000000000000455
  0
CIRCLE
  5
2A4
100
AcDbEntity
  8
0
 62
256
370
-1
 48
1.0
  6
ByLayer
100
AcDbCircle
 10
800.0
 20
100.0
 30
0.0
 40
76.0
  0
CIRCLE
  5
2A5
100
AcDbEntity
  8
0
 62
256
370
-1
 48
1.0
  6
ByLayer
100
AcDbCircle
 10
1100.0
 20
100.0
 30
0.0
 40
83.0499999999999545
  0
CIRCLE
  5
2A6
100
AcDbEntity
  8
0
 62
256
370
-1
 48
1.0
  6
ByLayer
100
AcDbCircle
 10
800.0
 20
100.0
 30
0.0
 40
83.0499999999999545
  0
CIRCLE
  5
2A7
100
AcDbEntity
  8
0
 62
256
370
-1
 48
1.0
  6
ByLayer
100
AcDbCircle
 10
1100.0
 20
100.0
 30
0.0
 40
85.75
  0
CIRCLE
  5
2A8
100
AcDbEntity
  8
0
 62
256
370
-1
 48
1.0
  6
ByLayer
100
AcDbCircle
 10
800.0
 20
100.0
 30
0.0
 40
85.75
  0
CIRCLE
  5
2A9
100
AcDbEntity
  8
0
 62
256
370
-1
 48
1.0
  6
ByLayer
100
AcDbCircle
 10
1100.0
 20
100.0
 30
0.0
 40
82.8570957758389284
  0
CIRCLE
  5
2AA
100
AcDbEntity
  8
0
 62
256
370
-1
 48
1.0
  6
ByLayer
100
AcDbCircle
 10
800.0
 20
100.0
 30
0.0
 40
82.8570957758389284
  0
CIRCLE
  5
2AB
100
AcDbEntity
  8
help
 62
256
370
-1
 48
1.0
  6
ByLayer
100
AcDbCircle
 10
800.0
 20
100.0
 30
0.0
 40
90.5000000000000426
  0
CIRCLE
  5
2AC
100
AcDbEntity
  8
0
 62
256
370
-1
 48
1.0
  6
ByLayer
100
AcDbCircle
 10
1100.0
 20
190.5000000000000568
 30
0.0
 40
4.1999999999999318
  0
CIRCLE
  5
2AD
100
AcDbEntity
  8
0
 62
256
370
-1
 48
1.0
  6
ByLayer
100
AcDbCircle
 10
1072.0339620090671815
 20
186.0706147247114473
 30
0.0
 40
4.1999999999999318
  0
CIRCLE
  5
2AE
100
AcDbEntity
  8
0
 62
256
370
-1
 48
1.0
  6
ByLayer
100
AcDbCircle
 10
1046.8054346675312445
 20
173.2160379909327901
 30
0.0
 40
4.1999999999999318
  0
CIRCLE
  5
2AF
100
AcDbEntity
  8
0
 62
256
370
-1
 48
1.0
  6
ByLayer
100
AcDbCircle
 10
1026.7839620090671815
 20
153.1945653324688692
 30
0.0
 40
4.1999999999999318
  0
CIRCLE
  5
2B0
100
AcDbEntity
  8
0
 62
256
370
-1
 48
1.0
  6
ByLayer
100
AcDbCircle
 10
1013.9293852752884959
 20
127.9660379909327617
 30
0.0
 40
4.1999999999999318
  0
CIRCLE
  5
2B1
100
AcDbEntity
  8
0
 62
256
370
-1
 48
1.0
  6
ByLayer
100
AcDbCircle
 10
1009.5
 20
100.0000000000000142
 30
0.0
 40
4.1999999999999318
  0
CIRCLE
  5
2B2
100
AcDbEntity
  8
0
 62
256
370
-1
 48
1.0
  6
ByLayer
100
AcDbCircle
 10
1013.9293852752884959
 20
72.0339620090672526
 30
0.0
 40
4.1999999999999318
  0
CIRCLE
  5
2B3
100
AcDbEntity
  8
0
 62
256
370
-1
 48
1.0
  6
ByLayer
100
AcDbCircle
 10
1026.7839620090671815
 20
46.8054346675311592
 30
0.0
 40
4.1999999999999318
  0
CIRCLE
  5
2B4
100
AcDbEntity
  8
0
 62
256
370
-1
 48
1.0
  6
ByLayer
100
AcDbCircle
 10
1046.8054346675312445
 20
26.7839620090672241
 30
0.0
 40
4.1999999999999318
  0
CIRCLE
  5
2B5
100
AcDbEntity
  8
0
 62
256
370
-1
 48
1.0
  6
ByLayer
100
AcDbCircle
 10
1072.0339620090671815
 20
13.9293852752885527
 30
0.0
 40
4.1999999999999318
  0
CIRCLE
  5
2B6
100
AcDbEntity
  8
0
 62
256
370
-1
 48
1.0
  6
ByLayer
100
AcDbCircle
 10
1100.0
 20
9.4999999999999432
 30
0.0
 40
4.1999999999999318
  0
CIRCLE
  5
2B7
100
AcDbEntity
  8
0
 62
256
370
-1
 48
1.0
  6
ByLayer
100
AcDbCircle
 10
1127.9660379909328185
 20
13.9293852752885385
 30
0.0
 40
4.1999999999999318
  0
CIRCLE
  5
2B8
100
AcDbEntity
  8
0
 62
256
370
-1
 48
1.0
  6
ByLayer
100
AcDbCircle
 10
1153.1945653324687555
 20
26.7839620090671957
 30
0.0
 40
4.1999999999999318
  0
CIRCLE
  5
2B9
100
AcDbEntity
  8
0
 62
256
370
-1
 48
1.0
  6
ByLayer
100
AcDbCircle
 10
1173.2160379909328185
 20
46.8054346675311308
 30
0.0
 40
4.1999999999999318
  0
CIRCLE
  5
2BA
100
AcDbEntity
  8
0
 62
256
370
-1
 48
1.0
  6
ByLayer
100
AcDbCircle
 10
1186.0706147247115041
 20
72.0339620090672241
 30
0.0
 40
4.1999999999999318
  0
CIRCLE
  5
2BB
100
AcDbEntity
  8
0
 62
256
370
-1
 48
1.0
  6
ByLayer
100
AcDbCircle
 10
1190.5
 20
99.9999999999999716
 30
0.0
 40
4.1999999999999318
  0
CIRCLE
  5
2BC
100
AcDbEntity
  8
0
 62
256
370
-1
 48
1.0
  6
ByLayer
100
AcDbCircle
 10
1186.0706147247115041
 20
127.9660379909327332
 30
0.0
 40
4.1999999999999318
  0
CIRCLE
  5
2BD
100
AcDbEntity
  8
0
 62
256
370
-1
 48
1.0
  6
ByLayer
100
AcDbCircle
 10
1173.2160379909328185
 20
153.1945653324688408
 30
0.0
 40
4.1999999999999318
  0
CIRCLE
  5
2BE
100
AcDbEntity
  8
0
 62
256
370
-1
 48
1.0
  6
ByLayer
100
AcDbCircle
 10
1153.1945653324687555
 20
173.2160379909327617
 30
0.0
 40
4.1999999999999318
  0
CIRCLE
  5
2BF
100
AcDbEntity
  8
0
 62
256
370
-1
 48
1.0
  6
ByLayer
100
AcDbCircle
 10
1127.9660379909328185
 20
186.0706147247114473
 30
0.0
 40
4.1999999999999318
  0
CIRCLE
  5
2C0
100
AcDbEntity
  8
0
 62
256
370
-1
 48
1.0
  6
ByLayer
100
AcDbCircle
 10
827.9660379909328185
 20
186.0706147247114473
 30
0.0
 40
4.1999999999999318
  0
CIRCLE
  5
2C1
100
AcDbEntity
  8
0
 62
256
370
-1
 48
1.0
  6
ByLayer
100
AcDbCircle
 10
853.1945653324688692
 20
173.2160379909327617
 30
0.0
 40
4.1999999999999318
  0
CIRCLE
  5
2C2
100
AcDbEntity
  8
0
 62
256
370
-1
 48
1.0
  6
ByLayer
100
AcDbCircle
 10
873.2160379909328185
 20
153.1945653324688408
 30
0.0
 40
4.1999999999999318
  0
CIRCLE
  5
2C3
100
AcDbEntity
  8
0
 62
256
370
-1
 48
1.0
  6
ByLayer
100
AcDbCircle
 10
886.0706147247115041
 20
127.9660379909327332
 30
0.0
 40
4.1999999999999318
  0
CIRCLE
  5
2C4
100
AcDbEntity
  8
0
 62
256
370
-1
 48
1.0
  6
ByLayer
100
AcDbCircle
 10
890.5
 20
99.9999999999999716
 30
0.0
 40
4.1999999999999318
  0
CIRCLE
  5
2C5
100
AcDbEntity
  8
0
 62
256
370
-1
 48
1.0
  6
ByLayer
100
AcDbCircle
 10
886.0706147247115041
 20
72.0339620090672241
 30
0.0
 40
4.1999999999999318
  0
CIRCLE
  5
2C6
100
AcDbEntity
  8
0
 62
256
370
-1
 48
1.0
  6
ByLayer
100
AcDbCircle
 10
873.2160379909328185
 20
46.8054346675311308
 30
0.0
 40
4.1999999999999318
  0
CIRCLE
  5
2C7
100
AcDbEntity
  8
0
 62
256
370
-1
 48
1.0
  6
ByLayer
100
AcDbCircle
 10
853.1945653324688692
 20
26.7839620090671957
 30
0.0
 40
4.1999999999999318
  0
CIRCLE
  5
2C8
100
AcDbEntity
  8
0
 62
256
370
-1
 48
1.0
  6
ByLayer
100
AcDbCircle
 10
827.9660379909327048
 20
13.9293852752885385
 30
0.0
 40
4.1999999999999318
  0
CIRCLE
  5
2C9
100
AcDbEntity
  8
0
 62
256
370
-1
 48
1.0
  6
ByLayer
100
AcDbCircle
 10
800.0
 20
9.4999999999999432
 30
0.0
 40
4.1999999999999318
  0
CIRCLE
  5
2CA
100
AcDbEntity
  8
0
 62
256
370
-1
 48
1.0
  6
ByLayer
100
AcDbCircle
 10
772.0339620090671815
 20
13.9293852752885527
 30
0.0
 40
4.1999999999999318
  0
CIRCLE
  5
2CB
100
AcDbEntity
  8
0
 62
256
370
-1
 48
1.0
  6
ByLayer
100
AcDbCircle
 10
746.8054346675311308
 20
26.7839620090672241
 30
0.0
 40
4.1999999999999318
  0
CIRCLE
  5
2CC
100
AcDbEntity
  8
0
 62
256
370
-1
 48
1.0
  6
ByLayer
100
AcDbCircle
 10
726.7839620090671815
 20
46.8054346675311592
 30
0.0
 40
4.1999999999999318
  0
CIRCLE
  5
2CD
100
AcDbEntity
  8
0
 62
256
370
-1
 48
1.0
  6
ByLayer
100
AcDbCircle
 10
713.9293852752884959
 20
72.0339620090672526
 30
0.0
 40
4.1999999999999318
  0
CIRCLE
  5
2CE
100
AcDbEntity
  8
0
 62
256
370
-1
 48
1.0
  6
ByLayer
100
AcDbCircle
 10
709.5
 20
100.0000000000000142
 30
0.0
 40
4.1999999999999318
  0
CIRCLE
  5
2CF
100
AcDbEntity
  8
0
 62
256
370
-1
 48
1.0
  6
ByLayer
100
AcDbCircle
 10
713.9293852752884959
 20
127.9660379909327617
 30
0.0
 40
4.1999999999999318
  0
CIRCLE
  5
2D0
100
AcDbEntity
  8
0
 62
256
370
-1
 48
1.0
  6
ByLayer
100
AcDbCircle
 10
726.7839620090671815
 20
153.1945653324688692
 30
0.0
 40
4.1999999999999318
  0
CIRCLE
  5
2D1
100
AcDbEntity
  8
0
 62
256
370
-1
 48
1.0
  6
ByLayer
100
AcDbCircle
 10
746.8054346675311308
 20
173.2160379909327901
 30
0.0
 40
4.1999999999999318
  0
CIRCLE
  5
2D2
100
AcDbEntity
  8
0
 62
256
370
-1
 48
1.0
  6
ByLayer
100
AcDbCircle
 10
772.0339620090672952
 20
186.0706147247114473
 30
0.0
 40
4.1999999999999318
  0
CIRCLE
  5
2D3
100
AcDbEntity
  8
0
 62
256
370
-1
 48
1.0
  6
ByLayer
100
AcDbCircle
 10
800.0
 20
190.5000000000000568
 30
0.0
 40
4.1999999999999318
  0
CIRCLE
  5
2D4
100
AcDbEntity
  8
top
 62
256
370
-1
 48
1.0
  6
ByLayer
100
AcDbCircle
 10
800.0
 20
100.0
 30
0.0
 40
70.0
  0
LINE
  5
2D5
100
AcDbEntity
  8
help
 62
256
370
-1
 48
1.0
  6
ByLayer
100
AcDbLine
 10
800.0
 20
220.0
 30
0.0
 11
800.0
 21
-20.0
 31
0.0
  0
LINE
  5
2D6
100
AcDbEntity
  8
0
 62
256
370
-1
 48
1.0
  6
ByLayer
100
AcDbLine
 10
795.0000000000001137
 20
24.5000000000000284
 30
0.0
 11
795.0000000000001137
 21
29.5
 31
0.0
  0
LINE
  5
2D7
100
AcDbEntity
  8
0
 62
256
370
-1
 48
1.0
  6
ByLayer
100
AcDbLine
 10
804.9999999999998863
 20
175.4999999999999716
 30
0.0
 11
804.9999999999998863
 21
170.5
 31
0.0
  0
LINE
  5
2D8
100
AcDbEntity
  8
0
 62
256
370
-1
 48
1.0
  6
ByLayer
100
AcDbLine
 10
798.0000000000001137
 20
24.5000000000000426
 30
0.0
 11
795.0000000000001137
 21
24.5000000000000284
 31
0.0
  0
LINE
  5
2D9
100
AcDbEntity
  8
0
 62
256
370
-1
 48
1.0
  6
ByLayer
100
AcDbLine
 10
802.0000000000001137
 20
24.5000000000000284
 30
0.0
 11
798.0000000000001137
 21
24.5000000000000426
 31
0.0
  0
LINE
  5
2DA
100
AcDbEntity
  8
0
 62
256
370
-1
 48
1.0
  6
ByLayer
100
AcDbLine
 10
805.0000000000001137
 20
24.5000000000000426
 30
0.0
 11
802.0000000000001137
 21
24.5000000000000284
 31
0.0
  0
LINE
  5
2DB
100
AcDbEntity
  8
0
 62
256
370
-1
 48
1.0
  6
ByLayer
100
AcDbLine
 10
801.9999999999998863
 20
175.4999999999999716
 30
0.0
 11
804.9999999999998863
 21
175.4999999999999716
 31
0.0
  0
LINE
  5
2DC
100
AcDbEntity
  8
0
 62
256
370
-1
 48
1.0
  6
ByLayer
100
AcDbLine
 10
797.9999999999998863
 20
175.4999999999999716
 30
0.0
 11
801.9999999999998863
 21
175.4999999999999716
 31
0.0
  0
LINE
  5
2DD
100
AcDbEntity
  8
0
 62
256
370
-1
 48
1.0
  6
ByLayer
100
AcDbLine
 10
794.9999999999998863
 20
175.4999999999999716
 30
0.0
 11
797.9999999999998863
 21
175.4999999999999716
 31
0.0
  0
LINE
  5
2DE
100
AcDbEntity
  8
0
 62
256
370
-1
 48
1.0
  6
ByLayer
100
AcDbLine
 10
805.0000000000001137
 20
24.5000000000000426
 30
0.0
 11
805.0000000000001137
 21
29.5
 31
0.0
  0
LINE
  5
2DF
100
AcDbEntity
  8
0
 62
256
370
-1
 48
1.0
  6
ByLayer
100
AcDbLine
 10
794.9999999999998863
 20
175.4999999999999716
 30
0.0
 11
794.9999999999998863
 21
170.5
 31
0.0
  0
LINE
  5
2E0
100
AcDbEntity
  8
0
 62
256
370
-1
 48
1.0
  6
ByLayer
100
AcDbLine
 10
801.0000000000001137
 20
29.5
 30
0.0
 11
801.0000000000001137
 21
27.0000000000000284
 31
0.0
  0
LINE
  5
2E1
100
AcDbEntity
  8
0
 62
256
370
-1
 48
1.0
  6
ByLayer
100
AcDbLine
 10
798.9999999999998863
 20
170.5
 30
0.0
 11
798.9999999999998863
 21
172.9999999999999716
 31
0.0
  0
LINE
  5
2E2
100
AcDbEntity
  8
0
 62
256
370
-1
 48
1.0
  6
ByLayer
100
AcDbLine
 10
801.0000000000001137
 20
27.0000000000000284
 30
0.0
 11
802.0000000000001137
 21
27.0000000000000142
 31
0.0
  0
LINE
  5
2E3
100
AcDbEntity
  8
0
 62
256
370
-1
 48
1.0
  6
ByLayer
100
AcDbLine
 10
798.9999999999998863
 20
172.9999999999999716
 30
0.0
 11
797.9999999999998863
 21
172.9999999999999716
 31
0.0
  0
LINE
  5
2E4
100
AcDbEntity
  8
0
 62
256
370
-1
 48
1.0
  6
ByLayer
100
AcDbLine
 10
802.0000000000001137
 20
27.0000000000000142
 30
0.0
 11
802.0000000000001137
 21
24.5000000000000284
 31
0.0
  0
LINE
  5
2E5
100
AcDbEntity
  8
0
 62
256
370
-1
 48
1.0
  6
ByLayer
100
AcDbLine
 10
797.9999999999998863
 20
172.9999999999999716
 30
0.0
 11
797.9999999999998863
 21
175.4999999999999716
 31
0.0
  0
LINE
  5
2E6
100
AcDbEntity
  8
0
 62
256
370
-1
 48
1.0
  6
ByLayer
100
AcDbLine
 10
799.0000000000001137
 20
29.5
 30
0.0
 11
799.0000000000001137
 21
27.0000000000000284
 31
0.0
  0
LINE
  5
2E7
100
AcDbEntity
  8
0
 62
256
370
-1
 48
1.0
  6
ByLayer
100
AcDbLine
 10
800.9999999999998863
 20
170.5
 30
0.0
 11
800.9999999999998863
 21
172.9999999999999716
 31
0.0
  0
LINE
  5
2E8
100
AcDbEntity
  8
0
 62
256
370
-1
 48
1.0
  6
ByLayer
100
AcDbLine
 10
799.0000000000001137
 20
27.0000000000000284
 30
0.0
 11
798.0000000000001137
 21
27.0000000000000284
 31
0.0
  0
LINE
  5
2E9
100
AcDbEntity
  8
0
 62
256
370
-1
 48
1.0
  6
ByLayer
100
AcDbLine
 10
800.9999999999998863
 20
172.9999999999999716
 30
0.0
 11
801.9999999999998863
 21
172.9999999999999716
 31
0.0
  0
LINE
  5
2EA
100
AcDbEntity
  8
0
 62
256
370
-1
 48
1.0
  6
ByLayer
100
AcDbLine
 10
798.0000000000001137
 20
27.0000000000000284
 30
0.0
 11
798.0000000000001137
 21
24.5000000000000426
 31
0.0
  0
LINE
  5
2EB
100
AcDbEntity
  8
0
 62
256
370
-1
 48
1.0
  6
ByLayer
100
AcDbLine
 10
801.9999999999998863
 20
172.9999999999999716
 30
0.0
 11
801.9999999999998863
 21
175.4999999999999716
 31
0.0
  0
HATCH
  5
2EC
100
AcDbEntity
  8
0
 62
256
370
-1
 48
1.0
  6
ByLayer
100
AcDbHatch
 10
0.0
 20
0.0
 30
0.0
210
0.0
220
0.0
230
1.0
  2
ANSI31
 70
0
 71
0
 91
1
 92
1
 93
7
 72
1
 10
801.0000000000001137
 20
29.5
 11
801.0000000000001137
 21
27.0000000000000284
 72
1
 10
801.0000000000001137
 20
27.0000000000000284
 11
802.0000000000001137
 21
27.0000000000000142
 72
1
 10
802.0000000000001137
 20
27.0000000000000142
 11
802.0000000000001137
 21
24.5000000000000284
 72
1
 10
802.0000000000001137
 20
24.5000000000000284
 11
805.0000000000001137
 21
24.5000000000000426
 72
1
 10
805.0000000000001137
 20
24.5000000000000426
 11
805.0000000000001137
 21
29.5
 72
1
 10
805.0000000000001137
 20
29.5
 11
801.5
 21
29.5
 72
1
 10
801.5
 20
29.5
 11
801.0000000000001137
 21
29.5
 97
0
 75
0
 76
1
 52
120.0000000000000142
 41
0.2
 77
0
 78
1
 53
45.0
 43
0.0
 44
0.0
 45
-0.0883883476483184
 46
0.0883883476483185
 79
0
 98
0
1001
ACAD
1010
0.0
1020
0.0
1030
0
  0
HATCH
  5
2ED
100
AcDbEntity
  8
0
 62
256
370
-1
 48
1.0
  6
ByLayer
100
AcDbHatch
 10
0.0
 20
0.0
 30
0.0
210
0.0
220
0.0
230
1.0
  2
ANSI31
 70
0
 71
0
 91
1
 92
1
 93
7
 72
1
 10
798.9999999999998863
 20
170.5
 11
798.9999999999998863
 21
172.9999999999999716
 72
1
 10
798.9999999999998863
 20
172.9999999999999716
 11
797.9999999999998863
 21
172.9999999999999716
 72
1
 10
797.9999999999998863
 20
172.9999999999999716
 11
797.9999999999998863
 21
175.4999999999999716
 72
1
 10
797.9999999999998863
 20
175.4999999999999716
 11
794.9999999999998863
 21
175.4999999999999716
 72
1
 10
794.9999999999998863
 20
175.4999999999999716
 11
794.9999999999998863
 21
170.5
 72
1
 10
794.9999999999998863
 20
170.5
 11
798.5
 21
170.5
 72
1
 10
798.5
 20
170.5
 11
798.9999999999998863
 21
170.5
 97
0
 75
0
 76
1
 52
-60.0
 41
0.2
 77
0
 78
1
 53
45.0
 43
0.0
 44
0.0
 45
-0.0883883476483184
 46
0.0883883476483185
 79
0
 98
0
1001
ACAD
1010
0.0
1020
0.0
1030
0
  0
HATCH
  5
2EE
100
AcDbEntity
  8
0
 62
256
370
-1
 48
1.0
  6
ByLayer
100
AcDbHatch
 10
0.0
 20
0.0
 30
0.0
210
0.0
220
0.0
230
1.0
  2
ANSI31
 70
0
 71
0
 91
1
 92
1
 93
7
 72
1
 10
798.5000000000001137
 20
29.5
 11
799.0000000000001137
 21
29.5
 72
1
 10
799.0000000000001137
 20
29.5
 11
799.0000000000001137
 21
27.0000000000000284
 72
1
 10
799.0000000000001137
 20
27.0000000000000284
 11
798.0000000000001137
 21
27.0000000000000284
 72
1
 10
798.0000000000001137
 20
27.0000000000000284
 11
798.0000000000001137
 21
24.5000000000000426
 72
1
 10
798.0000000000001137
 20
24.5000000000000426
 11
795.0000000000001137
 21
24.5000000000000284
 72
1
 10
795.0000000000001137
 20
24.5000000000000284
 11
795.0000000000001137
 21
29.5
 72
1
 10
795.0000000000001137
 20
29.5
 11
798.5000000000001137
 21
29.5
 97
0
 75
0
 76
1
 52
120.0000000000000142
 41
0.2
 77
0
 78
1
 53
45.0
 43
0.0
 44
0.0
 45
-0.0883883476483184
 46
0.0883883476483185
 79
0
 98
0
1001
ACAD
1010
0.0
1020
0.0
1030
0
  0
HATCH
  5
2EF
100
AcDbEntity
  8
0
 62
256
370
-1
 48
1.0
  6
ByLayer
100
AcDbHatch
 10
0.0
 20
0.0
 30
0.0
210
0.0
220
0.0
230
1.0
  2
ANSI31
 70
0
 71
0
 91
1
 92
1
 93
7
 72
1
 10
801.4999999999998863
 20
170.5
 11
800.9999999999998863
 21
170.5
 72
1
 10
800.9999999999998863
 20
170.5
 11
800.9999999999998863
 21
172.9999999999999716
 72
1
 10
800.9999999999998863
 20
172.9999999999999716
 11
801.9999999999998863
 21
172.9999999999999716
 72
1
 10
801.9999999999998863
 20
172.9999999999999716
 11
801.9999999999998863
 21
175.4999999999999716
 72
1
 10
801.9999999999998863
 20
175.4999999999999716
 11
804.9999999999998863
 21
175.4999999999999716
 72
1
 10
804.9999999999998863
 20
175.4999999999999716
 11
804.9999999999998863
 21
170.5
 72
1
 10
804.9999999999998863
 20
170.5
 11
801.4999999999998863
 21
170.5
 97
0
 75
0
 76
1
 52
-60.0
 41
0.2
 77
0
 78
1
 53
45.0
 43
0.0
 44
0.0
 45
-0.0883883476483184
 46
0.0883883476483185
 79
0
 98
0
1001
ACAD
1010
0.0
1020
0.0
1030
0
  0
DIMENSION
  5
2F0
100
AcDbEntity
  8
dims
 62
256
370
-1
 48
1.0
  6
ByLayer
100
AcDbDimension
 10
585.0
 20
-20.0
 30
0.0
 11
583.125
 21
-6.5000000000000018
 31
0.0
 70
0
 71
8
 72
2
 41
1.0
 42
0.0
  1

  3
Standard
100
AcDbAlignedDimension
 13
580.0
 23
-20.0
 33
0.0
 14
580.0
 24
6.9999999999999964
 34
0.0
 50
90.0
100
AcDbRotatedDimension
1001
ACAD
1000
DSTYLE
1002
{
1070
144
1040
1.0
1070
40
1040
1.0
1002
}
  0
CIRCLE
  5
2F1
100
AcDbEntity
  8
axis
 62
256
370
-1
 48
1.0
  6
ByLayer
100
AcDbCircle
 10
1100.0
 20
100.0
 30
0.0
 40
47.8415353014512448
  0
CIRCLE
  5
2F2
100
AcDbEntity
  8
axis
 62
256
370
-1
 48
1.0
  6
ByLayer
100
AcDbCircle
 10
1100.0
 20
100.0
 30
0.0
 40
61.2112122082221717
  0
DIMENSION
  5
2F3
100
AcDbEntity
  8
dims
 62
256
370
-1
 48
1.0
  6
ByLayer
100
AcDbDimension
 10
1087.6176995170396822
 20
146.2113745169918957
 30
0.0
 11
1092.4091871356454249
 21
135.5737429776871181
 31
0.0
 70
131
 71
8
 72
2
 41
1.0
 42
0.0
  1
\U+00f8<>
  3
Standard
100
AcDbDiametricDimension
 15
1112.3823004829603178
 25
53.7886254830080901
 35
0.0
 40
0.0
1001
ACAD
1000
DSTYLE
1002
{
1070
144
1040
1.0
1070
40
1040
1.0
1002
}
  0
DIMENSION
  5
2F4
100
AcDbEntity
  8
dims
 62
256
370
-1
 48
1.0
  6
ByLayer
100
AcDbDimension
 10
1069.3943938958889248
 20
153.0104647687605279
 30
0.0
 11
1083.08437846965262
 21
133.0487159321677382
 31
0.0
 70
131
 71
8
 72
2
 41
1.0
 42
0.0
  1
\U+00f8<>
  3
Standard
100
AcDbDiametricDimension
 15
1130.6056061041110752
 25
46.989535231239465
 35
0.0
 40
0.0
1001
ACAD
1000
DSTYLE
1002
{
1070
144
1040
1.0
1070
40
1040
1.0
1002
}
  0
DIMENSION
  5
2F5
100
AcDbEntity
  8
dims
 62
256
370
-1
 48
1.0
  6
ByLayer
100
AcDbDimension
 10
1086.0
 20
160.7500000000000568
 30
0.0
 11
1084.125
 21
170.0
 31
0.0
 70
128
 71
8
 72
2
 41
1.0
 42
0.0
  1

  3
Standard
100
AcDbAlignedDimension
 13
1092.5
 23
160.7500000000000568
 33
0.0
 14
1100.0
 24
201.2000000000000455
 34
0.0
 50
90.0
100
AcDbRotatedDimension
1001
ACAD
1000
DSTYLE
1002
{
1070
144
1040
1.0
1070
40
1040
1.0
1002
}
  0
DIMENSION
  5
2F6
100
AcDbEntity
  8
dims
 62
256
370
-1
 48
1.0
  6
ByLayer
100
AcDbDimension
 10
1114.0
 20
147.2500000000000568
 30
0.0
 11
1112.125
 21
174.2250000000000512
 31
0.0
 70
0
 71
8
 72
2
 41
1.0
 42
0.0
  1

  3
Standard
100
AcDbAlignedDimension
 13
1107.5
 23
147.2500000000000568
 33
0.0
 14
1100.0
 24
201.2000000000000455
 34
0.0
 50
90.0
100
AcDbRotatedDimension
1001
ACAD
1000
DSTYLE
1002
{
1070
144
1040
1.0
1070
40
1040
1.0
1002
}
  0
DIMENSION
  5
2F7
100
AcDbEntity
  8
dims
 62
256
370
-1
 48
1.0
  6
ByLayer
100
AcDbDimension
 10
1093.560660171779773
 20
161.8106601717798867
 30
0.0
 11
1093.9534972724388808
 21
164.8551477018886544
 31
0.0
 70
3
 71
8
 72
2
 41
1.0
 42
0.0
  1
M<>
  3
Standard
100
AcDbDiametricDimension
 15
1091.439339828220227
 25
159.689339828220227
 35
0.0
 40
0.0
1001
ACAD
1000
DSTYLE
1002
{
1070
144
1040
1.0
1070
40
1040
1.0
1002
}
  0
DIMENSION
  5
2F8
100
AcDbEntity
  8
dims
 62
256
370
-1
 48
1.0
  6
ByLayer
100
AcDbDimension
 10
1108.560660171779773
 20
148.3106601717798583
 30
0.0
 11
1108.9534972724388808
 21
151.355147701888626
 31
0.0
 70
3
 71
8
 72
2
 41
1.0
 42
0.0
  1
M<>
  3
Standard
100
AcDbDiametricDimension
 15
1106.439339828220227
 25
146.1893398282202554
 35
0.0
 40
0.0
1001
ACAD
1000
DSTYLE
1002
{
1070
144
1040
1.0
1070
40
1040
1.0
1002
}
  0
DIMENSION
  5
2F9
100
AcDbEntity
  8
dims
 62
256
370
-1
 48
1.0
  6
ByLayer
100
AcDbDimension
 10
1093.560660171779773
 20
53.8106601717797659
 30
0.0
 11
1093.9534972724388808
 21
56.8551477018885265
 31
0.0
 70
3
 71
8
 72
2
 41
1.0
 42
0.0
  1
M<>
  3
Standard
100
AcDbDiametricDimension
 15
1091.439339828220227
 25
51.6893398282201346
 35
0.0
 40
0.0
1001
ACAD
1000
DSTYLE
1002
{
1070
144
1040
1.0
1070
40
1040
1.0
1002
}
  0
DIMENSION
  5
2FA
100
AcDbEntity
  8
dims
 62
256
370
-1
 48
1.0
  6
ByLayer
100
AcDbDimension
 10
1108.560660171779773
 20
40.3106601717797659
 30
0.0
 11
1108.9534972724388808
 21
43.3551477018885336
 31
0.0
 70
3
 71
8
 72
2
 41
1.0
 42
0.0
  1
M<>
  3
Standard
100
AcDbDiametricDimension
 15
1106.439339828220227
 25
38.1893398282201204
 35
0.0
 40
0.0
1001
ACAD
1000
DSTYLE
1002
{
1070
144
1040
1.0
1070
40
1040
1.0
1002
}
  0
CIRCLE
  5
2FB
100
AcDbEntity
  8
axis
 62
256
370
-1
 48
1.0
  6
ByLayer
100
AcDbCircle
 10
1099.9999999999995453
 20
100.0000000000007674
 30
0.0
 40
90.4999999999999858
  0
DIMENSION
  5
2FC
100
AcDbEntity
  8
dims
 62
256
370
-1
 48
1.0
  6
ByLayer
100
AcDbDimension
 10
1190.5
 20
99.9999999999999716
 30
0.0
 11
1155.0539610082380477
 21
108.7196908019391799
 31
0.0
 70
2
 71
8
 72
2
 41
1.0
 42
0.0
  1

  3
Standard
100
AcDb2LineAngularDimension
 13
1186.0706147247115041
 23
127.9660379909327332
 33
0.0
 14
1099.9999999999995453
 24
100.0000000000007674
 34
0.0
 15
1099.9999999999995453
 25
100.0000000000007816
 35
0.0
 16
1153.0284287712031528
 26
109.4576524093162391
 36
0.0
  0
DIMENSION
  5
2FD
100
AcDbEntity
  8
dims
 62
256
370
-1
 48
1.0
  6
ByLayer
100
AcDbDimension
 10
1036.0068363026173301
 20
163.9931636973835509
 30
0.0
 11
1072.7187249609746686
 21
129.9329254684752186
 31
0.0
 70
131
 71
8
 72
2
 41
1.0
 42
0.0
  1
\U+00f8<>
  3
Standard
100
AcDbDiametricDimension
 15
1163.9931636973817604
 25
36.0068363026179838
 35
0.0
 40
0.0
1001
ACAD
1000
DSTYLE
1002
{
1070
144
1040
1.0
1070
40
1040
1.0
1002
}
  0
DIMENSION
  5
2FE
100
AcDbEntity
  8
dims
 62
256
370
-1
 48
1.0
  6
ByLayer
100
AcDbDimension
 10
1092.5
 20
154.5
 30
0.0
 11
1096.25
 21
156.375
 31
0.0
 70
0
 71
8
 72
2
 41
1.0
 42
0.0
  1

  3
Standard
100
AcDbAlignedDimension
 13
1092.5
 23
160.7500000000000568
 33
0.0
 14
1100.0
 24
161.2112122082221788
 34
0.0
 50
0.0
100
AcDbRotatedDimension
1001
ACAD
1000
DSTYLE
1002
{
1070
144
1040
1.0
1070
40
1040
1.0
1002
}
  0
DIMENSION
  5
2FF
100
AcDbEntity
  8
dims
 62
256
370
-1
 48
1.0
  6
ByLayer
100
AcDbDimension
 10
1107.5
 20
140.0
 30
0.0
 11
1103.75
 21
141.875
 31
0.0
 70
0
 71
8
 72
2
 41
1.0
 42
0.0
  1

  3
Standard
100
AcDbAlignedDimension
 13
1107.5
 23
147.2500000000000568
 33
0.0
 14
1100.0
 24
147.8415353014512448
 34
0.0
 50
0.0
100
AcDbRotatedDimension
1001
ACAD
1000
DSTYLE
1002
{
1070
144
1040
1.0
1070
40
1040
1.0
1002
}
  0
ENDSEC
  0
SECTION
  2
OBJECTS
  0
DICTIONARY
  5
C
100
AcDbDictionary
280
0
281
1
  3
ACAD_GROUP
350
D
  3
ACAD_LAYOUT
350
1A
  3
ACAD_MLINESTYLE
350
17
  3
ACAD_PLOTSETTINGS
350
19
  3
ACAD_PLOTSTYLENAME
350
E
  3
AcDbVariableDictionary
350
300
  3
QCAD_OBJECTS
350
301
  0
DICTIONARY
  5
D
100
AcDbDictionary
280
0
281
1
  0
ACDBDICTIONARYWDFLT
  5
E
100
AcDbDictionary
281
1
  3
Normal
350
F
100
AcDbDictionaryWithDefault
340
F
  0
ACDBPLACEHOLDER
  5
F
  0
DICTIONARY
  5
17
100
AcDbDictionary
280
0
281
1
  3
Standard
350
18
  0
MLINESTYLE
  5
18
100
AcDbMlineStyle
  2
STANDARD
 70
0
  3

 62
256
 51
90.0
 52
90.0
 71
2
 49
0.5
 62
256
  6
BYLAYER
 49
-0.5
 62
256
  6
BYLAYER
  0
DICTIONARY
  5
19
100
AcDbDictionary
280
0
281
1
  0
DICTIONARY
  5
1A
100
AcDbDictionary
281
1
  3
Layout1
350
1E
  3
Layout2
350
26
  3
Model
350
22
  0
LAYOUT
  5
1E
100
AcDbPlotSettings
  1

  2
none_device
  4

  6

 40
0.0
 41
0.0
 42
0.0
 43
0.0
 44
0.0
 45
0.0
 46
0.0
 47
0.0
 48
0.0
 49
0.0
140
0.0
141
0.0
142
1.0
143
1.0
 70
688
 72
0
 73
0
 74
5
  7

 75
16
147
1.0
148
0.0
149
0.0
100
AcDbLayout
  1
Layout1
 70
1
 71
1
 10
0.0
 20
0.0
 11
420.0
 21
297.0
 12
0.0
 22
0.0
 32
0.0
 14
100000000000000000000.0
 24
100000000000000000000.0
 34
100000000000000000000.0
 15
-100000000000000000000.0
 25
-100000000000000000000.0
 35
-100000000000000000000.0
146
0.0
 13
0.0
 23
0.0
 33
0.0
 16
1.0
 26
0.0
 36
0.0
 17
0.0
 27
1.0
 37
0.0
 76
0
330
1B
  0
LAYOUT
  5
22
100
AcDbPlotSettings
  1

  2
none_device
  4

  6

 40
0.0
 41
0.0
 42
0.0
 43
0.0
 44
0.0
 45
0.0
 46
0.0
 47
0.0
 48
0.0
 49
0.0
140
0.0
141
0.0
142
1.0
143
1.0
 70
1712
 72
0
 73
0
 74
0
  7

 75
0
147
1.0
148
0.0
149
0.0
100
AcDbLayout
  1
Model
 70
1
 71
0
 10
0.0
 20
0.0
 11
12.0
 21
9.0
 12
0.0
 22
0.0
 32
0.0
 14
0.0
 24
0.0
 34
0.0
 15
0.0
 25
0.0
 35
0.0
146
0.0
 13
0.0
 23
0.0
 33
0.0
 16
1.0
 26
0.0
 36
0.0
 17
0.0
 27
1.0
 37
0.0
 76
0
330
1F
  0
LAYOUT
  5
26
100
AcDbPlotSettings
  1

  2
none_device
  4

  6

 40
0.0
 41
0.0
 42
0.0
 43
0.0
 44
0.0
 45
0.0
 46
0.0
 47
0.0
 48
0.0
 49
0.0
140
0.0
141
0.0
142
1.0
143
1.0
 70
688
 72
0
 73
0
 74
5
  7

 75
16
147
1.0
148
0.0
149
0.0
100
AcDbLayout
  1
Layout2
 70
1
 71
2
 10
0.0
 20
0.0
 11
12.0
 21
9.0
 12
0.0
 22
0.0
 32
0.0
 14
0.0
 24
0.0
 34
0.0
 15
0.0
 25
0.0
 35
0.0
146
0.0
 13
0.0
 23
0.0
 33
0.0
 16
1.0
 26
0.0
 36
0.0
 17
0.0
 27
1.0
 37
0.0
 76
0
330
23
  0
DICTIONARY
  5
300
100
AcDbDictionary
281
1
  3
DIMASSOC
350
303
  3
HIDETEXT
350
302
  0
DICTIONARYVAR
  5
302
100
DictionaryVariables
280
0
  1
2
  0
DICTIONARYVAR
  5
303
100
DictionaryVariables
280
0
  1
1
  0
DICTIONARY
  5
301
100
AcDbDictionary
281
1
  3
ColorSettings/BackgroundColor
350
304
  3
ColorSettings/ColorMode
350
305
  3
Grid/DisplayGrid00
350
306
  3
Grid/DisplayGrid01
350
307
  3
Grid/DisplayGrid02
350
308
  3
Grid/DisplayGrid03
350
309
  3
Grid/GridSpacingX00
350
30A
  3
Grid/GridSpacingX01
350
30B
  3
Grid/GridSpacingX02
350
30C
  3
Grid/GridSpacingX03
350
30D
  3
Grid/GridSpacingY00
350
30E
  3
Grid/GridSpacingY01
350
30F
  3
Grid/GridSpacingY02
350
310
  3
Grid/GridSpacingY03
350
311
  3
Grid/IsometricGrid00
350
312
  3
Grid/IsometricGrid01
350
313
  3
Grid/IsometricGrid02
350
314
  3
Grid/IsometricGrid03
350
315
  3
Grid/IsometricProjection00
350
316
  3
Grid/IsometricProjection01
350
317
  3
Grid/IsometricProjection02
350
318
  3
Grid/IsometricProjection03
350
319
  3
Grid/MetaGridSpacingX00
350
31A
  3
Grid/MetaGridSpacingX01
350
31B
  3
Grid/MetaGridSpacingX02
350
31C
  3
Grid/MetaGridSpacingX03
350
31D
  3
Grid/MetaGridSpacingY00
350
31E
  3
Grid/MetaGridSpacingY01
350
31F
  3
Grid/MetaGridSpacingY02
350
320
  3
Grid/MetaGridSpacingY03
350
321
  3
MultiPageSettings/Columns
350
322
  3
MultiPageSettings/GlueMarginsBottom
350
323
  3
MultiPageSettings/GlueMarginsLeft
350
324
  3
MultiPageSettings/GlueMarginsRight
350
325
  3
MultiPageSettings/GlueMarginsTop
350
326
  3
MultiPageSettings/PrintCropMarks
350
327
  3
MultiPageSettings/Rows
350
328
  3
PageSettings/OffsetX
350
329
  3
PageSettings/OffsetY
350
32A
  3
PageSettings/PageOrientation
350
32B
  3
PageSettings/PaperHeight
350
32C
  3
PageSettings/PaperWidth
350
32D
  3
PageSettings/Scale
350
32E
  3
PageSettings/ShowPaperBorders
350
32F
  3
QCADVersion
350
330
  3
UnitSettings/PaperUnit
350
331
  3
Viewport/ViewportList.data
350
332
  3
ViewportCenter
350
333
  3
ViewportHeight
350
334
  3
ViewportWidth
350
335
  0
XRECORD
  5
304
330
301
100
AcDbXrecord
280
1
1000
White
  0
XRECORD
  5
305
330
301
100
AcDbXrecord
280
1
1000
FullColor
  0
XRECORD
  5
306
330
301
100
AcDbXrecord
280
1
290
1
  0
XRECORD
  5
307
330
301
100
AcDbXrecord
280
1
290
1
  0
XRECORD
  5
308
330
301
100
AcDbXrecord
280
1
290
1
  0
XRECORD
  5
309
330
301
100
AcDbXrecord
280
1
290
1
  0
XRECORD
  5
30A
330
301
100
AcDbXrecord
280
1
1000
auto
  0
XRECORD
  5
30B
330
301
100
AcDbXrecord
280
1
1000
auto
  0
XRECORD
  5
30C
330
301
100
AcDbXrecord
280
1
1000
auto
  0
XRECORD
  5
30D
330
301
100
AcDbXrecord
280
1
1000
auto
  0
XRECORD
  5
30E
330
301
100
AcDbXrecord
280
1
1000
auto
  0
XRECORD
  5
30F
330
301
100
AcDbXrecord
280
1
1000
auto
  0
XRECORD
  5
310
330
301
100
AcDbXrecord
280
1
1000
auto
  0
XRECORD
  5
311
330
301
100
AcDbXrecord
280
1
1000
auto
  0
XRECORD
  5
312
330
301
100
AcDbXrecord
280
1
290
0
  0
XRECORD
  5
313
330
301
100
AcDbXrecord
280
1
290
0
  0
XRECORD
  5
314
330
301
100
AcDbXrecord
280
1
290
0
  0
XRECORD
  5
315
330
301
100
AcDbXrecord
280
1
290
0
  0
XRECORD
  5
316
330
301
100
AcDbXrecord
280
1
 90
65537
  0
XRECORD
  5
317
330
301
100
AcDbXrecord
280
1
 90
65537
  0
XRECORD
  5
318
330
301
100
AcDbXrecord
280
1
 90
65537
  0
XRECORD
  5
319
330
301
100
AcDbXrecord
280
1
 90
65537
  0
XRECORD
  5
31A
330
301
100
AcDbXrecord
280
1
1000
auto
  0
XRECORD
  5
31B
330
301
100
AcDbXrecord
280
1
1000
auto
  0
XRECORD
  5
31C
330
301
100
AcDbXrecord
280
1
1000
auto
  0
XRECORD
  5
31D
330
301
100
AcDbXrecord
280
1
1000
auto
  0
XRECORD
  5
31E
330
301
100
AcDbXrecord
280
1
1000
auto
  0
XRECORD
  5
31F
330
301
100
AcDbXrecord
280
1
1000
auto
  0
XRECORD
  5
320
330
301
100
AcDbXrecord
280
1
1000
auto
  0
XRECORD
  5
321
330
301
100
AcDbXrecord
280
1
1000
auto
  0
XRECORD
  5
322
330
301
100
AcDbXrecord
280
1
 90
1
  0
XRECORD
  5
323
330
301
100
AcDbXrecord
280
1
 40
10.0
  0
XRECORD
  5
324
330
301
100
AcDbXrecord
280
1
 40
10.0
  0
XRECORD
  5
325
330
301
100
AcDbXrecord
280
1
 40
10.0
  0
XRECORD
  5
326
330
301
100
AcDbXrecord
280
1
 40
10.0
  0
XRECORD
  5
327
330
301
100
AcDbXrecord
280
1
290
0
  0
XRECORD
  5
328
330
301
100
AcDbXrecord
280
1
 90
1
  0
XRECORD
  5
329
330
301
100
AcDbXrecord
280
1
 40
115.1554054054054177
  0
XRECORD
  5
32A
330
301
100
AcDbXrecord
280
1
 40
-92.5523637797084149
  0
XRECORD
  5
32B
330
301
100
AcDbXrecord
280
1
1000
Landscape
  0
XRECORD
  5
32C
330
301
100
AcDbXrecord
280
1
 40
297.0
  0
XRECORD
  5
32D
330
301
100
AcDbXrecord
280
1
 40
210.0
  0
XRECORD
  5
32E
330
301
100
AcDbXrecord
280
1
1000
0.592
  0
XRECORD
  5
32F
330
301
100
AcDbXrecord
280
1
290
1
  0
XRECORD
  5
330
330
301
100
AcDbXrecord
280
1
1000
3.18.1
  0
XRECORD
  5
331
330
301
100
AcDbXrecord
280
1
 90
4
  0
XRECORD
  5
332
330
301
100
AcDbXrecord
280
1
1000
00_Single.ui
  0
XRECORD
  5
334
330
301
100
AcDbXrecord
280
1
 40
183.8978263728841114
  0
XRECORD
  5
335
330
301
100
AcDbXrecord
280
1
 40
372.8339493587239417
  0
ENDSEC
  0
EOF
