999
dxflib 3.17.0.0
  0
SECTION
  2
HEADER
  9
$ACADVER
  1
AC1015
  9
$HANDSEED
  5
FFFF
  9
$AUNITS
 70
0
  9
$AUPREC
 70
2
  9
$DIMADEC
 70
2
  9
$DIMASZ
 40
1.5
  9
$DIMAUNIT
 70
0
  9
$DIMAZIN
 70
0
  9
$DIMDEC
 70
4
  9
$DIMDSEP
 70
46
  9
$DIMEXE
 40
1.25
  9
$DIMEXO
 40
0.625
  9
$DIMGAP
 40
0.625
  9
$DIMLUNIT
 70
2
  9
$DIMSCALE
 40
1.0
  9
$DIMTSZ
 40
0.0
  9
$DIMTXT
 40
2.5
  9
$DIMZIN
 70
8
  9
$DWGCODEPAGE
  3
ANSI_1252
  9
$INSUNITS
 70
4
  9
$LTSCALE
 40
1.0
  9
$LUNITS
 70
2
  9
$LUPREC
 70
4
  9
$MAXACTVP
 70
32
  9
$MEASUREMENT
 70
1
  9
$PDMODE
 70
0
  9
$PDSIZE
 40
0
  9
$PLIMMAX
 10
210.0
 20
297.0
  9
$PLIMMIN
 10
0.0
 20
0.0
  9
$SPLINESEGS
 70
8
  0
ENDSEC
  0
SECTION
  2
TABLES
  0
TABLE
  2
VPORT
  5
8
100
AcDbSymbolTable
 70
1
  0
VPORT
  5
30
100
AcDbSymbolTableRecord
100
AcDbViewportTableRecord
  2
*Active
 70
0
 10
0.0
 20
0.0
 11
1.0
 21
1.0
 12
286.3055555555554861
 22
148.5
 13
0.0
 23
0.0
 14
10.0
 24
10.0
 15
10.0
 25
10.0
 16
0.0
 26
0.0
 36
1.0
 17
0.0
 27
0.0
 37
0.0
 40
297.0
 41
1.92798353909465
 42
50.0
 43
0.0
 44
0.0
 50
0.0
 51
0.0
 71
0
 72
100
 73
1
 74
3
 75
1
 76
1
 77
0
 78
0
281
0
 65
1
110
0.0
120
0.0
130
0.0
111
1.0
121
0.0
131
0.0
112
0.0
122
1.0
132
0.0
 79
0
146
0.0
  0
ENDTAB
  0
TABLE
  2
LTYPE
  5
5
100
AcDbSymbolTable
 70
41
  0
LTYPE
  5
16
100
AcDbSymbolTableRecord
100
AcDbLinetypeTableRecord
  2
CONTINUOUS
 70
0
  3
Solid line
 72
65
 73
0
 40
0.0
  0
LTYPE
  5
31
100
AcDbSymbolTableRecord
100
AcDbLinetypeTableRecord
  2
ACAD_ISO15W100
 70
0
  3
ISO double-dash triple-dot __ __ . . . __ __ . .
 72
65
 73
10
 40
39.0
 49
12.0
 74
0
 49
-3.0
 74
0
 49
12.0
 74
0
 49
-3.0
 74
0
 49
0.0
 74
0
 49
-3.0
 74
0
 49
0.0
 74
0
 49
-3.0
 74
0
 49
0.0
 74
0
 49
-3.0
 74
0
  0
LTYPE
  5
32
100
AcDbSymbolTableRecord
100
AcDbLinetypeTableRecord
  2
DIVIDE
 70
0
  3
Divide ____ . . ____ . . ____ . . ____ . . ____
 72
65
 73
6
 40
31.7500000000000036
 49
12.6999999999999993
 74
0
 49
-6.2999999999999998
 74
0
 49
0.1
 74
0
 49
-6.25
 74
0
 49
0.1
 74
0
 49
-6.2999999999999998
 74
0
  0
LTYPE
  5
33
100
AcDbSymbolTableRecord
100
AcDbLinetypeTableRecord
  2
ACAD_ISO10W100
 70
0
  3
ISO dash dot __ . __ . __ . __ . __ . __ . __ . 
 72
65
 73
4
 40
18.0
 49
12.0
 74
0
 49
-3.0
 74
0
 49
0.0
 74
0
 49
-3.0
 74
0
  0
LTYPE
  5
34
100
AcDbSymbolTableRecord
100
AcDbLinetypeTableRecord
  2
ACAD_ISO04W100
 70
0
  3
ISO long-dash dot ____ . ____ . ____ . ____ . _
 72
65
 73
4
 40
30.0
 49
24.0
 74
0
 49
-3.0
 74
0
 49
0.0
 74
0
 49
-3.0
 74
0
  0
LTYPE
  5
14
100
AcDbSymbolTableRecord
100
AcDbLinetypeTableRecord
  2
ByBlock
 70
0
  3

 72
65
 73
0
 40
0.0
  0
LTYPE
  5
35
100
AcDbSymbolTableRecord
100
AcDbLinetypeTableRecord
  2
CENTER2
 70
0
  3
Center (.5x) ___ _ ___ _ ___ _ ___ _ ___ _ ___
 72
65
 73
4
 40
28.5750000000000028
 49
19.0500000000000007
 74
0
 49
-3.1749999999999998
 74
0
 49
3.1749999999999998
 74
0
 49
-3.1749999999999998
 74
0
  0
LTYPE
  5
36
100
AcDbSymbolTableRecord
100
AcDbLinetypeTableRecord
  2
ACAD_ISO11W100
 70
0
  3
ISO double-dash dot __ __ . __ __ . __ __ . __ _
 72
65
 73
6
 40
33.0
 49
12.0
 74
0
 49
-3.0
 74
0
 49
12.0
 74
0
 49
-3.0
 74
0
 49
0.0
 74
0
 49
-3.0
 74
0
  0
LTYPE
  5
37
100
AcDbSymbolTableRecord
100
AcDbLinetypeTableRecord
  2
HIDDEN2
 70
0
  3
Hidden (.5x) _ _ _ _ _ _ _ _ _ _ _ _ _ _ _ _ _ 
 72
65
 73
2
 40
4.7624999999999993
 49
3.1749999999999998
 74
0
 49
-1.5874999999999999
 74
0
  0
LTYPE
  5
38
100
AcDbSymbolTableRecord
100
AcDbLinetypeTableRecord
  2
BORDERX2
 70
0
  3
Border (2x) ____  ____  .  ____  ____  .  ___
 72
65
 73
6
 40
88.8999999999999773
 49
25.3999999999999986
 74
0
 49
-12.6999999999999993
 74
0
 49
25.3999999999999986
 74
0
 49
-12.6499999999999986
 74
0
 49
0.1
 74
0
 49
-12.6499999999999986
 74
0
  0
LTYPE
  5
39
100
AcDbSymbolTableRecord
100
AcDbLinetypeTableRecord
  2
ACAD_ISO05W100
 70
0
  3
ISO long-dash double-dot ____ .. ____ .. ____ . 
 72
65
 73
6
 40
33.0
 49
24.0
 74
0
 49
-3.0
 74
0
 49
0.0
 74
0
 49
-3.0
 74
0
 49
0.0
 74
0
 49
-3.0
 74
0
  0
LTYPE
  5
3A
100
AcDbSymbolTableRecord
100
AcDbLinetypeTableRecord
  2
DASHDOTX2
 70
0
  3
Dash dot (2x) ____  .  ____  .  ____  .  ___
 72
65
 73
4
 40
50.7999999999999972
 49
25.3999999999999986
 74
0
 49
-12.6499999999999986
 74
0
 49
0.1
 74
0
 49
-12.6499999999999986
 74
0
  0
LTYPE
  5
3B
100
AcDbSymbolTableRecord
100
AcDbLinetypeTableRecord
  2
HIDDENX2
 70
0
  3
Hidden (2x) ____ ____ ____ ____ ____ ____ ____ 
 72
65
 73
2
 40
19.0499999999999972
 49
12.6999999999999993
 74
0
 49
-6.3499999999999996
 74
0
  0
LTYPE
  5
3C
100
AcDbSymbolTableRecord
100
AcDbLinetypeTableRecord
  2
CENTERX2
 70
0
  3
Center (2x) ________  __  ________  __  _____
 72
65
 73
4
 40
101.6000000000000085
 49
63.5
 74
0
 49
-12.6999999999999993
 74
0
 49
12.6999999999999993
 74
0
 49
-12.6999999999999993
 74
0
  0
LTYPE
  5
3D
100
AcDbSymbolTableRecord
100
AcDbLinetypeTableRecord
  2
BORDER2
 70
0
  3
Border (.5x) __.__.__.__.__.__.__.__.__.__.__.
 72
65
 73
6
 40
22.2250000000000014
 49
6.3499999999999996
 74
0
 49
-3.1749999999999998
 74
0
 49
6.3499999999999996
 74
0
 49
-3.125
 74
0
 49
0.1
 74
0
 49
-3.125
 74
0
  0
LTYPE
  5
3E
100
AcDbSymbolTableRecord
100
AcDbLinetypeTableRecord
  2
DASHDOT2
 70
0
  3
Dash dot (.5x) _._._._._._._._._._._._._._._.
 72
65
 73
4
 40
12.6999999999999993
 49
6.3499999999999996
 74
0
 49
-3.125
 74
0
 49
0.1
 74
0
 49
-3.125
 74
0
  0
LTYPE
  5
3F
100
AcDbSymbolTableRecord
100
AcDbLinetypeTableRecord
  2
ACAD_ISO12W100
 70
0
  3
ISO dash double-dot __ . . __ . . __ . . __ . . 
 72
65
 73
6
 40
21.0
 49
12.0
 74
0
 49
-3.0
 74
0
 49
0.0
 74
0
 49
-3.0
 74
0
 49
0.0
 74
0
 49
-3.0
 74
0
  0
LTYPE
  5
40
100
AcDbSymbolTableRecord
100
AcDbLinetypeTableRecord
  2
ACAD_ISO07W100
 70
0
  3
ISO dot . . . . . . . . . . . . . . . . . . . . 
 72
65
 73
2
 40
3.0
 49
0.0
 74
0
 49
-3.0
 74
0
  0
LTYPE
  5
41
100
AcDbSymbolTableRecord
100
AcDbLinetypeTableRecord
  2
HIDDEN
 70
0
  3
Hidden __ __ __ __ __ __ __ __ __ __ __ __ __ __
 72
65
 73
2
 40
9.5249999999999986
 49
6.3499999999999996
 74
0
 49
-3.1749999999999998
 74
0
  0
LTYPE
  5
42
100
AcDbSymbolTableRecord
100
AcDbLinetypeTableRecord
  2
ACAD_ISO06W100
 70
0
  3
ISO long-dash triple-dot ____ ... ____ ... ____
 72
65
 73
8
 40
36.0
 49
24.0
 74
0
 49
-3.0
 74
0
 49
0.0
 74
0
 49
-3.0
 74
0
 49
0.0
 74
0
 49
-3.0
 74
0
 49
0.0
 74
0
 49
-3.0
 74
0
  0
LTYPE
  5
43
100
AcDbSymbolTableRecord
100
AcDbLinetypeTableRecord
  2
CENTER
 70
0
  3
Center ____ _ ____ _ ____ _ ____ _ ____ _ ____
 72
65
 73
4
 40
50.8000000000000043
 49
31.75
 74
0
 49
-6.3499999999999996
 74
0
 49
6.3499999999999996
 74
0
 49
-6.3499999999999996
 74
0
  0
LTYPE
  5
44
100
AcDbSymbolTableRecord
100
AcDbLinetypeTableRecord
  2
DOTX2
 70
0
  3
Dot (2x) .  .  .  .  .  .  .  .  .  .  .  .  .
 72
65
 73
2
 40
12.6999999999999993
 49
0.1
 74
0
 49
-12.5999999999999996
 74
0
  0
LTYPE
  5
45
100
AcDbSymbolTableRecord
100
AcDbLinetypeTableRecord
  2
PHANTOM
 70
0
  3
Phantom ______  __  __  ______  __  __  ______ 
 72
65
 73
6
 40
63.5000000000000071
 49
31.75
 74
0
 49
-6.3499999999999996
 74
0
 49
6.3499999999999996
 74
0
 49
-6.3499999999999996
 74
0
 49
6.3499999999999996
 74
0
 49
-6.3499999999999996
 74
0
  0
LTYPE
  5
46
100
AcDbSymbolTableRecord
100
AcDbLinetypeTableRecord
  2
ACAD_ISO08W100
 70
0
  3
ISO long-dash short-dash ____ __ ____ __ ____ _
 72
65
 73
4
 40
36.0
 49
24.0
 74
0
 49
-3.0
 74
0
 49
6.0
 74
0
 49
-3.0
 74
0
  0
LTYPE
  5
47
100
AcDbSymbolTableRecord
100
AcDbLinetypeTableRecord
  2
DASHEDX2
 70
0
  3
Dashed (2x) ____  ____  ____  ____  ____  ___
 72
65
 73
2
 40
38.0999999999999943
 49
25.3999999999999986
 74
0
 49
-12.6999999999999993
 74
0
  0
LTYPE
  5
48
100
AcDbSymbolTableRecord
100
AcDbLinetypeTableRecord
  2
ACAD_ISO02W100
 70
0
  3
ISO dash __ __ __ __ __ __ __ __ __ __ __ __ __
 72
65
 73
2
 40
15.0
 49
12.0
 74
0
 49
-3.0
 74
0
  0
LTYPE
  5
49
100
AcDbSymbolTableRecord
100
AcDbLinetypeTableRecord
  2
PHANTOM2
 70
0
  3
Phantom (.5x) ___ _ _ ___ _ _ ___ _ _ ___ _ _
 72
65
 73
6
 40
31.7500000000000036
 49
15.875
 74
0
 49
-3.1749999999999998
 74
0
 49
3.1749999999999998
 74
0
 49
-3.1749999999999998
 74
0
 49
3.1749999999999998
 74
0
 49
-3.1749999999999998
 74
0
  0
LTYPE
  5
4A
100
AcDbSymbolTableRecord
100
AcDbLinetypeTableRecord
  2
DASHED2
 70
0
  3
Dashed (.5x) _ _ _ _ _ _ _ _ _ _ _ _ _ _ _ _ _
 72
65
 73
2
 40
9.5249999999999986
 49
6.3499999999999996
 74
0
 49
-3.1749999999999998
 74
0
  0
LTYPE
  5
4B
100
AcDbSymbolTableRecord
100
AcDbLinetypeTableRecord
  2
ACAD_ISO09W100
 70
0
  3
ISO long-dash double-short-dash ____ __ __ ____
 72
65
 73
6
 40
45.0
 49
24.0
 74
0
 49
-3.0
 74
0
 49
6.0
 74
0
 49
-3.0
 74
0
 49
6.0
 74
0
 49
-3.0
 74
0
  0
LTYPE
  5
4C
100
AcDbSymbolTableRecord
100
AcDbLinetypeTableRecord
  2
ACAD_ISO13W100
 70
0
  3
ISO double-dash double-dot __ __ . . __ __ . . _
 72
65
 73
8
 40
36.0
 49
12.0
 74
0
 49
-3.0
 74
0
 49
12.0
 74
0
 49
-3.0
 74
0
 49
0.0
 74
0
 49
-3.0
 74
0
 49
0.0
 74
0
 49
-3.0
 74
0
  0
LTYPE
  5
4D
100
AcDbSymbolTableRecord
100
AcDbLinetypeTableRecord
  2
DOT2
 70
0
  3
Dot (.5x) .....................................
 72
65
 73
2
 40
3.1749999999999998
 49
0.1
 74
0
 49
-3.0749999999999997
 74
0
  0
LTYPE
  5
4E
100
AcDbSymbolTableRecord
100
AcDbLinetypeTableRecord
  2
DASHED
 70
0
  3
Dashed __ __ __ __ __ __ __ __ __ __ __ __ __ _
 72
65
 73
2
 40
19.0499999999999972
 49
12.6999999999999993
 74
0
 49
-6.3499999999999996
 74
0
  0
LTYPE
  5
4F
100
AcDbSymbolTableRecord
100
AcDbLinetypeTableRecord
  2
ACAD_ISO14W100
 70
0
  3
ISO dash triple-dot __ . . . __ . . . __ . . . _
 72
65
 73
8
 40
24.0
 49
12.0
 74
0
 49
-3.0
 74
0
 49
0.0
 74
0
 49
-3.0
 74
0
 49
0.0
 74
0
 49
-3.0
 74
0
 49
0.0
 74
0
 49
-3.0
 74
0
  0
LTYPE
  5
50
100
AcDbSymbolTableRecord
100
AcDbLinetypeTableRecord
  2
PHANTOMX2
 70
0
  3
Phantom (2x) ____________    ____    ____   _
 72
65
 73
6
 40
127.0000000000000142
 49
63.5
 74
0
 49
-12.6999999999999993
 74
0
 49
12.6999999999999993
 74
0
 49
-12.6999999999999993
 74
0
 49
12.6999999999999993
 74
0
 49
-12.6999999999999993
 74
0
  0
LTYPE
  5
51
100
AcDbSymbolTableRecord
100
AcDbLinetypeTableRecord
  2
DIVIDEX2
 70
0
  3
Divide (2x) ________  .  .  ________  .  .  _
 72
65
 73
6
 40
63.5
 49
25.3999999999999986
 74
0
 49
-12.6499999999999986
 74
0
 49
0.1
 74
0
 49
-12.5999999999999979
 74
0
 49
0.1
 74
0
 49
-12.6499999999999986
 74
0
  0
LTYPE
  5
52
100
AcDbSymbolTableRecord
100
AcDbLinetypeTableRecord
  2
BORDER
 70
0
  3
Border __ __ . __ __ . __ __ . __ __ . __ __ .
 72
65
 73
6
 40
44.4499999999999957
 49
12.6999999999999993
 74
0
 49
-6.3499999999999996
 74
0
 49
12.6999999999999993
 74
0
 49
-6.2999999999999998
 74
0
 49
0.1
 74
0
 49
-6.2999999999999998
 74
0
  0
LTYPE
  5
53
100
AcDbSymbolTableRecord
100
AcDbLinetypeTableRecord
  2
DIVIDE2
 70
0
  3
Divide (.5x) __..__..__..__..__..__..__..__.._
 72
65
 73
6
 40
15.8749999999999982
 49
6.3499999999999996
 74
0
 49
-3.125
 74
0
 49
0.1
 74
0
 49
-3.0750000000000002
 74
0
 49
0.1
 74
0
 49
-3.125
 74
0
  0
LTYPE
  5
54
100
AcDbSymbolTableRecord
100
AcDbLinetypeTableRecord
  2
DOT
 70
0
  3
Dot . . . . . . . . . . . . . . . . . . . . . .
 72
65
 73
2
 40
6.3499999999999996
 49
0.1
 74
0
 49
-6.25
 74
0
  0
LTYPE
  5
55
100
AcDbSymbolTableRecord
100
AcDbLinetypeTableRecord
  2
DASHDOT
 70
0
  3
Dash dot __ . __ . __ . __ . __ . __ . __ . __
 72
65
 73
4
 40
25.4000000000000021
 49
12.6999999999999993
 74
0
 49
-6.2999999999999998
 74
0
 49
0.1
 74
0
 49
-6.2999999999999998
 74
0
  0
LTYPE
  5
56
100
AcDbSymbolTableRecord
100
AcDbLinetypeTableRecord
  2
ACAD_ISO03W100
 70
0
  3
ISO dash space __    __    __    __    __    __
 72
65
 73
2
 40
30.0
 49
12.0
 74
0
 49
-18.0
 74
0
  0
LTYPE
  5
15
100
AcDbSymbolTableRecord
100
AcDbLinetypeTableRecord
  2
ByLayer
 70
0
  3

 72
65
 73
0
 40
0.0
  0
ENDTAB
  0
TABLE
  2
LAYER
  5
2
100
AcDbSymbolTable
 70
6
  0
LAYER
  5
57
100
AcDbSymbolTableRecord
100
AcDbLayerTableRecord
  2
help
 70
0
 62
4
420
65535
  6
DASHED
370
0
390
F
  0
LAYER
  5
58
100
AcDbSymbolTableRecord
100
AcDbLayerTableRecord
  2
dims2
 70
1
 62
5
420
255
  6
CONTINUOUS
370
0
390
F
  0
LAYER
  5
59
100
AcDbSymbolTableRecord
100
AcDbLayerTableRecord
  2
dims
 70
0
 62
5
420
255
  6
CONTINUOUS
370
5
390
F
  0
LAYER
  5
5A
100
AcDbSymbolTableRecord
100
AcDbLayerTableRecord
  2
holes
 70
0
 62
7
420
16777215
  6
DASHED2
370
5
390
F
  0
LAYER
  5
10
100
AcDbSymbolTableRecord
100
AcDbLayerTableRecord
  2
0
 70
0
 62
7
420
16777215
  6
CONTINUOUS
370
5
390
F
  0
LAYER
  5
5B
100
AcDbSymbolTableRecord
100
AcDbLayerTableRecord
  2
axis
 70
0
 62
1
420
16711680
  6
DASHDOTX2
370
5
390
F
  0
ENDTAB
  0
TABLE
  2
STYLE
  5
3
100
AcDbSymbolTable
 70
1
  0
STYLE
  5
5C
100
AcDbSymbolTableRecord
100
AcDbTextStyleTableRecord
  2
Standard
 70
0
 40
0.0
 41
1.0
 50
0.0
 71
0
 42
2.5
  3

  4

1001
ACAD
1000
txt
1071
0
  0
ENDTAB
  0
TABLE
  2
VIEW
  5
6
100
AcDbSymbolTable
 70
0
  0
ENDTAB
  0
TABLE
  2
UCS
  5
7
100
AcDbSymbolTable
 70
0
  0
ENDTAB
  0
TABLE
  2
APPID
  5
9
100
AcDbSymbolTable
 70
1
  0
APPID
  5
12
100
AcDbSymbolTableRecord
100
AcDbRegAppTableRecord
  2
ACAD
 70
0
  0
APPID
  5
5D
100
AcDbSymbolTableRecord
100
AcDbRegAppTableRecord
  2
QCAD
 70
0
  0
ENDTAB
  0
TABLE
  2
DIMSTYLE
  5
A
100
AcDbSymbolTable
 70
1
100
AcDbDimStyleTable
 71
0
  0
DIMSTYLE
105
27
100
AcDbSymbolTableRecord
100
AcDbDimStyleTableRecord
  2
Standard
 41
1.5
 42
0.625
 43
3.75
 44
1.25
 70
0
 73
0
 74
0
 77
1
 78
8
140
2.5
141
2.5
143
0.03937007874016
147
0.625
171
3
172
1
271
2
272
2
274
3
278
44
283
0
284
8
340
5C
  0
ENDTAB
  0
TABLE
  2
BLOCK_RECORD
  5
1
100
AcDbSymbolTable
 70
1
  0
BLOCK_RECORD
  5
1F
100
AcDbSymbolTableRecord
100
AcDbBlockTableRecord
  2
*Model_Space
340
22
  0
BLOCK_RECORD
  5
1B
100
AcDbSymbolTableRecord
100
AcDbBlockTableRecord
  2
*Paper_Space
340
1E
  0
BLOCK_RECORD
  5
23
100
AcDbSymbolTableRecord
100
AcDbBlockTableRecord
  2
*Paper_Space0
340
26
  0
ENDTAB
  0
ENDSEC
  0
SECTION
  2
BLOCKS
  0
BLOCK
  5
20
100
AcDbEntity
  8
0
100
AcDbBlockBegin
  2
*Model_Space
 70
0
 10
0.0
 20
0.0
 30
0.0
  3
*Model_Space
  1

  0
ENDBLK
  5
21
100
AcDbEntity
  8
0
100
AcDbBlockEnd
  0
BLOCK
  5
1C
100
AcDbEntity
 67
1
  8
0
100
AcDbBlockBegin
  2
*Paper_Space
 70
0
 10
0.0
 20
0.0
 30
0.0
  3
*Paper_Space
  1

  0
ENDBLK
  5
1D
100
AcDbEntity
 67
1
  8
0
100
AcDbBlockEnd
  0
BLOCK
  5
24
100
AcDbEntity
  8
0
100
AcDbBlockBegin
  2
*Paper_Space0
 70
0
 10
0.0
 20
0.0
 30
0.0
  3
*Paper_Space0
  1

  0
ENDBLK
  5
25
100
AcDbEntity
  8
0
100
AcDbBlockEnd
  0
ENDSEC
  0
SECTION
  2
ENTITIES
  0
HATCH
  5
5E
100
AcDbEntity
  8
0
 62
256
370
-1
 48
1.0
  6
ByLayer
100
AcDbHatch
 10
0.0
 20
0.0
 30
0.0
210
0.0
220
0.0
230
1.0
  2
ANSI31
 70
0
 71
0
 91
1
 92
1
 93
4
 72
1
 10
197.5000000000000284
 20
168.5000000000000284
 11
197.5000000000000284
 21
167.5000000000000284
 72
1
 10
197.5000000000000284
 20
167.5000000000000284
 11
199.5000000000000284
 21
167.5000000000000284
 72
1
 10
199.5000000000000284
 20
167.5000000000000284
 11
199.5000000000000284
 21
168.5000000000000284
 72
1
 10
199.5000000000000284
 20
168.5000000000000284
 11
197.5000000000000284
 21
168.5000000000000284
 97
0
 75
0
 76
1
 52
0.0
 41
0.0445421594448219
 77
0
 78
1
 53
45.0
 43
0.0
 44
0.0
 45
-0.0883883476483184
 46
0.0883883476483185
 79
0
 98
0
1001
ACAD
1010
0.0
1020
0.0
1030
0
  0
HATCH
  5
5F
100
AcDbEntity
  8
0
 62
256
370
-1
 48
1.0
  6
ByLayer
100
AcDbHatch
 10
0.0
 20
0.0
 30
0.0
210
0.0
220
0.0
230
1.0
  2
ANSI31
 70
0
 71
0
 91
1
 92
1
 93
4
 72
1
 10
200.5000000000000284
 20
167.5
 11
200.5000000000000284
 21
168.5
 72
1
 10
200.5000000000000284
 20
168.5000000000000284
 11
202.5000000000000284
 21
168.5000000000000284
 72
1
 10
202.5000000000000284
 20
168.5000000000000284
 11
202.5000000000000284
 21
167.5000000000000284
 72
1
 10
202.5000000000000284
 20
167.5000000000000284
 11
200.5000000000000284
 21
167.5000000000000284
 97
0
 75
0
 76
1
 52
0.0
 41
0.0445421594448219
 77
0
 78
1
 53
45.0
 43
0.0
 44
0.0
 45
-0.0883883476483184
 46
0.0883883476483185
 79
0
 98
0
1001
ACAD
1010
0.0
1020
0.0
1030
0
  0
HATCH
  5
60
100
AcDbEntity
  8
0
 62
256
370
-1
 48
1.0
  6
ByLayer
100
AcDbHatch
 10
0.0
 20
0.0
 30
0.0
210
0.0
220
0.0
230
1.0
  2
ANSI31
 70
0
 71
0
 91
1
 92
1
 93
6
 72
1
 10
197.0000000000000568
 20
173.5000000000000284
 11
197.0000000000000284
 21
168.5000000000000568
 72
1
 10
197.0000000000000284
 20
168.5000000000000568
 11
199.5000000000000284
 21
168.5000000000000568
 72
1
 10
199.5000000000000284
 20
168.5000000000000284
 11
199.5000000000000284
 21
169.5000000000000284
 72
1
 10
199.5000000000000284
 20
169.5000000000000284
 11
198.0000000000000568
 21
169.5000000000000284
 72
1
 10
198.0000000000000568
 20
169.5000000000000284
 11
198.0000000000000568
 21
173.5000000000000284
 72
1
 10
198.0000000000000568
 20
173.5000000000000284
 11
197.0000000000000568
 21
173.5000000000000284
 97
0
 75
0
 76
1
 52
5156.6201561774087168
 41
0.0556776993060274
 77
0
 78
1
 53
45.0
 43
0.0
 44
0.0
 45
-0.0883883476483184
 46
0.0883883476483185
 79
0
 98
0
1001
ACAD
1010
0.0
1020
0.0
1030
0
  0
HATCH
  5
61
100
AcDbEntity
  8
0
 62
256
370
-1
 48
1.0
  6
ByLayer
100
AcDbHatch
 10
0.0
 20
0.0
 30
0.0
210
0.0
220
0.0
230
1.0
  2
ANSI31
 70
0
 71
0
 91
1
 92
1
 93
4
 72
1
 10
202.0000000000000568
 20
168.5000000000000568
 11
202.0000000000000568
 21
169.5000000000000568
 72
1
 10
202.0000000000000568
 20
169.5000000000000284
 11
200.5000000000000284
 21
169.5000000000000284
 72
1
 10
200.5000000000000284
 20
169.5
 11
200.5000000000000284
 21
168.5
 72
1
 10
200.5000000000000284
 20
168.5000000000000568
 11
202.0000000000000568
 21
168.5000000000000568
 97
0
 75
0
 76
1
 52
5156.6201561774087168
 41
0.0556776993060274
 77
0
 78
1
 53
45.0
 43
0.0
 44
0.0
 45
-0.0883883476483184
 46
0.0883883476483185
 79
0
 98
0
1001
ACAD
1010
0.0
1020
0.0
1030
0
  0
HATCH
  5
62
100
AcDbEntity
  8
0
 62
256
370
-1
 48
1.0
  6
ByLayer
100
AcDbHatch
 10
0.0
 20
0.0
 30
0.0
210
0.0
220
0.0
230
1.0
  2
ANSI31
 70
0
 71
0
 91
1
 92
1
 93
32
 72
1
 10
462.0
 20
185.7500000000000284
 11
462.0
 21
186.2999999999999829
 72
1
 10
461.9999999999999432
 20
186.2999999999999829
 11
487.0
 21
186.2999999999999829
 72
1
 10
487.0
 20
186.2999999999999829
 11
487.0
 21
100.0
 72
1
 10
487.0
 20
99.9999999999999716
 11
487.0
 21
13.6999999999999886
 72
1
 10
487.0
 20
13.6999999999999886
 11
461.9999999999999432
 21
13.7000000000000313
 72
1
 10
462.0
 20
13.7000000000000028
 11
462.0
 21
14.25
 72
1
 10
462.0
 20
14.2500000000000142
 11
463.6427196325187197
 21
14.2499999999999858
 72
1
 10
463.6427196325187765
 20
14.2499999999999574
 11
462.660000000000025
 21
16.9500000000000313
 72
1
 10
462.6599999999999682
 20
16.9499999999999318
 11
463.1900000000000546
 21
17.1429042241611
 72
1
 10
463.1899999999999409
 20
17.1429042241610148
 11
463.1899999999999977
 21
24.0000000000000284
 72
1
 10
463.1899999999999409
 20
24.0000000000000568
 11
461.9999999999998863
 21
24.0
 72
1
 10
461.9999999999999432
 20
23.9999999999999716
 11
462.0
 21
31.4999999999999858
 72
1
 10
462.0
 20
31.4999999999999858
 11
462.0
 21
45.5
 72
1
 10
462.0
 20
45.5
 11
472.0
 21
45.5000000000000711
 72
1
 10
472.0
 20
45.5000000000000711
 11
473.4433756729740139
 21
47.9999999999999432
 72
1
 10
473.4433756729740139
 20
48.0000000000000497
 11
471.9999999999998863
 21
50.4999999999999289
 72
1
 10
471.9999999999998863
 20
50.4999999999999289
 11
461.9999999999999432
 21
50.4999999999999858
 72
1
 10
462.0
 20
50.4999999999999574
 11
462.0
 21
61.5000000000000355
 72
1
 10
462.0
 20
61.5000000000000355
 11
462.0
 21
99.9999999999999716
 72
1
 10
462.0
 20
100.0
 11
462.0
 21
138.4999999999999716
 72
1
 10
462.0
 20
138.4999999999999716
 11
462.0
 21
149.5000000000000284
 72
1
 10
461.9999999999999432
 20
149.5
 11
471.9999999999999432
 21
149.5
 72
1
 10
471.9999999999999432
 20
149.5
 11
473.4433756729740139
 21
151.9999999999999716
 72
1
 10
473.4433756729740139
 20
152.0000000000000284
 11
472.0
 21
154.4999999999999716
 72
1
 10
472.0
 20
154.4999999999999716
 11
462.0
 21
154.4999999999999716
 72
1
 10
462.0
 20
154.5
 11
462.0
 21
168.5
 72
1
 10
462.0
 20
168.5
 11
462.0
 21
175.9999999999999716
 72
1
 10
461.9999999999999432
 20
175.9999999999999716
 11
463.1899999999999409
 21
175.9999999999999716
 72
1
 10
463.1899999999999977
 20
175.9999999999999716
 11
463.1899999999999977
 21
182.8570957758389284
 72
1
 10
463.1900000000000546
 20
182.8570957758389
 11
462.660000000000025
 21
183.0500000000000114
 72
1
 10
462.660000000000025
 20
183.0499999999999545
 11
463.6427196325188334
 21
185.75
 72
1
 10
463.6427196325187765
 20
185.75
 11
462.0
 21
185.75
 97
0
 75
0
 76
1
 52
5156.6201561774087168
 41
0.445421594448219
 77
0
 78
1
 53
45.0
 43
0.0
 44
0.0
 45
-0.0883883476483184
 46
0.0883883476483185
 79
0
 98
0
1001
ACAD
1010
0.0
1020
0.0
1030
0
  0
HATCH
  5
63
100
AcDbEntity
  8
0
 62
256
370
-1
 48
1.0
  6
ByLayer
100
AcDbHatch
 10
0.0
 20
0.0
 30
0.0
210
0.0
220
0.0
230
1.0
  2
ANSI31
 70
0
 71
0
 91
1
 92
1
 93
4
 72
1
 10
461.9999999999998863
 20
-1.2000000000000597
 11
487.0
 21
-1.199999999999946
 72
1
 10
487.0
 20
-1.199999999999946
 11
486.9999999999999432
 21
5.2999999999999261
 72
1
 10
486.9999999999999432
 20
5.2999999999999261
 11
461.9999999999998863
 21
5.2999999999999829
 72
1
 10
461.9999999999999432
 20
5.2999999999999403
 11
461.9999999999998863
 21
-1.2000000000000597
 97
0
 75
0
 76
1
 52
5156.6201561774087168
 41
0.445421594448219
 77
0
 78
1
 53
45.0
 43
0.0
 44
0.0
 45
-0.0883883476483184
 46
0.0883883476483185
 79
0
 98
0
1001
ACAD
1010
0.0
1020
0.0
1030
0
  0
HATCH
  5
64
100
AcDbEntity
  8
0
 62
256
370
-1
 48
1.0
  6
ByLayer
100
AcDbHatch
 10
0.0
 20
0.0
 30
0.0
210
0.0
220
0.0
230
1.0
  2
ANSI31
 70
0
 71
0
 91
1
 92
1
 93
4
 72
1
 10
462.0
 20
201.1999999999999886
 11
487.0
 21
201.1999999999999886
 72
1
 10
487.0
 20
201.1999999999999886
 11
487.0
 21
194.6999999999999886
 72
1
 10
487.0
 20
194.6999999999999886
 11
461.9999999999999432
 21
194.6999999999999886
 72
1
 10
462.0
 20
194.6999999999999886
 11
462.0
 21
201.1999999999999886
 97
0
 75
0
 76
1
 52
5156.6201561774087168
 41
0.445421594448219
 77
0
 78
1
 53
45.0
 43
0.0
 44
0.0
 45
-0.0883883476483184
 46
0.0883883476483185
 79
0
 98
0
1001
ACAD
1010
0.0
1020
0.0
1030
0
  0
HATCH
  5
65
100
AcDbEntity
  8
0
 62
256
370
-1
 48
1.0
  6
ByLayer
100
AcDbHatch
 10
0.0
 20
0.0
 30
0.0
210
0.0
220
0.0
230
1.0
  2
ANSI31
 70
0
 71
0
 91
1
 92
1
 93
4
 72
1
 10
462.0
 20
61.5000000000000355
 11
462.0
 21
50.4999999999999574
 72
1
 10
462.0
 20
50.4999999999999645
 11
458.9999999999998863
 21
50.4999999999999289
 72
1
 10
458.9999999999998863
 20
50.4999999999999289
 11
458.9999999999999432
 21
61.5000000000000071
 72
1
 10
458.9999999999999432
 20
61.5000000000000071
 11
462.0
 21
61.5000000000000355
 97
0
 75
0
 76
1
 52
0.0
 41
0.0890843188896438
 77
0
 78
1
 53
45.0
 43
0.0
 44
0.0
 45
-0.0883883476483184
 46
0.0883883476483185
 79
0
 98
0
1001
ACAD
1010
0.0
1020
0.0
1030
0
  0
HATCH
  5
66
100
AcDbEntity
  8
0
 62
256
370
-1
 48
1.0
  6
ByLayer
100
AcDbHatch
 10
0.0
 20
0.0
 30
0.0
210
0.0
220
0.0
230
1.0
  2
ANSI31
 70
0
 71
0
 91
1
 92
1
 93
4
 72
1
 10
462.0
 20
138.4999999999999716
 11
462.0
 21
149.5000000000000284
 72
1
 10
462.0
 20
149.5
 11
458.9999999999999432
 21
149.5
 72
1
 10
458.9999999999999432
 20
149.5
 11
458.9999999999999432
 21
138.5
 72
1
 10
458.9999999999999432
 20
138.5
 11
462.0
 21
138.5
 97
0
 75
0
 76
1
 52
0.0
 41
0.0890843188896438
 77
0
 78
1
 53
45.0
 43
0.0
 44
0.0
 45
-0.0883883476483184
 46
0.0883883476483185
 79
0
 98
0
1001
ACAD
1010
0.0
1020
0.0
1030
0
  0
HATCH
  5
67
100
AcDbEntity
  8
0
 62
256
370
-1
 48
1.0
  6
ByLayer
100
AcDbHatch
 10
0.0
 20
0.0
 30
0.0
210
0.0
220
0.0
230
1.0
  2
ANSI31
 70
0
 71
0
 91
1
 92
1
 93
6
 72
1
 10
456.9999999999999432
 20
31.4999999999999432
 11
462.0
 21
31.4999999999999858
 72
1
 10
462.0
 20
31.4999999999999858
 11
462.0
 21
45.5
 72
1
 10
462.0
 20
45.5
 11
458.9999999999999432
 21
45.5000000000000284
 72
1
 10
458.9999999999999432
 20
45.5000000000000284
 11
459.0
 21
34.5000000000000426
 72
1
 10
459.0
 20
34.5000000000000426
 11
457.0
 21
34.5
 72
1
 10
457.0
 20
34.5000000000000142
 11
457.0
 21
31.5000000000000142
 97
0
 75
0
 76
1
 52
0.0
 41
0.0890843
 77
0
 78
1
 53
45.0
 43
0.0
 44
0.0
 45
-0.0883883476483184
 46
0.0883883476483185
 79
0
 98
0
1001
ACAD
1010
0.0
1020
0.0
1030
0
  0
HATCH
  5
68
100
AcDbEntity
  8
0
 62
256
370
-1
 48
1.0
  6
ByLayer
100
AcDbHatch
 10
0.0
 20
0.0
 30
0.0
210
0.0
220
0.0
230
1.0
  2
ANSI31
 70
0
 71
0
 91
1
 92
1
 93
6
 72
1
 10
457.0
 20
168.5000000000000284
 11
462.0
 21
168.5000000000000284
 72
1
 10
462.0
 20
168.5
 11
462.0
 21
154.5
 72
1
 10
462.0
 20
154.5
 11
458.9999999999999432
 21
154.5
 72
1
 10
458.9999999999999432
 20
154.5
 11
458.9999999999999432
 21
165.5
 72
1
 10
458.9999999999999432
 20
165.5
 11
457.0
 21
165.5
 72
1
 10
456.9999999999999432
 20
165.5
 11
457.0
 21
168.5
 97
0
 75
0
 76
1
 52
0.0
 41
0.0890843188896438
 77
0
 78
1
 53
45.0
 43
0.0
 44
0.0
 45
-0.0883883476483184
 46
0.0883883476483185
 79
0
 98
0
1001
ACAD
1010
0.0
1020
0.0
1030
0
  0
HATCH
  5
69
100
AcDbEntity
  8
0
 62
256
370
-1
 48
1.0
  6
ByLayer
100
AcDbHatch
 10
0.0
 20
0.0
 30
0.0
210
0.0
220
0.0
230
1.0
  2
ANSI31
 70
0
 71
0
 91
1
 92
1
 93
4
 72
1
 10
436.9999999999999432
 20
165.5
 11
436.9999999999999432
 21
168.5
 72
1
 10
436.9999999999999432
 20
168.5
 11
431.9999999999999432
 21
168.5
 72
1
 10
431.9999999999999432
 20
168.5
 11
431.9999999999999432
 21
165.5
 72
1
 10
431.9999999999999432
 20
165.5
 11
436.9999999999998863
 21
165.5
 97
0
 75
0
 76
1
 52
0.0
 41
0.0890843188896438
 77
0
 78
1
 53
45.0
 43
0.0
 44
0.0
 45
-0.0883883476483184
 46
0.0883883476483185
 79
0
 98
0
1001
ACAD
1010
0.0
1020
0.0
1030
0
  0
HATCH
  5
6A
100
AcDbEntity
  8
0
 62
256
370
-1
 48
1.0
  6
ByLayer
100
AcDbHatch
 10
0.0
 20
0.0
 30
0.0
210
0.0
220
0.0
230
1.0
  2
ANSI31
 70
0
 71
0
 91
1
 92
1
 93
4
 72
1
 10
436.9999999999999432
 20
34.5
 11
436.9999999999998863
 21
31.4999999999999574
 72
1
 10
436.9999999999998863
 20
31.4999999999999574
 11
431.9999999999999432
 21
31.5
 72
1
 10
431.9999999999999432
 20
31.5
 11
431.9999999999999432
 21
34.5
 72
1
 10
431.9999999999999432
 20
34.5
 11
436.9999999999998863
 21
34.5000000000000284
 97
0
 75
0
 76
1
 52
0.0
 41
0.0890843188896438
 77
0
 78
1
 53
45.0
 43
0.0
 44
0.0
 45
-0.0883883476483184
 46
0.0883883476483185
 79
0
 98
0
1001
ACAD
1010
0.0
1020
0.0
1030
0
  0
HATCH
  5
6B
100
AcDbEntity
  8
0
 62
256
370
-1
 48
1.0
  6
ByLayer
100
AcDbHatch
 10
0.0
 20
0.0
 30
0.0
210
0.0
220
0.0
230
1.0
  2
ANSI31
 70
0
 71
0
 91
1
 92
1
 93
4
 72
1
 10
377.4999999999999432
 20
31.4999999999999574
 11
441.9999999999999432
 21
31.5
 72
1
 10
441.9999999999999432
 20
31.5
 11
441.9999999999999432
 21
30.4999999999999858
 72
1
 10
441.9999999999999432
 20
30.4999999999999858
 11
377.4999999999998295
 21
30.5
 72
1
 10
377.4999999999998863
 20
30.4999999999999858
 11
377.4999999999999432
 21
31.4999999999999574
 97
0
 75
0
 76
1
 52
5156.6201561774087168
 41
0.0556776993060274
 77
0
 78
1
 53
45.0
 43
0.0
 44
0.0
 45
-0.0883883476483184
 46
0.0883883476483185
 79
0
 98
0
1001
ACAD
1010
0.0
1020
0.0
1030
0
  0
HATCH
  5
6C
100
AcDbEntity
  8
0
 62
256
370
-1
 48
1.0
  6
ByLayer
100
AcDbHatch
 10
0.0
 20
0.0
 30
0.0
210
0.0
220
0.0
230
1.0
  2
ANSI31
 70
0
 71
0
 91
1
 92
1
 93
4
 72
1
 10
377.4999999999999432
 20
168.5000000000000284
 11
441.9999999999999432
 21
168.5
 72
1
 10
441.9999999999999432
 20
168.5
 11
441.9999999999999432
 21
169.5
 72
1
 10
441.9999999999999432
 20
169.5
 11
377.4999999999998863
 21
169.5
 72
1
 10
377.4999999999999432
 20
169.5
 11
377.4999999999999432
 21
168.5000000000000284
 97
0
 75
0
 76
1
 52
5156.6201561774087168
 41
0.0556776993060274
 77
0
 78
1
 53
45.0
 43
0.0
 44
0.0
 45
-0.0883883476483184
 46
0.0883883476483185
 79
0
 98
0
1001
ACAD
1010
0.0
1020
0.0
1030
0
  0
HATCH
  5
6D
100
AcDbEntity
  8
0
 62
256
370
-1
 48
1.0
  6
ByLayer
100
AcDbHatch
 10
0.0
 20
0.0
 30
0.0
210
0.0
220
0.0
230
1.0
  2
ANSI31
 70
0
 71
0
 91
1
 92
1
 93
4
 72
1
 10
442.9999999999999432
 20
31.4999999999999289
 11
447.0
 21
31.4999999999999716
 72
1
 10
446.9999999999999432
 20
31.5000000000000284
 11
446.9999999999998863
 21
30.4999999999999716
 72
1
 10
446.9999999999998863
 20
30.4999999999999716
 11
442.9999999999999432
 21
30.5
 72
1
 10
442.9999999999999432
 20
30.5
 11
442.9999999999999432
 21
31.4999999999999574
 97
0
 75
0
 76
1
 52
5156.6201561774087168
 41
0.0556776993060274
 77
0
 78
1
 53
45.0
 43
0.0
 44
0.0
 45
-0.0883883476483184
 46
0.0883883476483185
 79
0
 98
0
1001
ACAD
1010
0.0
1020
0.0
1030
0
  0
HATCH
  5
6E
100
AcDbEntity
  8
0
 62
256
370
-1
 48
1.0
  6
ByLayer
100
AcDbHatch
 10
0.0
 20
0.0
 30
0.0
210
0.0
220
0.0
230
1.0
  2
ANSI31
 70
0
 71
0
 91
1
 92
1
 93
4
 72
1
 10
443.0
 20
168.5000000000000284
 11
447.0
 21
168.5000000000000284
 72
1
 10
446.9999999999999432
 20
168.5
 11
446.9999999999999432
 21
169.5
 72
1
 10
446.9999999999999432
 20
169.5
 11
442.9999999999999432
 21
169.5
 72
1
 10
442.9999999999999432
 20
169.5
 11
442.9999999999999432
 21
168.5000000000000284
 97
0
 75
0
 76
1
 52
5156.6201561774087168
 41
0.0556776993060274
 77
0
 78
1
 53
45.0
 43
0.0
 44
0.0
 45
-0.0883883476483184
 46
0.0883883476483185
 79
0
 98
0
1001
ACAD
1010
0.0
1020
0.0
1030
0
  0
HATCH
  5
6F
100
AcDbEntity
  8
0
 62
256
370
-1
 48
1.0
  6
ByLayer
100
AcDbHatch
 10
0.0
 20
0.0
 30
0.0
210
0.0
220
0.0
230
1.0
  2
ANSI31
 70
0
 71
0
 91
1
 92
1
 93
4
 72
1
 10
451.4999999999998863
 20
30.4999999999999716
 11
451.4999999999999432
 21
31.4999999999999716
 72
1
 10
451.4999999999999432
 20
31.4999999999999574
 11
447.9999999999998863
 21
31.4999999999999432
 72
1
 10
447.9999999999998863
 20
31.4999999999999432
 11
447.9999999999999432
 21
30.4999999999999858
 72
1
 10
447.9999999999999432
 20
30.4999999999999858
 11
451.4999999999998863
 21
30.4999999999999716
 97
0
 75
0
 76
1
 52
5156.6201561774087168
 41
0.0556776993060274
 77
0
 78
1
 53
45.0
 43
0.0
 44
0.0
 45
-0.0883883476483184
 46
0.0883883476483185
 79
0
 98
0
1001
ACAD
1010
0.0
1020
0.0
1030
0
  0
HATCH
  5
70
100
AcDbEntity
  8
0
 62
256
370
-1
 48
1.0
  6
ByLayer
100
AcDbHatch
 10
0.0
 20
0.0
 30
0.0
210
0.0
220
0.0
230
1.0
  2
ANSI31
 70
0
 71
0
 91
1
 92
1
 93
4
 72
1
 10
451.4999999999999432
 20
169.5
 11
451.4999999999999432
 21
168.5
 72
1
 10
451.4999999999999432
 20
168.5000000000000284
 11
447.9999999999999432
 21
168.5000000000000284
 72
1
 10
447.9999999999999432
 20
168.5000000000000284
 11
447.9999999999999432
 21
169.5
 72
1
 10
447.9999999999999432
 20
169.5
 11
451.4999999999999432
 21
169.5
 97
0
 75
0
 76
1
 52
5156.6201561774087168
 41
0.0556776993060274
 77
0
 78
1
 53
45.0
 43
0.0
 44
0.0
 45
-0.0883883476483184
 46
0.0883883476483185
 79
0
 98
0
1001
ACAD
1010
0.0
1020
0.0
1030
0
  0
HATCH
  5
71
100
AcDbEntity
  8
0
 62
256
370
-1
 48
1.0
  6
ByLayer
100
AcDbHatch
 10
0.0
 20
0.0
 30
0.0
210
0.0
220
0.0
230
1.0
  2
ANSI31
 70
0
 71
0
 91
1
 92
1
 93
7
 72
1
 10
320.0
 20
168.5000000000000284
 11
376.4999999999999432
 21
168.5000000000000284
 72
1
 10
376.4999999999999432
 20
168.5000000000000284
 11
376.4999999999999432
 21
169.5
 72
1
 10
376.4999999999999432
 20
169.5
 11
320.0
 21
169.5
 72
1
 10
320.0
 20
169.5
 11
307.5
 21
169.5000000000000284
 72
1
 10
307.5
 20
169.5000000000000284
 11
307.5
 21
168.5000000000000284
 72
1
 10
307.5
 20
168.5000000000000284
 11
309.0
 21
168.5000000000000284
 72
1
 10
309.0
 20
168.5000000000000284
 11
320.0
 21
168.5000000000000284
 97
0
 75
0
 76
1
 52
5156.6201561774087168
 41
0.0556776993060274
 77
0
 78
1
 53
45.0
 43
0.0
 44
0.0
 45
-0.0883883476483184
 46
0.0883883476483185
 79
0
 98
0
1001
ACAD
1010
0.0
1020
0.0
1030
0
  0
HATCH
  5
72
100
AcDbEntity
  8
0
 62
256
370
-1
 48
1.0
  6
ByLayer
100
AcDbHatch
 10
0.0
 20
0.0
 30
0.0
210
0.0
220
0.0
230
1.0
  2
ANSI31
 70
0
 71
0
 91
1
 92
1
 93
7
 72
1
 10
319.9999999999999432
 20
31.5
 11
376.4999999999999432
 21
31.4999999999999716
 72
1
 10
376.4999999999999432
 20
31.4999999999999716
 11
376.4999999999999432
 21
30.5
 72
1
 10
376.4999999999999432
 20
30.5
 11
320.0
 21
30.5000000000000142
 72
1
 10
320.0
 20
30.5000000000000142
 11
307.5
 21
30.5000000000000142
 72
1
 10
307.5
 20
30.5000000000000142
 11
307.4999999999999432
 21
31.5000000000000142
 72
1
 10
307.4999999999999432
 20
31.5000000000000142
 11
309.0
 21
31.5
 72
1
 10
309.0
 20
31.5
 11
319.9999999999999432
 21
31.5
 97
0
 75
0
 76
1
 52
5156.6201561774087168
 41
0.0556776993060274
 77
0
 78
1
 53
45.0
 43
0.0
 44
0.0
 45
-0.0883883476483184
 46
0.0883883476483185
 79
0
 98
0
1001
ACAD
1010
0.0
1020
0.0
1030
0
  0
HATCH
  5
73
100
AcDbEntity
  8
0
 62
256
370
-1
 48
1.0
  6
ByLayer
100
AcDbHatch
 10
0.0
 20
0.0
 30
0.0
210
0.0
220
0.0
230
1.0
  2
ANSI31
 70
0
 71
0
 91
1
 92
1
 93
5
 72
1
 10
303.0
 20
169.5000000000000284
 11
306.5
 21
169.5000000000000284
 72
1
 10
306.5
 20
169.5000000000000284
 11
306.5
 21
168.5000000000000284
 72
1
 10
306.5000000000000568
 20
168.5000000000000284
 11
304.0
 21
168.5000000000000284
 72
1
 10
304.0
 20
168.5000000000000284
 11
303.0
 21
168.5000000000000284
 72
1
 10
303.0
 20
168.5
 11
303.0
 21
169.5000000000000284
 97
0
 75
0
 76
1
 52
5156.6201561774087168
 41
0.0556776993060274
 77
0
 78
1
 53
45.0
 43
0.0
 44
0.0
 45
-0.0883883476483184
 46
0.0883883476483185
 79
0
 98
0
1001
ACAD
1010
0.0
1020
0.0
1030
0
  0
HATCH
  5
74
100
AcDbEntity
  8
0
 62
256
370
-1
 48
1.0
  6
ByLayer
100
AcDbHatch
 10
0.0
 20
0.0
 30
0.0
210
0.0
220
0.0
230
1.0
  2
ANSI31
 70
0
 71
0
 91
1
 92
1
 93
5
 72
1
 10
303.0
 20
30.4999999999999716
 11
306.5
 21
30.4999999999999858
 72
1
 10
306.5
 20
30.4999999999999858
 11
306.5
 21
31.4999999999999858
 72
1
 10
306.5000000000000568
 20
31.4999999999999858
 11
304.0
 21
31.5
 72
1
 10
304.0
 20
31.5
 11
303.0
 21
31.5
 72
1
 10
303.0
 20
31.5000000000000284
 11
303.0
 21
30.4999999999999716
 97
0
 75
0
 76
1
 52
5156.6201561774087168
 41
0.0556776993060274
 77
0
 78
1
 53
45.0
 43
0.0
 44
0.0
 45
-0.0883883476483184
 46
0.0883883476483185
 79
0
 98
0
1001
ACAD
1010
0.0
1020
0.0
1030
0
  0
HATCH
  5
75
100
AcDbEntity
  8
0
 62
256
370
-1
 48
1.0
  6
ByLayer
100
AcDbHatch
 10
0.0
 20
0.0
 30
0.0
210
0.0
220
0.0
230
1.0
  2
ANSI31
 70
0
 71
0
 91
1
 92
1
 93
4
 72
1
 10
299.0
 20
163.0
 11
299.0
 21
160.0
 72
1
 10
299.0
 20
160.0
 11
302.0
 21
160.0
 72
1
 10
302.0
 20
160.0
 11
302.0
 21
163.0
 72
1
 10
302.0
 20
163.0
 11
299.0
 21
163.0
 97
0
 75
0
 76
1
 52
0.0
 41
0.0334066195836164
 77
0
 78
1
 53
45.0
 43
0.0
 44
0.0
 45
-0.0883883476483184
 46
0.0883883476483185
 79
0
 98
0
1001
ACAD
1010
0.0
1020
0.0
1030
0
  0
HATCH
  5
76
100
AcDbEntity
  8
0
 62
256
370
-1
 48
1.0
  6
ByLayer
100
AcDbHatch
 10
0.0
 20
0.0
 30
0.0
210
0.0
220
0.0
230
1.0
  2
ANSI31
 70
0
 71
0
 91
1
 92
1
 93
4
 72
1
 10
299.0
 20
37.0000000000000284
 11
299.0
 21
40.0000000000000071
 72
1
 10
299.0
 20
40.0000000000000071
 11
302.0
 21
40.0000000000000426
 72
1
 10
302.0
 20
40.0000000000000426
 11
302.0
 21
37.0000000000000355
 72
1
 10
302.0
 20
37.0000000000000355
 11
299.0
 21
37.0000000000000284
 97
0
 75
0
 76
1
 52
0.0
 41
0.0334066195836164
 77
0
 78
1
 53
45.0
 43
0.0
 44
0.0
 45
-0.0883883476483184
 46
0.0883883476483185
 79
0
 98
0
1001
ACAD
1010
0.0
1020
0.0
1030
0
  0
HATCH
  5
77
100
AcDbEntity
  8
0
 62
256
370
-1
 48
1.0
  6
ByLayer
100
AcDbHatch
 10
0.0
 20
0.0
 30
0.0
210
0.0
220
0.0
230
1.0
  2
ANSI31
 70
0
 71
0
 91
1
 92
1
 93
9
 72
1
 10
304.0
 20
163.5000000000000284
 11
304.0
 21
165.0000000000000284
 72
1
 10
304.0
 20
165.0
 11
297.0
 21
165.0
 72
1
 10
297.0
 20
165.0
 11
297.0
 21
163.0
 72
1
 10
297.0
 20
163.0
 11
298.0
 21
163.0
 72
2
 10
298.5000000000000568
 20
163.0000000000000284
 40
0.5
 50
180.0
 51
360.0
 73
0
 72
1
 10
299.0
 20
163.0
 11
302.0
 21
163.0
 72
1
 10
302.0
 20
163.0
 11
302.0
 21
160.0
 72
1
 10
302.0
 20
160.0
 11
304.0
 21
160.0
 72
1
 10
304.0
 20
160.0
 11
304.0
 21
163.5000000000000284
 97
0
 75
0
 76
1
 52
5156.6201561774087168
 41
0.0668132391672328
 77
0
 78
1
 53
45.0
 43
0.0
 44
0.0
 45
-0.0883883476483184
 46
0.0883883476483185
 79
0
 98
0
1001
ACAD
1010
0.0
1020
0.0
1030
0
  0
HATCH
  5
78
100
AcDbEntity
  8
0
 62
256
370
-1
 48
1.0
  6
ByLayer
100
AcDbHatch
 10
0.0
 20
0.0
 30
0.0
210
0.0
220
0.0
230
1.0
  2
ANSI31
 70
0
 71
0
 91
1
 92
1
 93
9
 72
1
 10
303.9999999999999432
 20
36.5000000000000071
 11
304.0
 21
34.9999999999999858
 72
1
 10
304.0
 20
35.0000000000000284
 11
297.0
 21
35.0000000000000284
 72
1
 10
297.0
 20
35.0000000000000284
 11
297.0
 21
37.0
 72
1
 10
297.0
 20
37.0
 11
298.0
 21
37.0000000000000213
 72
2
 10
298.5
 20
36.9999999999999858
 40
0.5
 50
180.0
 51
0.0
 73
1
 72
1
 10
299.0
 20
37.0000000000000284
 11
302.0
 21
37.0000000000000355
 72
1
 10
302.0
 20
37.0000000000000355
 11
302.0
 21
40.0000000000000426
 72
1
 10
302.0
 20
40.0000000000000426
 11
304.0
 21
40.0000000000000213
 72
1
 10
304.0
 20
40.0000000000000213
 11
303.9999999999999432
 21
36.5000000000000071
 97
0
 75
0
 76
1
 52
5156.6201561774087168
 41
0.0668132391672328
 77
0
 78
1
 53
45.0
 43
0.0
 44
0.0
 45
-0.0883883476483184
 46
0.0883883476483185
 79
0
 98
0
1001
ACAD
1010
0.0
1020
0.0
1030
0
  0
HATCH
  5
79
100
AcDbEntity
  8
0
 62
256
370
-1
 48
1.0
  6
ByLayer
100
AcDbHatch
 10
0.0
 20
0.0
 30
0.0
210
0.0
220
0.0
230
1.0
  2
ANSI31
 70
0
 71
0
 91
1
 92
1
 93
4
 72
1
 10
297.0
 20
168.0
 11
304.0
 21
168.0
 72
1
 10
304.0
 20
168.0
 11
304.0
 21
166.0000000000000284
 72
1
 10
304.0
 20
166.0
 11
297.0
 21
166.0
 72
1
 10
297.0
 20
166.0
 11
297.0
 21
168.0
 97
0
 75
0
 76
1
 52
5156.6201561774087168
 41
0.0668132391672328
 77
0
 78
1
 53
45.0
 43
0.0
 44
0.0
 45
-0.0883883476483184
 46
0.0883883476483185
 79
0
 98
0
1001
ACAD
1010
0.0
1020
0.0
1030
0
  0
HATCH
  5
7A
100
AcDbEntity
  8
0
 62
256
370
-1
 48
1.0
  6
ByLayer
100
AcDbHatch
 10
0.0
 20
0.0
 30
0.0
210
0.0
220
0.0
230
1.0
  2
ANSI31
 70
0
 71
0
 91
1
 92
1
 93
4
 72
1
 10
297.0
 20
32.0000000000000426
 11
304.0
 21
32.0000000000000142
 72
1
 10
304.0
 20
32.0000000000000142
 11
304.0
 21
34.0
 72
1
 10
304.0
 20
34.0000000000000284
 11
297.0
 21
34.0000000000000426
 72
1
 10
297.0
 20
34.0000000000000426
 11
297.0
 21
32.0000000000000426
 97
0
 75
0
 76
1
 52
5156.6201561774087168
 41
0.0668132391672328
 77
0
 78
1
 53
45.0
 43
0.0
 44
0.0
 45
-0.0883883476483184
 46
0.0883883476483185
 79
0
 98
0
1001
ACAD
1010
0.0
1020
0.0
1030
0
  0
HATCH
  5
7B
100
AcDbEntity
  8
0
 62
256
370
-1
 48
1.0
  6
ByLayer
100
AcDbHatch
 10
0.0
 20
0.0
 30
0.0
210
0.0
220
0.0
230
1.0
  2
ANSI31
 70
0
 71
0
 91
1
 92
1
 93
4
 72
1
 10
304.0
 20
163.5000000000000284
 11
304.0
 21
165.0000000000000284
 72
1
 10
304.0
 20
165.0000000000000284
 11
305.0
 21
165.0000000000000284
 72
1
 10
305.0
 20
165.0000000000000284
 11
305.0
 21
163.5000000000000284
 72
1
 10
305.0
 20
163.5000000000000284
 11
304.0
 21
163.5000000000000284
 97
0
 75
0
 76
1
 52
0.0
 41
0.0445421594448219
 77
0
 78
1
 53
45.0
 43
0.0
 44
0.0
 45
-0.0883883476483184
 46
0.0883883476483185
 79
0
 98
0
1001
ACAD
1010
0.0
1020
0.0
1030
0
  0
HATCH
  5
7C
100
AcDbEntity
  8
0
 62
256
370
-1
 48
1.0
  6
ByLayer
100
AcDbHatch
 10
0.0
 20
0.0
 30
0.0
210
0.0
220
0.0
230
1.0
  2
ANSI31
 70
0
 71
0
 91
1
 92
1
 93
4
 72
1
 10
303.9999999999999432
 20
36.5000000000000071
 11
304.0
 21
34.9999999999999858
 72
1
 10
304.0
 20
34.9999999999999858
 11
305.0
 21
35.0000000000000142
 72
1
 10
305.0
 20
35.0000000000000142
 11
305.0
 21
36.4999999999999787
 72
1
 10
305.0
 20
36.4999999999999787
 11
303.9999999999999432
 21
36.5000000000000071
 97
0
 75
0
 76
1
 52
0.0
 41
0.0445421594448219
 77
0
 78
1
 53
45.0
 43
0.0
 44
0.0
 45
-0.0883883476483184
 46
0.0883883476483185
 79
0
 98
0
1001
ACAD
1010
0.0
1020
0.0
1030
0
  0
HATCH
  5
7D
100
AcDbEntity
  8
0
 62
256
370
-1
 48
1.0
  6
ByLayer
100
AcDbHatch
 10
0.0
 20
0.0
 30
0.0
210
0.0
220
0.0
230
1.0
  2
ANSI31
 70
0
 71
0
 91
1
 92
1
 93
7
 72
1
 10
306.5000000000000568
 20
167.5
 11
306.5000000000000568
 21
168.5
 72
1
 10
306.5000000000000568
 20
168.5000000000000284
 11
304.0
 21
168.5000000000000284
 72
1
 10
304.0
 20
168.5000000000000284
 11
304.0
 21
167.5000000000000284
 72
1
 10
304.0
 20
167.5000000000000284
 11
304.0
 21
166.0000000000000284
 72
1
 10
304.0
 20
166.0000000000000284
 11
305.0
 21
166.0000000000000284
 72
1
 10
305.0
 20
166.0000000000000284
 11
305.0
 21
167.5000000000000284
 72
1
 10
305.0
 20
167.5000000000000284
 11
306.5000000000000568
 21
167.5000000000000284
 97
0
 75
0
 76
1
 52
0.0
 41
0.0445421594448219
 77
0
 78
1
 53
45.0
 43
0.0
 44
0.0
 45
-0.0883883476483184
 46
0.0883883476483185
 79
0
 98
0
1001
ACAD
1010
0.0
1020
0.0
1030
0
  0
HATCH
  5
7E
100
AcDbEntity
  8
0
 62
256
370
-1
 48
1.0
  6
ByLayer
100
AcDbHatch
 10
0.0
 20
0.0
 30
0.0
210
0.0
220
0.0
230
1.0
  2
ANSI31
 70
0
 71
0
 91
1
 92
1
 93
7
 72
1
 10
306.5000000000000568
 20
32.5
 11
306.5000000000000568
 21
31.5
 72
1
 10
306.5000000000000568
 20
31.4999999999999858
 11
304.0
 21
31.5
 72
1
 10
304.0
 20
31.5
 11
304.0
 21
32.4999999999999858
 72
1
 10
304.0
 20
32.4999999999999858
 11
304.0
 21
34.0
 72
1
 10
304.0
 20
34.0
 11
305.0
 21
33.9999999999999858
 72
1
 10
305.0
 20
33.9999999999999858
 11
305.0
 21
32.5000000000000142
 72
1
 10
305.0
 20
32.5000000000000142
 11
306.5000000000000568
 21
32.4999999999999858
 97
0
 75
0
 76
1
 52
0.0
 41
0.0445421594448219
 77
0
 78
1
 53
45.0
 43
0.0
 44
0.0
 45
-0.0883883476483184
 46
0.0883883476483185
 79
0
 98
0
1001
ACAD
1010
0.0
1020
0.0
1030
0
  0
HATCH
  5
7F
100
AcDbEntity
  8
0
 62
256
370
-1
 48
1.0
  6
ByLayer
100
AcDbHatch
 10
0.0
 20
0.0
 30
0.0
210
0.0
220
0.0
230
1.0
  2
ANSI31
 70
0
 71
0
 91
1
 92
1
 93
4
 72
1
 10
307.5000000000000568
 20
167.5
 11
307.5000000000000568
 21
168.5
 72
1
 10
307.5
 20
168.5000000000000284
 11
309.0
 21
168.5000000000000284
 72
1
 10
309.0
 20
168.5000000000000284
 11
309.0
 21
167.5000000000000284
 72
1
 10
309.0
 20
167.5000000000000284
 11
307.5000000000000568
 21
167.5000000000000284
 97
0
 75
0
 76
1
 52
0.0
 41
0.0445421594448219
 77
0
 78
1
 53
45.0
 43
0.0
 44
0.0
 45
-0.0883883476483184
 46
0.0883883476483185
 79
0
 98
0
1001
ACAD
1010
0.0
1020
0.0
1030
0
  0
HATCH
  5
80
100
AcDbEntity
  8
0
 62
256
370
-1
 48
1.0
  6
ByLayer
100
AcDbHatch
 10
0.0
 20
0.0
 30
0.0
210
0.0
220
0.0
230
1.0
  2
ANSI31
 70
0
 71
0
 91
1
 92
1
 93
4
 72
1
 10
307.5000000000000568
 20
32.5000000000000142
 11
307.5
 21
31.5000000000000284
 72
1
 10
307.4999999999999432
 20
31.5000000000000142
 11
309.0
 21
31.5
 72
1
 10
309.0
 20
31.5
 11
309.0
 21
32.4999999999999716
 72
1
 10
309.0
 20
32.4999999999999716
 11
307.5000000000000568
 21
32.5
 97
0
 75
0
 76
1
 52
0.0
 41
0.0445421594448219
 77
0
 78
1
 53
45.0
 43
0.0
 44
0.0
 45
-0.0883883476483184
 46
0.0883883476483185
 79
0
 98
0
1001
ACAD
1010
0.0
1020
0.0
1030
0
  0
HATCH
  5
81
100
AcDbEntity
  8
0
 62
256
370
-1
 48
1.0
  6
ByLayer
100
AcDbHatch
 10
0.0
 20
0.0
 30
0.0
210
0.0
220
0.0
230
1.0
  2
ANSI31
 70
0
 71
0
 91
1
 92
1
 93
4
 72
1
 10
462.6600000000000819
 20
176.2000000000000171
 11
462.6600000000000819
 21
185.5500000000000398
 72
1
 10
462.6600000000000819
 20
185.5500000000000398
 11
460.6600000000000819
 21
185.5500000000000398
 72
1
 10
460.6600000000000819
 20
185.5500000000000398
 11
460.6600000000000819
 21
176.2000000000000171
 72
1
 10
460.6600000000000819
 20
176.2000000000000171
 11
462.6600000000000819
 21
176.2000000000000171
 97
0
 75
0
 76
1
 52
0.0
 41
0.0890843188896438
 77
0
 78
1
 53
45.0
 43
0.0
 44
0.0
 45
-0.0883883476483184
 46
0.0883883476483185
 79
0
 98
0
1001
ACAD
1010
0.0
1020
0.0
1030
0
  0
HATCH
  5
82
100
AcDbEntity
  8
0
 62
256
370
-1
 48
1.0
  6
ByLayer
100
AcDbHatch
 10
0.0
 20
0.0
 30
0.0
210
0.0
220
0.0
230
1.0
  2
ANSI31
 70
0
 71
0
 91
1
 92
1
 93
4
 72
1
 10
462.6600000000000819
 20
23.7999999999999545
 11
462.6600000000000819
 21
14.4499999999999318
 72
1
 10
462.6600000000000819
 20
14.4499999999999318
 11
460.6600000000000819
 21
14.449999999999946
 72
1
 10
460.6600000000000819
 20
14.449999999999946
 11
460.6600000000000819
 21
23.7999999999999687
 72
1
 10
460.6600000000000819
 20
23.7999999999999687
 11
462.6600000000000819
 21
23.7999999999999545
 97
0
 75
0
 76
1
 52
0.0
 41
0.0890843188896438
 77
0
 78
1
 53
45.0
 43
0.0
 44
0.0
 45
-0.0883883476483184
 46
0.0883883476483185
 79
0
 98
0
1001
ACAD
1010
0.0
1020
0.0
1030
0
  0
CIRCLE
  5
83
100
AcDbEntity
  8
help
 62
256
370
-1
 48
1.0
  6
ByLayer
100
AcDbCircle
 10
200.0
 20
100.0
 30
0.0
 40
65.5
  0
LINE
  5
84
100
AcDbEntity
  8
help
 62
256
370
-1
 48
1.0
  6
ByLayer
100
AcDbLine
 10
200.0
 20
168.0000000000000284
 30
0.0
 11
330.0
 21
168.0000000000000284
 31
0.0
  0
LINE
  5
85
100
AcDbEntity
  8
help
 62
256
370
-1
 48
1.0
  6
ByLayer
100
AcDbLine
 10
200.0000000000000284
 20
168.0000000000000284
 30
0.0
 11
330.0
 21
168.0000000000000284
 31
0.0
  0
LINE
  5
86
100
AcDbEntity
  8
help
 62
256
370
-1
 48
1.0
  6
ByLayer
100
AcDbLine
 10
200.0000000000000284
 20
165.5000000000000284
 30
0.0
 11
330.0
 21
165.5000000000000284
 31
0.0
  0
LINE
  5
87
100
AcDbEntity
  8
help
 62
256
370
-1
 48
1.0
  6
ByLayer
100
AcDbLine
 10
200.0
 20
163.0
 30
0.0
 11
330.0
 21
163.0
 31
0.0
  0
LINE
  5
88
100
AcDbEntity
  8
help
 62
256
370
-1
 48
1.0
  6
ByLayer
100
AcDbLine
 10
200.0
 20
160.0
 30
0.0
 11
330.0
 21
160.0
 31
0.0
  0
CIRCLE
  5
89
100
AcDbEntity
  8
0
 62
256
370
-1
 48
1.0
  6
ByLayer
100
AcDbCircle
 10
200.0
 20
100.0
 30
0.0
 40
60.0
  0
CIRCLE
  5
8A
100
AcDbEntity
  8
0
 62
256
370
-1
 48
1.0
  6
ByLayer
100
AcDbCircle
 10
200.0
 20
100.0
 30
0.0
 40
63.0
  0
CIRCLE
  5
8B
100
AcDbEntity
  8
0
 62
256
370
-1
 48
1.0
  6
ByLayer
100
AcDbCircle
 10
200.0
 20
100.0
 30
0.0
 40
68.0
  0
CIRCLE
  5
8C
100
AcDbEntity
  8
0
 62
256
370
-1
 48
1.0
  6
ByLayer
100
AcDbCircle
 10
200.0
 20
165.5000000000000284
 30
0.0
 40
0.5
  0
LINE
  5
8D
100
AcDbEntity
  8
0
 62
256
370
-1
 48
1.0
  6
ByLayer
100
AcDbLine
 10
202.0000000000000568
 20
169.5000000000000284
 30
0.0
 11
200.5000000000000284
 21
169.5000000000000284
 31
0.0
  0
LINE
  5
8E
100
AcDbEntity
  8
0
 62
256
370
-1
 48
1.0
  6
ByLayer
100
AcDbLine
 10
200.5000000000000284
 20
169.5000000000000284
 30
0.0
 11
199.5000000000000284
 21
169.5000000000000284
 31
0.0
  0
LINE
  5
8F
100
AcDbEntity
  8
0
 62
256
370
-1
 48
1.0
  6
ByLayer
100
AcDbLine
 10
199.5000000000000284
 20
169.5000000000000284
 30
0.0
 11
198.0000000000000568
 21
169.5000000000000284
 31
0.0
  0
LINE
  5
90
100
AcDbEntity
  8
0
 62
256
370
-1
 48
1.0
  6
ByLayer
100
AcDbLine
 10
198.0000000000000568
 20
169.5000000000000284
 30
0.0
 11
198.0000000000000568
 21
173.5000000000000284
 31
0.0
  0
LINE
  5
91
100
AcDbEntity
  8
0
 62
256
370
-1
 48
1.0
  6
ByLayer
100
AcDbLine
 10
198.0000000000000568
 20
173.5000000000000284
 30
0.0
 11
197.0000000000000568
 21
173.5000000000000284
 31
0.0
  0
LINE
  5
92
100
AcDbEntity
  8
0
 62
256
370
-1
 48
1.0
  6
ByLayer
100
AcDbLine
 10
197.0000000000000568
 20
173.5000000000000284
 30
0.0
 11
197.0000000000000284
 21
168.5000000000000568
 31
0.0
  0
LINE
  5
93
100
AcDbEntity
  8
0
 62
256
370
-1
 48
1.0
  6
ByLayer
100
AcDbLine
 10
197.0000000000000284
 20
168.5000000000000568
 30
0.0
 11
199.5000000000000284
 21
168.5000000000000568
 31
0.0
  0
LINE
  5
94
100
AcDbEntity
  8
0
 62
256
370
-1
 48
1.0
  6
ByLayer
100
AcDbLine
 10
199.5000000000000284
 20
168.5000000000000568
 30
0.0
 11
200.5000000000000284
 21
168.5000000000000568
 31
0.0
  0
LINE
  5
95
100
AcDbEntity
  8
0
 62
256
370
-1
 48
1.0
  6
ByLayer
100
AcDbLine
 10
200.5000000000000284
 20
168.5000000000000568
 30
0.0
 11
202.0000000000000568
 21
168.5000000000000568
 31
0.0
  0
LINE
  5
96
100
AcDbEntity
  8
0
 62
256
370
-1
 48
1.0
  6
ByLayer
100
AcDbLine
 10
202.0000000000000568
 20
168.5000000000000568
 30
0.0
 11
202.0000000000000568
 21
169.5000000000000568
 31
0.0
  0
LINE
  5
97
100
AcDbEntity
  8
0
 62
256
370
-1
 48
1.0
  6
ByLayer
100
AcDbLine
 10
197.5000000000000284
 20
163.5
 30
0.0
 11
202.5000000000000284
 21
163.5
 31
0.0
  0
LINE
  5
98
100
AcDbEntity
  8
0
 62
256
370
-1
 48
1.0
  6
ByLayer
100
AcDbLine
 10
202.5000000000000284
 20
167.5000000000000284
 30
0.0
 11
202.5000000000000284
 21
168.5000000000000284
 31
0.0
  0
LINE
  5
99
100
AcDbEntity
  8
0
 62
256
370
-1
 48
1.0
  6
ByLayer
100
AcDbLine
 10
202.5000000000000284
 20
163.5
 30
0.0
 11
202.5000000000000284
 21
167.5000000000000284
 31
0.0
  0
LINE
  5
9A
100
AcDbEntity
  8
0
 62
256
370
-1
 48
1.0
  6
ByLayer
100
AcDbLine
 10
200.5000000000000284
 20
168.5000000000000284
 30
0.0
 11
199.5000000000000284
 21
168.5000000000000284
 31
0.0
  0
LINE
  5
9B
100
AcDbEntity
  8
0
 62
256
370
-1
 48
1.0
  6
ByLayer
100
AcDbLine
 10
199.5000000000000284
 20
168.5000000000000284
 30
0.0
 11
197.5000000000000284
 21
168.5000000000000284
 31
0.0
  0
LINE
  5
9C
100
AcDbEntity
  8
0
 62
256
370
-1
 48
1.0
  6
ByLayer
100
AcDbLine
 10
202.5000000000000284
 20
168.5000000000000284
 30
0.0
 11
200.5000000000000284
 21
168.5000000000000284
 31
0.0
  0
LINE
  5
9D
100
AcDbEntity
  8
0
 62
256
370
-1
 48
1.0
  6
ByLayer
100
AcDbLine
 10
197.5000000000000284
 20
168.5000000000000284
 30
0.0
 11
197.5000000000000284
 21
167.5000000000000284
 31
0.0
  0
LINE
  5
9E
100
AcDbEntity
  8
0
 62
256
370
-1
 48
1.0
  6
ByLayer
100
AcDbLine
 10
197.5000000000000284
 20
167.5000000000000284
 30
0.0
 11
197.5000000000000284
 21
163.5
 31
0.0
  0
LINE
  5
9F
100
AcDbEntity
  8
0
 62
256
370
-1
 48
1.0
  6
ByLayer
100
AcDbLine
 10
200.5000000000000284
 20
167.5000000000000284
 30
0.0
 11
202.5000000000000284
 21
167.5000000000000284
 31
0.0
  0
LINE
  5
A0
100
AcDbEntity
  8
0
 62
256
370
-1
 48
1.0
  6
ByLayer
100
AcDbLine
 10
197.5000000000000284
 20
167.5000000000000284
 30
0.0
 11
199.5000000000000284
 21
167.5000000000000284
 31
0.0
  0
LINE
  5
A1
100
AcDbEntity
  8
0
 62
256
370
-1
 48
1.0
  6
ByLayer
100
AcDbLine
 10
199.5000000000000284
 20
167.5000000000000284
 30
0.0
 11
200.5000000000000284
 21
167.5000000000000284
 31
0.0
  0
LINE
  5
A2
100
AcDbEntity
  8
holes
 62
256
370
-1
 48
1.0
  6
ByLayer
100
AcDbLine
 10
199.5000000000000284
 20
168.5000000000000284
 30
0.0
 11
199.5000000000000284
 21
169.5000000000000284
 31
0.0
  0
LINE
  5
A3
100
AcDbEntity
  8
holes
 62
256
370
-1
 48
1.0
  6
ByLayer
100
AcDbLine
 10
199.5000000000000284
 20
168.5000000000000284
 30
0.0
 11
199.5000000000000284
 21
167.5000000000000284
 31
0.0
  0
LINE
  5
A4
100
AcDbEntity
  8
holes
 62
256
370
-1
 48
1.0
  6
ByLayer
100
AcDbLine
 10
200.5000000000000284
 20
167.5
 30
0.0
 11
200.5000000000000284
 21
168.5
 31
0.0
  0
LINE
  5
A5
100
AcDbEntity
  8
holes
 62
256
370
-1
 48
1.0
  6
ByLayer
100
AcDbLine
 10
200.5000000000000284
 20
169.5
 30
0.0
 11
200.5000000000000284
 21
168.5
 31
0.0
  0
LINE
  5
A6
100
AcDbEntity
  8
axis
 62
256
370
-1
 48
1.0
  6
ByLayer
100
AcDbLine
 10
200.0
 20
170.0000000000000284
 30
0.0
 11
200.0
 21
167.0000000000000284
 31
0.0
  0
LINE
  5
A7
100
AcDbEntity
  8
0
 62
256
370
-1
 48
1.0
  6
ByLayer
100
AcDbLine
 10
304.0
 20
34.0
 30
0.0
 11
303.9999999999999432
 21
36.5000000000000071
 31
0.0
  0
LINE
  5
A8
100
AcDbEntity
  8
0
 62
256
370
-1
 48
1.0
  6
ByLayer
100
AcDbLine
 10
304.0
 20
32.0000000000000142
 30
0.0
 11
304.0
 21
34.0
 31
0.0
  0
LINE
  5
A9
100
AcDbEntity
  8
0
 62
256
370
-1
 48
1.0
  6
ByLayer
100
AcDbLine
 10
303.9999999999999432
 20
36.5000000000000071
 30
0.0
 11
304.0
 21
40.0000000000000213
 31
0.0
  0
LINE
  5
AA
100
AcDbEntity
  8
0
 62
256
370
-1
 48
1.0
  6
ByLayer
100
AcDbLine
 10
304.0
 20
163.5000000000000284
 30
0.0
 11
304.0
 21
160.0
 31
0.0
  0
LINE
  5
AB
100
AcDbEntity
  8
0
 62
256
370
-1
 48
1.0
  6
ByLayer
100
AcDbLine
 10
304.0
 20
166.0000000000000284
 30
0.0
 11
304.0
 21
163.5000000000000284
 31
0.0
  0
LINE
  5
AC
100
AcDbEntity
  8
0
 62
256
370
-1
 48
1.0
  6
ByLayer
100
AcDbLine
 10
304.0
 20
168.0
 30
0.0
 11
304.0
 21
166.0000000000000284
 31
0.0
  0
LINE
  5
AD
100
AcDbEntity
  8
0
 62
256
370
-1
 48
1.0
  6
ByLayer
100
AcDbLine
 10
304.0
 20
160.0
 30
0.0
 11
302.0
 21
160.0
 31
0.0
  0
LINE
  5
AE
100
AcDbEntity
  8
0
 62
256
370
-1
 48
1.0
  6
ByLayer
100
AcDbLine
 10
304.0
 20
40.0000000000000213
 30
0.0
 11
302.0
 21
40.0000000000000426
 31
0.0
  0
LINE
  5
AF
100
AcDbEntity
  8
0
 62
256
370
-1
 48
1.0
  6
ByLayer
100
AcDbLine
 10
302.0
 20
160.0
 30
0.0
 11
302.0
 21
163.0
 31
0.0
  0
LINE
  5
B0
100
AcDbEntity
  8
0
 62
256
370
-1
 48
1.0
  6
ByLayer
100
AcDbLine
 10
302.0
 20
40.0000000000000426
 30
0.0
 11
302.0
 21
37.0000000000000355
 31
0.0
  0
LINE
  5
B1
100
AcDbEntity
  8
0
 62
256
370
-1
 48
1.0
  6
ByLayer
100
AcDbLine
 10
302.0
 20
163.0
 30
0.0
 11
299.0
 21
163.0
 31
0.0
  0
LINE
  5
B2
100
AcDbEntity
  8
0
 62
256
370
-1
 48
1.0
  6
ByLayer
100
AcDbLine
 10
302.0
 20
37.0000000000000355
 30
0.0
 11
299.0
 21
37.0000000000000284
 31
0.0
  0
LINE
  5
B3
100
AcDbEntity
  8
0
 62
256
370
-1
 48
1.0
  6
ByLayer
100
AcDbLine
 10
298.0
 20
163.0
 30
0.0
 11
297.0
 21
163.0
 31
0.0
  0
LINE
  5
B4
100
AcDbEntity
  8
0
 62
256
370
-1
 48
1.0
  6
ByLayer
100
AcDbLine
 10
298.0
 20
37.0000000000000213
 30
0.0
 11
297.0
 21
37.0
 31
0.0
  0
LINE
  5
B5
100
AcDbEntity
  8
0
 62
256
370
-1
 48
1.0
  6
ByLayer
100
AcDbLine
 10
297.0
 20
35.0000000000000284
 30
0.0
 11
297.0
 21
34.0000000000000426
 31
0.0
  0
LINE
  5
B6
100
AcDbEntity
  8
0
 62
256
370
-1
 48
1.0
  6
ByLayer
100
AcDbLine
 10
297.0
 20
37.0
 30
0.0
 11
297.0
 21
35.0000000000000284
 31
0.0
  0
LINE
  5
B7
100
AcDbEntity
  8
0
 62
256
370
-1
 48
1.0
  6
ByLayer
100
AcDbLine
 10
297.0
 20
34.0000000000000426
 30
0.0
 11
297.0
 21
32.0000000000000426
 31
0.0
  0
LINE
  5
B8
100
AcDbEntity
  8
0
 62
256
370
-1
 48
1.0
  6
ByLayer
100
AcDbLine
 10
297.0
 20
165.0
 30
0.0
 11
297.0
 21
166.0
 31
0.0
  0
LINE
  5
B9
100
AcDbEntity
  8
0
 62
256
370
-1
 48
1.0
  6
ByLayer
100
AcDbLine
 10
297.0
 20
166.0
 30
0.0
 11
297.0
 21
168.0
 31
0.0
  0
LINE
  5
BA
100
AcDbEntity
  8
0
 62
256
370
-1
 48
1.0
  6
ByLayer
100
AcDbLine
 10
297.0
 20
163.0
 30
0.0
 11
297.0
 21
165.0
 31
0.0
  0
LINE
  5
BB
100
AcDbEntity
  8
0
 62
256
370
-1
 48
1.0
  6
ByLayer
100
AcDbLine
 10
297.0
 20
168.0
 30
0.0
 11
304.0
 21
168.0
 31
0.0
  0
LINE
  5
BC
100
AcDbEntity
  8
0
 62
256
370
-1
 48
1.0
  6
ByLayer
100
AcDbLine
 10
297.0
 20
32.0000000000000426
 30
0.0
 11
304.0
 21
32.0000000000000142
 31
0.0
  0
ARC
  5
BD
100
AcDbEntity
  8
0
 62
256
370
-1
 48
1.0
  6
ByLayer
100
AcDbCircle
 10
298.5000000000000568
 20
163.0000000000000284
 30
0.0
 40
0.5
100
AcDbArc
 50
0.0
 51
180.0
  0
ARC
  5
BE
100
AcDbEntity
  8
0
 62
256
370
-1
 48
1.0
  6
ByLayer
100
AcDbCircle
 10
298.5
 20
36.9999999999999858
 30
0.0
 40
0.5
100
AcDbArc
 50
180.0
 51
360.0
  0
LINE
  5
BF
100
AcDbEntity
  8
holes
 62
256
370
-1
 48
1.0
  6
ByLayer
100
AcDbLine
 10
304.0
 20
166.0
 30
0.0
 11
297.0
 21
166.0
 31
0.0
  0
LINE
  5
C0
100
AcDbEntity
  8
holes
 62
256
370
-1
 48
1.0
  6
ByLayer
100
AcDbLine
 10
304.0
 20
34.0000000000000284
 30
0.0
 11
297.0
 21
34.0000000000000426
 31
0.0
  0
LINE
  5
C1
100
AcDbEntity
  8
holes
 62
256
370
-1
 48
1.0
  6
ByLayer
100
AcDbLine
 10
297.0
 20
165.0
 30
0.0
 11
304.0
 21
165.0
 31
0.0
  0
LINE
  5
C2
100
AcDbEntity
  8
holes
 62
256
370
-1
 48
1.0
  6
ByLayer
100
AcDbLine
 10
297.0
 20
35.0000000000000284
 30
0.0
 11
304.0
 21
35.0000000000000284
 31
0.0
  0
LINE
  5
C3
100
AcDbEntity
  8
holes
 62
256
370
-1
 48
1.0
  6
ByLayer
100
AcDbLine
 10
304.0
 20
166.0000000000000284
 30
0.0
 11
305.0
 21
166.0000000000000284
 31
0.0
  0
LINE
  5
C4
100
AcDbEntity
  8
holes
 62
256
370
-1
 48
1.0
  6
ByLayer
100
AcDbLine
 10
304.0
 20
34.0
 30
0.0
 11
305.0
 21
33.9999999999999858
 31
0.0
  0
LINE
  5
C5
100
AcDbEntity
  8
holes
 62
256
370
-1
 48
1.0
  6
ByLayer
100
AcDbLine
 10
305.0
 20
165.0000000000000284
 30
0.0
 11
304.0
 21
165.0000000000000284
 31
0.0
  0
LINE
  5
C6
100
AcDbEntity
  8
holes
 62
256
370
-1
 48
1.0
  6
ByLayer
100
AcDbLine
 10
305.0
 20
35.0000000000000142
 30
0.0
 11
304.0
 21
34.9999999999999858
 31
0.0
  0
LINE
  5
C7
100
AcDbEntity
  8
0
 62
256
370
-1
 48
1.0
  6
ByLayer
100
AcDbLine
 10
304.0
 20
32.3000000000000398
 30
0.0
 11
304.0
 21
32.4999999999999858
 31
0.0
  0
LINE
  5
C8
100
AcDbEntity
  8
0
 62
256
370
-1
 48
1.0
  6
ByLayer
100
AcDbLine
 10
303.9999999999999432
 20
36.5000000000000071
 30
0.0
 11
304.0
 21
34.9999999999999858
 31
0.0
  0
LINE
  5
C9
100
AcDbEntity
  8
0
 62
256
370
-1
 48
1.0
  6
ByLayer
100
AcDbLine
 10
304.0
 20
34.9999999999999858
 30
0.0
 11
304.0
 21
34.0
 31
0.0
  0
LINE
  5
CA
100
AcDbEntity
  8
0
 62
256
370
-1
 48
1.0
  6
ByLayer
100
AcDbLine
 10
304.0
 20
34.0
 30
0.0
 11
304.0
 21
32.3000000000000398
 31
0.0
  0
LINE
  5
CB
100
AcDbEntity
  8
0
 62
256
370
-1
 48
1.0
  6
ByLayer
100
AcDbLine
 10
304.0
 20
163.5000000000000284
 30
0.0
 11
304.0
 21
165.0000000000000284
 31
0.0
  0
LINE
  5
CC
100
AcDbEntity
  8
0
 62
256
370
-1
 48
1.0
  6
ByLayer
100
AcDbLine
 10
304.0
 20
165.0000000000000284
 30
0.0
 11
304.0
 21
166.0000000000000284
 31
0.0
  0
LINE
  5
CD
100
AcDbEntity
  8
0
 62
256
370
-1
 48
1.0
  6
ByLayer
100
AcDbLine
 10
304.0
 20
166.0000000000000284
 30
0.0
 11
304.0
 21
167.6999999999999886
 31
0.0
  0
LINE
  5
CE
100
AcDbEntity
  8
0
 62
256
370
-1
 48
1.0
  6
ByLayer
100
AcDbLine
 10
304.0
 20
167.6999999999999886
 30
0.0
 11
304.0
 21
167.5000000000000284
 31
0.0
  0
LINE
  5
CF
100
AcDbEntity
  8
0
 62
256
370
-1
 48
1.0
  6
ByLayer
100
AcDbLine
 10
306.5000000000000568
 20
31.4999999999999858
 30
0.0
 11
309.0
 21
31.5
 31
0.0
  0
LINE
  5
D0
100
AcDbEntity
  8
0
 62
256
370
-1
 48
1.0
  6
ByLayer
100
AcDbLine
 10
304.0
 20
31.5
 30
0.0
 11
306.5000000000000568
 21
31.4999999999999858
 31
0.0
  0
LINE
  5
D1
100
AcDbEntity
  8
0
 62
256
370
-1
 48
1.0
  6
ByLayer
100
AcDbLine
 10
304.0
 20
168.5000000000000284
 30
0.0
 11
306.5000000000000568
 21
168.5000000000000284
 31
0.0
  0
LINE
  5
D2
100
AcDbEntity
  8
0
 62
256
370
-1
 48
1.0
  6
ByLayer
100
AcDbLine
 10
306.5000000000000568
 20
168.5000000000000284
 30
0.0
 11
309.0
 21
168.5000000000000284
 31
0.0
  0
LINE
  5
D3
100
AcDbEntity
  8
0
 62
256
370
-1
 48
1.0
  6
ByLayer
100
AcDbLine
 10
309.0
 20
168.5000000000000284
 30
0.0
 11
309.0
 21
167.5000000000000284
 31
0.0
  0
LINE
  5
D4
100
AcDbEntity
  8
0
 62
256
370
-1
 48
1.0
  6
ByLayer
100
AcDbLine
 10
309.0
 20
31.5
 30
0.0
 11
309.0
 21
32.4999999999999716
 31
0.0
  0
LINE
  5
D5
100
AcDbEntity
  8
0
 62
256
370
-1
 48
1.0
  6
ByLayer
100
AcDbLine
 10
307.5000000000000568
 20
32.5
 30
0.0
 11
306.5000000000000568
 21
32.4999999999999858
 31
0.0
  0
LINE
  5
D6
100
AcDbEntity
  8
0
 62
256
370
-1
 48
1.0
  6
ByLayer
100
AcDbLine
 10
309.0
 20
32.4999999999999716
 30
0.0
 11
307.5000000000000568
 21
32.5
 31
0.0
  0
LINE
  5
D7
100
AcDbEntity
  8
0
 62
256
370
-1
 48
1.0
  6
ByLayer
100
AcDbLine
 10
306.5000000000000568
 20
32.4999999999999858
 30
0.0
 11
305.0
 21
32.5000000000000142
 31
0.0
  0
LINE
  5
D8
100
AcDbEntity
  8
0
 62
256
370
-1
 48
1.0
  6
ByLayer
100
AcDbLine
 10
306.5000000000000568
 20
167.5000000000000284
 30
0.0
 11
305.0
 21
167.5000000000000284
 31
0.0
  0
LINE
  5
D9
100
AcDbEntity
  8
0
 62
256
370
-1
 48
1.0
  6
ByLayer
100
AcDbLine
 10
309.0
 20
167.5000000000000284
 30
0.0
 11
307.5000000000000568
 21
167.5000000000000284
 31
0.0
  0
LINE
  5
DA
100
AcDbEntity
  8
0
 62
256
370
-1
 48
1.0
  6
ByLayer
100
AcDbLine
 10
307.5000000000000568
 20
167.5000000000000284
 30
0.0
 11
306.5000000000000568
 21
167.5000000000000284
 31
0.0
  0
LINE
  5
DB
100
AcDbEntity
  8
0
 62
256
370
-1
 48
1.0
  6
ByLayer
100
AcDbLine
 10
305.0
 20
33.9999999999999858
 30
0.0
 11
305.0
 21
35.0000000000000142
 31
0.0
  0
LINE
  5
DC
100
AcDbEntity
  8
0
 62
256
370
-1
 48
1.0
  6
ByLayer
100
AcDbLine
 10
305.0
 20
32.5000000000000142
 30
0.0
 11
305.0
 21
33.9999999999999858
 31
0.0
  0
LINE
  5
DD
100
AcDbEntity
  8
0
 62
256
370
-1
 48
1.0
  6
ByLayer
100
AcDbLine
 10
305.0
 20
35.0000000000000142
 30
0.0
 11
305.0
 21
36.4999999999999787
 31
0.0
  0
LINE
  5
DE
100
AcDbEntity
  8
0
 62
256
370
-1
 48
1.0
  6
ByLayer
100
AcDbLine
 10
305.0
 20
165.0000000000000284
 30
0.0
 11
305.0
 21
163.5000000000000284
 31
0.0
  0
LINE
  5
DF
100
AcDbEntity
  8
0
 62
256
370
-1
 48
1.0
  6
ByLayer
100
AcDbLine
 10
305.0
 20
166.0000000000000284
 30
0.0
 11
305.0
 21
165.0000000000000284
 31
0.0
  0
LINE
  5
E0
100
AcDbEntity
  8
0
 62
256
370
-1
 48
1.0
  6
ByLayer
100
AcDbLine
 10
305.0
 20
167.5000000000000284
 30
0.0
 11
305.0
 21
166.0000000000000284
 31
0.0
  0
LINE
  5
E1
100
AcDbEntity
  8
0
 62
256
370
-1
 48
1.0
  6
ByLayer
100
AcDbLine
 10
305.0
 20
163.5000000000000284
 30
0.0
 11
304.0
 21
163.5000000000000284
 31
0.0
  0
LINE
  5
E2
100
AcDbEntity
  8
0
 62
256
370
-1
 48
1.0
  6
ByLayer
100
AcDbLine
 10
305.0
 20
36.4999999999999787
 30
0.0
 11
303.9999999999999432
 21
36.5000000000000071
 31
0.0
  0
LINE
  5
E3
100
AcDbEntity
  8
axis
 62
256
370
-1
 48
1.0
  6
ByLayer
100
AcDbLine
 10
305.5000000000000568
 20
165.5000000000000284
 30
0.0
 11
296.5000000000000568
 21
165.5000000000000284
 31
0.0
  0
LINE
  5
E4
100
AcDbEntity
  8
axis
 62
256
370
-1
 48
1.0
  6
ByLayer
100
AcDbLine
 10
305.5000000000000568
 20
34.4999999999999858
 30
0.0
 11
296.5000000000000568
 21
34.4999999999999858
 31
0.0
  0
LINE
  5
E5
100
AcDbEntity
  8
holes
 62
256
370
-1
 48
1.0
  6
ByLayer
100
AcDbLine
 10
306.5000000000000568
 20
167.5
 30
0.0
 11
306.5000000000000568
 21
168.5
 31
0.0
  0
LINE
  5
E6
100
AcDbEntity
  8
holes
 62
256
370
-1
 48
1.0
  6
ByLayer
100
AcDbLine
 10
306.5000000000000568
 20
32.5
 30
0.0
 11
306.5000000000000568
 21
31.5
 31
0.0
  0
LINE
  5
E7
100
AcDbEntity
  8
holes
 62
256
370
-1
 48
1.0
  6
ByLayer
100
AcDbLine
 10
307.5000000000000568
 20
167.5
 30
0.0
 11
307.5000000000000568
 21
168.5
 31
0.0
  0
LINE
  5
E8
100
AcDbEntity
  8
holes
 62
256
370
-1
 48
1.0
  6
ByLayer
100
AcDbLine
 10
307.5000000000000568
 20
32.5000000000000142
 30
0.0
 11
307.5
 21
31.5000000000000284
 31
0.0
  0
LINE
  5
E9
100
AcDbEntity
  8
0
 62
256
370
-1
 48
1.0
  6
ByLayer
100
AcDbLine
 10
318.0
 20
168.5000000000000284
 30
0.0
 11
318.0
 21
168.5000000000000284
 31
0.0
  0
LINE
  5
EA
100
AcDbEntity
  8
0
 62
256
370
-1
 48
1.0
  6
ByLayer
100
AcDbLine
 10
318.0
 20
31.4999999999999716
 30
0.0
 11
318.0
 21
31.4999999999999716
 31
0.0
  0
LINE
  5
EB
100
AcDbEntity
  8
0
 62
256
370
-1
 48
1.0
  6
ByLayer
100
AcDbLine
 10
319.9999999999999432
 20
31.5
 30
0.0
 11
309.0
 21
31.5
 31
0.0
  0
LINE
  5
EC
100
AcDbEntity
  8
0
 62
256
370
-1
 48
1.0
  6
ByLayer
100
AcDbLine
 10
306.5000000000000568
 20
31.4999999999999858
 30
0.0
 11
304.0
 21
31.5
 31
0.0
  0
LINE
  5
ED
100
AcDbEntity
  8
0
 62
256
370
-1
 48
1.0
  6
ByLayer
100
AcDbLine
 10
309.0
 20
31.5
 30
0.0
 11
307.4999999999999432
 21
31.5000000000000142
 31
0.0
  0
LINE
  5
EE
100
AcDbEntity
  8
0
 62
256
370
-1
 48
1.0
  6
ByLayer
100
AcDbLine
 10
307.4999999999999432
 20
31.5000000000000142
 30
0.0
 11
307.4999999999999432
 21
31.4999999999999858
 31
0.0
  0
LINE
  5
EF
100
AcDbEntity
  8
0
 62
256
370
-1
 48
1.0
  6
ByLayer
100
AcDbLine
 10
307.4999999999999432
 20
31.4999999999999858
 30
0.0
 11
306.5000000000000568
 21
31.4999999999999858
 31
0.0
  0
LINE
  5
F0
100
AcDbEntity
  8
0
 62
256
370
-1
 48
1.0
  6
ByLayer
100
AcDbLine
 10
304.0
 20
31.5
 30
0.0
 11
303.0
 21
31.5
 31
0.0
  0
LINE
  5
F1
100
AcDbEntity
  8
0
 62
256
370
-1
 48
1.0
  6
ByLayer
100
AcDbLine
 10
306.5000000000000568
 20
168.5000000000000284
 30
0.0
 11
304.0
 21
168.5000000000000284
 31
0.0
  0
LINE
  5
F2
100
AcDbEntity
  8
0
 62
256
370
-1
 48
1.0
  6
ByLayer
100
AcDbLine
 10
309.0
 20
168.5000000000000284
 30
0.0
 11
307.5
 21
168.5000000000000284
 31
0.0
  0
LINE
  5
F3
100
AcDbEntity
  8
0
 62
256
370
-1
 48
1.0
  6
ByLayer
100
AcDbLine
 10
320.0
 20
168.5000000000000284
 30
0.0
 11
309.0
 21
168.5000000000000284
 31
0.0
  0
LINE
  5
F4
100
AcDbEntity
  8
0
 62
256
370
-1
 48
1.0
  6
ByLayer
100
AcDbLine
 10
304.0
 20
168.5000000000000284
 30
0.0
 11
303.0
 21
168.5000000000000284
 31
0.0
  0
LINE
  5
F5
100
AcDbEntity
  8
0
 62
256
370
-1
 48
1.0
  6
ByLayer
100
AcDbLine
 10
307.5
 20
168.5000000000000284
 30
0.0
 11
307.4999999999999432
 21
168.5000000000000284
 31
0.0
  0
LINE
  5
F6
100
AcDbEntity
  8
0
 62
256
370
-1
 48
1.0
  6
ByLayer
100
AcDbLine
 10
307.4999999999999432
 20
168.5000000000000284
 30
0.0
 11
306.5000000000000568
 21
168.5000000000000284
 31
0.0
  0
LINE
  5
F7
100
AcDbEntity
  8
0
 62
256
370
-1
 48
1.0
  6
ByLayer
100
AcDbLine
 10
303.0
 20
30.4999999999999716
 30
0.0
 11
306.5
 21
30.4999999999999858
 31
0.0
  0
LINE
  5
F8
100
AcDbEntity
  8
0
 62
256
370
-1
 48
1.0
  6
ByLayer
100
AcDbLine
 10
307.5
 20
30.5000000000000142
 30
0.0
 11
320.0
 21
30.5000000000000142
 31
0.0
  0
LINE
  5
F9
100
AcDbEntity
  8
0
 62
256
370
-1
 48
1.0
  6
ByLayer
100
AcDbLine
 10
306.5
 20
30.4999999999999858
 30
0.0
 11
307.5
 21
30.5000000000000142
 31
0.0
  0
LINE
  5
FA
100
AcDbEntity
  8
0
 62
256
370
-1
 48
1.0
  6
ByLayer
100
AcDbLine
 10
306.5
 20
169.5000000000000284
 30
0.0
 11
307.5
 21
169.5000000000000284
 31
0.0
  0
LINE
  5
FB
100
AcDbEntity
  8
0
 62
256
370
-1
 48
1.0
  6
ByLayer
100
AcDbLine
 10
307.5
 20
169.5000000000000284
 30
0.0
 11
320.0
 21
169.5
 31
0.0
  0
LINE
  5
FC
100
AcDbEntity
  8
0
 62
256
370
-1
 48
1.0
  6
ByLayer
100
AcDbLine
 10
303.0
 20
169.5000000000000284
 30
0.0
 11
306.5
 21
169.5000000000000284
 31
0.0
  0
LINE
  5
FD
100
AcDbEntity
  8
0
 62
256
370
-1
 48
1.0
  6
ByLayer
100
AcDbLine
 10
320.0
 20
173.5000000000000284
 30
0.0
 11
303.0
 21
173.5000000000000284
 31
0.0
  0
LINE
  5
FE
100
AcDbEntity
  8
0
 62
256
370
-1
 48
1.0
  6
ByLayer
100
AcDbLine
 10
319.9999999999999432
 20
26.5000000000000142
 30
0.0
 11
303.0
 21
26.4999999999999858
 31
0.0
  0
LINE
  5
FF
100
AcDbEntity
  8
holes
 62
256
370
-1
 48
1.0
  6
ByLayer
100
AcDbLine
 10
307.5
 20
168.5000000000000284
 30
0.0
 11
307.5
 21
169.5000000000000284
 31
0.0
  0
LINE
  5
100
100
AcDbEntity
  8
holes
 62
256
370
-1
 48
1.0
  6
ByLayer
100
AcDbLine
 10
307.4999999999999432
 20
31.5000000000000142
 30
0.0
 11
307.5
 21
30.5000000000000142
 31
0.0
  0
LINE
  5
101
100
AcDbEntity
  8
holes
 62
256
370
-1
 48
1.0
  6
ByLayer
100
AcDbLine
 10
307.5
 20
168.5000000000000284
 30
0.0
 11
307.5
 21
169.5000000000000284
 31
0.0
  0
LINE
  5
102
100
AcDbEntity
  8
holes
 62
256
370
-1
 48
1.0
  6
ByLayer
100
AcDbLine
 10
307.4999999999999432
 20
31.5000000000000142
 30
0.0
 11
307.5
 21
30.5000000000000142
 31
0.0
  0
LINE
  5
103
100
AcDbEntity
  8
holes
 62
256
370
-1
 48
1.0
  6
ByLayer
100
AcDbLine
 10
306.5
 20
168.5000000000000284
 30
0.0
 11
306.5
 21
169.5000000000000284
 31
0.0
  0
LINE
  5
104
100
AcDbEntity
  8
holes
 62
256
370
-1
 48
1.0
  6
ByLayer
100
AcDbLine
 10
306.5
 20
31.4999999999999858
 30
0.0
 11
306.5
 21
30.4999999999999858
 31
0.0
  0
LINE
  5
105
100
AcDbEntity
  8
axis
 62
256
370
-1
 48
1.0
  6
ByLayer
100
AcDbLine
 10
307.0
 20
170.0000000000000284
 30
0.0
 11
307.0
 21
167.0000000000000284
 31
0.0
  0
LINE
  5
106
100
AcDbEntity
  8
axis
 62
256
370
-1
 48
1.0
  6
ByLayer
100
AcDbLine
 10
307.0
 20
30.0
 30
0.0
 11
307.0
 21
33.0
 31
0.0
  0
LINE
  5
107
100
AcDbEntity
  8
0
 62
256
370
-1
 48
1.0
  6
ByLayer
100
AcDbLine
 10
302.0
 20
163.0
 30
0.0
 11
299.0
 21
163.0
 31
0.0
  0
LINE
  5
108
100
AcDbEntity
  8
0
 62
256
370
-1
 48
1.0
  6
ByLayer
100
AcDbLine
 10
302.0
 20
37.0000000000000355
 30
0.0
 11
299.0
 21
37.0000000000000284
 31
0.0
  0
LINE
  5
109
100
AcDbEntity
  8
0
 62
256
370
-1
 48
1.0
  6
ByLayer
100
AcDbLine
 10
299.0
 20
163.0
 30
0.0
 11
299.0
 21
160.0
 31
0.0
  0
LINE
  5
10A
100
AcDbEntity
  8
0
 62
256
370
-1
 48
1.0
  6
ByLayer
100
AcDbLine
 10
299.0
 20
37.0000000000000284
 30
0.0
 11
299.0
 21
40.0000000000000071
 31
0.0
  0
LINE
  5
10B
100
AcDbEntity
  8
0
 62
256
370
-1
 48
1.0
  6
ByLayer
100
AcDbLine
 10
299.0
 20
160.0
 30
0.0
 11
302.0
 21
160.0
 31
0.0
  0
LINE
  5
10C
100
AcDbEntity
  8
0
 62
256
370
-1
 48
1.0
  6
ByLayer
100
AcDbLine
 10
299.0
 20
40.0000000000000071
 30
0.0
 11
302.0
 21
40.0000000000000426
 31
0.0
  0
LINE
  5
10D
100
AcDbEntity
  8
0
 62
256
370
-1
 48
1.0
  6
ByLayer
100
AcDbLine
 10
302.0
 20
160.0
 30
0.0
 11
302.0
 21
163.0
 31
0.0
  0
LINE
  5
10E
100
AcDbEntity
  8
0
 62
256
370
-1
 48
1.0
  6
ByLayer
100
AcDbLine
 10
302.0
 20
40.0000000000000426
 30
0.0
 11
302.0
 21
37.0000000000000355
 31
0.0
  0
LINE
  5
10F
100
AcDbEntity
  8
help
 62
256
370
-1
 48
1.0
  6
ByLayer
100
AcDbLine
 10
200.0
 20
100.0
 30
0.0
 11
510.0
 21
100.0
 31
0.0
  0
LINE
  5
110
100
AcDbEntity
  8
0
 62
256
370
-1
 48
1.0
  6
ByLayer
100
AcDbLine
 10
302.0
 20
160.0
 30
0.0
 11
302.0
 21
40.0
 31
0.0
  0
CIRCLE
  5
111
100
AcDbEntity
  8
0
 62
256
370
-1
 48
1.0
  6
ByLayer
100
AcDbCircle
 10
200.0
 20
34.4999999999999716
 30
0.0
 40
0.5
  0
LINE
  5
112
100
AcDbEntity
  8
0
 62
256
370
-1
 48
1.0
  6
ByLayer
100
AcDbLine
 10
202.0000000000000568
 20
30.4999999999999716
 30
0.0
 11
198.0000000000000568
 21
30.4999999999999716
 31
0.0
  0
LINE
  5
113
100
AcDbEntity
  8
0
 62
256
370
-1
 48
1.0
  6
ByLayer
100
AcDbLine
 10
198.0000000000000568
 20
30.4999999999999716
 30
0.0
 11
198.0000000000000568
 21
26.4999999999999716
 31
0.0
  0
LINE
  5
114
100
AcDbEntity
  8
0
 62
256
370
-1
 48
1.0
  6
ByLayer
100
AcDbLine
 10
198.0000000000000568
 20
26.4999999999999716
 30
0.0
 11
197.0000000000000568
 21
26.4999999999999574
 31
0.0
  0
LINE
  5
115
100
AcDbEntity
  8
0
 62
256
370
-1
 48
1.0
  6
ByLayer
100
AcDbLine
 10
197.0000000000000568
 20
26.4999999999999574
 30
0.0
 11
197.0000000000000284
 21
31.4999999999999432
 31
0.0
  0
LINE
  5
116
100
AcDbEntity
  8
0
 62
256
370
-1
 48
1.0
  6
ByLayer
100
AcDbLine
 10
197.0000000000000284
 20
31.4999999999999432
 30
0.0
 11
202.0000000000000568
 21
31.4999999999999289
 31
0.0
  0
LINE
  5
117
100
AcDbEntity
  8
0
 62
256
370
-1
 48
1.0
  6
ByLayer
100
AcDbLine
 10
202.0000000000000568
 20
31.4999999999999289
 30
0.0
 11
202.0000000000000568
 21
30.4999999999999432
 31
0.0
  0
LINE
  5
118
100
AcDbEntity
  8
0
 62
256
370
-1
 48
1.0
  6
ByLayer
100
AcDbLine
 10
197.5000000000000284
 20
36.4999999999999929
 30
0.0
 11
202.5000000000000284
 21
36.5
 31
0.0
  0
LINE
  5
119
100
AcDbEntity
  8
0
 62
256
370
-1
 48
1.0
  6
ByLayer
100
AcDbLine
 10
202.5000000000000284
 20
36.5
 30
0.0
 11
202.5000000000000284
 21
31.4999999999999716
 31
0.0
  0
LINE
  5
11A
100
AcDbEntity
  8
0
 62
256
370
-1
 48
1.0
  6
ByLayer
100
AcDbLine
 10
202.5000000000000284
 20
31.4999999999999716
 30
0.0
 11
197.5000000000000284
 21
31.4999999999999716
 31
0.0
  0
LINE
  5
11B
100
AcDbEntity
  8
0
 62
256
370
-1
 48
1.0
  6
ByLayer
100
AcDbLine
 10
197.5000000000000284
 20
31.4999999999999716
 30
0.0
 11
197.5000000000000284
 21
36.4999999999999929
 31
0.0
  0
LINE
  5
11C
100
AcDbEntity
  8
0
 62
256
370
-1
 48
1.0
  6
ByLayer
100
AcDbLine
 10
197.5000000000000284
 20
32.4999999999999716
 30
0.0
 11
202.5000000000000284
 21
32.4999999999999716
 31
0.0
  0
LINE
  5
11D
100
AcDbEntity
  8
holes
 62
256
370
-1
 48
1.0
  6
ByLayer
100
AcDbLine
 10
199.5000000000000284
 20
31.4999999999999716
 30
0.0
 11
199.5000000000000284
 21
30.4999999999999716
 31
0.0
  0
LINE
  5
11E
100
AcDbEntity
  8
holes
 62
256
370
-1
 48
1.0
  6
ByLayer
100
AcDbLine
 10
199.5000000000000284
 20
31.4999999999999716
 30
0.0
 11
199.5000000000000284
 21
32.4999999999999574
 31
0.0
  0
LINE
  5
11F
100
AcDbEntity
  8
holes
 62
256
370
-1
 48
1.0
  6
ByLayer
100
AcDbLine
 10
200.5000000000000284
 20
32.4999999999999858
 30
0.0
 11
200.5000000000000284
 21
31.5
 31
0.0
  0
LINE
  5
120
100
AcDbEntity
  8
holes
 62
256
370
-1
 48
1.0
  6
ByLayer
100
AcDbLine
 10
200.5000000000000284
 20
30.5
 30
0.0
 11
200.5000000000000284
 21
31.5
 31
0.0
  0
LINE
  5
121
100
AcDbEntity
  8
axis
 62
256
370
-1
 48
1.0
  6
ByLayer
100
AcDbLine
 10
200.0
 20
29.9999999999999716
 30
0.0
 11
200.0
 21
32.9999999999999716
 31
0.0
  0
LINE
  5
122
100
AcDbEntity
  8
0
 62
256
370
-1
 48
1.0
  6
ByLayer
100
AcDbLine
 10
462.0
 20
201.1999999999999886
 30
0.0
 11
487.0
 21
201.1999999999999886
 31
0.0
  0
LINE
  5
123
100
AcDbEntity
  8
0
 62
256
370
-1
 48
1.0
  6
ByLayer
100
AcDbLine
 10
461.9999999999998863
 20
-1.2000000000000552
 30
0.0
 11
487.0
 21
-1.1999999999999504
 31
0.0
  0
LINE
  5
124
100
AcDbEntity
  8
0
 62
256
370
-1
 48
1.0
  6
ByLayer
100
AcDbLine
 10
320.0
 20
173.5000000000000284
 30
0.0
 11
451.4999999999999432
 21
173.5000000000000284
 31
0.0
  0
LINE
  5
125
100
AcDbEntity
  8
0
 62
256
370
-1
 48
1.0
  6
ByLayer
100
AcDbLine
 10
319.9999999999999432
 20
26.5000000000000142
 30
0.0
 11
451.4999999999998863
 21
26.4999999999999289
 31
0.0
  0
LINE
  5
126
100
AcDbEntity
  8
0
 62
256
370
-1
 48
1.0
  6
ByLayer
100
AcDbLine
 10
441.9999999999999432
 20
30.4999999999999858
 30
0.0
 11
442.9999999999999432
 21
30.5
 31
0.0
  0
LINE
  5
127
100
AcDbEntity
  8
0
 62
256
370
-1
 48
1.0
  6
ByLayer
100
AcDbLine
 10
376.4999999999999432
 20
30.5
 30
0.0
 11
377.4999999999998295
 21
30.5
 31
0.0
  0
LINE
  5
128
100
AcDbEntity
  8
0
 62
256
370
-1
 48
1.0
  6
ByLayer
100
AcDbLine
 10
447.9999999999999432
 20
30.4999999999999858
 30
0.0
 11
451.4999999999998863
 21
30.4999999999999716
 31
0.0
  0
LINE
  5
129
100
AcDbEntity
  8
0
 62
256
370
-1
 48
1.0
  6
ByLayer
100
AcDbLine
 10
446.9999999999998863
 20
30.4999999999999716
 30
0.0
 11
447.9999999999999432
 21
30.4999999999999858
 31
0.0
  0
LINE
  5
12A
100
AcDbEntity
  8
0
 62
256
370
-1
 48
1.0
  6
ByLayer
100
AcDbLine
 10
442.9999999999999432
 20
30.5
 30
0.0
 11
446.9999999999998863
 21
30.4999999999999716
 31
0.0
  0
LINE
  5
12B
100
AcDbEntity
  8
0
 62
256
370
-1
 48
1.0
  6
ByLayer
100
AcDbLine
 10
320.0
 20
30.5000000000000142
 30
0.0
 11
376.4999999999999432
 21
30.5
 31
0.0
  0
LINE
  5
12C
100
AcDbEntity
  8
0
 62
256
370
-1
 48
1.0
  6
ByLayer
100
AcDbLine
 10
377.4999999999998295
 20
30.5
 30
0.0
 11
441.9999999999999432
 21
30.4999999999999858
 31
0.0
  0
LINE
  5
12D
100
AcDbEntity
  8
0
 62
256
370
-1
 48
1.0
  6
ByLayer
100
AcDbLine
 10
446.9999999999999432
 20
169.5
 30
0.0
 11
447.9999999999999432
 21
169.5
 31
0.0
  0
LINE
  5
12E
100
AcDbEntity
  8
0
 62
256
370
-1
 48
1.0
  6
ByLayer
100
AcDbLine
 10
447.9999999999999432
 20
169.5
 30
0.0
 11
451.4999999999999432
 21
169.5
 31
0.0
  0
LINE
  5
12F
100
AcDbEntity
  8
0
 62
256
370
-1
 48
1.0
  6
ByLayer
100
AcDbLine
 10
442.9999999999999432
 20
169.5
 30
0.0
 11
446.9999999999999432
 21
169.5
 31
0.0
  0
LINE
  5
130
100
AcDbEntity
  8
0
 62
256
370
-1
 48
1.0
  6
ByLayer
100
AcDbLine
 10
441.9999999999999432
 20
169.5
 30
0.0
 11
442.9999999999999432
 21
169.5
 31
0.0
  0
LINE
  5
131
100
AcDbEntity
  8
0
 62
256
370
-1
 48
1.0
  6
ByLayer
100
AcDbLine
 10
376.4999999999999432
 20
169.5
 30
0.0
 11
377.4999999999998863
 21
169.5
 31
0.0
  0
LINE
  5
132
100
AcDbEntity
  8
0
 62
256
370
-1
 48
1.0
  6
ByLayer
100
AcDbLine
 10
320.0
 20
169.5
 30
0.0
 11
376.4999999999999432
 21
169.5
 31
0.0
  0
LINE
  5
133
100
AcDbEntity
  8
0
 62
256
370
-1
 48
1.0
  6
ByLayer
100
AcDbLine
 10
377.4999999999998863
 20
169.5
 30
0.0
 11
441.9999999999999432
 21
169.5
 31
0.0
  0
LINE
  5
134
100
AcDbEntity
  8
0
 62
256
370
-1
 48
1.0
  6
ByLayer
100
AcDbLine
 10
319.9999999999999432
 20
31.5
 30
0.0
 11
376.4999999999999432
 21
31.4999999999999716
 31
0.0
  0
LINE
  5
135
100
AcDbEntity
  8
0
 62
256
370
-1
 48
1.0
  6
ByLayer
100
AcDbLine
 10
376.4999999999999432
 20
31.4999999999999716
 30
0.0
 11
377.4999999999999432
 21
31.4999999999999574
 31
0.0
  0
LINE
  5
136
100
AcDbEntity
  8
0
 62
256
370
-1
 48
1.0
  6
ByLayer
100
AcDbLine
 10
320.0
 20
168.5000000000000284
 30
0.0
 11
376.4999999999999432
 21
168.5000000000000284
 31
0.0
  0
LINE
  5
137
100
AcDbEntity
  8
0
 62
256
370
-1
 48
1.0
  6
ByLayer
100
AcDbLine
 10
376.4999999999999432
 20
168.5000000000000284
 30
0.0
 11
377.4999999999999432
 21
168.5000000000000284
 31
0.0
  0
LINE
  5
138
100
AcDbEntity
  8
0
 62
256
370
-1
 48
1.0
  6
ByLayer
100
AcDbLine
 10
441.9999999999999432
 20
31.5
 30
0.0
 11
441.9999999999999432
 21
31.5
 31
0.0
  0
LINE
  5
139
100
AcDbEntity
  8
0
 62
256
370
-1
 48
1.0
  6
ByLayer
100
AcDbLine
 10
441.9999999999999432
 20
31.5
 30
0.0
 11
436.9999999999998863
 21
31.4999999999999574
 31
0.0
  0
LINE
  5
13A
100
AcDbEntity
  8
0
 62
256
370
-1
 48
1.0
  6
ByLayer
100
AcDbLine
 10
443.0
 20
31.5
 30
0.0
 11
441.9999999999999432
 21
31.5
 31
0.0
  0
LINE
  5
13B
100
AcDbEntity
  8
0
 62
256
370
-1
 48
1.0
  6
ByLayer
100
AcDbLine
 10
436.9999999999998863
 20
31.4999999999999574
 30
0.0
 11
431.9999999999999432
 21
31.5
 31
0.0
  0
LINE
  5
13C
100
AcDbEntity
  8
0
 62
256
370
-1
 48
1.0
  6
ByLayer
100
AcDbLine
 10
436.9999999999999432
 20
168.5
 30
0.0
 11
431.9999999999999432
 21
168.5
 31
0.0
  0
LINE
  5
13D
100
AcDbEntity
  8
0
 62
256
370
-1
 48
1.0
  6
ByLayer
100
AcDbLine
 10
441.9999999999999432
 20
168.5
 30
0.0
 11
436.9999999999999432
 21
168.5
 31
0.0
  0
LINE
  5
13E
100
AcDbEntity
  8
0
 62
256
370
-1
 48
1.0
  6
ByLayer
100
AcDbLine
 10
441.9999999999999432
 20
168.5
 30
0.0
 11
441.9999999999999432
 21
168.5
 31
0.0
  0
LINE
  5
13F
100
AcDbEntity
  8
0
 62
256
370
-1
 48
1.0
  6
ByLayer
100
AcDbLine
 10
443.0
 20
168.5
 30
0.0
 11
441.9999999999999432
 21
168.5
 31
0.0
  0
LINE
  5
140
100
AcDbEntity
  8
0
 62
256
370
-1
 48
1.0
  6
ByLayer
100
AcDbLine
 10
457.0
 20
34.5
 30
0.0
 11
436.9999999999998863
 21
34.5000000000000284
 31
0.0
  0
LINE
  5
141
100
AcDbEntity
  8
0
 62
256
370
-1
 48
1.0
  6
ByLayer
100
AcDbLine
 10
436.9999999999998863
 20
34.5000000000000284
 30
0.0
 11
431.9999999999999432
 21
34.5
 31
0.0
  0
LINE
  5
142
100
AcDbEntity
  8
0
 62
256
370
-1
 48
1.0
  6
ByLayer
100
AcDbLine
 10
459.0
 20
34.5000000000000426
 30
0.0
 11
457.0
 21
34.5
 31
0.0
  0
LINE
  5
143
100
AcDbEntity
  8
0
 62
256
370
-1
 48
1.0
  6
ByLayer
100
AcDbLine
 10
457.0
 20
165.5
 30
0.0
 11
436.9999999999998863
 21
165.5
 31
0.0
  0
LINE
  5
144
100
AcDbEntity
  8
0
 62
256
370
-1
 48
1.0
  6
ByLayer
100
AcDbLine
 10
436.9999999999998863
 20
165.5
 30
0.0
 11
431.9999999999999432
 21
165.5
 31
0.0
  0
LINE
  5
145
100
AcDbEntity
  8
0
 62
256
370
-1
 48
1.0
  6
ByLayer
100
AcDbLine
 10
458.9999999999999432
 20
165.5
 30
0.0
 11
457.0
 21
165.5
 31
0.0
  0
LINE
  5
146
100
AcDbEntity
  8
0
 62
256
370
-1
 48
1.0
  6
ByLayer
100
AcDbLine
 10
431.9999999999999432
 20
168.5
 30
0.0
 11
431.9999999999999432
 21
165.5
 31
0.0
  0
LINE
  5
147
100
AcDbEntity
  8
0
 62
256
370
-1
 48
1.0
  6
ByLayer
100
AcDbLine
 10
431.9999999999999432
 20
31.5
 30
0.0
 11
431.9999999999999432
 21
34.5
 31
0.0
  0
LINE
  5
148
100
AcDbEntity
  8
0
 62
256
370
-1
 48
1.0
  6
ByLayer
100
AcDbLine
 10
458.9999999999998863
 20
50.4999999999999289
 30
0.0
 11
458.9999999999999432
 21
61.5000000000000071
 31
0.0
  0
LINE
  5
149
100
AcDbEntity
  8
0
 62
256
370
-1
 48
1.0
  6
ByLayer
100
AcDbLine
 10
458.9999999999999432
 20
45.5000000000000284
 30
0.0
 11
458.9999999999998863
 21
50.4999999999999289
 31
0.0
  0
LINE
  5
14A
100
AcDbEntity
  8
0
 62
256
370
-1
 48
1.0
  6
ByLayer
100
AcDbLine
 10
458.9999999999999432
 20
149.5
 30
0.0
 11
458.9999999999999432
 21
138.5
 31
0.0
  0
LINE
  5
14B
100
AcDbEntity
  8
0
 62
256
370
-1
 48
1.0
  6
ByLayer
100
AcDbLine
 10
458.9999999999999432
 20
154.5
 30
0.0
 11
458.9999999999999432
 21
149.5
 31
0.0
  0
LINE
  5
14C
100
AcDbEntity
  8
0
 62
256
370
-1
 48
1.0
  6
ByLayer
100
AcDbLine
 10
458.9999999999999432
 20
165.5
 30
0.0
 11
458.9999999999999432
 21
154.5
 31
0.0
  0
LINE
  5
14D
100
AcDbEntity
  8
0
 62
256
370
-1
 48
1.0
  6
ByLayer
100
AcDbLine
 10
459.0
 20
34.5000000000000426
 30
0.0
 11
458.9999999999999432
 21
45.5000000000000284
 31
0.0
  0
LINE
  5
14E
100
AcDbEntity
  8
0
 62
256
370
-1
 48
1.0
  6
ByLayer
100
AcDbLine
 10
458.9999999999999432
 20
138.5
 30
0.0
 11
462.0
 21
138.5
 31
0.0
  0
LINE
  5
14F
100
AcDbEntity
  8
0
 62
256
370
-1
 48
1.0
  6
ByLayer
100
AcDbLine
 10
458.9999999999999432
 20
61.5000000000000071
 30
0.0
 11
462.0
 21
61.5000000000000355
 31
0.0
  0
LINE
  5
150
100
AcDbEntity
  8
holes
 62
256
370
-1
 48
1.0
  6
ByLayer
100
AcDbLine
 10
458.9999999999998863
 20
50.4999999999999289
 30
0.0
 11
462.0
 21
50.4999999999999645
 31
0.0
  0
LINE
  5
151
100
AcDbEntity
  8
holes
 62
256
370
-1
 48
1.0
  6
ByLayer
100
AcDbLine
 10
458.9999999999999432
 20
149.5
 30
0.0
 11
462.0
 21
149.5
 31
0.0
  0
LINE
  5
152
100
AcDbEntity
  8
holes
 62
256
370
-1
 48
1.0
  6
ByLayer
100
AcDbLine
 10
458.9999999999999432
 20
154.5
 30
0.0
 11
462.0
 21
154.5
 31
0.0
  0
LINE
  5
153
100
AcDbEntity
  8
holes
 62
256
370
-1
 48
1.0
  6
ByLayer
100
AcDbLine
 10
458.9999999999999432
 20
45.5000000000000284
 30
0.0
 11
462.0
 21
45.5
 31
0.0
  0
LINE
  5
154
100
AcDbEntity
  8
axis
 62
256
370
-1
 48
1.0
  6
ByLayer
100
AcDbLine
 10
452.9999999999999432
 20
152.0
 30
0.0
 11
482.9999999999999432
 21
152.0
 31
0.0
  0
LINE
  5
155
100
AcDbEntity
  8
axis
 62
256
370
-1
 48
1.0
  6
ByLayer
100
AcDbLine
 10
453.0
 20
48.0000000000000213
 30
0.0
 11
482.9999999999999432
 21
47.9999999999999716
 31
0.0
  0
LINE
  5
156
100
AcDbEntity
  8
0
 62
256
370
-1
 48
1.0
  6
ByLayer
100
AcDbLine
 10
451.4999999999998863
 20
30.4999999999999716
 30
0.0
 11
451.4999999999999432
 21
31.4999999999999716
 31
0.0
  0
LINE
  5
157
100
AcDbEntity
  8
0
 62
256
370
-1
 48
1.0
  6
ByLayer
100
AcDbLine
 10
451.4999999999998863
 20
26.4999999999999289
 30
0.0
 11
451.4999999999998863
 21
30.4999999999999716
 31
0.0
  0
LINE
  5
158
100
AcDbEntity
  8
0
 62
256
370
-1
 48
1.0
  6
ByLayer
100
AcDbLine
 10
451.4999999999999432
 20
31.4999999999999716
 30
0.0
 11
451.4999999999999432
 21
31.4999999999999574
 31
0.0
  0
LINE
  5
159
100
AcDbEntity
  8
0
 62
256
370
-1
 48
1.0
  6
ByLayer
100
AcDbLine
 10
451.4999999999999432
 20
169.5
 30
0.0
 11
451.4999999999999432
 21
168.5
 31
0.0
  0
LINE
  5
15A
100
AcDbEntity
  8
0
 62
256
370
-1
 48
1.0
  6
ByLayer
100
AcDbLine
 10
451.4999999999999432
 20
168.5
 30
0.0
 11
451.4999999999999432
 21
168.5000000000000284
 31
0.0
  0
LINE
  5
15B
100
AcDbEntity
  8
0
 62
256
370
-1
 48
1.0
  6
ByLayer
100
AcDbLine
 10
451.4999999999999432
 20
173.5000000000000284
 30
0.0
 11
451.4999999999999432
 21
169.5
 31
0.0
  0
LINE
  5
15C
100
AcDbEntity
  8
holes
 62
256
370
-1
 48
1.0
  6
ByLayer
100
AcDbLine
 10
436.9999999999999432
 20
165.5
 30
0.0
 11
436.9999999999999432
 21
168.5
 31
0.0
  0
LINE
  5
15D
100
AcDbEntity
  8
holes
 62
256
370
-1
 48
1.0
  6
ByLayer
100
AcDbLine
 10
436.9999999999999432
 20
34.5
 30
0.0
 11
436.9999999999998863
 21
31.4999999999999574
 31
0.0
  0
LINE
  5
15E
100
AcDbEntity
  8
holes
 62
256
370
-1
 48
1.0
  6
ByLayer
100
AcDbLine
 10
456.9999999999999432
 20
165.5
 30
0.0
 11
457.0
 21
168.5
 31
0.0
  0
LINE
  5
15F
100
AcDbEntity
  8
holes
 62
256
370
-1
 48
1.0
  6
ByLayer
100
AcDbLine
 10
457.0
 20
34.5000000000000142
 30
0.0
 11
457.0
 21
31.5000000000000142
 31
0.0
  0
DIMENSION
  5
160
100
AcDbEntity
  8
dims
 62
256
370
-1
 48
1.0
  6
ByLayer
100
AcDbDimension
 10
200.0
 20
100.0
 30
0.0
 11
180.1126217791283466
 21
122.5390286503211996
 31
0.0
 70
4
 71
8
 72
1
 41
1.0
 42
0.0
  1
R<>
  3
Standard
100
AcDbRadialDimension
 15
157.573593128807147
 25
142.426406871192853
 35
0.0
 40
0.0
1001
ACAD
1000
DSTYLE
1002
{
1070
144
1040
1.0
1070
40
1040
1.0
1002
}
  0
DIMENSION
  5
161
100
AcDbEntity
  8
dims
 62
256
370
-1
 48
1.0
  6
ByLayer
100
AcDbDimension
 10
200.0
 20
100.0
 30
0.0
 11
175.272166423054955
 21
119.6035678280997985
 31
0.0
 70
4
 71
8
 72
1
 41
1.0
 42
0.0
  1
R<>
  3
Standard
100
AcDbRadialDimension
 15
148.3934212097935017
 25
136.135315490115886
 35
0.0
 40
0.0
1001
ACAD
1000
DSTYLE
1002
{
1070
144
1040
1.0
1070
40
1040
1.0
1002
}
  0
DIMENSION
  5
162
100
AcDbEntity
  8
dims
 62
256
370
-1
 48
1.0
  6
ByLayer
100
AcDbDimension
 10
200.0
 20
100.0
 30
0.0
 11
169.9779444815177385
 21
116.0683479998775169
 31
0.0
 70
4
 71
8
 72
1
 41
1.0
 42
0.0
  1
R<>
  3
Standard
100
AcDbRadialDimension
 15
138.3710704815078145
 25
128.7380417983675898
 35
0.0
 40
0.0
1001
ACAD
1000
DSTYLE
1002
{
1070
144
1040
1.0
1070
40
1040
1.0
1002
}
  0
LINE
  5
163
100
AcDbEntity
  8
axis
 62
256
370
-1
 48
1.0
  6
ByLayer
100
AcDbLine
 10
437.4999999999999432
 20
169.0
 30
0.0
 11
437.4999999999999432
 21
165.0
 31
0.0
  0
LINE
  5
164
100
AcDbEntity
  8
axis
 62
256
370
-1
 48
1.0
  6
ByLayer
100
AcDbLine
 10
437.4999999999998863
 20
30.9999999999999432
 30
0.0
 11
437.4999999999998863
 21
34.9999999999999716
 31
0.0
  0
LINE
  5
165
100
AcDbEntity
  8
axis
 62
256
370
-1
 48
1.0
  6
ByLayer
100
AcDbLine
 10
456.4999999999999432
 20
169.0
 30
0.0
 11
456.4999999999999432
 21
165.0
 31
0.0
  0
LINE
  5
166
100
AcDbEntity
  8
axis
 62
256
370
-1
 48
1.0
  6
ByLayer
100
AcDbLine
 10
456.4999999999999432
 20
30.9999999999999858
 30
0.0
 11
456.4999999999999432
 21
35.0
 31
0.0
  0
LINE
  5
167
100
AcDbEntity
  8
holes
 62
256
370
-1
 48
1.0
  6
ByLayer
100
AcDbLine
 10
447.9999999999999432
 20
30.4999999999999858
 30
0.0
 11
447.9999999999998863
 21
31.4999999999999432
 31
0.0
  0
LINE
  5
168
100
AcDbEntity
  8
holes
 62
256
370
-1
 48
1.0
  6
ByLayer
100
AcDbLine
 10
447.9999999999999432
 20
168.5000000000000284
 30
0.0
 11
447.9999999999999432
 21
168.5
 31
0.0
  0
LINE
  5
169
100
AcDbEntity
  8
holes
 62
256
370
-1
 48
1.0
  6
ByLayer
100
AcDbLine
 10
447.9999999999999432
 20
169.5
 30
0.0
 11
447.9999999999999432
 21
168.5000000000000284
 31
0.0
  0
LINE
  5
16A
100
AcDbEntity
  8
holes
 62
256
370
-1
 48
1.0
  6
ByLayer
100
AcDbLine
 10
447.9999999999998863
 20
31.4999999999999432
 30
0.0
 11
447.9999999999998863
 21
31.4999999999999716
 31
0.0
  0
LINE
  5
16B
100
AcDbEntity
  8
holes
 62
256
370
-1
 48
1.0
  6
ByLayer
100
AcDbLine
 10
446.9999999999999432
 20
169.5
 30
0.0
 11
446.9999999999999432
 21
168.5
 31
0.0
  0
LINE
  5
16C
100
AcDbEntity
  8
holes
 62
256
370
-1
 48
1.0
  6
ByLayer
100
AcDbLine
 10
446.9999999999998863
 20
30.4999999999999716
 30
0.0
 11
446.9999999999999432
 21
31.5000000000000284
 31
0.0
  0
LINE
  5
16D
100
AcDbEntity
  8
holes
 62
256
370
-1
 48
1.0
  6
ByLayer
100
AcDbLine
 10
442.9999999999999432
 20
169.5
 30
0.0
 11
442.9999999999999432
 21
168.5000000000000284
 31
0.0
  0
LINE
  5
16E
100
AcDbEntity
  8
holes
 62
256
370
-1
 48
1.0
  6
ByLayer
100
AcDbLine
 10
442.9999999999999432
 20
30.5
 30
0.0
 11
442.9999999999999432
 21
31.4999999999999574
 31
0.0
  0
LINE
  5
16F
100
AcDbEntity
  8
holes
 62
256
370
-1
 48
1.0
  6
ByLayer
100
AcDbLine
 10
441.9999999999999432
 20
169.5
 30
0.0
 11
441.9999999999999432
 21
168.5
 31
0.0
  0
LINE
  5
170
100
AcDbEntity
  8
holes
 62
256
370
-1
 48
1.0
  6
ByLayer
100
AcDbLine
 10
441.9999999999999432
 20
30.4999999999999858
 30
0.0
 11
441.9999999999999432
 21
31.5
 31
0.0
  0
LINE
  5
171
100
AcDbEntity
  8
axis
 62
256
370
-1
 48
1.0
  6
ByLayer
100
AcDbLine
 10
442.4999999999999432
 20
170.0
 30
0.0
 11
442.4999999999999432
 21
168.0
 31
0.0
  0
LINE
  5
172
100
AcDbEntity
  8
axis
 62
256
370
-1
 48
1.0
  6
ByLayer
100
AcDbLine
 10
442.4999999999998863
 20
29.9999999999999716
 30
0.0
 11
442.4999999999998863
 21
31.9999999999999574
 31
0.0
  0
LINE
  5
173
100
AcDbEntity
  8
axis
 62
256
370
-1
 48
1.0
  6
ByLayer
100
AcDbLine
 10
447.4999999999999432
 20
170.0
 30
0.0
 11
447.4999999999999432
 21
168.0
 31
0.0
  0
LINE
  5
174
100
AcDbEntity
  8
axis
 62
256
370
-1
 48
1.0
  6
ByLayer
100
AcDbLine
 10
447.4999999999999432
 20
29.9999999999999858
 30
0.0
 11
447.4999999999998863
 21
31.9999999999999858
 31
0.0
  0
LINE
  5
175
100
AcDbEntity
  8
holes
 62
256
370
-1
 48
1.0
  6
ByLayer
100
AcDbLine
 10
462.0
 20
154.4999999999999716
 30
0.0
 11
472.0
 21
154.4999999999999716
 31
0.0
  0
LINE
  5
176
100
AcDbEntity
  8
holes
 62
256
370
-1
 48
1.0
  6
ByLayer
100
AcDbLine
 10
462.0
 20
45.5
 30
0.0
 11
472.0
 21
45.5000000000000711
 31
0.0
  0
LINE
  5
177
100
AcDbEntity
  8
holes
 62
256
370
-1
 48
1.0
  6
ByLayer
100
AcDbLine
 10
461.9999999999999432
 20
149.5
 30
0.0
 11
471.9999999999999432
 21
149.5
 31
0.0
  0
LINE
  5
178
100
AcDbEntity
  8
holes
 62
256
370
-1
 48
1.0
  6
ByLayer
100
AcDbLine
 10
461.9999999999999432
 20
50.4999999999999858
 30
0.0
 11
471.9999999999998863
 21
50.4999999999999289
 31
0.0
  0
LINE
  5
179
100
AcDbEntity
  8
holes
 62
256
370
-1
 48
1.0
  6
ByLayer
100
AcDbLine
 10
472.0
 20
154.4999999999999716
 30
0.0
 11
473.4433756729740139
 21
152.0000000000000284
 31
0.0
  0
LINE
  5
17A
100
AcDbEntity
  8
holes
 62
256
370
-1
 48
1.0
  6
ByLayer
100
AcDbLine
 10
472.0
 20
45.5000000000000711
 30
0.0
 11
473.4433756729740139
 21
47.9999999999999432
 31
0.0
  0
LINE
  5
17B
100
AcDbEntity
  8
holes
 62
256
370
-1
 48
1.0
  6
ByLayer
100
AcDbLine
 10
471.9999999999999432
 20
149.5
 30
0.0
 11
473.4433756729740139
 21
151.9999999999999716
 31
0.0
  0
LINE
  5
17C
100
AcDbEntity
  8
holes
 62
256
370
-1
 48
1.0
  6
ByLayer
100
AcDbLine
 10
471.9999999999998863
 20
50.4999999999999289
 30
0.0
 11
473.4433756729740139
 21
48.0000000000000497
 31
0.0
  0
LINE
  5
17D
100
AcDbEntity
  8
help
 62
256
370
-1
 48
1.0
  6
ByLayer
100
AcDbLine
 10
372.0
 20
100.0000000000000142
 30
0.0
 11
372.0
 21
195.2199999999999989
 31
0.0
  0
LINE
  5
17E
100
AcDbEntity
  8
help
 62
256
370
-1
 48
1.0
  6
ByLayer
100
AcDbLine
 10
372.0
 20
100.0000000000000142
 30
0.0
 11
371.9999999999999432
 21
4.7800000000000011
 31
0.0
  0
ELLIPSE
  5
17F
100
AcDbEntity
  8
0
 62
256
370
-1
 48
1.0
  6
ByLayer
100
AcDbEllipse
 10
372.0000000000000568
 20
100.0
 30
0.0
 11
0.0000000000000039
 21
63.0000000000000071
 31
0.0
 40
0.4999999999999999
 41
0.0
 42
6.2831853071795862
  0
ELLIPSE
  5
180
100
AcDbEntity
  8
0
 62
256
370
-1
 48
1.0
  6
ByLayer
100
AcDbEllipse
 10
372.0000000000000568
 20
100.0
 30
0.0
 11
0.0000000000000037
 21
60.0000000000000071
 31
0.0
 40
0.4999999999999999
 41
0.0
 42
6.2831853071795862
  0
ELLIPSE
  5
181
100
AcDbEntity
  8
0
 62
256
370
-1
 48
1.0
  6
ByLayer
100
AcDbEllipse
 10
372.0000000000000568
 20
100.0
 30
0.0
 11
0.0000000000000042
 21
68.0
 31
0.0
 40
0.4999999999999999
 41
0.0
 42
6.2831853071795862
  0
LINE
  5
182
100
AcDbEntity
  8
axis
 62
256
370
-1
 48
1.0
  6
ByLayer
100
AcDbLine
 10
376.9999999999999432
 20
170.0
 30
0.0
 11
376.9999999999999432
 21
168.0
 31
0.0
  0
LINE
  5
183
100
AcDbEntity
  8
axis
 62
256
370
-1
 48
1.0
  6
ByLayer
100
AcDbLine
 10
376.9999999999998863
 20
30.0
 30
0.0
 11
376.9999999999998863
 21
31.9999999999999858
 31
0.0
  0
LINE
  5
184
100
AcDbEntity
  8
holes
 62
256
370
-1
 48
1.0
  6
ByLayer
100
AcDbLine
 10
376.4999999999999432
 20
169.5
 30
0.0
 11
376.4999999999999432
 21
168.5000000000000284
 31
0.0
  0
LINE
  5
185
100
AcDbEntity
  8
holes
 62
256
370
-1
 48
1.0
  6
ByLayer
100
AcDbLine
 10
376.4999999999999432
 20
30.5
 30
0.0
 11
376.4999999999999432
 21
31.4999999999999716
 31
0.0
  0
LINE
  5
186
100
AcDbEntity
  8
holes
 62
256
370
-1
 48
1.0
  6
ByLayer
100
AcDbLine
 10
377.4999999999999432
 20
169.5
 30
0.0
 11
377.4999999999999432
 21
168.5000000000000284
 31
0.0
  0
LINE
  5
187
100
AcDbEntity
  8
holes
 62
256
370
-1
 48
1.0
  6
ByLayer
100
AcDbLine
 10
377.4999999999998863
 20
30.4999999999999858
 30
0.0
 11
377.4999999999999432
 21
31.4999999999999574
 31
0.0
  0
DIMENSION
  5
188
100
AcDbEntity
  8
dims
 62
256
370
-1
 48
1.0
  6
ByLayer
100
AcDbDimension
 10
459.0
 20
134.25
 30
0.0
 11
460.5
 21
136.125
 31
0.0
 70
0
 71
8
 72
1
 41
1.0
 42
0.0
  1

  3
Standard
100
AcDbAlignedDimension
 13
459.0
 23
140.0
 33
0.0
 14
462.0
 24
140.0
 34
0.0
 50
0.0
100
AcDbRotatedDimension
1001
ACAD
1000
DSTYLE
1002
{
1070
144
1040
1.0
1070
40
1040
1.0
1002
}
  0
DIMENSION
  5
189
100
AcDbEntity
  8
dims
 62
256
370
-1
 48
1.0
  6
ByLayer
100
AcDbDimension
 10
437.4999999999999432
 20
161.25
 30
0.0
 11
446.9999999999999432
 21
163.125
 31
0.0
 70
0
 71
8
 72
1
 41
1.0
 42
0.0
  1

  3
Standard
100
AcDbAlignedDimension
 13
437.4999999999999432
 23
165.5
 33
0.0
 14
456.4999999999999432
 24
165.5
 34
0.0
 50
0.0
100
AcDbRotatedDimension
1001
ACAD
1000
DSTYLE
1002
{
1070
144
1040
1.0
1070
40
1040
1.0
1002
}
  0
DIMENSION
  5
18A
100
AcDbEntity
  8
dims
 62
256
370
-1
 48
1.0
  6
ByLayer
100
AcDbDimension
 10
457.0
 20
156.0
 30
0.0
 11
447.0
 21
157.875
 31
0.0
 70
0
 71
8
 72
1
 41
1.0
 42
0.0
  1

  3
Standard
100
AcDbAlignedDimension
 13
457.0
 23
165.5
 33
0.0
 14
436.9999999999999432
 24
165.7999999999999829
 34
0.0
 50
0.0
100
AcDbRotatedDimension
1001
ACAD
1000
DSTYLE
1002
{
1070
144
1040
1.0
1070
40
1040
1.0
1002
}
  0
DIMENSION
  5
18B
100
AcDbEntity
  8
dims
 62
256
370
-1
 48
1.0
  6
ByLayer
100
AcDbDimension
 10
442.4999999999999432
 20
175.0000000000000284
 30
0.0
 11
444.9999999999999432
 21
176.8750000000000284
 31
0.0
 70
1
 71
8
 72
1
 41
1.0
 42
0.0
  1

  3
Standard
100
AcDbAlignedDimension
 13
442.4999999999999432
 23
169.5
 33
0.0
 14
447.4999999999999432
 24
169.5
 34
0.0
1001
ACAD
1000
DSTYLE
1002
{
1070
144
1040
1.0
1070
40
1040
1.0
1002
}
  0
DIMENSION
  5
18C
100
AcDbEntity
  8
dims
 62
256
370
-1
 48
1.0
  6
ByLayer
100
AcDbDimension
 10
447.4999999999999432
 20
175.0000000000000284
 30
0.0
 11
449.4999999999998863
 21
176.875
 31
0.0
 70
1
 71
8
 72
1
 41
1.0
 42
0.0
  1

  3
Standard
100
AcDbAlignedDimension
 13
447.4999999999999432
 23
169.5
 33
0.0
 14
451.4999999999998863
 24
169.4999999999999716
 34
0.0
1001
ACAD
1000
DSTYLE
1002
{
1070
144
1040
1.0
1070
40
1040
1.0
1002
}
  0
DIMENSION
  5
18D
100
AcDbEntity
  8
dims
 62
256
370
-1
 48
1.0
  6
ByLayer
100
AcDbDimension
 10
483.0
 20
168.4999999999999716
 30
0.0
 11
481.125
 21
153.4999999999999432
 31
0.0
 70
1
 71
8
 72
1
 41
1.0
 42
0.0
  1

  3
Standard
100
AcDbAlignedDimension
 13
462.0
 23
168.5
 33
0.0
 14
461.9999999999999432
 24
138.4999999999999716
 34
0.0
1001
ACAD
1000
DSTYLE
1002
{
1070
144
1040
1.0
1070
40
1040
1.0
1002
}
  0
LINE
  5
18E
100
AcDbEntity
  8
0
 62
256
370
-1
 48
1.0
  6
ByLayer
100
AcDbLine
 10
303.0
 20
30.4999999999999716
 30
0.0
 11
303.0
 21
26.4999999999999858
 31
0.0
  0
LINE
  5
18F
100
AcDbEntity
  8
0
 62
256
370
-1
 48
1.0
  6
ByLayer
100
AcDbLine
 10
303.0
 20
31.5000000000000284
 30
0.0
 11
303.0
 21
30.4999999999999716
 31
0.0
  0
LINE
  5
190
100
AcDbEntity
  8
0
 62
256
370
-1
 48
1.0
  6
ByLayer
100
AcDbLine
 10
303.0
 20
168.5
 30
0.0
 11
303.0
 21
169.5000000000000284
 31
0.0
  0
LINE
  5
191
100
AcDbEntity
  8
0
 62
256
370
-1
 48
1.0
  6
ByLayer
100
AcDbLine
 10
303.0
 20
169.5000000000000284
 30
0.0
 11
303.0
 21
173.5000000000000284
 31
0.0
  0
DIMENSION
  5
192
100
AcDbEntity
  8
dims
 62
256
370
-1
 48
1.0
  6
ByLayer
100
AcDbDimension
 10
303.0
 20
182.4999999999999432
 30
0.0
 11
377.25
 21
184.3749999999999432
 31
0.0
 70
1
 71
8
 72
1
 41
1.0
 42
0.0
  1

  3
Standard
100
AcDbAlignedDimension
 13
303.0
 23
171.0
 33
0.0
 14
451.4999999999999432
 24
171.0000000000000284
 34
0.0
1001
ACAD
1000
DSTYLE
1002
{
1070
144
1040
1.0
1070
40
1040
1.0
1002
}
  0
DIMENSION
  5
193
100
AcDbEntity
  8
dims
 62
256
370
-1
 48
1.0
  6
ByLayer
100
AcDbDimension
 10
297.0
 20
190.0
 30
0.0
 11
379.5
 21
191.875
 31
0.0
 70
0
 71
8
 72
1
 41
1.0
 42
0.0
  1

  3
Standard
100
AcDbAlignedDimension
 13
297.0
 23
167.0
 33
0.0
 14
462.0
 24
201.2199999999999989
 34
0.0
 50
0.0
100
AcDbRotatedDimension
1001
ACAD
1000
DSTYLE
1002
{
1070
144
1040
1.0
1070
40
1040
1.0
1002
}
  0
LINE
  5
194
100
AcDbEntity
  8
0
 62
256
370
-1
 48
1.0
  6
ByLayer
100
AcDbLine
 10
462.0
 20
13.7000000000000028
 30
0.0
 11
461.9999999999999432
 21
5.2999999999999403
 31
0.0
  0
LINE
  5
195
100
AcDbEntity
  8
0
 62
256
370
-1
 48
1.0
  6
ByLayer
100
AcDbLine
 10
461.9999999999999432
 20
23.9999999999999716
 30
0.0
 11
462.0
 21
14.25
 31
0.0
  0
LINE
  5
196
100
AcDbEntity
  8
0
 62
256
370
-1
 48
1.0
  6
ByLayer
100
AcDbLine
 10
462.0
 20
31.4999999999999858
 30
0.0
 11
461.9999999999999432
 21
23.9999999999999716
 31
0.0
  0
LINE
  5
197
100
AcDbEntity
  8
0
 62
256
370
-1
 48
1.0
  6
ByLayer
100
AcDbLine
 10
462.0
 20
14.25
 30
0.0
 11
462.0
 21
13.7000000000000028
 31
0.0
  0
LINE
  5
198
100
AcDbEntity
  8
0
 62
256
370
-1
 48
1.0
  6
ByLayer
100
AcDbLine
 10
462.0
 20
100.0
 30
0.0
 11
462.0
 21
138.4999999999999716
 31
0.0
  0
LINE
  5
199
100
AcDbEntity
  8
0
 62
256
370
-1
 48
1.0
  6
ByLayer
100
AcDbLine
 10
462.0
 20
138.4999999999999716
 30
0.0
 11
462.0
 21
149.5000000000000284
 31
0.0
  0
LINE
  5
19A
100
AcDbEntity
  8
0
 62
256
370
-1
 48
1.0
  6
ByLayer
100
AcDbLine
 10
462.0
 20
149.5000000000000284
 30
0.0
 11
462.0
 21
154.5
 31
0.0
  0
LINE
  5
19B
100
AcDbEntity
  8
0
 62
256
370
-1
 48
1.0
  6
ByLayer
100
AcDbLine
 10
462.0
 20
154.5
 30
0.0
 11
462.0
 21
168.5
 31
0.0
  0
LINE
  5
19C
100
AcDbEntity
  8
0
 62
256
370
-1
 48
1.0
  6
ByLayer
100
AcDbLine
 10
462.0
 20
194.6999999999999886
 30
0.0
 11
462.0
 21
201.1999999999999886
 31
0.0
  0
LINE
  5
19D
100
AcDbEntity
  8
0
 62
256
370
-1
 48
1.0
  6
ByLayer
100
AcDbLine
 10
462.0
 20
168.5
 30
0.0
 11
462.0
 21
175.9999999999999716
 31
0.0
  0
LINE
  5
19E
100
AcDbEntity
  8
0
 62
256
370
-1
 48
1.0
  6
ByLayer
100
AcDbLine
 10
462.0
 20
175.9999999999999716
 30
0.0
 11
462.0
 21
185.7500000000000284
 31
0.0
  0
LINE
  5
19F
100
AcDbEntity
  8
0
 62
256
370
-1
 48
1.0
  6
ByLayer
100
AcDbLine
 10
462.0
 20
185.7500000000000284
 30
0.0
 11
462.0
 21
186.2999999999999829
 31
0.0
  0
LINE
  5
1A0
100
AcDbEntity
  8
0
 62
256
370
-1
 48
1.0
  6
ByLayer
100
AcDbLine
 10
462.0
 20
186.2999999999999829
 30
0.0
 11
462.0
 21
194.6999999999999886
 31
0.0
  0
LINE
  5
1A1
100
AcDbEntity
  8
0
 62
256
370
-1
 48
1.0
  6
ByLayer
100
AcDbLine
 10
461.9999999999999432
 20
5.2999999999999403
 30
0.0
 11
461.9999999999998863
 21
-1.2000000000000597
 31
0.0
  0
LINE
  5
1A2
100
AcDbEntity
  8
0
 62
256
370
-1
 48
1.0
  6
ByLayer
100
AcDbLine
 10
462.0
 20
61.5000000000000355
 30
0.0
 11
462.0
 21
50.4999999999999574
 31
0.0
  0
LINE
  5
1A3
100
AcDbEntity
  8
0
 62
256
370
-1
 48
1.0
  6
ByLayer
100
AcDbLine
 10
462.0
 20
99.9999999999999716
 30
0.0
 11
462.0
 21
61.5000000000000355
 31
0.0
  0
LINE
  5
1A4
100
AcDbEntity
  8
0
 62
256
370
-1
 48
1.0
  6
ByLayer
100
AcDbLine
 10
462.0
 20
50.4999999999999574
 30
0.0
 11
462.0
 21
45.5
 31
0.0
  0
LINE
  5
1A5
100
AcDbEntity
  8
0
 62
256
370
-1
 48
1.0
  6
ByLayer
100
AcDbLine
 10
462.0
 20
45.5
 30
0.0
 11
462.0
 21
31.4999999999999858
 31
0.0
  0
LINE
  5
1A6
100
AcDbEntity
  8
0
 62
256
370
-1
 48
1.0
  6
ByLayer
100
AcDbLine
 10
487.0
 20
13.6999999999999886
 30
0.0
 11
486.9999999999999432
 21
5.2999999999999261
 31
0.0
  0
LINE
  5
1A7
100
AcDbEntity
  8
0
 62
256
370
-1
 48
1.0
  6
ByLayer
100
AcDbLine
 10
487.0
 20
99.9999999999999716
 30
0.0
 11
487.0
 21
13.6999999999999886
 31
0.0
  0
LINE
  5
1A8
100
AcDbEntity
  8
0
 62
256
370
-1
 48
1.0
  6
ByLayer
100
AcDbLine
 10
487.0
 20
194.6999999999999886
 30
0.0
 11
487.0
 21
201.1999999999999886
 31
0.0
  0
LINE
  5
1A9
100
AcDbEntity
  8
0
 62
256
370
-1
 48
1.0
  6
ByLayer
100
AcDbLine
 10
487.0
 20
100.0
 30
0.0
 11
487.0
 21
186.2999999999999829
 31
0.0
  0
LINE
  5
1AA
100
AcDbEntity
  8
0
 62
256
370
-1
 48
1.0
  6
ByLayer
100
AcDbLine
 10
487.0
 20
186.2999999999999829
 30
0.0
 11
487.0
 21
194.6999999999999886
 31
0.0
  0
LINE
  5
1AB
100
AcDbEntity
  8
0
 62
256
370
-1
 48
1.0
  6
ByLayer
100
AcDbLine
 10
486.9999999999999432
 20
5.2999999999999261
 30
0.0
 11
487.0
 21
-1.199999999999946
 31
0.0
  0
LINE
  5
1AC
100
AcDbEntity
  8
axis
 62
256
370
-1
 48
1.0
  6
ByLayer
100
AcDbLine
 10
461.4999999999998863
 20
9.4999999999999716
 30
0.0
 11
487.4999999999998863
 21
9.4999999999999574
 31
0.0
  0
LINE
  5
1AD
100
AcDbEntity
  8
axis
 62
256
370
-1
 48
1.0
  6
ByLayer
100
AcDbLine
 10
461.4999999999999432
 20
190.4999999999999716
 30
0.0
 11
487.4999999999999432
 21
190.4999999999999716
 31
0.0
  0
LINE
  5
1AE
100
AcDbEntity
  8
holes
 62
256
370
-1
 48
1.0
  6
ByLayer
100
AcDbLine
 10
461.9999999999998863
 20
5.2999999999999829
 30
0.0
 11
486.9999999999999432
 21
5.2999999999999261
 31
0.0
  0
LINE
  5
1AF
100
AcDbEntity
  8
holes
 62
256
370
-1
 48
1.0
  6
ByLayer
100
AcDbLine
 10
461.9999999999999432
 20
194.6999999999999886
 30
0.0
 11
487.0
 21
194.6999999999999886
 31
0.0
  0
LINE
  5
1B0
100
AcDbEntity
  8
holes
 62
256
370
-1
 48
1.0
  6
ByLayer
100
AcDbLine
 10
461.9999999999999432
 20
13.7000000000000313
 30
0.0
 11
487.0
 21
13.6999999999999886
 31
0.0
  0
LINE
  5
1B1
100
AcDbEntity
  8
holes
 62
256
370
-1
 48
1.0
  6
ByLayer
100
AcDbLine
 10
461.9999999999999432
 20
186.2999999999999829
 30
0.0
 11
487.0
 21
186.2999999999999829
 31
0.0
  0
LINE
  5
1B2
100
AcDbEntity
  8
0
 62
256
370
-1
 48
1.0
  6
ByLayer
100
AcDbLine
 10
462.0
 20
14.2500000000000142
 30
0.0
 11
463.6427196325187197
 21
14.2499999999999858
 31
0.0
  0
LINE
  5
1B3
100
AcDbEntity
  8
0
 62
256
370
-1
 48
1.0
  6
ByLayer
100
AcDbLine
 10
462.0
 20
185.75
 30
0.0
 11
463.6427196325187765
 21
185.75
 31
0.0
  0
LINE
  5
1B4
100
AcDbEntity
  8
0
 62
256
370
-1
 48
1.0
  6
ByLayer
100
AcDbLine
 10
463.6427196325187765
 20
14.2499999999999574
 30
0.0
 11
462.660000000000025
 21
16.9500000000000313
 31
0.0
  0
LINE
  5
1B5
100
AcDbEntity
  8
0
 62
256
370
-1
 48
1.0
  6
ByLayer
100
AcDbLine
 10
463.6427196325188334
 20
185.75
 30
0.0
 11
462.660000000000025
 21
183.0499999999999545
 31
0.0
  0
LINE
  5
1B6
100
AcDbEntity
  8
0
 62
256
370
-1
 48
1.0
  6
ByLayer
100
AcDbLine
 10
463.1899999999999409
 20
17.1429042241610148
 30
0.0
 11
463.1899999999999977
 21
24.0000000000000284
 31
0.0
  0
LINE
  5
1B7
100
AcDbEntity
  8
0
 62
256
370
-1
 48
1.0
  6
ByLayer
100
AcDbLine
 10
463.1899999999999977
 20
182.8570957758389284
 30
0.0
 11
463.1899999999999977
 21
175.9999999999999716
 31
0.0
  0
LINE
  5
1B8
100
AcDbEntity
  8
0
 62
256
370
-1
 48
1.0
  6
ByLayer
100
AcDbLine
 10
462.6599999999999682
 20
16.9499999999999318
 30
0.0
 11
463.1900000000000546
 21
17.1429042241611
 31
0.0
  0
LINE
  5
1B9
100
AcDbEntity
  8
0
 62
256
370
-1
 48
1.0
  6
ByLayer
100
AcDbLine
 10
462.660000000000025
 20
183.0500000000000114
 30
0.0
 11
463.1900000000000546
 21
182.8570957758389
 31
0.0
  0
LINE
  5
1BA
100
AcDbEntity
  8
0
 62
256
370
-1
 48
1.0
  6
ByLayer
100
AcDbLine
 10
460.6600000000000819
 20
176.2000000000000171
 30
0.0
 11
462.6600000000000819
 21
176.2000000000000171
 31
0.0
  0
LINE
  5
1BB
100
AcDbEntity
  8
0
 62
256
370
-1
 48
1.0
  6
ByLayer
100
AcDbLine
 10
460.6600000000000819
 20
23.7999999999999687
 30
0.0
 11
462.6600000000000819
 21
23.7999999999999545
 31
0.0
  0
LINE
  5
1BC
100
AcDbEntity
  8
0
 62
256
370
-1
 48
1.0
  6
ByLayer
100
AcDbLine
 10
462.6600000000000819
 20
176.2000000000000171
 30
0.0
 11
462.6600000000000819
 21
185.5500000000000398
 31
0.0
  0
LINE
  5
1BD
100
AcDbEntity
  8
0
 62
256
370
-1
 48
1.0
  6
ByLayer
100
AcDbLine
 10
462.6600000000000819
 20
23.7999999999999545
 30
0.0
 11
462.6600000000000819
 21
14.4499999999999318
 31
0.0
  0
LINE
  5
1BE
100
AcDbEntity
  8
0
 62
256
370
-1
 48
1.0
  6
ByLayer
100
AcDbLine
 10
462.6600000000000819
 20
185.5500000000000398
 30
0.0
 11
460.6600000000000819
 21
185.5500000000000398
 31
0.0
  0
LINE
  5
1BF
100
AcDbEntity
  8
0
 62
256
370
-1
 48
1.0
  6
ByLayer
100
AcDbLine
 10
462.6600000000000819
 20
14.4499999999999318
 30
0.0
 11
460.6600000000000819
 21
14.449999999999946
 31
0.0
  0
LINE
  5
1C0
100
AcDbEntity
  8
0
 62
256
370
-1
 48
1.0
  6
ByLayer
100
AcDbLine
 10
460.6600000000000819
 20
185.5500000000000398
 30
0.0
 11
460.6600000000000819
 21
176.2000000000000171
 31
0.0
  0
LINE
  5
1C1
100
AcDbEntity
  8
0
 62
256
370
-1
 48
1.0
  6
ByLayer
100
AcDbLine
 10
460.6600000000000819
 20
14.449999999999946
 30
0.0
 11
460.6600000000000819
 21
23.7999999999999687
 31
0.0
  0
LINE
  5
1C2
100
AcDbEntity
  8
0
 62
256
370
-1
 48
1.0
  6
ByLayer
100
AcDbLine
 10
461.9999999999999432
 20
175.9999999999999716
 30
0.0
 11
463.1899999999999409
 21
175.9999999999999716
 31
0.0
  0
LINE
  5
1C3
100
AcDbEntity
  8
0
 62
256
370
-1
 48
1.0
  6
ByLayer
100
AcDbLine
 10
461.9999999999998863
 20
24.0
 30
0.0
 11
463.1899999999999409
 21
24.0000000000000568
 31
0.0
  0
LINE
  5
1C4
100
AcDbEntity
  8
0
 62
256
370
-1
 48
1.0
  6
ByLayer
100
AcDbLine
 10
304.0
 20
32.0000000000000142
 30
0.0
 11
304.0
 21
31.5
 31
0.0
  0
LINE
  5
1C5
100
AcDbEntity
  8
0
 62
256
370
-1
 48
1.0
  6
ByLayer
100
AcDbLine
 10
304.0
 20
32.3000000000000398
 30
0.0
 11
304.0
 21
32.0000000000000142
 31
0.0
  0
LINE
  5
1C6
100
AcDbEntity
  8
0
 62
256
370
-1
 48
1.0
  6
ByLayer
100
AcDbLine
 10
304.0
 20
167.6999999999999886
 30
0.0
 11
304.0
 21
168.0
 31
0.0
  0
LINE
  5
1C7
100
AcDbEntity
  8
0
 62
256
370
-1
 48
1.0
  6
ByLayer
100
AcDbLine
 10
304.0
 20
168.0
 30
0.0
 11
304.0
 21
168.5000000000000284
 31
0.0
  0
LINE
  5
1C8
100
AcDbEntity
  8
0
 62
256
370
-1
 48
1.0
  6
ByLayer
100
AcDbLine
 10
447.9999999999999432
 20
168.5000000000000284
 30
0.0
 11
451.4999999999999432
 21
168.5000000000000284
 31
0.0
  0
LINE
  5
1C9
100
AcDbEntity
  8
0
 62
256
370
-1
 48
1.0
  6
ByLayer
100
AcDbLine
 10
443.0
 20
168.5000000000000284
 30
0.0
 11
447.0
 21
168.5000000000000284
 31
0.0
  0
LINE
  5
1CA
100
AcDbEntity
  8
0
 62
256
370
-1
 48
1.0
  6
ByLayer
100
AcDbLine
 10
447.0
 20
168.5000000000000284
 30
0.0
 11
447.9999999999999432
 21
168.5000000000000284
 31
0.0
  0
LINE
  5
1CB
100
AcDbEntity
  8
0
 62
256
370
-1
 48
1.0
  6
ByLayer
100
AcDbLine
 10
457.0
 20
168.5000000000000284
 30
0.0
 11
462.0
 21
168.5000000000000284
 31
0.0
  0
LINE
  5
1CC
100
AcDbEntity
  8
0
 62
256
370
-1
 48
1.0
  6
ByLayer
100
AcDbLine
 10
451.4999999999999432
 20
168.5000000000000284
 30
0.0
 11
457.0
 21
168.5000000000000284
 31
0.0
  0
LINE
  5
1CD
100
AcDbEntity
  8
0
 62
256
370
-1
 48
1.0
  6
ByLayer
100
AcDbLine
 10
456.9999999999999432
 20
31.4999999999999432
 30
0.0
 11
462.0
 21
31.4999999999999858
 31
0.0
  0
LINE
  5
1CE
100
AcDbEntity
  8
0
 62
256
370
-1
 48
1.0
  6
ByLayer
100
AcDbLine
 10
451.4999999999999432
 20
31.4999999999999574
 30
0.0
 11
456.9999999999999432
 21
31.4999999999999432
 31
0.0
  0
LINE
  5
1CF
100
AcDbEntity
  8
0
 62
256
370
-1
 48
1.0
  6
ByLayer
100
AcDbLine
 10
447.0
 20
31.4999999999999716
 30
0.0
 11
447.9999999999998863
 21
31.4999999999999432
 31
0.0
  0
LINE
  5
1D0
100
AcDbEntity
  8
0
 62
256
370
-1
 48
1.0
  6
ByLayer
100
AcDbLine
 10
447.9999999999998863
 20
31.4999999999999432
 30
0.0
 11
451.4999999999999432
 21
31.4999999999999574
 31
0.0
  0
LINE
  5
1D1
100
AcDbEntity
  8
0
 62
256
370
-1
 48
1.0
  6
ByLayer
100
AcDbLine
 10
442.9999999999999432
 20
31.4999999999999289
 30
0.0
 11
447.0
 21
31.4999999999999716
 31
0.0
  0
LINE
  5
1D2
100
AcDbEntity
  8
0
 62
256
370
-1
 48
1.0
  6
ByLayer
100
AcDbLine
 10
377.4999999999999432
 20
31.4999999999999574
 30
0.0
 11
436.9999999999998863
 21
31.4999999999999574
 31
0.0
  0
LINE
  5
1D3
100
AcDbEntity
  8
0
 62
256
370
-1
 48
1.0
  6
ByLayer
100
AcDbLine
 10
436.9999999999998863
 20
31.4999999999999574
 30
0.0
 11
441.9999999999999432
 21
31.5
 31
0.0
  0
LINE
  5
1D4
100
AcDbEntity
  8
0
 62
256
370
-1
 48
1.0
  6
ByLayer
100
AcDbLine
 10
436.9999999999999432
 20
168.5
 30
0.0
 11
441.9999999999999432
 21
168.5
 31
0.0
  0
LINE
  5
1D5
100
AcDbEntity
  8
0
 62
256
370
-1
 48
1.0
  6
ByLayer
100
AcDbLine
 10
377.4999999999999432
 20
168.5000000000000284
 30
0.0
 11
436.9999999999999432
 21
168.5
 31
0.0
  0
DIMENSION
  5
1D6
100
AcDbEntity
  8
dims
 62
256
370
-1
 48
1.0
  6
ByLayer
100
AcDbDimension
 10
299.0
 20
154.0
 30
0.0
 11
300.5
 21
155.875
 31
0.0
 70
1
 71
8
 72
1
 41
1.0
 42
0.0
  1

  3
Standard
100
AcDbAlignedDimension
 13
299.0
 23
160.0
 33
0.0
 14
302.0
 24
160.0
 34
0.0
1001
ACAD
1000
DSTYLE
1002
{
1070
144
1040
1.0
1070
40
1040
1.0
1002
}
  0
DIMENSION
  5
1D7
100
AcDbEntity
  8
dims
 62
256
370
-1
 48
1.0
  6
ByLayer
100
AcDbDimension
 10
302.0
 20
149.0
 30
0.0
 11
303.0
 21
150.875
 31
0.0
 70
1
 71
8
 72
1
 41
1.0
 42
0.0
  1

  3
Standard
100
AcDbAlignedDimension
 13
302.0
 23
160.0
 33
0.0
 14
304.0
 24
160.0
 34
0.0
1001
ACAD
1000
DSTYLE
1002
{
1070
144
1040
1.0
1070
40
1040
1.0
1002
}
  0
DIMENSION
  5
1D8
100
AcDbEntity
  8
dims
 62
256
370
-1
 48
1.0
  6
ByLayer
100
AcDbDimension
 10
298.5000000000000568
 20
163.0000000000000284
 30
0.0
 11
293.8468399839306926
 21
165.7244025536725474
 31
0.0
 70
4
 71
8
 72
1
 41
1.0
 42
0.0
  1
R<>
  3
Standard
100
AcDbRadialDimension
 15
298.0075961234939541
 25
163.086824088833481
 35
0.0
 40
0.0
1001
ACAD
1000
DSTYLE
1002
{
1070
144
1040
1.0
1070
40
1040
1.0
1002
}
  0
DIMENSION
  5
1D9
100
AcDbEntity
  8
dims
 62
256
370
-1
 48
1.0
  6
ByLayer
100
AcDbDimension
 10
300.0
 20
168.5000000000000284
 30
0.0
 11
298.125
 21
171.069444508890939
 31
0.0
 70
1
 71
8
 72
1
 41
1.0
 42
0.0
  1

  3
Standard
100
AcDbAlignedDimension
 13
303.5
 23
168.5000000000000284
 33
0.0
 14
303.5
 24
168.0
 34
0.0
1001
ACAD
1000
DSTYLE
1002
{
1070
144
1040
1.0
1070
40
1040
1.0
1002
}
  0
DIMENSION
  5
1DA
100
AcDbEntity
  8
dims
 62
256
370
-1
 48
1.0
  6
ByLayer
100
AcDbDimension
 10
303.0
 20
170.5
 30
0.0
 11
305.0
 21
172.375
 31
0.0
 70
1
 71
8
 72
1
 41
1.0
 42
0.0
  1

  3
Standard
100
AcDbAlignedDimension
 13
303.0
 23
169.5000000000000284
 33
0.0
 14
307.0
 24
169.5000000000000284
 34
0.0
1001
ACAD
1000
DSTYLE
1002
{
1070
144
1040
1.0
1070
40
1040
1.0
1002
}
  0
DIMENSION
  5
1DB
100
AcDbEntity
  8
dims
 62
256
370
-1
 48
1.0
  6
ByLayer
100
AcDbDimension
 10
491.25
 20
176.0
 30
0.0
 11
489.375
 21
100.0000000000000284
 31
0.0
 70
1
 71
8
 72
1
 41
1.0
 42
0.0
  1

  3
Standard
100
AcDbAlignedDimension
 13
463.1899999999999977
 23
176.0
 33
0.0
 14
463.1899999999999977
 24
24.0000000000000568
 34
0.0
1001
ACAD
1000
DSTYLE
1002
{
1070
144
1040
1.0
1070
40
1040
1.0
1002
}
  0
DIMENSION
  5
1DC
100
AcDbEntity
  8
dims
 62
256
370
-1
 48
1.0
  6
ByLayer
100
AcDbDimension
 10
496.0000000000001137
 20
183.0500000000000398
 30
0.0
 11
494.1250000000001137
 21
99.9999999999999858
 31
0.0
 70
1
 71
8
 72
1
 41
1.0
 42
0.0
  1

  3
Standard
100
AcDbAlignedDimension
 13
462.6600000000000819
 23
183.0500000000000398
 33
0.0
 14
462.6600000000000819
 24
16.9499999999999496
 34
0.0
1001
ACAD
1000
DSTYLE
1002
{
1070
144
1040
1.0
1070
40
1040
1.0
1002
}
  0
DIMENSION
  5
1DD
100
AcDbEntity
  8
dims
 62
256
370
-1
 48
1.0
  6
ByLayer
100
AcDbDimension
 10
501.0
 20
185.7499999999999716
 30
0.0
 11
499.1249999999999432
 21
99.9999999999999574
 31
0.0
 70
1
 71
8
 72
1
 41
1.0
 42
0.0
  1

  3
Standard
100
AcDbAlignedDimension
 13
463.6427196325188902
 23
185.75
 33
0.0
 14
463.6427196325187765
 24
14.2499999999999858
 34
0.0
1001
ACAD
1000
DSTYLE
1002
{
1070
144
1040
1.0
1070
40
1040
1.0
1002
}
  0
DIMENSION
  5
1DE
100
AcDbEntity
  8
dims
 62
256
370
-1
 48
1.0
  6
ByLayer
100
AcDbDimension
 10
506.0
 20
201.1999999999999886
 30
0.0
 11
504.125
 21
100.0000000000000142
 31
0.0
 70
1
 71
8
 72
1
 41
1.0
 42
0.0
  1

  3
Standard
100
AcDbAlignedDimension
 13
487.0
 23
201.1999999999999886
 33
0.0
 14
487.0000000000000568
 24
-1.199999999999946
 34
0.0
1001
ACAD
1000
DSTYLE
1002
{
1070
144
1040
1.0
1070
40
1040
1.0
1002
}
  0
DIMENSION
  5
1DF
100
AcDbEntity
  8
dims
 62
256
370
-1
 48
1.0
  6
ByLayer
100
AcDbDimension
 10
457.9999999999998863
 20
190.4999999999999716
 30
0.0
 11
456.1249999999999432
 21
119.2499999999999858
 31
0.0
 70
1
 71
8
 72
1
 41
1.0
 42
0.0
  1

  3
Standard
100
AcDbAlignedDimension
 13
461.9999999999999432
 23
190.4999999999999716
 33
0.0
 14
462.0000000000000568
 24
48.0000000000000071
 34
0.0
1001
ACAD
1000
DSTYLE
1002
{
1070
144
1040
1.0
1070
40
1040
1.0
1002
}
  0
DIMENSION
  5
1E0
100
AcDbEntity
  8
dims
 62
256
370
-1
 48
1.0
  6
ByLayer
100
AcDbDimension
 10
455.9999999999998295
 20
151.9999999999999716
 30
0.0
 11
454.1249999999998863
 21
145.2499999999999432
 31
0.0
 70
1
 71
8
 72
1
 41
1.0
 42
0.0
  1

  3
Standard
100
AcDbAlignedDimension
 13
458.9999999999998863
 23
152.0
 33
0.0
 14
459.0
 24
138.5
 34
0.0
1001
ACAD
1000
DSTYLE
1002
{
1070
144
1040
1.0
1070
40
1040
1.0
1002
}
  0
DIMENSION
  5
1E1
100
AcDbEntity
  8
dims
 62
256
370
-1
 48
1.0
  6
ByLayer
100
AcDbDimension
 10
462.0
 20
14.2500000000000142
 30
0.0
 11
453.6034312097207817
 21
21.2795854319046391
 31
0.0
 70
2
 71
8
 72
1
 41
1.0
 42
0.0
  1

  3
Standard
100
AcDb2LineAngularDimension
 13
462.660000000000025
 23
16.9500000000000313
 33
0.0
 14
463.6427196325187765
 24
14.2499999999999574
 34
0.0
 15
463.6427196325187197
 25
14.2499999999999858
 35
0.0
 16
455.0
 26
20.0
 36
0.0
  0
DIMENSION
  5
1E2
100
AcDbEntity
  8
dims
 62
256
370
-1
 48
1.0
  6
ByLayer
100
AcDbDimension
 10
463.1899999999999977
 20
24.0000000000000284
 30
0.0
 11
467.1105585584729738
 21
22.7420421147604266
 31
0.0
 70
2
 71
8
 72
1
 41
1.0
 42
0.0
  1

  3
Standard
100
AcDb2LineAngularDimension
 13
462.6599999999999682
 23
16.9499999999999318
 33
0.0
 14
463.1900000000000546
 24
17.1429042241611
 34
0.0
 15
463.1899999999999409
 25
17.1429042241610148
 35
0.0
 16
467.2938458578289556
 26
19.9290985810276204
 36
0.0
  0
DIMENSION
  5
1E3
100
AcDbEntity
  8
dims
 62
256
370
-1
 48
1.0
  6
ByLayer
100
AcDbDimension
 10
461.9999999999998863
 20
26.9999999999998899
 30
0.0
 11
466.1761111111111404
 21
28.8749999999999218
 31
0.0
 70
1
 71
8
 72
1
 41
1.0
 42
0.0
  1

  3
Standard
100
AcDbAlignedDimension
 13
461.9999999999998863
 23
23.9999999999999964
 33
0.0
 14
463.1900000000000546
 24
24.0000000000000568
 34
0.0
1001
ACAD
1000
DSTYLE
1002
{
1070
144
1040
1.0
1070
40
1040
1.0
1002
}
  0
DIMENSION
  5
1E4
100
AcDbEntity
  8
dims
 62
256
370
-1
 48
1.0
  6
ByLayer
100
AcDbDimension
 10
462.6600000000000819
 20
9.4999999999999716
 30
0.0
 11
466.201666731113221
 21
11.374999999999968
 31
0.0
 70
1
 71
8
 72
1
 41
1.0
 42
0.0
  1

  3
Standard
100
AcDbAlignedDimension
 13
462.6600000000000819
 23
16.9499999999999496
 33
0.0
 14
462.0
 24
16.949999999999946
 34
0.0
1001
ACAD
1000
DSTYLE
1002
{
1070
144
1040
1.0
1070
40
1040
1.0
1002
}
  0
DIMENSION
  5
1E5
100
AcDbEntity
  8
dims
 62
256
370
-1
 48
1.0
  6
ByLayer
100
AcDbDimension
 10
196.0
 20
173.5000000000000284
 30
0.0
 11
194.125
 21
171.0000000000000568
 31
0.0
 70
1
 71
8
 72
1
 41
1.0
 42
0.0
  1

  3
Standard
100
AcDbAlignedDimension
 13
197.0000000000000568
 23
173.5000000000000284
 33
0.0
 14
197.0000000000000284
 24
168.5000000000000568
 34
0.0
1001
ACAD
1000
DSTYLE
1002
{
1070
144
1040
1.0
1070
40
1040
1.0
1002
}
  0
DIMENSION
  5
1E6
100
AcDbEntity
  8
dims
 62
256
370
-1
 48
1.0
  6
ByLayer
100
AcDbDimension
 10
204.9999999999999716
 20
168.5000000000000568
 30
0.0
 11
203.1249999999999716
 21
169.0000000000000568
 31
0.0
 70
1
 71
8
 72
1
 41
1.0
 42
0.0
  1

  3
Standard
100
AcDbAlignedDimension
 13
202.0000000000000853
 23
168.5000000000000568
 33
0.0
 14
202.0000000000000853
 24
169.5000000000000284
 34
0.0
1001
ACAD
1000
DSTYLE
1002
{
1070
144
1040
1.0
1070
40
1040
1.0
1002
}
  0
DIMENSION
  5
1E7
100
AcDbEntity
  8
dims
 62
256
370
-1
 48
1.0
  6
ByLayer
100
AcDbDimension
 10
307.0
 20
170.5
 30
0.0
 11
308.0
 21
172.375
 31
0.0
 70
1
 71
8
 72
1
 41
1.0
 42
0.0
  1

  3
Standard
100
AcDbAlignedDimension
 13
307.0
 23
167.5000000000000284
 33
0.0
 14
309.0
 24
167.5000000000000284
 34
0.0
1001
ACAD
1000
DSTYLE
1002
{
1070
144
1040
1.0
1070
40
1040
1.0
1002
}
  0
DIMENSION
  5
1E8
100
AcDbEntity
  8
dims
 62
256
370
-1
 48
1.0
  6
ByLayer
100
AcDbDimension
 10
195.9999999999999716
 20
168.5000000000000284
 30
0.0
 11
194.1249999999999432
 21
166.0
 31
0.0
 70
1
 71
8
 72
1
 41
1.0
 42
0.0
  1

  3
Standard
100
AcDbAlignedDimension
 13
197.5000000000000284
 23
168.5000000000000284
 33
0.0
 14
197.5
 24
163.5
 34
0.0
1001
ACAD
1000
DSTYLE
1002
{
1070
144
1040
1.0
1070
40
1040
1.0
1002
}
  0
DIMENSION
  5
1E9
100
AcDbEntity
  8
dims
 62
256
370
-1
 48
1.0
  6
ByLayer
100
AcDbDimension
 10
200.0
 20
182.0
 30
0.0
 11
201.0000000000000568
 21
183.875
 31
0.0
 70
1
 71
8
 72
1
 41
1.0
 42
0.0
  1

  3
Standard
100
AcDbAlignedDimension
 13
200.0
 23
169.5000000000000284
 33
0.0
 14
202.0000000000000853
 24
169.5000000000000284
 34
0.0
1001
ACAD
1000
DSTYLE
1002
{
1070
144
1040
1.0
1070
40
1040
1.0
1002
}
  0
DIMENSION
  5
1EA
100
AcDbEntity
  8
dims
 62
256
370
-1
 48
1.0
  6
ByLayer
100
AcDbDimension
 10
200.0
 20
155.9999999999999716
 30
0.0
 11
205.0694456525743874
 21
157.875
 31
0.0
 70
1
 71
8
 72
1
 41
1.0
 42
0.0
  1

  3
Standard
100
AcDbAlignedDimension
 13
200.0
 23
165.5000000000000284
 33
0.0
 14
202.5000000000000568
 24
165.5000000000000568
 34
0.0
1001
ACAD
1000
DSTYLE
1002
{
1070
144
1040
1.0
1070
40
1040
1.0
1002
}
  0
DIMENSION
  5
1EB
100
AcDbEntity
  8
dims
 62
256
370
-1
 48
1.0
  6
ByLayer
100
AcDbDimension
 10
321.0
 20
165.5000000000000284
 30
0.0
 11
319.125
 21
162.75
 31
0.0
 70
1
 71
8
 72
1
 41
1.0
 42
0.0
  1

  3
Standard
100
AcDbAlignedDimension
 13
304.0
 23
165.5000000000000284
 33
0.0
 14
304.0
 24
160.0
 34
0.0
1001
ACAD
1000
DSTYLE
1002
{
1070
144
1040
1.0
1070
40
1040
1.0
1002
}
  0
DIMENSION
  5
1EC
100
AcDbEntity
  8
dims
 62
256
370
-1
 48
1.0
  6
ByLayer
100
AcDbDimension
 10
313.0
 20
165.5000000000000284
 30
0.0
 11
311.125
 21
164.5000000000000284
 31
0.0
 70
1
 71
8
 72
1
 41
1.0
 42
0.0
  1

  3
Standard
100
AcDbAlignedDimension
 13
305.0
 23
165.5000000000000284
 33
0.0
 14
305.0
 24
163.5000000000000284
 34
0.0
1001
ACAD
1000
DSTYLE
1002
{
1070
144
1040
1.0
1070
40
1040
1.0
1002
}
  0
DIMENSION
  5
1ED
100
AcDbEntity
  8
dims
 62
256
370
-1
 48
1.0
  6
ByLayer
100
AcDbDimension
 10
280.875
 20
168.0
 30
0.0
 11
279.0
 21
164.0
 31
0.0
 70
1
 71
8
 72
1
 41
1.0
 42
0.0
  1

  3
Standard
100
AcDbAlignedDimension
 13
298.875
 23
168.0
 33
0.0
 14
298.875
 24
160.0
 34
0.0
1001
ACAD
1000
DSTYLE
1002
{
1070
144
1040
1.0
1070
40
1040
1.0
1002
}
  0
DIMENSION
  5
1EE
100
AcDbEntity
  8
dims
 62
256
370
-1
 48
1.0
  6
ByLayer
100
AcDbDimension
 10
297.0
 20
43.0000000000000142
 30
0.0
 11
298.0
 21
44.8750000000000071
 31
0.0
 70
1
 71
8
 72
1
 41
1.0
 42
0.0
  1

  3
Standard
100
AcDbAlignedDimension
 13
297.0
 23
37.0
 33
0.0
 14
299.0
 24
36.9999999999999858
 34
0.0
1001
ACAD
1000
DSTYLE
1002
{
1070
144
1040
1.0
1070
40
1040
1.0
1002
}
  0
DIMENSION
  5
1EF
100
AcDbEntity
  8
dims
 62
256
370
-1
 48
1.0
  6
ByLayer
100
AcDbDimension
 10
431.9999999999999432
 20
156.0
 30
0.0
 11
434.4999999999999432
 21
157.875
 31
0.0
 70
1
 71
8
 72
1
 41
1.0
 42
0.0
  1

  3
Standard
100
AcDbAlignedDimension
 13
431.9999999999999432
 23
165.5
 33
0.0
 14
436.9999999999999432
 24
165.5
 34
0.0
1001
ACAD
1000
DSTYLE
1002
{
1070
144
1040
1.0
1070
40
1040
1.0
1002
}
  0
DIMENSION
  5
1F0
100
AcDbEntity
  8
dims
 62
256
370
-1
 48
1.0
  6
ByLayer
100
AcDbDimension
 10
429.0
 20
168.5
 30
0.0
 11
427.125
 21
167.0
 31
0.0
 70
1
 71
8
 72
1
 41
1.0
 42
0.0
  1

  3
Standard
100
AcDbAlignedDimension
 13
431.9999999999999432
 23
168.5
 33
0.0
 14
431.9999999999999432
 24
165.5
 34
0.0
1001
ACAD
1000
DSTYLE
1002
{
1070
144
1040
1.0
1070
40
1040
1.0
1002
}
  0
DIMENSION
  5
1F1
100
AcDbEntity
  8
dims
 62
256
370
-1
 48
1.0
  6
ByLayer
100
AcDbDimension
 10
192.0
 20
173.5000000000000284
 30
0.0
 11
190.125
 21
136.75
 31
0.0
 70
0
 71
8
 72
1
 41
1.0
 42
0.0
  1

  3
Standard
100
AcDbAlignedDimension
 13
198.0000000000000568
 23
173.5000000000000284
 33
0.0
 14
200.0000000000000568
 24
100.0
 34
0.0
 50
90.0
100
AcDbRotatedDimension
1001
ACAD
1000
DSTYLE
1002
{
1070
144
1040
1.0
1070
40
1040
1.0
1002
}
  0
DIMENSION
  5
1F2
100
AcDbEntity
  8
dims
 62
256
370
-1
 48
1.0
  6
ByLayer
100
AcDbDimension
 10
456.4999999999999432
 20
37.0
 30
0.0
 11
459.5694445088909674
 21
38.875
 31
0.0
 70
1
 71
8
 72
1
 41
1.0
 42
0.0
  1

  3
Standard
100
AcDbAlignedDimension
 13
456.4999999999999432
 23
34.5
 33
0.0
 14
457.0
 24
34.5
 34
0.0
1001
ACAD
1000
DSTYLE
1002
{
1070
144
1040
1.0
1070
40
1040
1.0
1002
}
  0
DIMENSION
  5
1F3
100
AcDbEntity
  8
dims
 62
256
370
-1
 48
1.0
  6
ByLayer
100
AcDbDimension
 10
437.4999999999998863
 20
36.9999999999999929
 30
0.0
 11
440.0694445088907969
 21
38.875
 31
0.0
 70
1
 71
8
 72
1
 41
1.0
 42
0.0
  1

  3
Standard
100
AcDbAlignedDimension
 13
437.4999999999998863
 23
34.5000000000000213
 33
0.0
 14
436.9999999999998863
 24
34.5000000000000284
 34
0.0
1001
ACAD
1000
DSTYLE
1002
{
1070
144
1040
1.0
1070
40
1040
1.0
1002
}
  0
DIMENSION
  5
1F4
100
AcDbEntity
  8
dims
 62
256
370
-1
 48
1.0
  6
ByLayer
100
AcDbDimension
 10
441.9999999999999432
 20
22.9999999999999716
 30
0.0
 11
445.0694445088907969
 21
24.8749999999999751
 31
0.0
 70
1
 71
8
 72
1
 41
1.0
 42
0.0
  1

  3
Standard
100
AcDbAlignedDimension
 13
441.9999999999999432
 23
30.4999999999999858
 33
0.0
 14
442.4999999999998863
 24
30.4999999999999929
 34
0.0
1001
ACAD
1000
DSTYLE
1002
{
1070
144
1040
1.0
1070
40
1040
1.0
1002
}
  0
DIMENSION
  5
1F5
100
AcDbEntity
  8
dims
 62
256
370
-1
 48
1.0
  6
ByLayer
100
AcDbDimension
 10
447.4999999999998863
 20
27.0000000000000711
 30
0.0
 11
450.5694445088907969
 21
28.8750000000000639
 31
0.0
 70
1
 71
8
 72
1
 41
1.0
 42
0.0
  1

  3
Standard
100
AcDbAlignedDimension
 13
447.4999999999998863
 23
31.4999999999999574
 33
0.0
 14
447.9999999999998295
 24
31.4999999999999432
 34
0.0
1001
ACAD
1000
DSTYLE
1002
{
1070
144
1040
1.0
1070
40
1040
1.0
1002
}
  0
DIMENSION
  5
1F6
100
AcDbEntity
  8
dims
 62
256
370
-1
 48
1.0
  6
ByLayer
100
AcDbDimension
 10
292.0
 20
34.4999999999999858
 30
0.0
 11
290.125
 21
38.6805555985078513
 31
0.0
 70
1
 71
8
 72
1
 41
1.0
 42
0.0
  1
R<>
  3
Standard
100
AcDbAlignedDimension
 13
297.0
 23
34.4999999999999858
 33
0.0
 14
297.0
 24
35.0000000000000284
 34
0.0
1001
ACAD
1000
DSTYLE
1002
{
1070
144
1040
1.0
1070
40
1040
1.0
1002
}
  0
DIMENSION
  5
1F7
100
AcDbEntity
  8
dims
 62
256
370
-1
 48
1.0
  6
ByLayer
100
AcDbDimension
 10
200.0
 20
25.0
 30
0.0
 11
204.1805555985078229
 21
26.875
 31
0.0
 70
1
 71
8
 72
1
 41
1.0
 42
0.0
  1
R<>
  3
Standard
100
AcDbAlignedDimension
 13
200.0
 23
30.4999999999999716
 33
0.0
 14
200.5000000000000284
 24
30.4999999999999716
 34
0.0
1001
ACAD
1000
DSTYLE
1002
{
1070
144
1040
1.0
1070
40
1040
1.0
1002
}
  0
DIMENSION
  5
1F8
100
AcDbEntity
  8
dims
 62
256
370
-1
 48
1.0
  6
ByLayer
100
AcDbDimension
 10
476.0000000000000568
 20
154.4999999999999147
 30
0.0
 11
474.125
 21
151.9999999999999716
 31
0.0
 70
1
 71
8
 72
1
 41
1.0
 42
0.0
  1
\U+00f8<>
  3
Standard
100
AcDbAlignedDimension
 13
471.9999999999999432
 23
154.4999999999999716
 33
0.0
 14
471.9999999999998863
 24
149.5
 34
0.0
1001
ACAD
1000
DSTYLE
1002
{
1070
144
1040
1.0
1070
40
1040
1.0
1002
}
  0
DIMENSION
  5
1F9
100
AcDbEntity
  8
dims
 62
256
370
-1
 48
1.0
  6
ByLayer
100
AcDbDimension
 10
458.0000000000000568
 20
190.4999999999999147
 30
0.0
 11
456.1249999999999432
 21
198.5194456525742055
 31
0.0
 70
1
 71
8
 72
1
 41
1.0
 42
0.0
  1
R<>
  3
Standard
100
AcDbAlignedDimension
 13
462.0
 23
190.4999999999999716
 33
0.0
 14
461.9999999999999432
 24
194.6999999999999886
 34
0.0
1001
ACAD
1000
DSTYLE
1002
{
1070
144
1040
1.0
1070
40
1040
1.0
1002
}
  0
DIMENSION
  5
1FA
100
AcDbEntity
  8
dims
 62
256
370
-1
 48
1.0
  6
ByLayer
100
AcDbDimension
 10
462.0
 20
205.0
 30
0.0
 11
474.5
 21
206.875
 31
0.0
 70
1
 71
8
 72
1
 41
1.0
 42
0.0
  1

  3
Standard
100
AcDbAlignedDimension
 13
462.0
 23
201.1999999999999886
 33
0.0
 14
487.0
 24
201.1999999999999886
 34
0.0
1001
ACAD
1000
DSTYLE
1002
{
1070
144
1040
1.0
1070
40
1040
1.0
1002
}
  0
DIMENSION
  5
1FB
100
AcDbEntity
  8
dims2
 62
256
370
-1
 48
1.0
  6
ByLayer
100
AcDbDimension
 10
461.9999999999998863
 20
-7.0000000000001146
 30
0.0
 11
474.4999999999999432
 21
-5.1250000000000577
 31
0.0
 70
1
 71
8
 72
1
 41
1.0
 42
0.0
  1

  3
Standard
100
AcDbAlignedDimension
 13
461.9999999999998863
 23
-1.2000000000000597
 33
0.0
 14
487.0
 24
-1.199999999999946
 34
0.0
1001
ACAD
1000
DSTYLE
1002
{
1070
144
1040
1.0
1070
40
1040
1.0
1002
}
  0
DIMENSION
  5
1FC
100
AcDbEntity
  8
dims2
 62
256
370
-1
 48
1.0
  6
ByLayer
100
AcDbDimension
 10
494.0
 20
201.1999999999999886
 30
0.0
 11
492.125
 21
100.0000000000000142
 31
0.0
 70
1
 71
8
 72
1
 41
1.0
 42
0.0
  1

  3
Standard
100
AcDbAlignedDimension
 13
487.0
 23
201.1999999999999886
 33
0.0
 14
487.0
 24
-1.199999999999946
 34
0.0
1001
ACAD
1000
DSTYLE
1002
{
1070
144
1040
1.0
1070
40
1040
1.0
1002
}
  0
DIMENSION
  5
1FD
100
AcDbEntity
  8
dims2
 62
256
370
-1
 48
1.0
  6
ByLayer
100
AcDbDimension
 10
462.0
 20
210.0
 30
0.0
 11
379.5
 21
211.875
 31
0.0
 70
0
 71
8
 72
1
 41
1.0
 42
0.0
  1

  3
Standard
100
AcDbAlignedDimension
 13
297.0
 23
168.0000000000000284
 33
0.0
 14
462.0
 24
168.5000000000000284
 34
0.0
 50
0.0
100
AcDbRotatedDimension
1001
ACAD
1000
DSTYLE
1002
{
1070
144
1040
1.0
1070
40
1040
1.0
1002
}
  0
DIMENSION
  5
1FE
100
AcDbEntity
  8
dims2
 62
256
370
-1
 48
1.0
  6
ByLayer
100
AcDbDimension
 10
200.0
 20
100.0
 30
0.0
 11
170.7164303862332133
 21
106.7814582263459613
 31
0.0
 70
4
 71
8
 72
1
 41
1.0
 42
0.0
  1

  3
Standard
100
AcDbRadialDimension
 15
140.8163645700713573
 25
109.8639392383214215
 35
0.0
 40
0.0
1001
ACAD
1000
DSTYLE
1002
{
1070
144
1040
1.0
1070
40
1040
1.0
1002
}
  0
DIMENSION
  5
1FF
100
AcDbEntity
  8
dims2
 62
256
370
-1
 48
1.0
  6
ByLayer
100
AcDbDimension
 10
200.0
 20
100.0
 30
0.0
 11
172.6640689750650779
 21
115.7642792413735151
 31
0.0
 70
4
 71
8
 72
1
 41
1.0
 42
0.0
  1

  3
Standard
100
AcDbRadialDimension
 15
143.6510869670052841
 25
128.1744565164973437
 35
0.0
 40
0.0
1001
ACAD
1000
DSTYLE
1002
{
1070
144
1040
1.0
1070
40
1040
1.0
1002
}
  0
DIMENSION
  5
200
100
AcDbEntity
  8
dims2
 62
256
370
-1
 48
1.0
  6
ByLayer
100
AcDbDimension
 10
200.0
 20
100.0
 30
0.0
 11
177.2841946543821621
 21
125.3674557750673841
 31
0.0
 70
4
 71
8
 72
1
 41
1.0
 42
0.0
  1

  3
Standard
100
AcDbRadialDimension
 15
151.9167388793147779
 25
148.0832611206852221
 35
0.0
 40
0.0
1001
ACAD
1000
DSTYLE
1002
{
1070
144
1040
1.0
1070
40
1040
1.0
1002
}
  0
LINE
  5
201
100
AcDbEntity
  8
help
 62
256
370
-1
 48
1.0
  6
ByLayer
100
AcDbLine
 10
458.9999999999999432
 20
61.5000000000000071
 30
0.0
 11
600.0
 21
61.5000000000000071
 31
0.0
  0
LINE
  5
202
100
AcDbEntity
  8
help
 62
256
370
-1
 48
1.0
  6
ByLayer
100
AcDbLine
 10
564.4999999999998863
 20
31.4999999999999893
 30
0.0
 11
600.0
 21
31.4999999999999893
 31
0.0
  0
LINE
  5
203
100
AcDbEntity
  8
help
 62
256
370
-1
 48
1.0
  6
ByLayer
100
AcDbLine
 10
458.9999999999999432
 20
31.4999999999999893
 30
0.0
 11
564.4999999999998863
 21
31.4999999999999893
 31
0.0
  0
LINE
  5
204
100
AcDbEntity
  8
help
 62
256
370
-1
 48
1.0
  6
ByLayer
100
AcDbLine
 10
458.9999999999999432
 20
48.0
 30
0.0
 11
600.0
 21
48.0
 31
0.0
  0
LINE
  5
205
100
AcDbEntity
  8
help
 62
256
370
-1
 48
1.0
  6
ByLayer
100
AcDbLine
 10
565.5
 20
34.5000000000000426
 30
0.0
 11
600.0
 21
34.5000000000000426
 31
0.0
  0
LINE
  5
206
100
AcDbEntity
  8
help
 62
256
370
-1
 48
1.0
  6
ByLayer
100
AcDbLine
 10
458.9999999999999432
 20
34.5000000000000426
 30
0.0
 11
565.5
 21
34.5000000000000426
 31
0.0
  0
LINE
  5
207
100
AcDbEntity
  8
0
 62
256
370
-1
 48
1.0
  6
ByLayer
100
AcDbLine
 10
564.5
 20
31.4999999999999964
 30
0.0
 11
565.5
 21
31.4999999999999964
 31
0.0
  0
LINE
  5
208
100
AcDbEntity
  8
0
 62
256
370
-1
 48
1.0
  6
ByLayer
100
AcDbLine
 10
550.0
 20
31.4999999999999964
 30
0.0
 11
564.5
 21
31.4999999999999964
 31
0.0
  0
LINE
  5
209
100
AcDbEntity
  8
0
 62
256
370
-1
 48
1.0
  6
ByLayer
100
AcDbLine
 10
565.5
 20
31.4999999999999964
 30
0.0
 11
580.0
 21
31.4999999999999964
 31
0.0
  0
LINE
  5
20A
100
AcDbEntity
  8
0
 62
256
370
-1
 48
1.0
  6
ByLayer
100
AcDbLine
 10
580.0
 20
34.5000000000000426
 30
0.0
 11
580.0
 21
61.5
 31
0.0
  0
LINE
  5
20B
100
AcDbEntity
  8
0
 62
256
370
-1
 48
1.0
  6
ByLayer
100
AcDbLine
 10
580.0
 20
31.4999999999999964
 30
0.0
 11
580.0
 21
34.5000000000000426
 31
0.0
  0
LINE
  5
20C
100
AcDbEntity
  8
0
 62
256
370
-1
 48
1.0
  6
ByLayer
100
AcDbLine
 10
580.0
 20
61.5
 30
0.0
 11
550.0
 21
61.5
 31
0.0
  0
LINE
  5
20D
100
AcDbEntity
  8
0
 62
256
370
-1
 48
1.0
  6
ByLayer
100
AcDbLine
 10
550.0
 20
34.5000000000000426
 30
0.0
 11
550.0
 21
31.4999999999999964
 31
0.0
  0
LINE
  5
20E
100
AcDbEntity
  8
0
 62
256
370
-1
 48
1.0
  6
ByLayer
100
AcDbLine
 10
550.0
 20
61.5
 30
0.0
 11
550.0
 21
34.5000000000000426
 31
0.0
  0
LINE
  5
20F
100
AcDbEntity
  8
0
 62
256
370
-1
 48
1.0
  6
ByLayer
100
AcDbLine
 10
565.5
 20
34.5000000000000426
 30
0.0
 11
580.0
 21
34.5000000000000426
 31
0.0
  0
LINE
  5
210
100
AcDbEntity
  8
0
 62
256
370
-1
 48
1.0
  6
ByLayer
100
AcDbLine
 10
564.5
 20
34.5000000000000426
 30
0.0
 11
565.5
 21
34.5000000000000426
 31
0.0
  0
LINE
  5
211
100
AcDbEntity
  8
0
 62
256
370
-1
 48
1.0
  6
ByLayer
100
AcDbLine
 10
550.0
 20
34.5000000000000426
 30
0.0
 11
564.5
 21
34.5000000000000426
 31
0.0
  0
CIRCLE
  5
212
100
AcDbEntity
  8
0
 62
256
370
-1
 48
1.0
  6
ByLayer
100
AcDbCircle
 10
565.0
 20
48.0000000000000213
 30
0.0
 40
2.5
  0
LINE
  5
213
100
AcDbEntity
  8
axis
 62
256
370
-1
 48
1.0
  6
ByLayer
100
AcDbLine
 10
565.0000000000001137
 20
35.0000000000000426
 30
0.0
 11
565.0
 21
30.9999999999999964
 31
0.0
  0
LINE
  5
214
100
AcDbEntity
  8
0
 62
256
370
-1
 48
1.0
  6
ByLayer
100
AcDbLine
 10
565.5
 20
34.5
 30
0.0
 11
565.5
 21
31.4999999999999893
 31
0.0
  0
LINE
  5
215
100
AcDbEntity
  8
0
 62
256
370
-1
 48
1.0
  6
ByLayer
100
AcDbLine
 10
564.5
 20
34.5
 30
0.0
 11
564.5
 21
31.4999999999999964
 31
0.0
  0
HATCH
  5
216
100
AcDbEntity
  8
0
 62
256
370
-1
 48
1.0
  6
ByLayer
100
AcDbHatch
 10
0.0
 20
0.0
 30
0.0
210
0.0
220
0.0
230
1.0
  2
ANSI31
 70
0
 71
0
 91
1
 92
1
 93
4
 72
1
 10
550.0
 20
34.5000000000000426
 11
550.0
 21
31.4999999999999964
 72
1
 10
550.0
 20
31.4999999999999964
 11
564.5
 21
31.4999999999999964
 72
1
 10
564.5
 20
31.4999999999999964
 11
564.5
 21
34.5
 72
1
 10
564.5
 20
34.5000000000000426
 11
550.0
 21
34.5000000000000426
 97
0
 75
0
 76
1
 52
0.0
 41
0.0890843
 77
0
 78
1
 53
45.0
 43
0.0
 44
0.0
 45
-0.0883883476483184
 46
0.0883883476483185
 79
0
 98
0
1001
ACAD
1010
0.0
1020
0.0
1030
0
  0
HATCH
  5
217
100
AcDbEntity
  8
0
 62
256
370
-1
 48
1.0
  6
ByLayer
100
AcDbHatch
 10
0.0
 20
0.0
 30
0.0
210
0.0
220
0.0
230
1.0
  2
ANSI31
 70
0
 71
0
 91
1
 92
1
 93
4
 72
1
 10
565.5
 20
34.5000000000000426
 11
580.0
 21
34.5000000000000426
 72
1
 10
580.0
 20
34.5000000000000426
 11
580.0
 21
31.4999999999999964
 72
1
 10
580.0
 20
31.4999999999999964
 11
565.5
 21
31.4999999999999964
 72
1
 10
565.5
 20
31.4999999999999893
 11
565.5
 21
34.5
 97
0
 75
0
 76
1
 52
0.0
 41
0.0890843
 77
0
 78
1
 53
45.0
 43
0.0
 44
0.0
 45
-0.0883883476483184
 46
0.0883883476483185
 79
0
 98
0
1001
ACAD
1010
0.0
1020
0.0
1030
0
  0
DIMENSION
  5
218
100
AcDbEntity
  8
dims
 62
256
370
-1
 48
1.0
  6
ByLayer
100
AcDbDimension
 10
586.0
 20
61.4999999999999929
 30
0.0
 11
584.125
 21
46.4999999999999929
 31
0.0
 70
1
 71
8
 72
2
 41
1.0
 42
0.0
  1

  3
Standard
100
AcDbAlignedDimension
 13
580.0
 23
61.4999999999999929
 33
0.0
 14
580.0
 24
31.4999999999999964
 34
0.0
1001
ACAD
1000
DSTYLE
1002
{
1070
144
1040
1.0
1070
40
1040
1.0
1002
}
  0
DIMENSION
  5
219
100
AcDbEntity
  8
dims
 62
256
370
-1
 48
1.0
  6
ByLayer
100
AcDbDimension
 10
559.9999999999998863
 20
47.9999999999999787
 30
0.0
 11
558.125
 21
41.2499999999999716
 31
0.0
 70
1
 71
8
 72
2
 41
1.0
 42
0.0
  1

  3
Standard
100
AcDbAlignedDimension
 13
565.0
 23
48.0000000000000213
 33
0.0
 14
565.0000000000001137
 24
34.5000000000000426
 34
0.0
1001
ACAD
1000
DSTYLE
1002
{
1070
144
1040
1.0
1070
40
1040
1.0
1002
}
  0
DIMENSION
  5
21A
100
AcDbEntity
  8
dims
 62
256
370
-1
 48
1.0
  6
ByLayer
100
AcDbDimension
 10
565.0
 20
54.7360433840342182
 30
0.0
 11
557.5
 21
56.6110433840342182
 31
0.0
 70
1
 71
8
 72
2
 41
1.0
 42
0.0
  1

  3
Standard
100
AcDbAlignedDimension
 13
565.0
 23
48.0000000000000213
 33
0.0
 14
550.0
 24
48.0000000000000213
 34
0.0
1001
ACAD
1000
DSTYLE
1002
{
1070
144
1040
1.0
1070
40
1040
1.0
1002
}
  0
DIMENSION
  5
21B
100
AcDbEntity
  8
dims
 62
256
370
-1
 48
1.0
  6
ByLayer
100
AcDbDimension
 10
550.0
 20
66.0
 30
0.0
 11
565.0
 21
67.875
 31
0.0
 70
1
 71
8
 72
2
 41
1.0
 42
0.0
  1

  3
Standard
100
AcDbAlignedDimension
 13
550.0
 23
61.4999999999999929
 33
0.0
 14
580.0
 24
61.4999999999999929
 34
0.0
1001
ACAD
1000
DSTYLE
1002
{
1070
144
1040
1.0
1070
40
1040
1.0
1002
}
  0
DIMENSION
  5
21C
100
AcDbEntity
  8
dims
 62
256
370
-1
 48
1.0
  6
ByLayer
100
AcDbDimension
 10
565.0
 20
24.0
 30
0.0
 11
557.5
 21
25.875
 31
0.0
 70
1
 71
8
 72
2
 41
1.0
 42
0.0
  1

  3
Standard
100
AcDbAlignedDimension
 13
565.0
 23
31.4999999999999964
 33
0.0
 14
550.0000000000001137
 24
31.4999999999999964
 34
0.0
1001
ACAD
1000
DSTYLE
1002
{
1070
144
1040
1.0
1070
40
1040
1.0
1002
}
  0
DIMENSION
  5
21D
100
AcDbEntity
  8
dims
 62
256
370
-1
 48
1.0
  6
ByLayer
100
AcDbDimension
 10
564.5
 20
38.0
 30
0.0
 11
567.6527801191004983
 21
39.875
 31
0.0
 70
1
 71
8
 72
2
 41
1.0
 42
0.0
  1
\U+00f8<>
  3
Standard
100
AcDbAlignedDimension
 13
564.5
 23
34.5000000000000426
 33
0.0
 14
565.5
 24
34.5000000000000426
 34
0.0
1001
ACAD
1000
DSTYLE
1002
{
1070
144
1040
1.0
1070
40
1040
1.0
1002
}
  0
DIMENSION
  5
21E
100
AcDbEntity
  8
dims
 62
256
370
-1
 48
1.0
  6
ByLayer
100
AcDbDimension
 10
545.0320947767270354
 20
34.4999999999998579
 30
0.0
 11
543.1570947767270354
 21
32.9999999999997655
 31
0.0
 70
1
 71
8
 72
2
 41
1.0
 42
0.0
  1

  3
Standard
100
AcDbAlignedDimension
 13
550.0
 23
34.5000000000000426
 33
0.0
 14
550.0000000000001137
 24
31.4999999999999964
 34
0.0
1001
ACAD
1000
DSTYLE
1002
{
1070
144
1040
1.0
1070
40
1040
1.0
1002
}
  0
LINE
  5
21F
100
AcDbEntity
  8
help
 62
256
370
-1
 48
1.0
  6
ByLayer
100
AcDbLine
 10
550.0
 20
31.4999999999999893
 30
0.0
 11
550.0
 21
-38.5000000000000142
 31
0.0
  0
LINE
  5
220
100
AcDbEntity
  8
help
 62
256
370
-1
 48
1.0
  6
ByLayer
100
AcDbLine
 10
565.0
 20
31.4999999999999964
 30
0.0
 11
565.0
 21
-38.5
 31
0.0
  0
LINE
  5
221
100
AcDbEntity
  8
help
 62
256
370
-1
 48
1.0
  6
ByLayer
100
AcDbLine
 10
580.0
 20
6.9999999999999964
 30
0.0
 11
580.0
 21
-38.5
 31
0.0
  0
LINE
  5
222
100
AcDbEntity
  8
help
 62
256
370
-1
 48
1.0
  6
ByLayer
100
AcDbLine
 10
580.0
 20
31.4999999999999964
 30
0.0
 11
580.0
 21
6.9999999999999964
 31
0.0
  0
LINE
  5
223
100
AcDbEntity
  8
0
 62
256
370
-1
 48
1.0
  6
ByLayer
100
AcDbLine
 10
550.0
 20
-20.0
 30
0.0
 11
580.0
 21
-20.0
 31
0.0
  0
LINE
  5
224
100
AcDbEntity
  8
0
 62
256
370
-1
 48
1.0
  6
ByLayer
100
AcDbLine
 10
580.0
 20
6.9999999999999964
 30
0.0
 11
580.0
 21
10.0
 31
0.0
  0
LINE
  5
225
100
AcDbEntity
  8
0
 62
256
370
-1
 48
1.0
  6
ByLayer
100
AcDbLine
 10
580.0
 20
-20.0
 30
0.0
 11
580.0
 21
6.9999999999999964
 31
0.0
  0
LINE
  5
226
100
AcDbEntity
  8
0
 62
256
370
-1
 48
1.0
  6
ByLayer
100
AcDbLine
 10
562.5
 20
10.0
 30
0.0
 11
550.0
 21
10.0
 31
0.0
  0
LINE
  5
227
100
AcDbEntity
  8
0
 62
256
370
-1
 48
1.0
  6
ByLayer
100
AcDbLine
 10
567.5
 20
10.0
 30
0.0
 11
562.5
 21
10.0
 31
0.0
  0
LINE
  5
228
100
AcDbEntity
  8
0
 62
256
370
-1
 48
1.0
  6
ByLayer
100
AcDbLine
 10
580.0
 20
10.0
 30
0.0
 11
567.5
 21
10.0
 31
0.0
  0
LINE
  5
229
100
AcDbEntity
  8
0
 62
256
370
-1
 48
1.0
  6
ByLayer
100
AcDbLine
 10
550.0
 20
6.9999999999999991
 30
0.0
 11
550.0
 21
-20.0
 31
0.0
  0
LINE
  5
22A
100
AcDbEntity
  8
0
 62
256
370
-1
 48
1.0
  6
ByLayer
100
AcDbLine
 10
550.0
 20
10.0
 30
0.0
 11
550.0
 21
6.9999999999999991
 31
0.0
  0
LINE
  5
22B
100
AcDbEntity
  8
0
 62
256
370
-1
 48
1.0
  6
ByLayer
100
AcDbLine
 10
567.5
 20
6.9999999999999973
 30
0.0
 11
580.0
 21
6.9999999999999964
 31
0.0
  0
LINE
  5
22C
100
AcDbEntity
  8
0
 62
256
370
-1
 48
1.0
  6
ByLayer
100
AcDbLine
 10
562.5
 20
6.9999999999999982
 30
0.0
 11
567.5
 21
6.9999999999999973
 31
0.0
  0
LINE
  5
22D
100
AcDbEntity
  8
0
 62
256
370
-1
 48
1.0
  6
ByLayer
100
AcDbLine
 10
550.0
 20
6.9999999999999991
 30
0.0
 11
562.5
 21
6.9999999999999982
 31
0.0
  0
LINE
  5
22E
100
AcDbEntity
  8
0
 62
256
370
-1
 48
1.0
  6
ByLayer
100
AcDbLine
 10
567.5
 20
10.0
 30
0.0
 11
567.5
 21
6.9999999999999973
 31
0.0
  0
LINE
  5
22F
100
AcDbEntity
  8
0
 62
256
370
-1
 48
1.0
  6
ByLayer
100
AcDbLine
 10
562.5
 20
10.0
 30
0.0
 11
562.5
 21
6.9999999999999982
 31
0.0
  0
LINE
  5
230
100
AcDbEntity
  8
axis
 62
256
370
-1
 48
1.0
  6
ByLayer
100
AcDbLine
 10
565.0
 20
10.5
 30
0.0
 11
565.0
 21
6.4999999999999991
 31
0.0
  0
LINE
  5
231
100
AcDbEntity
  8
help
 62
256
370
-1
 48
1.0
  6
ByLayer
100
AcDbLine
 10
550.0
 20
-14.5
 30
0.0
 11
580.0
 21
-14.5
 31
0.0
  0
LINE
  5
232
100
AcDbEntity
  8
help
 62
256
370
-1
 48
1.0
  6
ByLayer
100
AcDbLine
 10
567.5
 20
4.5
 30
0.0
 11
562.5
 21
4.5
 31
0.0
  0
ARC
  5
233
100
AcDbEntity
  8
0
 62
256
370
-1
 48
1.0
  6
ByLayer
100
AcDbCircle
 10
565.0
 20
4.5
 30
0.0
 40
0.5
100
AcDbArc
 50
0.0
 51
180.0
  0
ARC
  5
234
100
AcDbEntity
  8
0
 62
256
370
-1
 48
1.0
  6
ByLayer
100
AcDbCircle
 10
565.0
 20
-14.5
 30
0.0
 40
0.5
100
AcDbArc
 50
180.0
 51
0.0
  0
LINE
  5
235
100
AcDbEntity
  8
0
 62
256
370
-1
 48
1.0
  6
ByLayer
100
AcDbLine
 10
565.5
 20
-14.5
 30
0.0
 11
565.5
 21
4.5
 31
0.0
  0
LINE
  5
236
100
AcDbEntity
  8
0
 62
256
370
-1
 48
1.0
  6
ByLayer
100
AcDbLine
 10
564.5
 20
4.5
 30
0.0
 11
564.5
 21
-14.5
 31
0.0
  0
HATCH
  5
237
100
AcDbEntity
  8
0
 62
256
370
-1
 48
1.0
  6
ByLayer
100
AcDbHatch
 10
0.0
 20
0.0
 30
0.0
210
0.0
220
0.0
230
1.0
  2
ANSI31
 70
0
 71
0
 91
1
 92
1
 93
4
 72
1
 10
550.0
 20
10.0
 11
550.0
 21
6.9999999999999991
 72
1
 10
550.0
 20
6.9999999999999991
 11
562.5
 21
6.9999999999999982
 72
1
 10
562.5
 20
6.9999999999999982
 11
562.5
 21
10.0
 72
1
 10
562.5
 20
10.0
 11
550.0
 21
10.0
 97
0
 75
0
 76
1
 52
0.0
 41
0.0890843
 77
0
 78
1
 53
45.0
 43
0.0
 44
0.0
 45
-0.0883883476483184
 46
0.0883883476483185
 79
0
 98
0
1001
ACAD
1010
0.0
1020
0.0
1030
0
  0
HATCH
  5
238
100
AcDbEntity
  8
0
 62
256
370
-1
 48
1.0
  6
ByLayer
100
AcDbHatch
 10
0.0
 20
0.0
 30
0.0
210
0.0
220
0.0
230
1.0
  2
ANSI31
 70
0
 71
0
 91
1
 92
1
 93
4
 72
1
 10
567.5
 20
6.9999999999999973
 11
580.0
 21
6.9999999999999964
 72
1
 10
580.0
 20
6.9999999999999964
 11
580.0
 21
10.0
 72
1
 10
580.0
 20
10.0
 11
567.5
 21
10.0
 72
1
 10
567.5
 20
10.0
 11
567.5
 21
6.9999999999999973
 97
0
 75
0
 76
1
 52
0.0
 41
0.0890843
 77
0
 78
1
 53
45.0
 43
0.0
 44
0.0
 45
-0.0883883476483184
 46
0.0883883476483185
 79
0
 98
0
1001
ACAD
1010
0.0
1020
0.0
1030
0
  0
DIMENSION
  5
239
100
AcDbEntity
  8
dims
 62
256
370
-1
 48
1.0
  6
ByLayer
100
AcDbDimension
 10
545.0
 20
10.0000000000000036
 30
0.0
 11
543.125
 21
7.2500000000000036
 31
0.0
 70
1
 71
8
 72
2
 41
1.0
 42
0.0
  1

  3
Standard
100
AcDbAlignedDimension
 13
565.0
 23
10.0000000000000018
 33
0.0
 14
565.0
 24
4.5
 34
0.0
1001
ACAD
1000
DSTYLE
1002
{
1070
144
1040
1.0
1070
40
1040
1.0
1002
}
  0
DIMENSION
  5
23A
100
AcDbEntity
  8
dims
 62
256
370
-1
 48
1.0
  6
ByLayer
100
AcDbDimension
 10
545.0
 20
-14.4999999999999982
 30
0.0
 11
543.125
 21
-17.2499999999999964
 31
0.0
 70
1
 71
8
 72
2
 41
1.0
 42
0.0
  1

  3
Standard
100
AcDbAlignedDimension
 13
565.0
 23
-14.5
 33
0.0
 14
565.0
 24
-20.0
 34
0.0
1001
ACAD
1000
DSTYLE
1002
{
1070
144
1040
1.0
1070
40
1040
1.0
1002
}
  0
DIMENSION
  5
23B
100
AcDbEntity
  8
dims
 62
256
370
-1
 48
1.0
  6
ByLayer
100
AcDbDimension
 10
586.0
 20
6.9999999999999964
 30
0.0
 11
584.125
 21
8.4999999999999982
 31
0.0
 70
1
 71
8
 72
2
 41
1.0
 42
0.0
  1

  3
Standard
100
AcDbAlignedDimension
 13
580.0
 23
6.9999999999999964
 33
0.0
 14
580.0
 24
10.0
 34
0.0
1001
ACAD
1000
DSTYLE
1002
{
1070
144
1040
1.0
1070
40
1040
1.0
1002
}
  0
DIMENSION
  5
23C
100
AcDbEntity
  8
dims
 62
256
370
-1
 48
1.0
  6
ByLayer
100
AcDbDimension
 10
565.0
 20
48.0000000000000213
 30
0.0
 11
568.6632068179237649
 21
54.3148572473733964
 31
0.0
 70
4
 71
8
 72
2
 41
1.0
 42
0.0
  1
R<>
  3
Standard
100
AcDbRadialDimension
 15
566.7677669529663262
 25
49.7677669529663831
 35
0.0
 40
0.0
1001
ACAD
1000
DSTYLE
1002
{
1070
144
1040
1.0
1070
40
1040
1.0
1002
}
  0
ENDSEC
  0
SECTION
  2
OBJECTS
  0
DICTIONARY
  5
C
100
AcDbDictionary
280
0
281
1
  3
ACAD_GROUP
350
D
  3
ACAD_LAYOUT
350
1A
  3
ACAD_MLINESTYLE
350
17
  3
ACAD_PLOTSETTINGS
350
19
  3
ACAD_PLOTSTYLENAME
350
E
  3
AcDbVariableDictionary
350
23D
  3
QCAD_OBJECTS
350
23E
  0
DICTIONARY
  5
D
100
AcDbDictionary
280
0
281
1
  0
ACDBDICTIONARYWDFLT
  5
E
100
AcDbDictionary
281
1
  3
Normal
350
F
100
AcDbDictionaryWithDefault
340
F
  0
ACDBPLACEHOLDER
  5
F
  0
DICTIONARY
  5
17
100
AcDbDictionary
280
0
281
1
  3
Standard
350
18
  0
MLINESTYLE
  5
18
100
AcDbMlineStyle
  2
STANDARD
 70
0
  3

 62
256
 51
90.0
 52
90.0
 71
2
 49
0.5
 62
256
  6
BYLAYER
 49
-0.5
 62
256
  6
BYLAYER
  0
DICTIONARY
  5
19
100
AcDbDictionary
280
0
281
1
  0
DICTIONARY
  5
1A
100
AcDbDictionary
281
1
  3
Layout1
350
1E
  3
Layout2
350
26
  3
Model
350
22
  0
LAYOUT
  5
1E
100
AcDbPlotSettings
  1

  2
none_device
  4

  6

 40
0.0
 41
0.0
 42
0.0
 43
0.0
 44
0.0
 45
0.0
 46
0.0
 47
0.0
 48
0.0
 49
0.0
140
0.0
141
0.0
142
1.0
143
1.0
 70
688
 72
0
 73
0
 74
5
  7

 75
16
147
1.0
148
0.0
149
0.0
100
AcDbLayout
  1
Layout1
 70
1
 71
1
 10
0.0
 20
0.0
 11
420.0
 21
297.0
 12
0.0
 22
0.0
 32
0.0
 14
100000000000000000000.0
 24
100000000000000000000.0
 34
100000000000000000000.0
 15
-100000000000000000000.0
 25
-100000000000000000000.0
 35
-100000000000000000000.0
146
0.0
 13
0.0
 23
0.0
 33
0.0
 16
1.0
 26
0.0
 36
0.0
 17
0.0
 27
1.0
 37
0.0
 76
0
330
1B
  0
LAYOUT
  5
22
100
AcDbPlotSettings
  1

  2
none_device
  4

  6

 40
0.0
 41
0.0
 42
0.0
 43
0.0
 44
0.0
 45
0.0
 46
0.0
 47
0.0
 48
0.0
 49
0.0
140
0.0
141
0.0
142
1.0
143
1.0
 70
1712
 72
0
 73
0
 74
0
  7

 75
0
147
1.0
148
0.0
149
0.0
100
AcDbLayout
  1
Model
 70
1
 71
0
 10
0.0
 20
0.0
 11
12.0
 21
9.0
 12
0.0
 22
0.0
 32
0.0
 14
0.0
 24
0.0
 34
0.0
 15
0.0
 25
0.0
 35
0.0
146
0.0
 13
0.0
 23
0.0
 33
0.0
 16
1.0
 26
0.0
 36
0.0
 17
0.0
 27
1.0
 37
0.0
 76
0
330
1F
  0
LAYOUT
  5
26
100
AcDbPlotSettings
  1

  2
none_device
  4

  6

 40
0.0
 41
0.0
 42
0.0
 43
0.0
 44
0.0
 45
0.0
 46
0.0
 47
0.0
 48
0.0
 49
0.0
140
0.0
141
0.0
142
1.0
143
1.0
 70
688
 72
0
 73
0
 74
5
  7

 75
16
147
1.0
148
0.0
149
0.0
100
AcDbLayout
  1
Layout2
 70
1
 71
2
 10
0.0
 20
0.0
 11
12.0
 21
9.0
 12
0.0
 22
0.0
 32
0.0
 14
0.0
 24
0.0
 34
0.0
 15
0.0
 25
0.0
 35
0.0
146
0.0
 13
0.0
 23
0.0
 33
0.0
 16
1.0
 26
0.0
 36
0.0
 17
0.0
 27
1.0
 37
0.0
 76
0
330
23
  0
DICTIONARY
  5
23D
100
AcDbDictionary
281
1
  3
DIMASSOC
350
240
  3
HIDETEXT
350
23F
  0
DICTIONARYVAR
  5
23F
100
DictionaryVariables
280
0
  1
2
  0
DICTIONARYVAR
  5
240
100
DictionaryVariables
280
0
  1
1
  0
DICTIONARY
  5
23E
100
AcDbDictionary
281
1
  3
ColorSettings/BackgroundColor
350
241
  3
ColorSettings/ColorMode
350
242
  3
Grid/DisplayGrid00
350
243
  3
Grid/DisplayGrid01
350
244
  3
Grid/DisplayGrid02
350
245
  3
Grid/DisplayGrid03
350
246
  3
Grid/GridSpacingX00
350
247
  3
Grid/GridSpacingX01
350
248
  3
Grid/GridSpacingX02
350
249
  3
Grid/GridSpacingX03
350
24A
  3
Grid/GridSpacingY00
350
24B
  3
Grid/GridSpacingY01
350
24C
  3
Grid/GridSpacingY02
350
24D
  3
Grid/GridSpacingY03
350
24E
  3
Grid/IsometricGrid00
350
24F
  3
Grid/IsometricGrid01
350
250
  3
Grid/IsometricGrid02
350
251
  3
Grid/IsometricGrid03
350
252
  3
Grid/IsometricProjection00
350
253
  3
Grid/IsometricProjection01
350
254
  3
Grid/IsometricProjection02
350
255
  3
Grid/IsometricProjection03
350
256
  3
Grid/MetaGridSpacingX00
350
257
  3
Grid/MetaGridSpacingX01
350
258
  3
Grid/MetaGridSpacingX02
350
259
  3
Grid/MetaGridSpacingX03
350
25A
  3
Grid/MetaGridSpacingY00
350
25B
  3
Grid/MetaGridSpacingY01
350
25C
  3
Grid/MetaGridSpacingY02
350
25D
  3
Grid/MetaGridSpacingY03
350
25E
  3
MultiPageSettings/Columns
350
25F
  3
MultiPageSettings/GlueMarginsBottom
350
260
  3
MultiPageSettings/GlueMarginsLeft
350
261
  3
MultiPageSettings/GlueMarginsRight
350
262
  3
MultiPageSettings/GlueMarginsTop
350
263
  3
MultiPageSettings/PrintCropMarks
350
264
  3
MultiPageSettings/Rows
350
265
  3
PageSettings/OffsetX
350
266
  3
PageSettings/OffsetY
350
267
  3
PageSettings/PageOrientation
350
268
  3
PageSettings/PaperHeight
350
269
  3
PageSettings/PaperWidth
350
26A
  3
PageSettings/Scale
350
26B
  3
PageSettings/ShowPaperBorders
350
26C
  3
QCADVersion
350
26D
  3
UnitSettings/PaperUnit
350
26E
  3
Viewport/ViewportList.data
350
26F
  3
ViewportCenter
350
270
  3
ViewportHeight
350
271
  3
ViewportWidth
350
272
  0
XRECORD
  5
241
330
23E
100
AcDbXrecord
280
1
1000
White
  0
XRECORD
  5
242
330
23E
100
AcDbXrecord
280
1
1000
FullColor
  0
XRECORD
  5
243
330
23E
100
AcDbXrecord
280
1
290
1
  0
XRECORD
  5
244
330
23E
100
AcDbXrecord
280
1
290
1
  0
XRECORD
  5
245
330
23E
100
AcDbXrecord
280
1
290
1
  0
XRECORD
  5
246
330
23E
100
AcDbXrecord
280
1
290
1
  0
XRECORD
  5
247
330
23E
100
AcDbXrecord
280
1
1000
auto
  0
XRECORD
  5
248
330
23E
100
AcDbXrecord
280
1
1000
auto
  0
XRECORD
  5
249
330
23E
100
AcDbXrecord
280
1
1000
auto
  0
XRECORD
  5
24A
330
23E
100
AcDbXrecord
280
1
1000
auto
  0
XRECORD
  5
24B
330
23E
100
AcDbXrecord
280
1
1000
auto
  0
XRECORD
  5
24C
330
23E
100
AcDbXrecord
280
1
1000
auto
  0
XRECORD
  5
24D
330
23E
100
AcDbXrecord
280
1
1000
auto
  0
XRECORD
  5
24E
330
23E
100
AcDbXrecord
280
1
1000
auto
  0
XRECORD
  5
24F
330
23E
100
AcDbXrecord
280
1
290
0
  0
XRECORD
  5
250
330
23E
100
AcDbXrecord
280
1
290
0
  0
XRECORD
  5
251
330
23E
100
AcDbXrecord
280
1
290
0
  0
XRECORD
  5
252
330
23E
100
AcDbXrecord
280
1
290
0
  0
XRECORD
  5
253
330
23E
100
AcDbXrecord
280
1
 90
65537
  0
XRECORD
  5
254
330
23E
100
AcDbXrecord
280
1
 90
65537
  0
XRECORD
  5
255
330
23E
100
AcDbXrecord
280
1
 90
65537
  0
XRECORD
  5
256
330
23E
100
AcDbXrecord
280
1
 90
65537
  0
XRECORD
  5
257
330
23E
100
AcDbXrecord
280
1
1000
auto
  0
XRECORD
  5
258
330
23E
100
AcDbXrecord
280
1
1000
auto
  0
XRECORD
  5
259
330
23E
100
AcDbXrecord
280
1
1000
auto
  0
XRECORD
  5
25A
330
23E
100
AcDbXrecord
280
1
1000
auto
  0
XRECORD
  5
25B
330
23E
100
AcDbXrecord
280
1
1000
auto
  0
XRECORD
  5
25C
330
23E
100
AcDbXrecord
280
1
1000
auto
  0
XRECORD
  5
25D
330
23E
100
AcDbXrecord
280
1
1000
auto
  0
XRECORD
  5
25E
330
23E
100
AcDbXrecord
280
1
1000
auto
  0
XRECORD
  5
25F
330
23E
100
AcDbXrecord
280
1
 90
1
  0
XRECORD
  5
260
330
23E
100
AcDbXrecord
280
1
 40
10.0
  0
XRECORD
  5
261
330
23E
100
AcDbXrecord
280
1
 40
10.0
  0
XRECORD
  5
262
330
23E
100
AcDbXrecord
280
1
 40
10.0
  0
XRECORD
  5
263
330
23E
100
AcDbXrecord
280
1
 40
10.0
  0
XRECORD
  5
264
330
23E
100
AcDbXrecord
280
1
290
0
  0
XRECORD
  5
265
330
23E
100
AcDbXrecord
280
1
 90
1
  0
XRECORD
  5
266
330
23E
100
AcDbXrecord
280
1
 40
115.1554054054054177
  0
XRECORD
  5
267
330
23E
100
AcDbXrecord
280
1
 40
-92.5523637797084149
  0
XRECORD
  5
268
330
23E
100
AcDbXrecord
280
1
1000
Landscape
  0
XRECORD
  5
269
330
23E
100
AcDbXrecord
280
1
 40
297.0
  0
XRECORD
  5
26A
330
23E
100
AcDbXrecord
280
1
 40
210.0
  0
XRECORD
  5
26B
330
23E
100
AcDbXrecord
280
1
1000
0.592
  0
XRECORD
  5
26C
330
23E
100
AcDbXrecord
280
1
290
1
  0
XRECORD
  5
26D
330
23E
100
AcDbXrecord
280
1
1000
3.18.1
  0
XRECORD
  5
26E
330
23E
100
AcDbXrecord
280
1
 90
4
  0
XRECORD
  5
26F
330
23E
100
AcDbXrecord
280
1
1000
00_Single.ui
  0
XRECORD
  5
271
330
23E
100
AcDbXrecord
280
1
 40
364.6800727796519936
  0
XRECORD
  5
272
330
23E
100
AcDbXrecord
280
1
 40
740.3055229142184999
  0
ENDSEC
  0
EOF
